G04*
G04 #@! TF.GenerationSoftware,Altium Limited,Altium Designer,24.1.2 (44)*
G04*
G04 Layer_Color=16711935*
%FSLAX44Y44*%
%MOMM*%
G71*
G04*
G04 #@! TF.SameCoordinates,9E3D1DA3-FC52-4BB6-AAC9-55B28770B0AD*
G04*
G04*
G04 #@! TF.FilePolarity,Negative*
G04*
G01*
G75*
%ADD78C,1.7272*%
%ADD87C,1.8032*%
G04:AMPARAMS|DCode=88|XSize=1.8032mm|YSize=1.8032mm|CornerRadius=0.5016mm|HoleSize=0mm|Usage=FLASHONLY|Rotation=90.000|XOffset=0mm|YOffset=0mm|HoleType=Round|Shape=RoundedRectangle|*
%AMROUNDEDRECTD88*
21,1,1.8032,0.8000,0,0,90.0*
21,1,0.8000,1.8032,0,0,90.0*
1,1,1.0032,0.4000,0.4000*
1,1,1.0032,0.4000,-0.4000*
1,1,1.0032,-0.4000,-0.4000*
1,1,1.0032,-0.4000,0.4000*
%
%ADD88ROUNDEDRECTD88*%
%ADD89R,1.7272X1.7272*%
%ADD90C,1.7532*%
%ADD91R,1.7532X1.7532*%
%ADD92C,2.7432*%
%ADD93C,4.2032*%
%ADD94R,1.7032X1.7032*%
%ADD95C,1.7032*%
%ADD96R,2.4500X2.4500*%
%ADD97C,2.4500*%
%ADD98R,1.8542X1.8542*%
%ADD99C,1.8542*%
%ADD100R,1.7532X1.7532*%
%ADD101C,1.6256*%
%ADD102C,4.5466*%
%ADD103R,1.6256X1.6256*%
%ADD104C,1.8532*%
%ADD105C,5.0032*%
G04:AMPARAMS|DCode=106|XSize=1.8532mm|YSize=1.8532mm|CornerRadius=0.5141mm|HoleSize=0mm|Usage=FLASHONLY|Rotation=180.000|XOffset=0mm|YOffset=0mm|HoleType=Round|Shape=RoundedRectangle|*
%AMROUNDEDRECTD106*
21,1,1.8532,0.8250,0,0,180.0*
21,1,0.8250,1.8532,0,0,180.0*
1,1,1.0282,-0.4125,0.4125*
1,1,1.0282,0.4125,0.4125*
1,1,1.0282,0.4125,-0.4125*
1,1,1.0282,-0.4125,-0.4125*
%
%ADD106ROUNDEDRECTD106*%
%ADD107R,1.6032X1.6032*%
%ADD108C,1.6032*%
%ADD109C,1.7400*%
%ADD110R,1.7400X1.7400*%
%ADD111C,0.7112*%
%ADD141R,3.3532X4.9832*%
D78*
X102870Y236636D02*
D03*
X747776Y1527048D02*
D03*
X722376D02*
D03*
X696214Y1527302D02*
D03*
X670814D02*
D03*
X246634Y1525778D02*
D03*
X221234D02*
D03*
X196088Y1526032D02*
D03*
X170688D02*
D03*
X939528Y548878D02*
D03*
X887984Y534162D02*
D03*
X1061212Y551434D02*
D03*
X916940Y581914D02*
D03*
X963897Y668307D02*
D03*
X1131824Y907796D02*
D03*
X1125474Y1125728D02*
D03*
D87*
X392938Y1325626D02*
D03*
Y1300226D02*
D03*
Y1351026D02*
D03*
Y1376426D02*
D03*
X578357Y267208D02*
D03*
Y241808D02*
D03*
Y216408D02*
D03*
X842264Y1174496D02*
D03*
Y1250696D02*
D03*
Y1301496D02*
D03*
Y1352296D02*
D03*
Y1326896D02*
D03*
Y1276096D02*
D03*
Y1225296D02*
D03*
Y1199896D02*
D03*
Y1149096D02*
D03*
Y1123696D02*
D03*
Y1098296D02*
D03*
X800862Y1502664D02*
D03*
Y1528064D02*
D03*
Y1477264D02*
D03*
Y1451864D02*
D03*
X236220Y1379220D02*
D03*
Y1353820D02*
D03*
Y1303020D02*
D03*
Y1328420D02*
D03*
X641096Y206755D02*
D03*
Y232155D02*
D03*
Y257555D02*
D03*
X854710Y1451864D02*
D03*
Y1477264D02*
D03*
Y1528064D02*
D03*
Y1502664D02*
D03*
X86868Y1383538D02*
D03*
Y1358138D02*
D03*
Y1307338D02*
D03*
Y1281938D02*
D03*
Y1332738D02*
D03*
D88*
X392938Y1274826D02*
D03*
X578357Y292608D02*
D03*
X842264Y1377696D02*
D03*
X800862Y1553464D02*
D03*
X236220Y1277620D02*
D03*
X641096Y181355D02*
D03*
X854710Y1553464D02*
D03*
X86868Y1256538D02*
D03*
D89*
X102870Y56642D02*
D03*
D90*
X792988Y402082D02*
D03*
X767588D02*
D03*
X742188D02*
D03*
X716788D02*
D03*
X691388D02*
D03*
X665988D02*
D03*
X742858Y946912D02*
D03*
X717458D02*
D03*
X692058D02*
D03*
X666658D02*
D03*
X641258D02*
D03*
X988568Y921512D02*
D03*
X963168D02*
D03*
Y896112D02*
D03*
X988568D02*
D03*
X937768D02*
D03*
Y921512D02*
D03*
X912368Y896112D02*
D03*
Y921512D02*
D03*
X886968Y896112D02*
D03*
Y921512D02*
D03*
X861568D02*
D03*
X1090168Y896112D02*
D03*
Y921512D02*
D03*
X1064768Y896112D02*
D03*
Y921512D02*
D03*
X1039368Y896112D02*
D03*
Y921512D02*
D03*
X1013968D02*
D03*
Y896112D02*
D03*
D91*
X640588Y402082D02*
D03*
X768258Y946912D02*
D03*
D92*
X1129136Y1030850D02*
D03*
X1087136D02*
D03*
X1045136D02*
D03*
X1003136D02*
D03*
X961136D02*
D03*
X1128776Y1085850D02*
D03*
X1086866D02*
D03*
X1044956D02*
D03*
X1003046D02*
D03*
X961136D02*
D03*
D93*
X1129136Y1158849D02*
D03*
X961136D02*
D03*
D94*
X890986Y706780D02*
D03*
D95*
X916386D02*
D03*
X941786D02*
D03*
D96*
X785114Y44186D02*
D03*
D97*
Y91186D02*
D03*
Y138186D02*
D03*
D98*
X902970Y220980D02*
D03*
D99*
Y195580D02*
D03*
Y119380D02*
D03*
Y68580D02*
D03*
Y93980D02*
D03*
Y144780D02*
D03*
Y43180D02*
D03*
Y170180D02*
D03*
X1131570Y43180D02*
D03*
Y144780D02*
D03*
Y93980D02*
D03*
Y119380D02*
D03*
Y220980D02*
D03*
Y170180D02*
D03*
Y195580D02*
D03*
Y68580D02*
D03*
D100*
X861568Y896112D02*
D03*
D101*
X53340Y736092D02*
D03*
Y710692D02*
D03*
Y659892D02*
D03*
Y761492D02*
D03*
Y685292D02*
D03*
Y634492D02*
D03*
Y609092D02*
D03*
Y863092D02*
D03*
Y888492D02*
D03*
Y1040892D02*
D03*
Y1015492D02*
D03*
Y964692D02*
D03*
Y939292D02*
D03*
Y913892D02*
D03*
Y583692D02*
D03*
Y837692D02*
D03*
Y990092D02*
D03*
Y1066292D02*
D03*
Y786892D02*
D03*
Y812292D02*
D03*
Y558292D02*
D03*
Y1091692D02*
D03*
X78740Y710692D02*
D03*
Y685292D02*
D03*
Y659892D02*
D03*
Y736092D02*
D03*
Y837692D02*
D03*
Y609092D02*
D03*
Y634492D02*
D03*
Y863092D02*
D03*
Y888492D02*
D03*
Y1066292D02*
D03*
Y1040892D02*
D03*
Y1015492D02*
D03*
Y990092D02*
D03*
Y964692D02*
D03*
Y939292D02*
D03*
Y913892D02*
D03*
Y583692D02*
D03*
Y761492D02*
D03*
Y812292D02*
D03*
Y786892D02*
D03*
Y558292D02*
D03*
Y1091692D02*
D03*
X142240Y926592D02*
D03*
X224790Y374142D02*
D03*
X78740Y532892D02*
D03*
X561340D02*
D03*
X535940Y736092D02*
D03*
X561340Y710692D02*
D03*
X535940D02*
D03*
Y659892D02*
D03*
X561340Y685292D02*
D03*
Y659892D02*
D03*
X535940Y761492D02*
D03*
Y685292D02*
D03*
X561340Y736092D02*
D03*
Y837692D02*
D03*
X535940Y634492D02*
D03*
Y609092D02*
D03*
X561340D02*
D03*
Y634492D02*
D03*
Y863092D02*
D03*
X535940D02*
D03*
Y888492D02*
D03*
X561340D02*
D03*
X535940Y1091692D02*
D03*
X561340Y1066292D02*
D03*
X535940Y1040892D02*
D03*
X561340D02*
D03*
X535940Y1015492D02*
D03*
X561340D02*
D03*
Y990092D02*
D03*
Y964692D02*
D03*
Y939292D02*
D03*
X535940Y964692D02*
D03*
Y939292D02*
D03*
Y913892D02*
D03*
X561340D02*
D03*
X535940Y583692D02*
D03*
X561340D02*
D03*
Y761492D02*
D03*
X535940Y837692D02*
D03*
X561340Y812292D02*
D03*
X535940Y990092D02*
D03*
X561340Y1091692D02*
D03*
X535940Y1066292D02*
D03*
Y786892D02*
D03*
Y812292D02*
D03*
X561340Y786892D02*
D03*
X535940Y558292D02*
D03*
X561340D02*
D03*
X110490Y812292D02*
D03*
Y888492D02*
D03*
Y786892D02*
D03*
Y863092D02*
D03*
Y837692D02*
D03*
X140970Y483362D02*
D03*
X115570D02*
D03*
X140970Y508762D02*
D03*
X115570D02*
D03*
D102*
X66040Y482092D02*
D03*
X97790Y1142492D02*
D03*
X548640Y482092D02*
D03*
X516890Y1142492D02*
D03*
D103*
X53340Y532892D02*
D03*
X535940D02*
D03*
X110490Y761492D02*
D03*
D104*
X541594Y1496544D02*
D03*
X513894D02*
D03*
X486194D02*
D03*
X458494D02*
D03*
X430794D02*
D03*
X403094D02*
D03*
X375394D02*
D03*
X555444Y1468144D02*
D03*
X527744D02*
D03*
X500044D02*
D03*
X472344D02*
D03*
X389244D02*
D03*
X444644D02*
D03*
X416944D02*
D03*
D105*
X291894Y1482344D02*
D03*
X625094D02*
D03*
D106*
X361544Y1468144D02*
D03*
D107*
X1090168Y575818D02*
D03*
X982364Y571754D02*
D03*
D108*
X1140168Y575818D02*
D03*
X1032364Y571754D02*
D03*
D109*
X504698Y36322D02*
D03*
X530098D02*
D03*
X555498D02*
D03*
X580898D02*
D03*
X606298D02*
D03*
X631698D02*
D03*
X504698Y61722D02*
D03*
X530098D02*
D03*
X555498D02*
D03*
X580898D02*
D03*
X606298D02*
D03*
D110*
X631698D02*
D03*
D111*
X495554Y1044448D02*
D03*
X884090Y1534414D02*
D03*
X897128Y1539494D02*
D03*
X703326Y1573784D02*
D03*
X179324Y1398778D02*
D03*
X535432Y1376172D02*
D03*
X541528Y1365928D02*
D03*
X734060Y1236218D02*
D03*
X740664Y1258653D02*
D03*
X731266Y1308100D02*
D03*
X616458Y1075436D02*
D03*
X572262Y1129284D02*
D03*
X265377Y1085035D02*
D03*
X212734Y965454D02*
D03*
X249174Y962152D02*
D03*
X242824Y1011606D02*
D03*
X487934Y1036066D02*
D03*
X898144Y887222D02*
D03*
X940054Y820166D02*
D03*
X452628Y749300D02*
D03*
X446278Y759206D02*
D03*
X334518Y820166D02*
D03*
X264231Y744291D02*
D03*
X455422Y712978D02*
D03*
X367538Y720932D02*
D03*
X327914Y731774D02*
D03*
X253238Y712724D02*
D03*
X300192Y719074D02*
D03*
X344932Y699432D02*
D03*
X285053Y599375D02*
D03*
X583692Y676148D02*
D03*
X691642Y322326D02*
D03*
X508000Y432308D02*
D03*
X516264Y607230D02*
D03*
X522614Y467784D02*
D03*
X1118024Y126154D02*
D03*
X432562Y598678D02*
D03*
X491998Y771144D02*
D03*
X436062Y985464D02*
D03*
X474608Y1047106D02*
D03*
X454034Y1062144D02*
D03*
X468258Y1055794D02*
D03*
X486156Y936922D02*
D03*
X492506Y1011174D02*
D03*
X701430Y803910D02*
D03*
X673998Y821860D02*
D03*
X644280Y819574D02*
D03*
X705404Y842180D02*
D03*
X320548Y673100D02*
D03*
X343408Y973328D02*
D03*
X865632Y1160442D02*
D03*
X1025652Y877316D02*
D03*
X901700Y941070D02*
D03*
X875792Y1543774D02*
D03*
X785876Y1362202D02*
D03*
X696976Y1328674D02*
D03*
X732536Y1295400D02*
D03*
X730969Y1285283D02*
D03*
X740410Y1205992D02*
D03*
X718448Y1238674D02*
D03*
X730504Y1187704D02*
D03*
X736092Y1196594D02*
D03*
X734568Y1146810D02*
D03*
X592718Y1113282D02*
D03*
X588518Y1196086D02*
D03*
X651848Y1230800D02*
D03*
X672592Y1225804D02*
D03*
X657488Y1256454D02*
D03*
X589026Y1280922D02*
D03*
X577224Y1263566D02*
D03*
X651417Y1344821D02*
D03*
X633242Y1387582D02*
D03*
X637540Y1357884D02*
D03*
X582422Y1382776D02*
D03*
X382874Y1091100D02*
D03*
X401542Y1075436D02*
D03*
X376174Y1081786D02*
D03*
X361696Y1124712D02*
D03*
X331978Y1120140D02*
D03*
X347714Y1095926D02*
D03*
X292512Y1091534D02*
D03*
X282330Y1078230D02*
D03*
X289052Y1045972D02*
D03*
X283210Y1050798D02*
D03*
X272127Y1045914D02*
D03*
X373380Y1043114D02*
D03*
X377162Y1020234D02*
D03*
X358394Y1011936D02*
D03*
X342138Y1018032D02*
D03*
X261112Y555498D02*
D03*
X286512Y549060D02*
D03*
X275590Y561848D02*
D03*
X318008Y542544D02*
D03*
X344678Y580898D02*
D03*
X353915Y585259D02*
D03*
X367792Y594360D02*
D03*
X359918Y626618D02*
D03*
X385064Y602488D02*
D03*
X409194Y618490D02*
D03*
X318906Y599440D02*
D03*
X371992Y660316D02*
D03*
X382559Y712502D02*
D03*
X374650Y699848D02*
D03*
X354838Y718820D02*
D03*
X359664Y704850D02*
D03*
X301244Y752602D02*
D03*
X848004Y713130D02*
D03*
X549637Y571734D02*
D03*
X43970Y547624D02*
D03*
X526419Y1171834D02*
D03*
X103378Y680212D02*
D03*
X40132Y673608D02*
D03*
X94488Y759968D02*
D03*
X68326Y876046D02*
D03*
X198628Y1558798D02*
D03*
X518414Y1245616D02*
D03*
X528828Y1275334D02*
D03*
X541782Y1278636D02*
D03*
X360528Y574684D02*
D03*
X381644Y632376D02*
D03*
X322970Y626788D02*
D03*
X301634Y653458D02*
D03*
X234070Y684192D02*
D03*
X352874Y1174666D02*
D03*
X341698Y1081448D02*
D03*
X198002Y811446D02*
D03*
X349894Y960036D02*
D03*
X1049410Y321226D02*
D03*
X268815Y766181D02*
D03*
X116468Y1328538D02*
D03*
X232292Y932411D02*
D03*
X299212Y1369366D02*
D03*
X111500Y102144D02*
D03*
X200034Y946320D02*
D03*
X267598Y1006772D02*
D03*
X714384Y717720D02*
D03*
X779916Y969346D02*
D03*
X709812Y773600D02*
D03*
X591956Y855896D02*
D03*
X376310Y885360D02*
D03*
X135264Y768520D02*
D03*
X81704Y449496D02*
D03*
X597283Y1516550D02*
D03*
X812682Y1464480D02*
D03*
X421014Y1417744D02*
D03*
X584756Y1315584D02*
D03*
X830716Y976038D02*
D03*
X901328Y1019472D02*
D03*
X738514Y1092878D02*
D03*
X507873Y1103122D02*
D03*
X94911Y1506357D02*
D03*
X824112Y1059604D02*
D03*
X149996Y853610D02*
D03*
X710320Y875708D02*
D03*
X474608Y1001753D02*
D03*
Y1024806D02*
D03*
X157108Y1018456D02*
D03*
X510422Y1018626D02*
D03*
X785297Y1067868D02*
D03*
X893708Y493946D02*
D03*
X787028Y875200D02*
D03*
X471052Y1232070D02*
D03*
X430920Y1088814D02*
D03*
X434984Y1120818D02*
D03*
X519312Y1075860D02*
D03*
X172348Y799000D02*
D03*
Y932096D02*
D03*
X609990Y1056556D02*
D03*
X505850Y858436D02*
D03*
X365508Y983644D02*
D03*
X122818Y962152D02*
D03*
X572906Y596308D02*
D03*
X588146Y425112D02*
D03*
X498484Y664126D02*
D03*
X416523Y1217084D02*
D03*
X435429Y1020488D02*
D03*
X505850Y678435D02*
D03*
X701938Y1094656D02*
D03*
X862330Y414020D02*
D03*
X335924Y663237D02*
D03*
X437270Y674286D02*
D03*
X462416Y414698D02*
D03*
X497976Y824908D02*
D03*
X447684Y1146472D02*
D03*
X433916Y1284648D02*
D03*
X595258Y953178D02*
D03*
X461908Y999406D02*
D03*
X464448Y1194986D02*
D03*
X224136Y775350D02*
D03*
X345322Y896536D02*
D03*
X419236Y1288458D02*
D03*
X365980Y1254676D02*
D03*
X440826Y203878D02*
D03*
X315858Y949876D02*
D03*
X103514Y188384D02*
D03*
X268360Y105580D02*
D03*
X478146Y249344D02*
D03*
X775598Y1294554D02*
D03*
Y1231054D02*
D03*
X731656Y1326896D02*
D03*
X428380Y1225720D02*
D03*
X355228Y1210734D02*
D03*
X129168Y932858D02*
D03*
X248040Y1119040D02*
D03*
X144662Y664888D02*
D03*
X110118Y943526D02*
D03*
X259564Y1025822D02*
D03*
X322462Y1011852D02*
D03*
X395214Y645076D02*
D03*
X610498Y489628D02*
D03*
X396680Y923308D02*
D03*
X203404Y1590464D02*
D03*
X935618Y848276D02*
D03*
X643010Y861230D02*
D03*
X504072Y1038522D02*
D03*
X191652Y1049190D02*
D03*
X509914Y659300D02*
D03*
X710456Y285530D02*
D03*
X75066Y1294554D02*
D03*
X153162Y1319700D02*
D03*
X511438Y1210734D02*
D03*
X639708Y1101006D02*
D03*
X897264Y466768D02*
D03*
X345830Y1159172D02*
D03*
X434730Y1144186D02*
D03*
X429078Y999914D02*
D03*
X433968Y212768D02*
D03*
X625992Y685208D02*
D03*
X619134Y371010D02*
D03*
X92084Y523664D02*
D03*
X221370Y749978D02*
D03*
X879484Y735246D02*
D03*
X447176Y1036744D02*
D03*
X132724Y718736D02*
D03*
X348345Y989994D02*
D03*
X628278Y875708D02*
D03*
X217052Y895774D02*
D03*
X163458Y1027600D02*
D03*
X210702Y837692D02*
D03*
X180222Y673016D02*
D03*
X299856Y626026D02*
D03*
X493658Y547286D02*
D03*
X415494Y710100D02*
D03*
X420506Y779272D02*
D03*
X652916Y696892D02*
D03*
X478418Y696130D02*
D03*
X820810Y830750D02*
D03*
X211210Y780966D02*
D03*
X250580Y649648D02*
D03*
X340360Y784522D02*
D03*
X240420Y736516D02*
D03*
X350148Y766488D02*
D03*
X371856Y760138D02*
D03*
X481437Y533541D02*
D03*
X980576Y1022012D02*
D03*
X430794Y1580304D02*
D03*
X420252Y1263566D02*
D03*
X345922Y1126914D02*
D03*
X937142Y1141646D02*
D03*
X595766Y1587416D02*
D03*
X477148Y1319700D02*
D03*
X352874Y1083226D02*
D03*
X193430Y1364150D02*
D03*
X310066Y602150D02*
D03*
X487562Y297604D02*
D03*
X128914Y1028108D02*
D03*
X1039368Y846108D02*
D03*
X817542Y1098974D02*
D03*
X477402Y1250104D02*
D03*
X801252Y706780D02*
D03*
X628532Y1174666D02*
D03*
X583574Y1176444D02*
D03*
X293506Y624722D02*
D03*
X753500Y1252303D02*
D03*
X472344Y1420516D02*
D03*
X600338Y1322494D02*
D03*
X411108Y1408600D02*
D03*
X676538Y1156378D02*
D03*
X333130Y1325034D02*
D03*
X320684Y1368976D02*
D03*
X131318Y1287696D02*
D03*
D141*
X421900Y133858D02*
D03*
X111500D02*
D03*
M02*
