G04*
G04 #@! TF.GenerationSoftware,Altium Limited,Altium Designer,24.1.2 (44)*
G04*
G04 Layer_Color=2752767*
%FSLAX44Y44*%
%MOMM*%
G71*
G04*
G04 #@! TF.SameCoordinates,9E3D1DA3-FC52-4BB6-AAC9-55B28770B0AD*
G04*
G04*
G04 #@! TF.FilePolarity,Positive*
G04*
G01*
G75*
%ADD15C,0.1270*%
%ADD145C,0.1693*%
%ADD146C,0.1016*%
D15*
X392938Y1320546D02*
X395478Y1323086D01*
X398018D01*
X395478Y1325626D01*
X398018Y1328166D01*
X395478D01*
X392938Y1330706D01*
X390398Y1328166D01*
X387858D01*
X390398Y1325626D01*
X387858Y1323086D01*
X390398D01*
X392938Y1320546D01*
Y1269746D02*
X395478Y1272286D01*
X398018D01*
X395478Y1274826D01*
X398018Y1277366D01*
X395478D01*
X392938Y1279906D01*
X390398Y1277366D01*
X387858D01*
X390398Y1274826D01*
X387858Y1272286D01*
X390398D01*
X392938Y1269746D01*
Y1295146D02*
X395478Y1297686D01*
X398018D01*
X395478Y1300226D01*
X398018Y1302766D01*
X395478D01*
X392938Y1305306D01*
X390398Y1302766D01*
X387858D01*
X390398Y1300226D01*
X387858Y1297686D01*
X390398D01*
X392938Y1295146D01*
Y1345946D02*
X395478Y1348486D01*
X398018D01*
X395478Y1351026D01*
X398018Y1353566D01*
X395478D01*
X392938Y1356106D01*
X390398Y1353566D01*
X387858D01*
X390398Y1351026D01*
X387858Y1348486D01*
X390398D01*
X392938Y1345946D01*
Y1371346D02*
X395478Y1373886D01*
X398018D01*
X395478Y1376426D01*
X398018Y1378966D01*
X395478D01*
X392938Y1381506D01*
X390398Y1378966D01*
X387858D01*
X390398Y1376426D01*
X387858Y1373886D01*
X390398D01*
X392938Y1371346D01*
X102870Y51562D02*
X97790Y61722D01*
X107950D01*
X102870Y51562D01*
Y231556D02*
X97790Y241716D01*
X107950D01*
X102870Y231556D01*
X787908Y397002D02*
X790448Y402082D01*
X787908Y407162D01*
X792988Y404622D01*
X798068Y407162D01*
X795528Y402082D01*
X798068Y397002D01*
X792988Y399542D01*
X787908Y397002D01*
X789940Y399034D02*
X791464Y402082D01*
X789940Y405130D01*
X792988Y403606D01*
X796036Y405130D01*
X794512Y402082D01*
X796036Y399034D01*
X792988Y400558D01*
X789940Y399034D01*
X762508Y397002D02*
X765048Y402082D01*
X762508Y407162D01*
X767588Y404622D01*
X772668Y407162D01*
X770128Y402082D01*
X772668Y397002D01*
X767588Y399542D01*
X762508Y397002D01*
X764540Y399034D02*
X766064Y402082D01*
X764540Y405130D01*
X767588Y403606D01*
X770636Y405130D01*
X769112Y402082D01*
X770636Y399034D01*
X767588Y400558D01*
X764540Y399034D01*
X737108Y397002D02*
X739648Y402082D01*
X737108Y407162D01*
X742188Y404622D01*
X747268Y407162D01*
X744728Y402082D01*
X747268Y397002D01*
X742188Y399542D01*
X737108Y397002D01*
X739140Y399034D02*
X740664Y402082D01*
X739140Y405130D01*
X742188Y403606D01*
X745236Y405130D01*
X743712Y402082D01*
X745236Y399034D01*
X742188Y400558D01*
X739140Y399034D01*
X711708Y397002D02*
X714248Y402082D01*
X711708Y407162D01*
X716788Y404622D01*
X721868Y407162D01*
X719328Y402082D01*
X721868Y397002D01*
X716788Y399542D01*
X711708Y397002D01*
X713740Y399034D02*
X715264Y402082D01*
X713740Y405130D01*
X716788Y403606D01*
X719836Y405130D01*
X718312Y402082D01*
X719836Y399034D01*
X716788Y400558D01*
X713740Y399034D01*
X686308Y397002D02*
X688848Y402082D01*
X686308Y407162D01*
X691388Y404622D01*
X696468Y407162D01*
X693928Y402082D01*
X696468Y397002D01*
X691388Y399542D01*
X686308Y397002D01*
X688340Y399034D02*
X689864Y402082D01*
X688340Y405130D01*
X691388Y403606D01*
X694436Y405130D01*
X692912Y402082D01*
X694436Y399034D01*
X691388Y400558D01*
X688340Y399034D01*
X660908Y397002D02*
X663448Y402082D01*
X660908Y407162D01*
X665988Y404622D01*
X671068Y407162D01*
X668528Y402082D01*
X671068Y397002D01*
X665988Y399542D01*
X660908Y397002D01*
X662940Y399034D02*
X664464Y402082D01*
X662940Y405130D01*
X665988Y403606D01*
X669036Y405130D01*
X667512Y402082D01*
X669036Y399034D01*
X665988Y400558D01*
X662940Y399034D01*
X635508Y397002D02*
X638048Y402082D01*
X635508Y407162D01*
X640588Y404622D01*
X645668Y407162D01*
X643128Y402082D01*
X645668Y397002D01*
X640588Y399542D01*
X635508Y397002D01*
X637540Y399034D02*
X639064Y402082D01*
X637540Y405130D01*
X640588Y403606D01*
X643636Y405130D01*
X642112Y402082D01*
X643636Y399034D01*
X640588Y400558D01*
X637540Y399034D01*
X763178Y941832D02*
X765718Y946912D01*
X763178Y951992D01*
X768258Y949452D01*
X773338Y951992D01*
X770798Y946912D01*
X773338Y941832D01*
X768258Y944372D01*
X763178Y941832D01*
X765210Y943864D02*
X766734Y946912D01*
X765210Y949960D01*
X768258Y948436D01*
X771306Y949960D01*
X769782Y946912D01*
X771306Y943864D01*
X768258Y945388D01*
X765210Y943864D01*
X737778Y941832D02*
X740318Y946912D01*
X737778Y951992D01*
X742858Y949452D01*
X747938Y951992D01*
X745398Y946912D01*
X747938Y941832D01*
X742858Y944372D01*
X737778Y941832D01*
X739810Y943864D02*
X741334Y946912D01*
X739810Y949960D01*
X742858Y948436D01*
X745906Y949960D01*
X744382Y946912D01*
X745906Y943864D01*
X742858Y945388D01*
X739810Y943864D01*
X712378Y941832D02*
X714918Y946912D01*
X712378Y951992D01*
X717458Y949452D01*
X722538Y951992D01*
X719998Y946912D01*
X722538Y941832D01*
X717458Y944372D01*
X712378Y941832D01*
X714410Y943864D02*
X715934Y946912D01*
X714410Y949960D01*
X717458Y948436D01*
X720506Y949960D01*
X718982Y946912D01*
X720506Y943864D01*
X717458Y945388D01*
X714410Y943864D01*
X686978Y941832D02*
X689518Y946912D01*
X686978Y951992D01*
X692058Y949452D01*
X697138Y951992D01*
X694598Y946912D01*
X697138Y941832D01*
X692058Y944372D01*
X686978Y941832D01*
X689010Y943864D02*
X690534Y946912D01*
X689010Y949960D01*
X692058Y948436D01*
X695106Y949960D01*
X693582Y946912D01*
X695106Y943864D01*
X692058Y945388D01*
X689010Y943864D01*
X661578Y941832D02*
X664118Y946912D01*
X661578Y951992D01*
X666658Y949452D01*
X671738Y951992D01*
X669198Y946912D01*
X671738Y941832D01*
X666658Y944372D01*
X661578Y941832D01*
X663610Y943864D02*
X665134Y946912D01*
X663610Y949960D01*
X666658Y948436D01*
X669706Y949960D01*
X668182Y946912D01*
X669706Y943864D01*
X666658Y945388D01*
X663610Y943864D01*
X636178Y941832D02*
X638718Y946912D01*
X636178Y951992D01*
X641258Y949452D01*
X646338Y951992D01*
X643798Y946912D01*
X646338Y941832D01*
X641258Y944372D01*
X636178Y941832D01*
X638210Y943864D02*
X639734Y946912D01*
X638210Y949960D01*
X641258Y948436D01*
X644306Y949960D01*
X642782Y946912D01*
X644306Y943864D01*
X641258Y945388D01*
X638210Y943864D01*
X1124055Y1025770D02*
Y1035930D01*
X1134215D01*
Y1025770D01*
X1124055D01*
X1082056D02*
Y1035930D01*
X1092216D01*
Y1025770D01*
X1082056D01*
X1040056D02*
Y1035930D01*
X1050216D01*
Y1025770D01*
X1040056D01*
X998056D02*
Y1035930D01*
X1008216D01*
Y1025770D01*
X998056D01*
X956056D02*
Y1035930D01*
X966216D01*
Y1025770D01*
X956056D01*
X1123696Y1080770D02*
Y1090930D01*
X1133856D01*
Y1080770D01*
X1123696D01*
X1081786D02*
Y1090930D01*
X1091946D01*
Y1080770D01*
X1081786D01*
X1039876D02*
Y1090930D01*
X1050036D01*
Y1080770D01*
X1039876D01*
X997966D02*
Y1090930D01*
X1008126D01*
Y1080770D01*
X997966D01*
X956056D02*
Y1090930D01*
X966216D01*
Y1080770D01*
X956056D01*
X885906Y701700D02*
X888446Y706780D01*
X885906Y711860D01*
X890986Y709320D01*
X896066Y711860D01*
X893526Y706780D01*
X896066Y701700D01*
X890986Y704240D01*
X885906Y701700D01*
X911306D02*
X913846Y706780D01*
X911306Y711860D01*
X916386Y709320D01*
X921466Y711860D01*
X918926Y706780D01*
X921466Y701700D01*
X916386Y704240D01*
X911306Y701700D01*
X936706D02*
X939246Y706780D01*
X936706Y711860D01*
X941786Y709320D01*
X946866Y711860D01*
X944326Y706780D01*
X946866Y701700D01*
X941786Y704240D01*
X936706Y701700D01*
X578357Y262128D02*
X580897Y264668D01*
X583437D01*
X580897Y267208D01*
X583437Y269748D01*
X580897D01*
X578357Y272288D01*
X575817Y269748D01*
X573277D01*
X575817Y267208D01*
X573277Y264668D01*
X575817D01*
X578357Y262128D01*
Y287528D02*
X580897Y290068D01*
X583437D01*
X580897Y292608D01*
X583437Y295148D01*
X580897D01*
X578357Y297688D01*
X575817Y295148D01*
X573277D01*
X575817Y292608D01*
X573277Y290068D01*
X575817D01*
X578357Y287528D01*
Y236728D02*
X580897Y239268D01*
X583437D01*
X580897Y241808D01*
X583437Y244348D01*
X580897D01*
X578357Y246888D01*
X575817Y244348D01*
X573277D01*
X575817Y241808D01*
X573277Y239268D01*
X575817D01*
X578357Y236728D01*
Y211328D02*
X580897Y213868D01*
X583437D01*
X580897Y216408D01*
X583437Y218948D01*
X580897D01*
X578357Y221488D01*
X575817Y218948D01*
X573277D01*
X575817Y216408D01*
X573277Y213868D01*
X575817D01*
X578357Y211328D01*
X793578Y54766D02*
X791462Y56882D01*
X787230D01*
X785114Y54766D01*
Y46302D01*
X787230Y44186D01*
X791462D01*
X793578Y46302D01*
Y101766D02*
X791462Y103882D01*
X787230D01*
X785114Y101766D01*
Y93302D01*
X787230Y91186D01*
X791462D01*
X793578Y93302D01*
Y148766D02*
X791462Y150882D01*
X787230D01*
X785114Y148766D01*
Y140302D01*
X787230Y138186D01*
X791462D01*
X793578Y140302D01*
X902970Y215900D02*
X897890Y226060D01*
X908050D01*
X902970Y215900D01*
Y190500D02*
X897890Y200660D01*
X908050D01*
X902970Y190500D01*
Y114300D02*
X897890Y124460D01*
X908050D01*
X902970Y114300D01*
Y63500D02*
X897890Y73660D01*
X908050D01*
X902970Y63500D01*
Y88900D02*
X897890Y99060D01*
X908050D01*
X902970Y88900D01*
Y139700D02*
X897890Y149860D01*
X908050D01*
X902970Y139700D01*
Y38100D02*
X897890Y48260D01*
X908050D01*
X902970Y38100D01*
Y165100D02*
X897890Y175260D01*
X908050D01*
X902970Y165100D01*
X1131570Y38100D02*
X1126490Y48260D01*
X1136650D01*
X1131570Y38100D01*
Y139700D02*
X1126490Y149860D01*
X1136650D01*
X1131570Y139700D01*
Y88900D02*
X1126490Y99060D01*
X1136650D01*
X1131570Y88900D01*
Y114300D02*
X1126490Y124460D01*
X1136650D01*
X1131570Y114300D01*
Y215900D02*
X1126490Y226060D01*
X1136650D01*
X1131570Y215900D01*
Y165100D02*
X1126490Y175260D01*
X1136650D01*
X1131570Y165100D01*
Y190500D02*
X1126490Y200660D01*
X1136650D01*
X1131570Y190500D01*
Y63500D02*
X1126490Y73660D01*
X1136650D01*
X1131570Y63500D01*
X842264Y1169416D02*
X844804Y1171956D01*
X847344D01*
X844804Y1174496D01*
X847344Y1177036D01*
X844804D01*
X842264Y1179576D01*
X839724Y1177036D01*
X837184D01*
X839724Y1174496D01*
X837184Y1171956D01*
X839724D01*
X842264Y1169416D01*
Y1245616D02*
X844804Y1248156D01*
X847344D01*
X844804Y1250696D01*
X847344Y1253236D01*
X844804D01*
X842264Y1255776D01*
X839724Y1253236D01*
X837184D01*
X839724Y1250696D01*
X837184Y1248156D01*
X839724D01*
X842264Y1245616D01*
Y1296416D02*
X844804Y1298956D01*
X847344D01*
X844804Y1301496D01*
X847344Y1304036D01*
X844804D01*
X842264Y1306576D01*
X839724Y1304036D01*
X837184D01*
X839724Y1301496D01*
X837184Y1298956D01*
X839724D01*
X842264Y1296416D01*
Y1347216D02*
X844804Y1349756D01*
X847344D01*
X844804Y1352296D01*
X847344Y1354836D01*
X844804D01*
X842264Y1357376D01*
X839724Y1354836D01*
X837184D01*
X839724Y1352296D01*
X837184Y1349756D01*
X839724D01*
X842264Y1347216D01*
Y1372616D02*
X844804Y1375156D01*
X847344D01*
X844804Y1377696D01*
X847344Y1380236D01*
X844804D01*
X842264Y1382776D01*
X839724Y1380236D01*
X837184D01*
X839724Y1377696D01*
X837184Y1375156D01*
X839724D01*
X842264Y1372616D01*
Y1321816D02*
X844804Y1324356D01*
X847344D01*
X844804Y1326896D01*
X847344Y1329436D01*
X844804D01*
X842264Y1331976D01*
X839724Y1329436D01*
X837184D01*
X839724Y1326896D01*
X837184Y1324356D01*
X839724D01*
X842264Y1321816D01*
Y1271016D02*
X844804Y1273556D01*
X847344D01*
X844804Y1276096D01*
X847344Y1278636D01*
X844804D01*
X842264Y1281176D01*
X839724Y1278636D01*
X837184D01*
X839724Y1276096D01*
X837184Y1273556D01*
X839724D01*
X842264Y1271016D01*
Y1220216D02*
X844804Y1222756D01*
X847344D01*
X844804Y1225296D01*
X847344Y1227836D01*
X844804D01*
X842264Y1230376D01*
X839724Y1227836D01*
X837184D01*
X839724Y1225296D01*
X837184Y1222756D01*
X839724D01*
X842264Y1220216D01*
Y1194816D02*
X844804Y1197356D01*
X847344D01*
X844804Y1199896D01*
X847344Y1202436D01*
X844804D01*
X842264Y1204976D01*
X839724Y1202436D01*
X837184D01*
X839724Y1199896D01*
X837184Y1197356D01*
X839724D01*
X842264Y1194816D01*
Y1144016D02*
X844804Y1146556D01*
X847344D01*
X844804Y1149096D01*
X847344Y1151636D01*
X844804D01*
X842264Y1154176D01*
X839724Y1151636D01*
X837184D01*
X839724Y1149096D01*
X837184Y1146556D01*
X839724D01*
X842264Y1144016D01*
Y1118616D02*
X844804Y1121156D01*
X847344D01*
X844804Y1123696D01*
X847344Y1126236D01*
X844804D01*
X842264Y1128776D01*
X839724Y1126236D01*
X837184D01*
X839724Y1123696D01*
X837184Y1121156D01*
X839724D01*
X842264Y1118616D01*
Y1093216D02*
X844804Y1095756D01*
X847344D01*
X844804Y1098296D01*
X847344Y1100836D01*
X844804D01*
X842264Y1103376D01*
X839724Y1100836D01*
X837184D01*
X839724Y1098296D01*
X837184Y1095756D01*
X839724D01*
X842264Y1093216D01*
X742696Y1527048D02*
X747776Y1532128D01*
X752856Y1527048D01*
X747776Y1521968D01*
X742696Y1527048D01*
X717296D02*
X722376Y1532128D01*
X727456Y1527048D01*
X722376Y1521968D01*
X717296Y1527048D01*
X691134Y1527302D02*
X696214Y1532382D01*
X701294Y1527302D01*
X696214Y1522222D01*
X691134Y1527302D01*
X665734D02*
X670814Y1532382D01*
X675894Y1527302D01*
X670814Y1522222D01*
X665734Y1527302D01*
X241554Y1525778D02*
X246634Y1530858D01*
X251714Y1525778D01*
X246634Y1520698D01*
X241554Y1525778D01*
X216154D02*
X221234Y1530858D01*
X226314Y1525778D01*
X221234Y1520698D01*
X216154Y1525778D01*
X191008Y1526032D02*
X196088Y1531112D01*
X201168Y1526032D01*
X196088Y1520952D01*
X191008Y1526032D01*
X165608D02*
X170688Y1531112D01*
X175768Y1526032D01*
X170688Y1520952D01*
X165608Y1526032D01*
X800862Y1497584D02*
X803402Y1500124D01*
X805942D01*
X803402Y1502664D01*
X805942Y1505204D01*
X803402D01*
X800862Y1507744D01*
X798322Y1505204D01*
X795782D01*
X798322Y1502664D01*
X795782Y1500124D01*
X798322D01*
X800862Y1497584D01*
Y1548384D02*
X803402Y1550924D01*
X805942D01*
X803402Y1553464D01*
X805942Y1556004D01*
X803402D01*
X800862Y1558544D01*
X798322Y1556004D01*
X795782D01*
X798322Y1553464D01*
X795782Y1550924D01*
X798322D01*
X800862Y1548384D01*
Y1522984D02*
X803402Y1525524D01*
X805942D01*
X803402Y1528064D01*
X805942Y1530604D01*
X803402D01*
X800862Y1533144D01*
X798322Y1530604D01*
X795782D01*
X798322Y1528064D01*
X795782Y1525524D01*
X798322D01*
X800862Y1522984D01*
Y1472184D02*
X803402Y1474724D01*
X805942D01*
X803402Y1477264D01*
X805942Y1479804D01*
X803402D01*
X800862Y1482344D01*
X798322Y1479804D01*
X795782D01*
X798322Y1477264D01*
X795782Y1474724D01*
X798322D01*
X800862Y1472184D01*
Y1446784D02*
X803402Y1449324D01*
X805942D01*
X803402Y1451864D01*
X805942Y1454404D01*
X803402D01*
X800862Y1456944D01*
X798322Y1454404D01*
X795782D01*
X798322Y1451864D01*
X795782Y1449324D01*
X798322D01*
X800862Y1446784D01*
X236220Y1374140D02*
X238760Y1376680D01*
X241300D01*
X238760Y1379220D01*
X241300Y1381760D01*
X238760D01*
X236220Y1384300D01*
X233680Y1381760D01*
X231140D01*
X233680Y1379220D01*
X231140Y1376680D01*
X233680D01*
X236220Y1374140D01*
Y1348740D02*
X238760Y1351280D01*
X241300D01*
X238760Y1353820D01*
X241300Y1356360D01*
X238760D01*
X236220Y1358900D01*
X233680Y1356360D01*
X231140D01*
X233680Y1353820D01*
X231140Y1351280D01*
X233680D01*
X236220Y1348740D01*
Y1297940D02*
X238760Y1300480D01*
X241300D01*
X238760Y1303020D01*
X241300Y1305560D01*
X238760D01*
X236220Y1308100D01*
X233680Y1305560D01*
X231140D01*
X233680Y1303020D01*
X231140Y1300480D01*
X233680D01*
X236220Y1297940D01*
Y1272540D02*
X238760Y1275080D01*
X241300D01*
X238760Y1277620D01*
X241300Y1280160D01*
X238760D01*
X236220Y1282700D01*
X233680Y1280160D01*
X231140D01*
X233680Y1277620D01*
X231140Y1275080D01*
X233680D01*
X236220Y1272540D01*
Y1323340D02*
X238760Y1325880D01*
X241300D01*
X238760Y1328420D01*
X241300Y1330960D01*
X238760D01*
X236220Y1333500D01*
X233680Y1330960D01*
X231140D01*
X233680Y1328420D01*
X231140Y1325880D01*
X233680D01*
X236220Y1323340D01*
X641096Y201675D02*
X643636Y204215D01*
X646176D01*
X643636Y206755D01*
X646176Y209295D01*
X643636D01*
X641096Y211835D01*
X638556Y209295D01*
X636016D01*
X638556Y206755D01*
X636016Y204215D01*
X638556D01*
X641096Y201675D01*
Y176275D02*
X643636Y178815D01*
X646176D01*
X643636Y181355D01*
X646176Y183895D01*
X643636D01*
X641096Y186435D01*
X638556Y183895D01*
X636016D01*
X638556Y181355D01*
X636016Y178815D01*
X638556D01*
X641096Y176275D01*
Y227075D02*
X643636Y229615D01*
X646176D01*
X643636Y232155D01*
X646176Y234695D01*
X643636D01*
X641096Y237235D01*
X638556Y234695D01*
X636016D01*
X638556Y232155D01*
X636016Y229615D01*
X638556D01*
X641096Y227075D01*
Y252475D02*
X643636Y255015D01*
X646176D01*
X643636Y257555D01*
X646176Y260095D01*
X643636D01*
X641096Y262635D01*
X638556Y260095D01*
X636016D01*
X638556Y257555D01*
X636016Y255015D01*
X638556D01*
X641096Y252475D01*
X983488Y916432D02*
X986028Y921512D01*
X983488Y926592D01*
X988568Y924052D01*
X993648Y926592D01*
X991108Y921512D01*
X993648Y916432D01*
X988568Y918972D01*
X983488Y916432D01*
X985520Y918464D02*
X987044Y921512D01*
X985520Y924560D01*
X988568Y923036D01*
X991616Y924560D01*
X990092Y921512D01*
X991616Y918464D01*
X988568Y919988D01*
X985520Y918464D01*
X958088Y916432D02*
X960628Y921512D01*
X958088Y926592D01*
X963168Y924052D01*
X968248Y926592D01*
X965708Y921512D01*
X968248Y916432D01*
X963168Y918972D01*
X958088Y916432D01*
X960120Y918464D02*
X961644Y921512D01*
X960120Y924560D01*
X963168Y923036D01*
X966216Y924560D01*
X964692Y921512D01*
X966216Y918464D01*
X963168Y919988D01*
X960120Y918464D01*
X958088Y891032D02*
X960628Y896112D01*
X958088Y901192D01*
X963168Y898652D01*
X968248Y901192D01*
X965708Y896112D01*
X968248Y891032D01*
X963168Y893572D01*
X958088Y891032D01*
X960120Y893064D02*
X961644Y896112D01*
X960120Y899160D01*
X963168Y897636D01*
X966216Y899160D01*
X964692Y896112D01*
X966216Y893064D01*
X963168Y894588D01*
X960120Y893064D01*
X983488Y891032D02*
X986028Y896112D01*
X983488Y901192D01*
X988568Y898652D01*
X993648Y901192D01*
X991108Y896112D01*
X993648Y891032D01*
X988568Y893572D01*
X983488Y891032D01*
X985520Y893064D02*
X987044Y896112D01*
X985520Y899160D01*
X988568Y897636D01*
X991616Y899160D01*
X990092Y896112D01*
X991616Y893064D01*
X988568Y894588D01*
X985520Y893064D01*
X932688Y891032D02*
X935228Y896112D01*
X932688Y901192D01*
X937768Y898652D01*
X942848Y901192D01*
X940308Y896112D01*
X942848Y891032D01*
X937768Y893572D01*
X932688Y891032D01*
X934720Y893064D02*
X936244Y896112D01*
X934720Y899160D01*
X937768Y897636D01*
X940816Y899160D01*
X939292Y896112D01*
X940816Y893064D01*
X937768Y894588D01*
X934720Y893064D01*
X932688Y916432D02*
X935228Y921512D01*
X932688Y926592D01*
X937768Y924052D01*
X942848Y926592D01*
X940308Y921512D01*
X942848Y916432D01*
X937768Y918972D01*
X932688Y916432D01*
X934720Y918464D02*
X936244Y921512D01*
X934720Y924560D01*
X937768Y923036D01*
X940816Y924560D01*
X939292Y921512D01*
X940816Y918464D01*
X937768Y919988D01*
X934720Y918464D01*
X907288Y891032D02*
X909828Y896112D01*
X907288Y901192D01*
X912368Y898652D01*
X917448Y901192D01*
X914908Y896112D01*
X917448Y891032D01*
X912368Y893572D01*
X907288Y891032D01*
X909320Y893064D02*
X910844Y896112D01*
X909320Y899160D01*
X912368Y897636D01*
X915416Y899160D01*
X913892Y896112D01*
X915416Y893064D01*
X912368Y894588D01*
X909320Y893064D01*
X907288Y916432D02*
X909828Y921512D01*
X907288Y926592D01*
X912368Y924052D01*
X917448Y926592D01*
X914908Y921512D01*
X917448Y916432D01*
X912368Y918972D01*
X907288Y916432D01*
X909320Y918464D02*
X910844Y921512D01*
X909320Y924560D01*
X912368Y923036D01*
X915416Y924560D01*
X913892Y921512D01*
X915416Y918464D01*
X912368Y919988D01*
X909320Y918464D01*
X881888Y891032D02*
X884428Y896112D01*
X881888Y901192D01*
X886968Y898652D01*
X892048Y901192D01*
X889508Y896112D01*
X892048Y891032D01*
X886968Y893572D01*
X881888Y891032D01*
X883920Y893064D02*
X885444Y896112D01*
X883920Y899160D01*
X886968Y897636D01*
X890016Y899160D01*
X888492Y896112D01*
X890016Y893064D01*
X886968Y894588D01*
X883920Y893064D01*
X881888Y916432D02*
X884428Y921512D01*
X881888Y926592D01*
X886968Y924052D01*
X892048Y926592D01*
X889508Y921512D01*
X892048Y916432D01*
X886968Y918972D01*
X881888Y916432D01*
X883920Y918464D02*
X885444Y921512D01*
X883920Y924560D01*
X886968Y923036D01*
X890016Y924560D01*
X888492Y921512D01*
X890016Y918464D01*
X886968Y919988D01*
X883920Y918464D01*
X856488Y891032D02*
X859028Y896112D01*
X856488Y901192D01*
X861568Y898652D01*
X866648Y901192D01*
X864108Y896112D01*
X866648Y891032D01*
X861568Y893572D01*
X856488Y891032D01*
X858520Y893064D02*
X860044Y896112D01*
X858520Y899160D01*
X861568Y897636D01*
X864616Y899160D01*
X863092Y896112D01*
X864616Y893064D01*
X861568Y894588D01*
X858520Y893064D01*
X856488Y916432D02*
X859028Y921512D01*
X856488Y926592D01*
X861568Y924052D01*
X866648Y926592D01*
X864108Y921512D01*
X866648Y916432D01*
X861568Y918972D01*
X856488Y916432D01*
X858520Y918464D02*
X860044Y921512D01*
X858520Y924560D01*
X861568Y923036D01*
X864616Y924560D01*
X863092Y921512D01*
X864616Y918464D01*
X861568Y919988D01*
X858520Y918464D01*
X1085088Y891032D02*
X1087628Y896112D01*
X1085088Y901192D01*
X1090168Y898652D01*
X1095248Y901192D01*
X1092708Y896112D01*
X1095248Y891032D01*
X1090168Y893572D01*
X1085088Y891032D01*
X1087120Y893064D02*
X1088644Y896112D01*
X1087120Y899160D01*
X1090168Y897636D01*
X1093216Y899160D01*
X1091692Y896112D01*
X1093216Y893064D01*
X1090168Y894588D01*
X1087120Y893064D01*
X1085088Y916432D02*
X1087628Y921512D01*
X1085088Y926592D01*
X1090168Y924052D01*
X1095248Y926592D01*
X1092708Y921512D01*
X1095248Y916432D01*
X1090168Y918972D01*
X1085088Y916432D01*
X1087120Y918464D02*
X1088644Y921512D01*
X1087120Y924560D01*
X1090168Y923036D01*
X1093216Y924560D01*
X1091692Y921512D01*
X1093216Y918464D01*
X1090168Y919988D01*
X1087120Y918464D01*
X1059688Y891032D02*
X1062228Y896112D01*
X1059688Y901192D01*
X1064768Y898652D01*
X1069848Y901192D01*
X1067308Y896112D01*
X1069848Y891032D01*
X1064768Y893572D01*
X1059688Y891032D01*
X1061720Y893064D02*
X1063244Y896112D01*
X1061720Y899160D01*
X1064768Y897636D01*
X1067816Y899160D01*
X1066292Y896112D01*
X1067816Y893064D01*
X1064768Y894588D01*
X1061720Y893064D01*
X1059688Y916432D02*
X1062228Y921512D01*
X1059688Y926592D01*
X1064768Y924052D01*
X1069848Y926592D01*
X1067308Y921512D01*
X1069848Y916432D01*
X1064768Y918972D01*
X1059688Y916432D01*
X1061720Y918464D02*
X1063244Y921512D01*
X1061720Y924560D01*
X1064768Y923036D01*
X1067816Y924560D01*
X1066292Y921512D01*
X1067816Y918464D01*
X1064768Y919988D01*
X1061720Y918464D01*
X1034288Y891032D02*
X1036828Y896112D01*
X1034288Y901192D01*
X1039368Y898652D01*
X1044448Y901192D01*
X1041908Y896112D01*
X1044448Y891032D01*
X1039368Y893572D01*
X1034288Y891032D01*
X1036320Y893064D02*
X1037844Y896112D01*
X1036320Y899160D01*
X1039368Y897636D01*
X1042416Y899160D01*
X1040892Y896112D01*
X1042416Y893064D01*
X1039368Y894588D01*
X1036320Y893064D01*
X1034288Y916432D02*
X1036828Y921512D01*
X1034288Y926592D01*
X1039368Y924052D01*
X1044448Y926592D01*
X1041908Y921512D01*
X1044448Y916432D01*
X1039368Y918972D01*
X1034288Y916432D01*
X1036320Y918464D02*
X1037844Y921512D01*
X1036320Y924560D01*
X1039368Y923036D01*
X1042416Y924560D01*
X1040892Y921512D01*
X1042416Y918464D01*
X1039368Y919988D01*
X1036320Y918464D01*
X1008888Y916432D02*
X1011428Y921512D01*
X1008888Y926592D01*
X1013968Y924052D01*
X1019048Y926592D01*
X1016508Y921512D01*
X1019048Y916432D01*
X1013968Y918972D01*
X1008888Y916432D01*
X1010920Y918464D02*
X1012444Y921512D01*
X1010920Y924560D01*
X1013968Y923036D01*
X1017016Y924560D01*
X1015492Y921512D01*
X1017016Y918464D01*
X1013968Y919988D01*
X1010920Y918464D01*
X1008888Y891032D02*
X1011428Y896112D01*
X1008888Y901192D01*
X1013968Y898652D01*
X1019048Y901192D01*
X1016508Y896112D01*
X1019048Y891032D01*
X1013968Y893572D01*
X1008888Y891032D01*
X1010920Y893064D02*
X1012444Y896112D01*
X1010920Y899160D01*
X1013968Y897636D01*
X1017016Y899160D01*
X1015492Y896112D01*
X1017016Y893064D01*
X1013968Y894588D01*
X1010920Y893064D01*
X854710Y1446784D02*
X857250Y1449324D01*
X859790D01*
X857250Y1451864D01*
X859790Y1454404D01*
X857250D01*
X854710Y1456944D01*
X852170Y1454404D01*
X849630D01*
X852170Y1451864D01*
X849630Y1449324D01*
X852170D01*
X854710Y1446784D01*
Y1472184D02*
X857250Y1474724D01*
X859790D01*
X857250Y1477264D01*
X859790Y1479804D01*
X857250D01*
X854710Y1482344D01*
X852170Y1479804D01*
X849630D01*
X852170Y1477264D01*
X849630Y1474724D01*
X852170D01*
X854710Y1472184D01*
Y1522984D02*
X857250Y1525524D01*
X859790D01*
X857250Y1528064D01*
X859790Y1530604D01*
X857250D01*
X854710Y1533144D01*
X852170Y1530604D01*
X849630D01*
X852170Y1528064D01*
X849630Y1525524D01*
X852170D01*
X854710Y1522984D01*
Y1548384D02*
X857250Y1550924D01*
X859790D01*
X857250Y1553464D01*
X859790Y1556004D01*
X857250D01*
X854710Y1558544D01*
X852170Y1556004D01*
X849630D01*
X852170Y1553464D01*
X849630Y1550924D01*
X852170D01*
X854710Y1548384D01*
Y1497584D02*
X857250Y1500124D01*
X859790D01*
X857250Y1502664D01*
X859790Y1505204D01*
X857250D01*
X854710Y1507744D01*
X852170Y1505204D01*
X849630D01*
X852170Y1502664D01*
X849630Y1500124D01*
X852170D01*
X854710Y1497584D01*
X53340Y731012D02*
X48260Y741172D01*
X58420D01*
X53340Y731012D01*
Y705612D02*
X48260Y715772D01*
X58420D01*
X53340Y705612D01*
Y654812D02*
X48260Y664972D01*
X58420D01*
X53340Y654812D01*
Y756412D02*
X48260Y766572D01*
X58420D01*
X53340Y756412D01*
Y680212D02*
X48260Y690372D01*
X58420D01*
X53340Y680212D01*
Y629412D02*
X48260Y639572D01*
X58420D01*
X53340Y629412D01*
Y604012D02*
X48260Y614172D01*
X58420D01*
X53340Y604012D01*
Y858012D02*
X48260Y868172D01*
X58420D01*
X53340Y858012D01*
Y883412D02*
X48260Y893572D01*
X58420D01*
X53340Y883412D01*
Y1035812D02*
X48260Y1045972D01*
X58420D01*
X53340Y1035812D01*
Y1010412D02*
X48260Y1020572D01*
X58420D01*
X53340Y1010412D01*
Y959612D02*
X48260Y969772D01*
X58420D01*
X53340Y959612D01*
Y934212D02*
X48260Y944372D01*
X58420D01*
X53340Y934212D01*
Y908812D02*
X48260Y918972D01*
X58420D01*
X53340Y908812D01*
Y578612D02*
X48260Y588772D01*
X58420D01*
X53340Y578612D01*
Y832612D02*
X48260Y842772D01*
X58420D01*
X53340Y832612D01*
Y985012D02*
X48260Y995172D01*
X58420D01*
X53340Y985012D01*
Y1061212D02*
X48260Y1071372D01*
X58420D01*
X53340Y1061212D01*
Y781812D02*
X48260Y791972D01*
X58420D01*
X53340Y781812D01*
Y807212D02*
X48260Y817372D01*
X58420D01*
X53340Y807212D01*
Y553212D02*
X48260Y563372D01*
X58420D01*
X53340Y553212D01*
Y1086612D02*
X48260Y1096772D01*
X58420D01*
X53340Y1086612D01*
X78740Y705612D02*
X73660Y715772D01*
X83820D01*
X78740Y705612D01*
Y680212D02*
X73660Y690372D01*
X83820D01*
X78740Y680212D01*
Y654812D02*
X73660Y664972D01*
X83820D01*
X78740Y654812D01*
Y731012D02*
X73660Y741172D01*
X83820D01*
X78740Y731012D01*
Y832612D02*
X73660Y842772D01*
X83820D01*
X78740Y832612D01*
Y604012D02*
X73660Y614172D01*
X83820D01*
X78740Y604012D01*
Y629412D02*
X73660Y639572D01*
X83820D01*
X78740Y629412D01*
Y858012D02*
X73660Y868172D01*
X83820D01*
X78740Y858012D01*
Y883412D02*
X73660Y893572D01*
X83820D01*
X78740Y883412D01*
Y1061212D02*
X73660Y1071372D01*
X83820D01*
X78740Y1061212D01*
Y1035812D02*
X73660Y1045972D01*
X83820D01*
X78740Y1035812D01*
Y1010412D02*
X73660Y1020572D01*
X83820D01*
X78740Y1010412D01*
Y985012D02*
X73660Y995172D01*
X83820D01*
X78740Y985012D01*
Y959612D02*
X73660Y969772D01*
X83820D01*
X78740Y959612D01*
Y934212D02*
X73660Y944372D01*
X83820D01*
X78740Y934212D01*
Y908812D02*
X73660Y918972D01*
X83820D01*
X78740Y908812D01*
Y578612D02*
X73660Y588772D01*
X83820D01*
X78740Y578612D01*
Y756412D02*
X73660Y766572D01*
X83820D01*
X78740Y756412D01*
Y807212D02*
X73660Y817372D01*
X83820D01*
X78740Y807212D01*
Y781812D02*
X73660Y791972D01*
X83820D01*
X78740Y781812D01*
Y553212D02*
X73660Y563372D01*
X83820D01*
X78740Y553212D01*
Y1086612D02*
X73660Y1096772D01*
X83820D01*
X78740Y1086612D01*
X142240Y921512D02*
X137160Y931672D01*
X147320D01*
X142240Y921512D01*
X224790Y369062D02*
X219710Y379222D01*
X229870D01*
X224790Y369062D01*
X66040Y477012D02*
X60960Y487172D01*
X71120D01*
X66040Y477012D01*
Y479044D02*
X62992Y485140D01*
X69088D01*
X66040Y479044D01*
X97790Y1137412D02*
X92710Y1147572D01*
X102870D01*
X97790Y1137412D01*
Y1139444D02*
X94742Y1145540D01*
X100838D01*
X97790Y1139444D01*
X548640Y477012D02*
X543560Y487172D01*
X553720D01*
X548640Y477012D01*
Y479044D02*
X545592Y485140D01*
X551688D01*
X548640Y479044D01*
X516890Y1137412D02*
X511810Y1147572D01*
X521970D01*
X516890Y1137412D01*
Y1139444D02*
X513842Y1145540D01*
X519938D01*
X516890Y1139444D01*
X53340Y527812D02*
X48260Y537972D01*
X58420D01*
X53340Y527812D01*
X78740D02*
X73660Y537972D01*
X83820D01*
X78740Y527812D01*
X535940D02*
X530860Y537972D01*
X541020D01*
X535940Y527812D01*
X561340D02*
X556260Y537972D01*
X566420D01*
X561340Y527812D01*
X535940Y731012D02*
X530860Y741172D01*
X541020D01*
X535940Y731012D01*
X561340Y705612D02*
X556260Y715772D01*
X566420D01*
X561340Y705612D01*
X535940D02*
X530860Y715772D01*
X541020D01*
X535940Y705612D01*
Y654812D02*
X530860Y664972D01*
X541020D01*
X535940Y654812D01*
X561340Y680212D02*
X556260Y690372D01*
X566420D01*
X561340Y680212D01*
Y654812D02*
X556260Y664972D01*
X566420D01*
X561340Y654812D01*
X535940Y756412D02*
X530860Y766572D01*
X541020D01*
X535940Y756412D01*
Y680212D02*
X530860Y690372D01*
X541020D01*
X535940Y680212D01*
X561340Y731012D02*
X556260Y741172D01*
X566420D01*
X561340Y731012D01*
Y832612D02*
X556260Y842772D01*
X566420D01*
X561340Y832612D01*
X535940Y629412D02*
X530860Y639572D01*
X541020D01*
X535940Y629412D01*
Y604012D02*
X530860Y614172D01*
X541020D01*
X535940Y604012D01*
X561340D02*
X556260Y614172D01*
X566420D01*
X561340Y604012D01*
Y629412D02*
X556260Y639572D01*
X566420D01*
X561340Y629412D01*
Y858012D02*
X556260Y868172D01*
X566420D01*
X561340Y858012D01*
X535940D02*
X530860Y868172D01*
X541020D01*
X535940Y858012D01*
Y883412D02*
X530860Y893572D01*
X541020D01*
X535940Y883412D01*
X561340D02*
X556260Y893572D01*
X566420D01*
X561340Y883412D01*
X535940Y1086612D02*
X530860Y1096772D01*
X541020D01*
X535940Y1086612D01*
X561340Y1061212D02*
X556260Y1071372D01*
X566420D01*
X561340Y1061212D01*
X535940Y1035812D02*
X530860Y1045972D01*
X541020D01*
X535940Y1035812D01*
X561340D02*
X556260Y1045972D01*
X566420D01*
X561340Y1035812D01*
X535940Y1010412D02*
X530860Y1020572D01*
X541020D01*
X535940Y1010412D01*
X561340D02*
X556260Y1020572D01*
X566420D01*
X561340Y1010412D01*
Y985012D02*
X556260Y995172D01*
X566420D01*
X561340Y985012D01*
Y959612D02*
X556260Y969772D01*
X566420D01*
X561340Y959612D01*
Y934212D02*
X556260Y944372D01*
X566420D01*
X561340Y934212D01*
X535940Y959612D02*
X530860Y969772D01*
X541020D01*
X535940Y959612D01*
Y934212D02*
X530860Y944372D01*
X541020D01*
X535940Y934212D01*
Y908812D02*
X530860Y918972D01*
X541020D01*
X535940Y908812D01*
X561340D02*
X556260Y918972D01*
X566420D01*
X561340Y908812D01*
X535940Y578612D02*
X530860Y588772D01*
X541020D01*
X535940Y578612D01*
X561340D02*
X556260Y588772D01*
X566420D01*
X561340Y578612D01*
Y756412D02*
X556260Y766572D01*
X566420D01*
X561340Y756412D01*
X535940Y832612D02*
X530860Y842772D01*
X541020D01*
X535940Y832612D01*
X561340Y807212D02*
X556260Y817372D01*
X566420D01*
X561340Y807212D01*
X535940Y985012D02*
X530860Y995172D01*
X541020D01*
X535940Y985012D01*
X561340Y1086612D02*
X556260Y1096772D01*
X566420D01*
X561340Y1086612D01*
X535940Y1061212D02*
X530860Y1071372D01*
X541020D01*
X535940Y1061212D01*
Y781812D02*
X530860Y791972D01*
X541020D01*
X535940Y781812D01*
Y807212D02*
X530860Y817372D01*
X541020D01*
X535940Y807212D01*
X561340Y781812D02*
X556260Y791972D01*
X566420D01*
X561340Y781812D01*
X535940Y553212D02*
X530860Y563372D01*
X541020D01*
X535940Y553212D01*
X561340D02*
X556260Y563372D01*
X566420D01*
X561340Y553212D01*
X110490Y807212D02*
X105410Y817372D01*
X115570D01*
X110490Y807212D01*
Y883412D02*
X105410Y893572D01*
X115570D01*
X110490Y883412D01*
Y781812D02*
X105410Y791972D01*
X115570D01*
X110490Y781812D01*
Y858012D02*
X105410Y868172D01*
X115570D01*
X110490Y858012D01*
Y832612D02*
X105410Y842772D01*
X115570D01*
X110490Y832612D01*
Y756412D02*
X105410Y766572D01*
X115570D01*
X110490Y756412D01*
X140970Y478282D02*
X135890Y488442D01*
X146050D01*
X140970Y478282D01*
X115570D02*
X110490Y488442D01*
X120650D01*
X115570Y478282D01*
X140970Y503682D02*
X135890Y513842D01*
X146050D01*
X140970Y503682D01*
X115570D02*
X110490Y513842D01*
X120650D01*
X115570Y503682D01*
X536514Y1491464D02*
X539054D01*
X541594Y1494004D01*
X544134Y1491464D01*
X546674D01*
Y1494004D01*
X544134Y1496544D01*
X546674Y1499084D01*
Y1501624D01*
X544134D01*
X541594Y1499084D01*
X539054Y1501624D01*
X536514D01*
Y1499084D01*
X539054Y1496544D01*
X536514Y1494004D01*
Y1491464D01*
X508814D02*
X511354D01*
X513894Y1494004D01*
X516434Y1491464D01*
X518974D01*
Y1494004D01*
X516434Y1496544D01*
X518974Y1499084D01*
Y1501624D01*
X516434D01*
X513894Y1499084D01*
X511354Y1501624D01*
X508814D01*
Y1499084D01*
X511354Y1496544D01*
X508814Y1494004D01*
Y1491464D01*
X481114D02*
X483654D01*
X486194Y1494004D01*
X488734Y1491464D01*
X491274D01*
Y1494004D01*
X488734Y1496544D01*
X491274Y1499084D01*
Y1501624D01*
X488734D01*
X486194Y1499084D01*
X483654Y1501624D01*
X481114D01*
Y1499084D01*
X483654Y1496544D01*
X481114Y1494004D01*
Y1491464D01*
X453414D02*
X455954D01*
X458494Y1494004D01*
X461034Y1491464D01*
X463574D01*
Y1494004D01*
X461034Y1496544D01*
X463574Y1499084D01*
Y1501624D01*
X461034D01*
X458494Y1499084D01*
X455954Y1501624D01*
X453414D01*
Y1499084D01*
X455954Y1496544D01*
X453414Y1494004D01*
Y1491464D01*
X425714D02*
X428254D01*
X430794Y1494004D01*
X433334Y1491464D01*
X435874D01*
Y1494004D01*
X433334Y1496544D01*
X435874Y1499084D01*
Y1501624D01*
X433334D01*
X430794Y1499084D01*
X428254Y1501624D01*
X425714D01*
Y1499084D01*
X428254Y1496544D01*
X425714Y1494004D01*
Y1491464D01*
X398014D02*
X400554D01*
X403094Y1494004D01*
X405634Y1491464D01*
X408174D01*
Y1494004D01*
X405634Y1496544D01*
X408174Y1499084D01*
Y1501624D01*
X405634D01*
X403094Y1499084D01*
X400554Y1501624D01*
X398014D01*
Y1499084D01*
X400554Y1496544D01*
X398014Y1494004D01*
Y1491464D01*
X370314D02*
X372854D01*
X375394Y1494004D01*
X377934Y1491464D01*
X380474D01*
Y1494004D01*
X377934Y1496544D01*
X380474Y1499084D01*
Y1501624D01*
X377934D01*
X375394Y1499084D01*
X372854Y1501624D01*
X370314D01*
Y1499084D01*
X372854Y1496544D01*
X370314Y1494004D01*
Y1491464D01*
X550364Y1463064D02*
X552904D01*
X555444Y1465604D01*
X557984Y1463064D01*
X560524D01*
Y1465604D01*
X557984Y1468144D01*
X560524Y1470684D01*
Y1473224D01*
X557984D01*
X555444Y1470684D01*
X552904Y1473224D01*
X550364D01*
Y1470684D01*
X552904Y1468144D01*
X550364Y1465604D01*
Y1463064D01*
X522664D02*
X525204D01*
X527744Y1465604D01*
X530284Y1463064D01*
X532824D01*
Y1465604D01*
X530284Y1468144D01*
X532824Y1470684D01*
Y1473224D01*
X530284D01*
X527744Y1470684D01*
X525204Y1473224D01*
X522664D01*
Y1470684D01*
X525204Y1468144D01*
X522664Y1465604D01*
Y1463064D01*
X494964D02*
X497504D01*
X500044Y1465604D01*
X502584Y1463064D01*
X505124D01*
Y1465604D01*
X502584Y1468144D01*
X505124Y1470684D01*
Y1473224D01*
X502584D01*
X500044Y1470684D01*
X497504Y1473224D01*
X494964D01*
Y1470684D01*
X497504Y1468144D01*
X494964Y1465604D01*
Y1463064D01*
X467264D02*
X469804D01*
X472344Y1465604D01*
X474884Y1463064D01*
X477424D01*
Y1465604D01*
X474884Y1468144D01*
X477424Y1470684D01*
Y1473224D01*
X474884D01*
X472344Y1470684D01*
X469804Y1473224D01*
X467264D01*
Y1470684D01*
X469804Y1468144D01*
X467264Y1465604D01*
Y1463064D01*
X289354Y1479804D02*
Y1477264D01*
X294434D01*
Y1479804D01*
X296974D01*
Y1484884D01*
X294434D01*
Y1487424D01*
X289354D01*
Y1484884D01*
X286814D01*
Y1479804D01*
X289354D01*
X290370Y1480820D02*
Y1479296D01*
X293418D01*
Y1480820D01*
X294942D01*
Y1483868D01*
X293418D01*
Y1485392D01*
X290370D01*
Y1483868D01*
X288846D01*
Y1480820D01*
X290370D01*
X622554Y1479804D02*
Y1477264D01*
X627634D01*
Y1479804D01*
X630174D01*
Y1484884D01*
X627634D01*
Y1487424D01*
X622554D01*
Y1484884D01*
X620014D01*
Y1479804D01*
X622554D01*
X623570Y1480820D02*
Y1479296D01*
X626618D01*
Y1480820D01*
X628142D01*
Y1483868D01*
X626618D01*
Y1485392D01*
X623570D01*
Y1483868D01*
X622046D01*
Y1480820D01*
X623570D01*
X384164Y1463064D02*
X386704D01*
X389244Y1465604D01*
X391784Y1463064D01*
X394324D01*
Y1465604D01*
X391784Y1468144D01*
X394324Y1470684D01*
Y1473224D01*
X391784D01*
X389244Y1470684D01*
X386704Y1473224D01*
X384164D01*
Y1470684D01*
X386704Y1468144D01*
X384164Y1465604D01*
Y1463064D01*
X356464D02*
X359004D01*
X361544Y1465604D01*
X364084Y1463064D01*
X366624D01*
Y1465604D01*
X364084Y1468144D01*
X366624Y1470684D01*
Y1473224D01*
X364084D01*
X361544Y1470684D01*
X359004Y1473224D01*
X356464D01*
Y1470684D01*
X359004Y1468144D01*
X356464Y1465604D01*
Y1463064D01*
X439564D02*
X442104D01*
X444644Y1465604D01*
X447184Y1463064D01*
X449724D01*
Y1465604D01*
X447184Y1468144D01*
X449724Y1470684D01*
Y1473224D01*
X447184D01*
X444644Y1470684D01*
X442104Y1473224D01*
X439564D01*
Y1470684D01*
X442104Y1468144D01*
X439564Y1465604D01*
Y1463064D01*
X411864D02*
X414404D01*
X416944Y1465604D01*
X419484Y1463064D01*
X422024D01*
Y1465604D01*
X419484Y1468144D01*
X422024Y1470684D01*
Y1473224D01*
X419484D01*
X416944Y1470684D01*
X414404Y1473224D01*
X411864D01*
Y1470684D01*
X414404Y1468144D01*
X411864Y1465604D01*
Y1463064D01*
X1085088Y570738D02*
X1087628Y575818D01*
X1085088Y580898D01*
X1090168Y578358D01*
X1095248Y580898D01*
X1092708Y575818D01*
X1095248Y570738D01*
X1090168Y573278D01*
X1085088Y570738D01*
X1135088D02*
X1137628Y575818D01*
X1135088Y580898D01*
X1140168Y578358D01*
X1145248Y580898D01*
X1142708Y575818D01*
X1145248Y570738D01*
X1140168Y573278D01*
X1135088Y570738D01*
X977284Y566674D02*
X979824Y571754D01*
X977284Y576834D01*
X982364Y574294D01*
X987444Y576834D01*
X984904Y571754D01*
X987444Y566674D01*
X982364Y569214D01*
X977284Y566674D01*
X1027284D02*
X1029824Y571754D01*
X1027284Y576834D01*
X1032364Y574294D01*
X1037444Y576834D01*
X1034904Y571754D01*
X1037444Y566674D01*
X1032364Y569214D01*
X1027284Y566674D01*
X504698Y49018D02*
Y36322D01*
X511046D01*
X513162Y38438D01*
Y40554D01*
X511046Y42670D01*
X504698D01*
X511046D01*
X513162Y44786D01*
Y46902D01*
X511046Y49018D01*
X504698D01*
X530098D02*
Y36322D01*
X536446D01*
X538562Y38438D01*
Y40554D01*
X536446Y42670D01*
X530098D01*
X536446D01*
X538562Y44786D01*
Y46902D01*
X536446Y49018D01*
X530098D01*
X555498D02*
Y36322D01*
X561846D01*
X563962Y38438D01*
Y40554D01*
X561846Y42670D01*
X555498D01*
X561846D01*
X563962Y44786D01*
Y46902D01*
X561846Y49018D01*
X555498D01*
X580898D02*
Y36322D01*
X587246D01*
X589362Y38438D01*
Y40554D01*
X587246Y42670D01*
X580898D01*
X587246D01*
X589362Y44786D01*
Y46902D01*
X587246Y49018D01*
X580898D01*
X606298D02*
Y36322D01*
X612646D01*
X614762Y38438D01*
Y40554D01*
X612646Y42670D01*
X606298D01*
X612646D01*
X614762Y44786D01*
Y46902D01*
X612646Y49018D01*
X606298D01*
X631698D02*
Y36322D01*
X638046D01*
X640162Y38438D01*
Y40554D01*
X638046Y42670D01*
X631698D01*
X638046D01*
X640162Y44786D01*
Y46902D01*
X638046Y49018D01*
X631698D01*
X504698Y74418D02*
Y61722D01*
X511046D01*
X513162Y63838D01*
Y65954D01*
X511046Y68070D01*
X504698D01*
X511046D01*
X513162Y70186D01*
Y72302D01*
X511046Y74418D01*
X504698D01*
X530098D02*
Y61722D01*
X536446D01*
X538562Y63838D01*
Y65954D01*
X536446Y68070D01*
X530098D01*
X536446D01*
X538562Y70186D01*
Y72302D01*
X536446Y74418D01*
X530098D01*
X555498D02*
Y61722D01*
X561846D01*
X563962Y63838D01*
Y65954D01*
X561846Y68070D01*
X555498D01*
X561846D01*
X563962Y70186D01*
Y72302D01*
X561846Y74418D01*
X555498D01*
X580898D02*
Y61722D01*
X587246D01*
X589362Y63838D01*
Y65954D01*
X587246Y68070D01*
X580898D01*
X587246D01*
X589362Y70186D01*
Y72302D01*
X587246Y74418D01*
X580898D01*
X606298D02*
Y61722D01*
X612646D01*
X614762Y63838D01*
Y65954D01*
X612646Y68070D01*
X606298D01*
X612646D01*
X614762Y70186D01*
Y72302D01*
X612646Y74418D01*
X606298D01*
X631698D02*
Y61722D01*
X638046D01*
X640162Y63838D01*
Y65954D01*
X638046Y68070D01*
X631698D01*
X638046D01*
X640162Y70186D01*
Y72302D01*
X638046Y74418D01*
X631698D01*
X86868Y1378458D02*
X89408Y1380998D01*
X91948D01*
X89408Y1383538D01*
X91948Y1386078D01*
X89408D01*
X86868Y1388618D01*
X84328Y1386078D01*
X81788D01*
X84328Y1383538D01*
X81788Y1380998D01*
X84328D01*
X86868Y1378458D01*
Y1353058D02*
X89408Y1355598D01*
X91948D01*
X89408Y1358138D01*
X91948Y1360678D01*
X89408D01*
X86868Y1363218D01*
X84328Y1360678D01*
X81788D01*
X84328Y1358138D01*
X81788Y1355598D01*
X84328D01*
X86868Y1353058D01*
Y1302258D02*
X89408Y1304798D01*
X91948D01*
X89408Y1307338D01*
X91948Y1309878D01*
X89408D01*
X86868Y1312418D01*
X84328Y1309878D01*
X81788D01*
X84328Y1307338D01*
X81788Y1304798D01*
X84328D01*
X86868Y1302258D01*
Y1251458D02*
X89408Y1253998D01*
X91948D01*
X89408Y1256538D01*
X91948Y1259078D01*
X89408D01*
X86868Y1261618D01*
X84328Y1259078D01*
X81788D01*
X84328Y1256538D01*
X81788Y1253998D01*
X84328D01*
X86868Y1251458D01*
Y1276858D02*
X89408Y1279398D01*
X91948D01*
X89408Y1281938D01*
X91948Y1284478D01*
X89408D01*
X86868Y1287018D01*
X84328Y1284478D01*
X81788D01*
X84328Y1281938D01*
X81788Y1279398D01*
X84328D01*
X86868Y1276858D01*
Y1327658D02*
X89408Y1330198D01*
X91948D01*
X89408Y1332738D01*
X91948Y1335278D01*
X89408D01*
X86868Y1337818D01*
X84328Y1335278D01*
X81788D01*
X84328Y1332738D01*
X81788Y1330198D01*
X84328D01*
X86868Y1327658D01*
X493014Y1041908D02*
Y1039368D01*
X498094D01*
Y1041908D01*
X500634D01*
Y1046988D01*
X498094D01*
Y1049528D01*
X493014D01*
Y1046988D01*
X490474D01*
Y1041908D01*
X493014D01*
X881550Y1531874D02*
Y1529334D01*
X886629D01*
Y1531874D01*
X889169D01*
Y1536954D01*
X886629D01*
Y1539494D01*
X881550D01*
Y1536954D01*
X879009D01*
Y1531874D01*
X881550D01*
X894588Y1536954D02*
Y1534414D01*
X899668D01*
Y1536954D01*
X902208D01*
Y1542034D01*
X899668D01*
Y1544574D01*
X894588D01*
Y1542034D01*
X892048D01*
Y1536954D01*
X894588D01*
X700786Y1571244D02*
Y1568704D01*
X705866D01*
Y1571244D01*
X708406D01*
Y1576324D01*
X705866D01*
Y1578864D01*
X700786D01*
Y1576324D01*
X698246D01*
Y1571244D01*
X700786D01*
X176784Y1396238D02*
Y1393698D01*
X181864D01*
Y1396238D01*
X184404D01*
Y1401318D01*
X181864D01*
Y1403858D01*
X176784D01*
Y1401318D01*
X174244D01*
Y1396238D01*
X176784D01*
X532892Y1373632D02*
Y1371092D01*
X537972D01*
Y1373632D01*
X540512D01*
Y1378712D01*
X537972D01*
Y1381252D01*
X532892D01*
Y1378712D01*
X530352D01*
Y1373632D01*
X532892D01*
X538988Y1363388D02*
Y1360848D01*
X544068D01*
Y1363388D01*
X546608D01*
Y1368468D01*
X544068D01*
Y1371008D01*
X538988D01*
Y1368468D01*
X536448D01*
Y1363388D01*
X538988D01*
X731520Y1233678D02*
Y1231138D01*
X736600D01*
Y1233678D01*
X739140D01*
Y1238758D01*
X736600D01*
Y1241298D01*
X731520D01*
Y1238758D01*
X728980D01*
Y1233678D01*
X731520D01*
X738124Y1256113D02*
Y1253573D01*
X743204D01*
Y1256113D01*
X745744D01*
Y1261193D01*
X743204D01*
Y1263733D01*
X738124D01*
Y1261193D01*
X735584D01*
Y1256113D01*
X738124D01*
X728726Y1305560D02*
Y1303020D01*
X733806D01*
Y1305560D01*
X736346D01*
Y1310640D01*
X733806D01*
Y1313180D01*
X728726D01*
Y1310640D01*
X726186D01*
Y1305560D01*
X728726D01*
X613918Y1072896D02*
Y1070356D01*
X618998D01*
Y1072896D01*
X621538D01*
Y1077976D01*
X618998D01*
Y1080516D01*
X613918D01*
Y1077976D01*
X611378D01*
Y1072896D01*
X613918D01*
X569722Y1126744D02*
Y1124204D01*
X574802D01*
Y1126744D01*
X577342D01*
Y1131824D01*
X574802D01*
Y1134364D01*
X569722D01*
Y1131824D01*
X567182D01*
Y1126744D01*
X569722D01*
X262837Y1082495D02*
Y1079955D01*
X267917D01*
Y1082495D01*
X270457D01*
Y1087575D01*
X267917D01*
Y1090115D01*
X262837D01*
Y1087575D01*
X260297D01*
Y1082495D01*
X262837D01*
X210194Y962914D02*
Y960374D01*
X215274D01*
Y962914D01*
X217814D01*
Y967994D01*
X215274D01*
Y970534D01*
X210194D01*
Y967994D01*
X207654D01*
Y962914D01*
X210194D01*
X246634Y959612D02*
Y957072D01*
X251714D01*
Y959612D01*
X254254D01*
Y964692D01*
X251714D01*
Y967232D01*
X246634D01*
Y964692D01*
X244094D01*
Y959612D01*
X246634D01*
X240284Y1009066D02*
Y1006526D01*
X245364D01*
Y1009066D01*
X247904D01*
Y1014146D01*
X245364D01*
Y1016686D01*
X240284D01*
Y1014146D01*
X237744D01*
Y1009066D01*
X240284D01*
X485394Y1033526D02*
Y1030986D01*
X490474D01*
Y1033526D01*
X493014D01*
Y1038606D01*
X490474D01*
Y1041146D01*
X485394D01*
Y1038606D01*
X482854D01*
Y1033526D01*
X485394D01*
X895604Y884682D02*
Y882142D01*
X900684D01*
Y884682D01*
X903224D01*
Y889762D01*
X900684D01*
Y892302D01*
X895604D01*
Y889762D01*
X893064D01*
Y884682D01*
X895604D01*
X937514Y817626D02*
Y815086D01*
X942594D01*
Y817626D01*
X945134D01*
Y822706D01*
X942594D01*
Y825246D01*
X937514D01*
Y822706D01*
X934974D01*
Y817626D01*
X937514D01*
X450088Y746760D02*
Y744220D01*
X455168D01*
Y746760D01*
X457708D01*
Y751840D01*
X455168D01*
Y754380D01*
X450088D01*
Y751840D01*
X447548D01*
Y746760D01*
X450088D01*
X443738Y756666D02*
Y754126D01*
X448818D01*
Y756666D01*
X451358D01*
Y761746D01*
X448818D01*
Y764286D01*
X443738D01*
Y761746D01*
X441198D01*
Y756666D01*
X443738D01*
X331978Y817626D02*
Y815086D01*
X337058D01*
Y817626D01*
X339598D01*
Y822706D01*
X337058D01*
Y825246D01*
X331978D01*
Y822706D01*
X329438D01*
Y817626D01*
X331978D01*
X261691Y741751D02*
Y739211D01*
X266771D01*
Y741751D01*
X269311D01*
Y746831D01*
X266771D01*
Y749371D01*
X261691D01*
Y746831D01*
X259151D01*
Y741751D01*
X261691D01*
X452882Y710438D02*
Y707898D01*
X457962D01*
Y710438D01*
X460502D01*
Y715518D01*
X457962D01*
Y718058D01*
X452882D01*
Y715518D01*
X450342D01*
Y710438D01*
X452882D01*
X364998Y718392D02*
Y715852D01*
X370078D01*
Y718392D01*
X372618D01*
Y723472D01*
X370078D01*
Y726012D01*
X364998D01*
Y723472D01*
X362458D01*
Y718392D01*
X364998D01*
X325374Y729234D02*
Y726694D01*
X330454D01*
Y729234D01*
X332994D01*
Y734314D01*
X330454D01*
Y736854D01*
X325374D01*
Y734314D01*
X322834D01*
Y729234D01*
X325374D01*
X250698Y710184D02*
Y707644D01*
X255778D01*
Y710184D01*
X258318D01*
Y715264D01*
X255778D01*
Y717804D01*
X250698D01*
Y715264D01*
X248158D01*
Y710184D01*
X250698D01*
X297652Y716534D02*
Y713994D01*
X302732D01*
Y716534D01*
X305272D01*
Y721614D01*
X302732D01*
Y724154D01*
X297652D01*
Y721614D01*
X295112D01*
Y716534D01*
X297652D01*
X342392Y696892D02*
Y694352D01*
X347472D01*
Y696892D01*
X350012D01*
Y701972D01*
X347472D01*
Y704512D01*
X342392D01*
Y701972D01*
X339852D01*
Y696892D01*
X342392D01*
X282513Y596835D02*
Y594295D01*
X287593D01*
Y596835D01*
X290133D01*
Y601915D01*
X287593D01*
Y604455D01*
X282513D01*
Y601915D01*
X279973D01*
Y596835D01*
X282513D01*
X581152Y673608D02*
Y671068D01*
X586232D01*
Y673608D01*
X588772D01*
Y678688D01*
X586232D01*
Y681228D01*
X581152D01*
Y678688D01*
X578612D01*
Y673608D01*
X581152D01*
X689102Y319786D02*
Y317246D01*
X694182D01*
Y319786D01*
X696722D01*
Y324866D01*
X694182D01*
Y327406D01*
X689102D01*
Y324866D01*
X686562D01*
Y319786D01*
X689102D01*
X505460Y429768D02*
Y427228D01*
X510540D01*
Y429768D01*
X513080D01*
Y434848D01*
X510540D01*
Y437388D01*
X505460D01*
Y434848D01*
X502920D01*
Y429768D01*
X505460D01*
X513724Y604690D02*
Y602150D01*
X518804D01*
Y604690D01*
X521344D01*
Y609770D01*
X518804D01*
Y612310D01*
X513724D01*
Y609770D01*
X511184D01*
Y604690D01*
X513724D01*
X520074Y465244D02*
Y462704D01*
X525154D01*
Y465244D01*
X527694D01*
Y470324D01*
X525154D01*
Y472864D01*
X520074D01*
Y470324D01*
X517534D01*
Y465244D01*
X520074D01*
X1115484Y123614D02*
Y121074D01*
X1120564D01*
Y123614D01*
X1123104D01*
Y128694D01*
X1120564D01*
Y131234D01*
X1115484D01*
Y128694D01*
X1112944D01*
Y123614D01*
X1115484D01*
X430022Y596138D02*
Y593598D01*
X435102D01*
Y596138D01*
X437642D01*
Y601218D01*
X435102D01*
Y603758D01*
X430022D01*
Y601218D01*
X427482D01*
Y596138D01*
X430022D01*
X489458Y768604D02*
Y766064D01*
X494538D01*
Y768604D01*
X497078D01*
Y773684D01*
X494538D01*
Y776224D01*
X489458D01*
Y773684D01*
X486918D01*
Y768604D01*
X489458D01*
X433522Y982924D02*
Y980384D01*
X438602D01*
Y982924D01*
X441142D01*
Y988004D01*
X438602D01*
Y990544D01*
X433522D01*
Y988004D01*
X430982D01*
Y982924D01*
X433522D01*
X472068Y1044566D02*
Y1042026D01*
X477148D01*
Y1044566D01*
X479688D01*
Y1049646D01*
X477148D01*
Y1052186D01*
X472068D01*
Y1049646D01*
X469528D01*
Y1044566D01*
X472068D01*
X451494Y1059604D02*
Y1057064D01*
X456574D01*
Y1059604D01*
X459114D01*
Y1064684D01*
X456574D01*
Y1067224D01*
X451494D01*
Y1064684D01*
X448954D01*
Y1059604D01*
X451494D01*
X465718Y1053254D02*
Y1050714D01*
X470798D01*
Y1053254D01*
X473338D01*
Y1058334D01*
X470798D01*
Y1060874D01*
X465718D01*
Y1058334D01*
X463178D01*
Y1053254D01*
X465718D01*
X483616Y934382D02*
Y931842D01*
X488696D01*
Y934382D01*
X491236D01*
Y939462D01*
X488696D01*
Y942002D01*
X483616D01*
Y939462D01*
X481076D01*
Y934382D01*
X483616D01*
X489966Y1008634D02*
Y1006094D01*
X495046D01*
Y1008634D01*
X497586D01*
Y1013714D01*
X495046D01*
Y1016254D01*
X489966D01*
Y1013714D01*
X487426D01*
Y1008634D01*
X489966D01*
X698890Y801370D02*
Y798830D01*
X703970D01*
Y801370D01*
X706510D01*
Y806450D01*
X703970D01*
Y808990D01*
X698890D01*
Y806450D01*
X696350D01*
Y801370D01*
X698890D01*
X671458Y819320D02*
Y816780D01*
X676538D01*
Y819320D01*
X679078D01*
Y824400D01*
X676538D01*
Y826940D01*
X671458D01*
Y824400D01*
X668918D01*
Y819320D01*
X671458D01*
X641740Y817034D02*
Y814494D01*
X646820D01*
Y817034D01*
X649360D01*
Y822114D01*
X646820D01*
Y824654D01*
X641740D01*
Y822114D01*
X639200D01*
Y817034D01*
X641740D01*
X702864Y839640D02*
Y837100D01*
X707944D01*
Y839640D01*
X710484D01*
Y844720D01*
X707944D01*
Y847260D01*
X702864D01*
Y844720D01*
X700324D01*
Y839640D01*
X702864D01*
X318008Y670560D02*
Y668020D01*
X323088D01*
Y670560D01*
X325628D01*
Y675640D01*
X323088D01*
Y678180D01*
X318008D01*
Y675640D01*
X315468D01*
Y670560D01*
X318008D01*
X340868Y970788D02*
Y968248D01*
X345948D01*
Y970788D01*
X348488D01*
Y975868D01*
X345948D01*
Y978408D01*
X340868D01*
Y975868D01*
X338328D01*
Y970788D01*
X340868D01*
X863092Y1157902D02*
Y1155362D01*
X868172D01*
Y1157902D01*
X870712D01*
Y1162982D01*
X868172D01*
Y1165522D01*
X863092D01*
Y1162982D01*
X860552D01*
Y1157902D01*
X863092D01*
X1023112Y874776D02*
Y872236D01*
X1028192D01*
Y874776D01*
X1030732D01*
Y879856D01*
X1028192D01*
Y882396D01*
X1023112D01*
Y879856D01*
X1020572D01*
Y874776D01*
X1023112D01*
X899160Y938530D02*
Y935990D01*
X904240D01*
Y938530D01*
X906780D01*
Y943610D01*
X904240D01*
Y946150D01*
X899160D01*
Y943610D01*
X896620D01*
Y938530D01*
X899160D01*
X873252Y1541234D02*
Y1538694D01*
X878332D01*
Y1541234D01*
X880872D01*
Y1546314D01*
X878332D01*
Y1548854D01*
X873252D01*
Y1546314D01*
X870712D01*
Y1541234D01*
X873252D01*
X783336Y1359662D02*
Y1357122D01*
X788416D01*
Y1359662D01*
X790956D01*
Y1364742D01*
X788416D01*
Y1367282D01*
X783336D01*
Y1364742D01*
X780796D01*
Y1359662D01*
X783336D01*
X694436Y1326134D02*
Y1323594D01*
X699516D01*
Y1326134D01*
X702056D01*
Y1331214D01*
X699516D01*
Y1333754D01*
X694436D01*
Y1331214D01*
X691896D01*
Y1326134D01*
X694436D01*
X729996Y1292860D02*
Y1290320D01*
X735076D01*
Y1292860D01*
X737616D01*
Y1297940D01*
X735076D01*
Y1300480D01*
X729996D01*
Y1297940D01*
X727456D01*
Y1292860D01*
X729996D01*
X728429Y1282743D02*
Y1280203D01*
X733509D01*
Y1282743D01*
X736049D01*
Y1287823D01*
X733509D01*
Y1290363D01*
X728429D01*
Y1287823D01*
X725889D01*
Y1282743D01*
X728429D01*
X737870Y1203452D02*
Y1200912D01*
X742950D01*
Y1203452D01*
X745490D01*
Y1208532D01*
X742950D01*
Y1211072D01*
X737870D01*
Y1208532D01*
X735330D01*
Y1203452D01*
X737870D01*
X715908Y1236134D02*
Y1233594D01*
X720988D01*
Y1236134D01*
X723528D01*
Y1241214D01*
X720988D01*
Y1243754D01*
X715908D01*
Y1241214D01*
X713368D01*
Y1236134D01*
X715908D01*
X727964Y1185164D02*
Y1182624D01*
X733044D01*
Y1185164D01*
X735584D01*
Y1190244D01*
X733044D01*
Y1192784D01*
X727964D01*
Y1190244D01*
X725424D01*
Y1185164D01*
X727964D01*
X733552Y1194054D02*
Y1191514D01*
X738632D01*
Y1194054D01*
X741172D01*
Y1199134D01*
X738632D01*
Y1201674D01*
X733552D01*
Y1199134D01*
X731012D01*
Y1194054D01*
X733552D01*
X732028Y1144270D02*
Y1141730D01*
X737108D01*
Y1144270D01*
X739648D01*
Y1149350D01*
X737108D01*
Y1151890D01*
X732028D01*
Y1149350D01*
X729488D01*
Y1144270D01*
X732028D01*
X590178Y1110742D02*
Y1108202D01*
X595258D01*
Y1110742D01*
X597798D01*
Y1115822D01*
X595258D01*
Y1118362D01*
X590178D01*
Y1115822D01*
X587638D01*
Y1110742D01*
X590178D01*
X585978Y1193546D02*
Y1191006D01*
X591058D01*
Y1193546D01*
X593598D01*
Y1198626D01*
X591058D01*
Y1201166D01*
X585978D01*
Y1198626D01*
X583438D01*
Y1193546D01*
X585978D01*
X649308Y1228260D02*
Y1225720D01*
X654388D01*
Y1228260D01*
X656928D01*
Y1233340D01*
X654388D01*
Y1235880D01*
X649308D01*
Y1233340D01*
X646768D01*
Y1228260D01*
X649308D01*
X670052Y1223264D02*
Y1220724D01*
X675132D01*
Y1223264D01*
X677672D01*
Y1228344D01*
X675132D01*
Y1230884D01*
X670052D01*
Y1228344D01*
X667512D01*
Y1223264D01*
X670052D01*
X654948Y1253914D02*
Y1251374D01*
X660028D01*
Y1253914D01*
X662568D01*
Y1258994D01*
X660028D01*
Y1261534D01*
X654948D01*
Y1258994D01*
X652408D01*
Y1253914D01*
X654948D01*
X586486Y1278382D02*
Y1275842D01*
X591566D01*
Y1278382D01*
X594106D01*
Y1283462D01*
X591566D01*
Y1286002D01*
X586486D01*
Y1283462D01*
X583946D01*
Y1278382D01*
X586486D01*
X574684Y1261026D02*
Y1258486D01*
X579764D01*
Y1261026D01*
X582304D01*
Y1266106D01*
X579764D01*
Y1268646D01*
X574684D01*
Y1266106D01*
X572144D01*
Y1261026D01*
X574684D01*
X648877Y1342281D02*
Y1339741D01*
X653957D01*
Y1342281D01*
X656497D01*
Y1347361D01*
X653957D01*
Y1349901D01*
X648877D01*
Y1347361D01*
X646337D01*
Y1342281D01*
X648877D01*
X630702Y1385042D02*
Y1382502D01*
X635782D01*
Y1385042D01*
X638322D01*
Y1390122D01*
X635782D01*
Y1392662D01*
X630702D01*
Y1390122D01*
X628162D01*
Y1385042D01*
X630702D01*
X635000Y1355344D02*
Y1352804D01*
X640080D01*
Y1355344D01*
X642620D01*
Y1360424D01*
X640080D01*
Y1362964D01*
X635000D01*
Y1360424D01*
X632460D01*
Y1355344D01*
X635000D01*
X579882Y1380236D02*
Y1377696D01*
X584962D01*
Y1380236D01*
X587502D01*
Y1385316D01*
X584962D01*
Y1387856D01*
X579882D01*
Y1385316D01*
X577342D01*
Y1380236D01*
X579882D01*
X380334Y1088560D02*
Y1086020D01*
X385414D01*
Y1088560D01*
X387954D01*
Y1093640D01*
X385414D01*
Y1096180D01*
X380334D01*
Y1093640D01*
X377794D01*
Y1088560D01*
X380334D01*
X399002Y1072896D02*
Y1070356D01*
X404082D01*
Y1072896D01*
X406622D01*
Y1077976D01*
X404082D01*
Y1080516D01*
X399002D01*
Y1077976D01*
X396462D01*
Y1072896D01*
X399002D01*
X373634Y1079246D02*
Y1076706D01*
X378714D01*
Y1079246D01*
X381254D01*
Y1084326D01*
X378714D01*
Y1086866D01*
X373634D01*
Y1084326D01*
X371094D01*
Y1079246D01*
X373634D01*
X359156Y1122172D02*
Y1119632D01*
X364236D01*
Y1122172D01*
X366776D01*
Y1127252D01*
X364236D01*
Y1129792D01*
X359156D01*
Y1127252D01*
X356616D01*
Y1122172D01*
X359156D01*
X329438Y1117600D02*
Y1115060D01*
X334518D01*
Y1117600D01*
X337058D01*
Y1122680D01*
X334518D01*
Y1125220D01*
X329438D01*
Y1122680D01*
X326898D01*
Y1117600D01*
X329438D01*
X345174Y1093386D02*
Y1090846D01*
X350254D01*
Y1093386D01*
X352794D01*
Y1098466D01*
X350254D01*
Y1101006D01*
X345174D01*
Y1098466D01*
X342634D01*
Y1093386D01*
X345174D01*
X289972Y1088994D02*
Y1086454D01*
X295052D01*
Y1088994D01*
X297592D01*
Y1094074D01*
X295052D01*
Y1096614D01*
X289972D01*
Y1094074D01*
X287432D01*
Y1088994D01*
X289972D01*
X279790Y1075690D02*
Y1073150D01*
X284870D01*
Y1075690D01*
X287410D01*
Y1080770D01*
X284870D01*
Y1083310D01*
X279790D01*
Y1080770D01*
X277250D01*
Y1075690D01*
X279790D01*
X286512Y1043432D02*
Y1040892D01*
X291592D01*
Y1043432D01*
X294132D01*
Y1048512D01*
X291592D01*
Y1051052D01*
X286512D01*
Y1048512D01*
X283972D01*
Y1043432D01*
X286512D01*
X280670Y1048258D02*
Y1045718D01*
X285750D01*
Y1048258D01*
X288290D01*
Y1053338D01*
X285750D01*
Y1055878D01*
X280670D01*
Y1053338D01*
X278130D01*
Y1048258D01*
X280670D01*
X269587Y1043374D02*
Y1040834D01*
X274667D01*
Y1043374D01*
X277207D01*
Y1048454D01*
X274667D01*
Y1050994D01*
X269587D01*
Y1048454D01*
X267047D01*
Y1043374D01*
X269587D01*
X370840Y1040574D02*
Y1038034D01*
X375920D01*
Y1040574D01*
X378460D01*
Y1045654D01*
X375920D01*
Y1048194D01*
X370840D01*
Y1045654D01*
X368300D01*
Y1040574D01*
X370840D01*
X374622Y1017694D02*
Y1015154D01*
X379702D01*
Y1017694D01*
X382242D01*
Y1022774D01*
X379702D01*
Y1025314D01*
X374622D01*
Y1022774D01*
X372082D01*
Y1017694D01*
X374622D01*
X355854Y1009396D02*
Y1006856D01*
X360934D01*
Y1009396D01*
X363474D01*
Y1014476D01*
X360934D01*
Y1017016D01*
X355854D01*
Y1014476D01*
X353314D01*
Y1009396D01*
X355854D01*
X339598Y1015492D02*
Y1012952D01*
X344678D01*
Y1015492D01*
X347218D01*
Y1020572D01*
X344678D01*
Y1023112D01*
X339598D01*
Y1020572D01*
X337058D01*
Y1015492D01*
X339598D01*
X258572Y552958D02*
Y550418D01*
X263652D01*
Y552958D01*
X266192D01*
Y558038D01*
X263652D01*
Y560578D01*
X258572D01*
Y558038D01*
X256032D01*
Y552958D01*
X258572D01*
X283972Y546520D02*
Y543980D01*
X289052D01*
Y546520D01*
X291592D01*
Y551600D01*
X289052D01*
Y554140D01*
X283972D01*
Y551600D01*
X281432D01*
Y546520D01*
X283972D01*
X273050Y559308D02*
Y556768D01*
X278130D01*
Y559308D01*
X280670D01*
Y564388D01*
X278130D01*
Y566928D01*
X273050D01*
Y564388D01*
X270510D01*
Y559308D01*
X273050D01*
X315468Y540004D02*
Y537464D01*
X320548D01*
Y540004D01*
X323088D01*
Y545084D01*
X320548D01*
Y547624D01*
X315468D01*
Y545084D01*
X312928D01*
Y540004D01*
X315468D01*
X342138Y578358D02*
Y575818D01*
X347218D01*
Y578358D01*
X349758D01*
Y583438D01*
X347218D01*
Y585978D01*
X342138D01*
Y583438D01*
X339598D01*
Y578358D01*
X342138D01*
X351375Y582719D02*
Y580179D01*
X356455D01*
Y582719D01*
X358995D01*
Y587799D01*
X356455D01*
Y590339D01*
X351375D01*
Y587799D01*
X348835D01*
Y582719D01*
X351375D01*
X365252Y591820D02*
Y589280D01*
X370332D01*
Y591820D01*
X372872D01*
Y596900D01*
X370332D01*
Y599440D01*
X365252D01*
Y596900D01*
X362712D01*
Y591820D01*
X365252D01*
X357378Y624078D02*
Y621538D01*
X362458D01*
Y624078D01*
X364998D01*
Y629158D01*
X362458D01*
Y631698D01*
X357378D01*
Y629158D01*
X354838D01*
Y624078D01*
X357378D01*
X382524Y599948D02*
Y597408D01*
X387604D01*
Y599948D01*
X390144D01*
Y605028D01*
X387604D01*
Y607568D01*
X382524D01*
Y605028D01*
X379984D01*
Y599948D01*
X382524D01*
X406654Y615950D02*
Y613410D01*
X411734D01*
Y615950D01*
X414274D01*
Y621030D01*
X411734D01*
Y623570D01*
X406654D01*
Y621030D01*
X404114D01*
Y615950D01*
X406654D01*
X316366Y596900D02*
Y594360D01*
X321446D01*
Y596900D01*
X323986D01*
Y601980D01*
X321446D01*
Y604520D01*
X316366D01*
Y601980D01*
X313826D01*
Y596900D01*
X316366D01*
X369452Y657776D02*
Y655236D01*
X374532D01*
Y657776D01*
X377072D01*
Y662856D01*
X374532D01*
Y665396D01*
X369452D01*
Y662856D01*
X366912D01*
Y657776D01*
X369452D01*
X380019Y709961D02*
Y707421D01*
X385099D01*
Y709961D01*
X387639D01*
Y715042D01*
X385099D01*
Y717581D01*
X380019D01*
Y715042D01*
X377479D01*
Y709961D01*
X380019D01*
X372110Y697308D02*
Y694768D01*
X377190D01*
Y697308D01*
X379730D01*
Y702388D01*
X377190D01*
Y704928D01*
X372110D01*
Y702388D01*
X369570D01*
Y697308D01*
X372110D01*
X352298Y716280D02*
Y713740D01*
X357378D01*
Y716280D01*
X359918D01*
Y721360D01*
X357378D01*
Y723900D01*
X352298D01*
Y721360D01*
X349758D01*
Y716280D01*
X352298D01*
X357124Y702310D02*
Y699770D01*
X362204D01*
Y702310D01*
X364744D01*
Y707390D01*
X362204D01*
Y709930D01*
X357124D01*
Y707390D01*
X354584D01*
Y702310D01*
X357124D01*
X298704Y750062D02*
Y747522D01*
X303784D01*
Y750062D01*
X306324D01*
Y755142D01*
X303784D01*
Y757682D01*
X298704D01*
Y755142D01*
X296164D01*
Y750062D01*
X298704D01*
X845464Y710590D02*
Y708050D01*
X850544D01*
Y710590D01*
X853084D01*
Y715670D01*
X850544D01*
Y718210D01*
X845464D01*
Y715670D01*
X842924D01*
Y710590D01*
X845464D01*
X547097Y569194D02*
Y566654D01*
X552177D01*
Y569194D01*
X554717D01*
Y574274D01*
X552177D01*
Y576814D01*
X547097D01*
Y574274D01*
X544557D01*
Y569194D01*
X547097D01*
X41430Y545084D02*
Y542544D01*
X46510D01*
Y545084D01*
X49050D01*
Y550164D01*
X46510D01*
Y552704D01*
X41430D01*
Y550164D01*
X38890D01*
Y545084D01*
X41430D01*
X523879Y1169294D02*
Y1166754D01*
X528959D01*
Y1169294D01*
X531499D01*
Y1174374D01*
X528959D01*
Y1176914D01*
X523879D01*
Y1174374D01*
X521339D01*
Y1169294D01*
X523879D01*
X100838Y677672D02*
Y675132D01*
X105918D01*
Y677672D01*
X108458D01*
Y682752D01*
X105918D01*
Y685292D01*
X100838D01*
Y682752D01*
X98298D01*
Y677672D01*
X100838D01*
X37592Y671068D02*
Y668528D01*
X42672D01*
Y671068D01*
X45212D01*
Y676148D01*
X42672D01*
Y678688D01*
X37592D01*
Y676148D01*
X35052D01*
Y671068D01*
X37592D01*
X91948Y757428D02*
Y754888D01*
X97028D01*
Y757428D01*
X99568D01*
Y762508D01*
X97028D01*
Y765048D01*
X91948D01*
Y762508D01*
X89408D01*
Y757428D01*
X91948D01*
X65786Y873506D02*
Y870966D01*
X70866D01*
Y873506D01*
X73406D01*
Y878586D01*
X70866D01*
Y881126D01*
X65786D01*
Y878586D01*
X63246D01*
Y873506D01*
X65786D01*
X196088Y1556258D02*
Y1553718D01*
X201168D01*
Y1556258D01*
X203708D01*
Y1561338D01*
X201168D01*
Y1563878D01*
X196088D01*
Y1561338D01*
X193548D01*
Y1556258D01*
X196088D01*
X515874Y1243076D02*
Y1240536D01*
X520954D01*
Y1243076D01*
X523494D01*
Y1248156D01*
X520954D01*
Y1250696D01*
X515874D01*
Y1248156D01*
X513334D01*
Y1243076D01*
X515874D01*
X526288Y1272794D02*
Y1270254D01*
X531368D01*
Y1272794D01*
X533908D01*
Y1277874D01*
X531368D01*
Y1280414D01*
X526288D01*
Y1277874D01*
X523748D01*
Y1272794D01*
X526288D01*
X539242Y1276096D02*
Y1273556D01*
X544322D01*
Y1276096D01*
X546862D01*
Y1281176D01*
X544322D01*
Y1283716D01*
X539242D01*
Y1281176D01*
X536702D01*
Y1276096D01*
X539242D01*
X357988Y572144D02*
Y569604D01*
X363068D01*
Y572144D01*
X365608D01*
Y577224D01*
X363068D01*
Y579764D01*
X357988D01*
Y577224D01*
X355448D01*
Y572144D01*
X357988D01*
X379104Y629836D02*
Y627296D01*
X384184D01*
Y629836D01*
X386724D01*
Y634916D01*
X384184D01*
Y637456D01*
X379104D01*
Y634916D01*
X376564D01*
Y629836D01*
X379104D01*
X320430Y624248D02*
Y621708D01*
X325510D01*
Y624248D01*
X328050D01*
Y629328D01*
X325510D01*
Y631868D01*
X320430D01*
Y629328D01*
X317890D01*
Y624248D01*
X320430D01*
X299094Y650918D02*
Y648378D01*
X304174D01*
Y650918D01*
X306714D01*
Y655998D01*
X304174D01*
Y658538D01*
X299094D01*
Y655998D01*
X296554D01*
Y650918D01*
X299094D01*
X231530Y681652D02*
Y679112D01*
X236610D01*
Y681652D01*
X239150D01*
Y686732D01*
X236610D01*
Y689272D01*
X231530D01*
Y686732D01*
X228990D01*
Y681652D01*
X231530D01*
X350334Y1172126D02*
Y1169586D01*
X355414D01*
Y1172126D01*
X357954D01*
Y1177206D01*
X355414D01*
Y1179746D01*
X350334D01*
Y1177206D01*
X347794D01*
Y1172126D01*
X350334D01*
X339158Y1078908D02*
Y1076368D01*
X344238D01*
Y1078908D01*
X346778D01*
Y1083988D01*
X344238D01*
Y1086528D01*
X339158D01*
Y1083988D01*
X336618D01*
Y1078908D01*
X339158D01*
X195462Y808906D02*
Y806366D01*
X200542D01*
Y808906D01*
X203082D01*
Y813986D01*
X200542D01*
Y816526D01*
X195462D01*
Y813986D01*
X192922D01*
Y808906D01*
X195462D01*
X347354Y957496D02*
Y954956D01*
X352434D01*
Y957496D01*
X354974D01*
Y962576D01*
X352434D01*
Y965116D01*
X347354D01*
Y962576D01*
X344814D01*
Y957496D01*
X347354D01*
X1046870Y318686D02*
Y316146D01*
X1051950D01*
Y318686D01*
X1054490D01*
Y323766D01*
X1051950D01*
Y326306D01*
X1046870D01*
Y323766D01*
X1044330D01*
Y318686D01*
X1046870D01*
X266275Y763641D02*
Y761101D01*
X271355D01*
Y763641D01*
X273895D01*
Y768721D01*
X271355D01*
Y771261D01*
X266275D01*
Y768721D01*
X263735D01*
Y763641D01*
X266275D01*
X113928Y1325998D02*
Y1323458D01*
X119008D01*
Y1325998D01*
X121548D01*
Y1331078D01*
X119008D01*
Y1333618D01*
X113928D01*
Y1331078D01*
X111388D01*
Y1325998D01*
X113928D01*
X229752Y929871D02*
Y927331D01*
X234832D01*
Y929871D01*
X237372D01*
Y934951D01*
X234832D01*
Y937491D01*
X229752D01*
Y934951D01*
X227212D01*
Y929871D01*
X229752D01*
X296672Y1366826D02*
Y1364286D01*
X301752D01*
Y1366826D01*
X304292D01*
Y1371906D01*
X301752D01*
Y1374446D01*
X296672D01*
Y1371906D01*
X294132D01*
Y1366826D01*
X296672D01*
X108960Y99604D02*
Y97064D01*
X114040D01*
Y99604D01*
X116580D01*
Y104684D01*
X114040D01*
Y107224D01*
X108960D01*
Y104684D01*
X106420D01*
Y99604D01*
X108960D01*
X197494Y943780D02*
Y941240D01*
X202574D01*
Y943780D01*
X205114D01*
Y948860D01*
X202574D01*
Y951400D01*
X197494D01*
Y948860D01*
X194954D01*
Y943780D01*
X197494D01*
X265058Y1004232D02*
Y1001692D01*
X270138D01*
Y1004232D01*
X272678D01*
Y1009312D01*
X270138D01*
Y1011852D01*
X265058D01*
Y1009312D01*
X262518D01*
Y1004232D01*
X265058D01*
X711844Y715180D02*
Y712640D01*
X716924D01*
Y715180D01*
X719464D01*
Y720260D01*
X716924D01*
Y722800D01*
X711844D01*
Y720260D01*
X709304D01*
Y715180D01*
X711844D01*
X777376Y966806D02*
Y964266D01*
X782456D01*
Y966806D01*
X784996D01*
Y971886D01*
X782456D01*
Y974426D01*
X777376D01*
Y971886D01*
X774836D01*
Y966806D01*
X777376D01*
X707272Y771060D02*
Y768520D01*
X712352D01*
Y771060D01*
X714892D01*
Y776140D01*
X712352D01*
Y778680D01*
X707272D01*
Y776140D01*
X704732D01*
Y771060D01*
X707272D01*
X589416Y853356D02*
Y850816D01*
X594496D01*
Y853356D01*
X597036D01*
Y858436D01*
X594496D01*
Y860976D01*
X589416D01*
Y858436D01*
X586876D01*
Y853356D01*
X589416D01*
X373770Y882820D02*
Y880280D01*
X378850D01*
Y882820D01*
X381390D01*
Y887900D01*
X378850D01*
Y890440D01*
X373770D01*
Y887900D01*
X371230D01*
Y882820D01*
X373770D01*
X132724Y765980D02*
Y763440D01*
X137804D01*
Y765980D01*
X140344D01*
Y771060D01*
X137804D01*
Y773600D01*
X132724D01*
Y771060D01*
X130184D01*
Y765980D01*
X132724D01*
X79164Y446956D02*
Y444416D01*
X84244D01*
Y446956D01*
X86784D01*
Y452036D01*
X84244D01*
Y454576D01*
X79164D01*
Y452036D01*
X76624D01*
Y446956D01*
X79164D01*
X594743Y1514010D02*
Y1511470D01*
X599823D01*
Y1514010D01*
X602363D01*
Y1519090D01*
X599823D01*
Y1521630D01*
X594743D01*
Y1519090D01*
X592203D01*
Y1514010D01*
X594743D01*
X810142Y1461940D02*
Y1459400D01*
X815222D01*
Y1461940D01*
X817762D01*
Y1467020D01*
X815222D01*
Y1469560D01*
X810142D01*
Y1467020D01*
X807602D01*
Y1461940D01*
X810142D01*
X418474Y1415204D02*
Y1412664D01*
X423554D01*
Y1415204D01*
X426094D01*
Y1420284D01*
X423554D01*
Y1422824D01*
X418474D01*
Y1420284D01*
X415934D01*
Y1415204D01*
X418474D01*
X582216Y1313044D02*
Y1310504D01*
X587296D01*
Y1313044D01*
X589836D01*
Y1318124D01*
X587296D01*
Y1320664D01*
X582216D01*
Y1318124D01*
X579676D01*
Y1313044D01*
X582216D01*
X828176Y973498D02*
Y970958D01*
X833256D01*
Y973498D01*
X835796D01*
Y978578D01*
X833256D01*
Y981118D01*
X828176D01*
Y978578D01*
X825636D01*
Y973498D01*
X828176D01*
X898788Y1016932D02*
Y1014392D01*
X903868D01*
Y1016932D01*
X906408D01*
Y1022012D01*
X903868D01*
Y1024552D01*
X898788D01*
Y1022012D01*
X896248D01*
Y1016932D01*
X898788D01*
X735974Y1090338D02*
Y1087798D01*
X741054D01*
Y1090338D01*
X743594D01*
Y1095418D01*
X741054D01*
Y1097958D01*
X735974D01*
Y1095418D01*
X733434D01*
Y1090338D01*
X735974D01*
X505333Y1100582D02*
Y1098042D01*
X510413D01*
Y1100582D01*
X512953D01*
Y1105662D01*
X510413D01*
Y1108202D01*
X505333D01*
Y1105662D01*
X502793D01*
Y1100582D01*
X505333D01*
X92371Y1503817D02*
Y1501277D01*
X97451D01*
Y1503817D01*
X99991D01*
Y1508897D01*
X97451D01*
Y1511437D01*
X92371D01*
Y1508897D01*
X89831D01*
Y1503817D01*
X92371D01*
X821572Y1057064D02*
Y1054524D01*
X826652D01*
Y1057064D01*
X829192D01*
Y1062144D01*
X826652D01*
Y1064684D01*
X821572D01*
Y1062144D01*
X819032D01*
Y1057064D01*
X821572D01*
X147456Y851070D02*
Y848530D01*
X152536D01*
Y851070D01*
X155076D01*
Y856150D01*
X152536D01*
Y858690D01*
X147456D01*
Y856150D01*
X144916D01*
Y851070D01*
X147456D01*
X707780Y873168D02*
Y870628D01*
X712860D01*
Y873168D01*
X715400D01*
Y878248D01*
X712860D01*
Y880788D01*
X707780D01*
Y878248D01*
X705240D01*
Y873168D01*
X707780D01*
X472068Y999213D02*
Y996674D01*
X477148D01*
Y999213D01*
X479688D01*
Y1004294D01*
X477148D01*
Y1006833D01*
X472068D01*
Y1004294D01*
X469528D01*
Y999213D01*
X472068D01*
Y1022266D02*
Y1019726D01*
X477148D01*
Y1022266D01*
X479688D01*
Y1027346D01*
X477148D01*
Y1029886D01*
X472068D01*
Y1027346D01*
X469528D01*
Y1022266D01*
X472068D01*
X154568Y1015916D02*
Y1013376D01*
X159648D01*
Y1015916D01*
X162188D01*
Y1020996D01*
X159648D01*
Y1023536D01*
X154568D01*
Y1020996D01*
X152028D01*
Y1015916D01*
X154568D01*
X507882Y1016086D02*
Y1013546D01*
X512962D01*
Y1016086D01*
X515502D01*
Y1021166D01*
X512962D01*
Y1023706D01*
X507882D01*
Y1021166D01*
X505342D01*
Y1016086D01*
X507882D01*
X782757Y1065328D02*
Y1062788D01*
X787837D01*
Y1065328D01*
X790377D01*
Y1070408D01*
X787837D01*
Y1072948D01*
X782757D01*
Y1070408D01*
X780217D01*
Y1065328D01*
X782757D01*
X891168Y491406D02*
Y488866D01*
X896248D01*
Y491406D01*
X898788D01*
Y496486D01*
X896248D01*
Y499026D01*
X891168D01*
Y496486D01*
X888628D01*
Y491406D01*
X891168D01*
X784488Y872660D02*
Y870120D01*
X789568D01*
Y872660D01*
X792108D01*
Y877740D01*
X789568D01*
Y880280D01*
X784488D01*
Y877740D01*
X781948D01*
Y872660D01*
X784488D01*
X468512Y1229530D02*
Y1226990D01*
X473592D01*
Y1229530D01*
X476132D01*
Y1234610D01*
X473592D01*
Y1237150D01*
X468512D01*
Y1234610D01*
X465972D01*
Y1229530D01*
X468512D01*
X428380Y1086274D02*
Y1083734D01*
X433460D01*
Y1086274D01*
X436000D01*
Y1091354D01*
X433460D01*
Y1093894D01*
X428380D01*
Y1091354D01*
X425840D01*
Y1086274D01*
X428380D01*
X432444Y1118278D02*
Y1115738D01*
X437524D01*
Y1118278D01*
X440064D01*
Y1123358D01*
X437524D01*
Y1125898D01*
X432444D01*
Y1123358D01*
X429904D01*
Y1118278D01*
X432444D01*
X516772Y1073320D02*
Y1070780D01*
X521852D01*
Y1073320D01*
X524392D01*
Y1078400D01*
X521852D01*
Y1080940D01*
X516772D01*
Y1078400D01*
X514232D01*
Y1073320D01*
X516772D01*
X169808Y796460D02*
Y793920D01*
X174888D01*
Y796460D01*
X177428D01*
Y801540D01*
X174888D01*
Y804080D01*
X169808D01*
Y801540D01*
X167268D01*
Y796460D01*
X169808D01*
Y929556D02*
Y927016D01*
X174888D01*
Y929556D01*
X177428D01*
Y934636D01*
X174888D01*
Y937176D01*
X169808D01*
Y934636D01*
X167268D01*
Y929556D01*
X169808D01*
X607450Y1054016D02*
Y1051476D01*
X612530D01*
Y1054016D01*
X615070D01*
Y1059096D01*
X612530D01*
Y1061636D01*
X607450D01*
Y1059096D01*
X604910D01*
Y1054016D01*
X607450D01*
X503310Y855896D02*
Y853356D01*
X508390D01*
Y855896D01*
X510930D01*
Y860976D01*
X508390D01*
Y863516D01*
X503310D01*
Y860976D01*
X500770D01*
Y855896D01*
X503310D01*
X362968Y981104D02*
Y978564D01*
X368048D01*
Y981104D01*
X370588D01*
Y986184D01*
X368048D01*
Y988724D01*
X362968D01*
Y986184D01*
X360428D01*
Y981104D01*
X362968D01*
X120278Y959612D02*
Y957072D01*
X125358D01*
Y959612D01*
X127898D01*
Y964692D01*
X125358D01*
Y967232D01*
X120278D01*
Y964692D01*
X117738D01*
Y959612D01*
X120278D01*
X570366Y593768D02*
Y591228D01*
X575446D01*
Y593768D01*
X577986D01*
Y598848D01*
X575446D01*
Y601388D01*
X570366D01*
Y598848D01*
X567826D01*
Y593768D01*
X570366D01*
X585606Y422572D02*
Y420032D01*
X590686D01*
Y422572D01*
X593226D01*
Y427652D01*
X590686D01*
Y430192D01*
X585606D01*
Y427652D01*
X583066D01*
Y422572D01*
X585606D01*
X495944Y661586D02*
Y659046D01*
X501024D01*
Y661586D01*
X503564D01*
Y666666D01*
X501024D01*
Y669206D01*
X495944D01*
Y666666D01*
X493404D01*
Y661586D01*
X495944D01*
X413983Y1214544D02*
Y1212004D01*
X419063D01*
Y1214544D01*
X421603D01*
Y1219624D01*
X419063D01*
Y1222164D01*
X413983D01*
Y1219624D01*
X411443D01*
Y1214544D01*
X413983D01*
X432888Y1017948D02*
Y1015408D01*
X437968D01*
Y1017948D01*
X440508D01*
Y1023028D01*
X437968D01*
Y1025568D01*
X432888D01*
Y1023028D01*
X430349D01*
Y1017948D01*
X432888D01*
X503310Y675895D02*
Y673355D01*
X508390D01*
Y675895D01*
X510930D01*
Y680975D01*
X508390D01*
Y683515D01*
X503310D01*
Y680975D01*
X500770D01*
Y675895D01*
X503310D01*
X699398Y1092116D02*
Y1089576D01*
X704478D01*
Y1092116D01*
X707018D01*
Y1097196D01*
X704478D01*
Y1099736D01*
X699398D01*
Y1097196D01*
X696858D01*
Y1092116D01*
X699398D01*
X859790Y411480D02*
Y408940D01*
X864870D01*
Y411480D01*
X867410D01*
Y416560D01*
X864870D01*
Y419100D01*
X859790D01*
Y416560D01*
X857250D01*
Y411480D01*
X859790D01*
X333384Y660697D02*
Y658157D01*
X338464D01*
Y660697D01*
X341004D01*
Y665777D01*
X338464D01*
Y668317D01*
X333384D01*
Y665777D01*
X330844D01*
Y660697D01*
X333384D01*
X434730Y671746D02*
Y669206D01*
X439810D01*
Y671746D01*
X442350D01*
Y676826D01*
X439810D01*
Y679366D01*
X434730D01*
Y676826D01*
X432190D01*
Y671746D01*
X434730D01*
X459876Y412158D02*
Y409618D01*
X464956D01*
Y412158D01*
X467496D01*
Y417238D01*
X464956D01*
Y419778D01*
X459876D01*
Y417238D01*
X457336D01*
Y412158D01*
X459876D01*
X495436Y822368D02*
Y819828D01*
X500516D01*
Y822368D01*
X503056D01*
Y827448D01*
X500516D01*
Y829988D01*
X495436D01*
Y827448D01*
X492896D01*
Y822368D01*
X495436D01*
X445144Y1143932D02*
Y1141392D01*
X450224D01*
Y1143932D01*
X452764D01*
Y1149012D01*
X450224D01*
Y1151552D01*
X445144D01*
Y1149012D01*
X442604D01*
Y1143932D01*
X445144D01*
X431376Y1282108D02*
Y1279568D01*
X436456D01*
Y1282108D01*
X438996D01*
Y1287188D01*
X436456D01*
Y1289728D01*
X431376D01*
Y1287188D01*
X428836D01*
Y1282108D01*
X431376D01*
X592718Y950638D02*
Y948098D01*
X597798D01*
Y950638D01*
X600338D01*
Y955718D01*
X597798D01*
Y958258D01*
X592718D01*
Y955718D01*
X590178D01*
Y950638D01*
X592718D01*
X459368Y996866D02*
Y994326D01*
X464448D01*
Y996866D01*
X466988D01*
Y1001946D01*
X464448D01*
Y1004486D01*
X459368D01*
Y1001946D01*
X456828D01*
Y996866D01*
X459368D01*
X461908Y1192446D02*
Y1189906D01*
X466988D01*
Y1192446D01*
X469528D01*
Y1197526D01*
X466988D01*
Y1200066D01*
X461908D01*
Y1197526D01*
X459368D01*
Y1192446D01*
X461908D01*
X221596Y772810D02*
Y770270D01*
X226676D01*
Y772810D01*
X229216D01*
Y777890D01*
X226676D01*
Y780430D01*
X221596D01*
Y777890D01*
X219056D01*
Y772810D01*
X221596D01*
X342782Y893996D02*
Y891456D01*
X347862D01*
Y893996D01*
X350402D01*
Y899076D01*
X347862D01*
Y901616D01*
X342782D01*
Y899076D01*
X340242D01*
Y893996D01*
X342782D01*
X416696Y1285918D02*
Y1283378D01*
X421776D01*
Y1285918D01*
X424316D01*
Y1290998D01*
X421776D01*
Y1293538D01*
X416696D01*
Y1290998D01*
X414156D01*
Y1285918D01*
X416696D01*
X363440Y1252136D02*
Y1249596D01*
X368520D01*
Y1252136D01*
X371060D01*
Y1257216D01*
X368520D01*
Y1259756D01*
X363440D01*
Y1257216D01*
X360900D01*
Y1252136D01*
X363440D01*
X438286Y201338D02*
Y198798D01*
X443366D01*
Y201338D01*
X445906D01*
Y206418D01*
X443366D01*
Y208958D01*
X438286D01*
Y206418D01*
X435746D01*
Y201338D01*
X438286D01*
X313318Y947336D02*
Y944796D01*
X318398D01*
Y947336D01*
X320938D01*
Y952416D01*
X318398D01*
Y954956D01*
X313318D01*
Y952416D01*
X310778D01*
Y947336D01*
X313318D01*
X100974Y185844D02*
Y183304D01*
X106054D01*
Y185844D01*
X108594D01*
Y190924D01*
X106054D01*
Y193464D01*
X100974D01*
Y190924D01*
X98434D01*
Y185844D01*
X100974D01*
X265820Y103040D02*
Y100500D01*
X270900D01*
Y103040D01*
X273440D01*
Y108120D01*
X270900D01*
Y110660D01*
X265820D01*
Y108120D01*
X263280D01*
Y103040D01*
X265820D01*
X475606Y246804D02*
Y244264D01*
X480686D01*
Y246804D01*
X483226D01*
Y251884D01*
X480686D01*
Y254424D01*
X475606D01*
Y251884D01*
X473066D01*
Y246804D01*
X475606D01*
X773058Y1292014D02*
Y1289474D01*
X778138D01*
Y1292014D01*
X780678D01*
Y1297094D01*
X778138D01*
Y1299634D01*
X773058D01*
Y1297094D01*
X770518D01*
Y1292014D01*
X773058D01*
Y1228514D02*
Y1225974D01*
X778138D01*
Y1228514D01*
X780678D01*
Y1233594D01*
X778138D01*
Y1236134D01*
X773058D01*
Y1233594D01*
X770518D01*
Y1228514D01*
X773058D01*
X729116Y1324356D02*
Y1321816D01*
X734196D01*
Y1324356D01*
X736736D01*
Y1329436D01*
X734196D01*
Y1331976D01*
X729116D01*
Y1329436D01*
X726576D01*
Y1324356D01*
X729116D01*
X425840Y1223180D02*
Y1220640D01*
X430920D01*
Y1223180D01*
X433460D01*
Y1228260D01*
X430920D01*
Y1230800D01*
X425840D01*
Y1228260D01*
X423300D01*
Y1223180D01*
X425840D01*
X352688Y1208194D02*
Y1205654D01*
X357768D01*
Y1208194D01*
X360308D01*
Y1213274D01*
X357768D01*
Y1215814D01*
X352688D01*
Y1213274D01*
X350148D01*
Y1208194D01*
X352688D01*
X126628Y930318D02*
Y927778D01*
X131708D01*
Y930318D01*
X134248D01*
Y935398D01*
X131708D01*
Y937938D01*
X126628D01*
Y935398D01*
X124088D01*
Y930318D01*
X126628D01*
X245500Y1116500D02*
Y1113960D01*
X250580D01*
Y1116500D01*
X253120D01*
Y1121580D01*
X250580D01*
Y1124120D01*
X245500D01*
Y1121580D01*
X242960D01*
Y1116500D01*
X245500D01*
X142122Y662348D02*
Y659808D01*
X147202D01*
Y662348D01*
X149742D01*
Y667428D01*
X147202D01*
Y669968D01*
X142122D01*
Y667428D01*
X139582D01*
Y662348D01*
X142122D01*
X107578Y940986D02*
Y938446D01*
X112658D01*
Y940986D01*
X115198D01*
Y946066D01*
X112658D01*
Y948606D01*
X107578D01*
Y946066D01*
X105038D01*
Y940986D01*
X107578D01*
X257024Y1023282D02*
Y1020742D01*
X262104D01*
Y1023282D01*
X264643D01*
Y1028362D01*
X262104D01*
Y1030902D01*
X257024D01*
Y1028362D01*
X254484D01*
Y1023282D01*
X257024D01*
X319922Y1009312D02*
Y1006772D01*
X325002D01*
Y1009312D01*
X327542D01*
Y1014392D01*
X325002D01*
Y1016932D01*
X319922D01*
Y1014392D01*
X317382D01*
Y1009312D01*
X319922D01*
X392674Y642536D02*
Y639996D01*
X397754D01*
Y642536D01*
X400294D01*
Y647616D01*
X397754D01*
Y650156D01*
X392674D01*
Y647616D01*
X390134D01*
Y642536D01*
X392674D01*
X607958Y487088D02*
Y484548D01*
X613038D01*
Y487088D01*
X615578D01*
Y492168D01*
X613038D01*
Y494708D01*
X607958D01*
Y492168D01*
X605418D01*
Y487088D01*
X607958D01*
X394140Y920768D02*
Y918228D01*
X399220D01*
Y920768D01*
X401760D01*
Y925848D01*
X399220D01*
Y928388D01*
X394140D01*
Y925848D01*
X391600D01*
Y920768D01*
X394140D01*
X200864Y1587924D02*
Y1585384D01*
X205944D01*
Y1587924D01*
X208484D01*
Y1593004D01*
X205944D01*
Y1595544D01*
X200864D01*
Y1593004D01*
X198324D01*
Y1587924D01*
X200864D01*
X933078Y845736D02*
Y843196D01*
X938158D01*
Y845736D01*
X940698D01*
Y850816D01*
X938158D01*
Y853356D01*
X933078D01*
Y850816D01*
X930538D01*
Y845736D01*
X933078D01*
X640470Y858690D02*
Y856150D01*
X645550D01*
Y858690D01*
X648090D01*
Y863770D01*
X645550D01*
Y866310D01*
X640470D01*
Y863770D01*
X637930D01*
Y858690D01*
X640470D01*
X501532Y1035982D02*
Y1033442D01*
X506612D01*
Y1035982D01*
X509152D01*
Y1041062D01*
X506612D01*
Y1043602D01*
X501532D01*
Y1041062D01*
X498992D01*
Y1035982D01*
X501532D01*
X189112Y1046650D02*
Y1044110D01*
X194192D01*
Y1046650D01*
X196732D01*
Y1051730D01*
X194192D01*
Y1054270D01*
X189112D01*
Y1051730D01*
X186572D01*
Y1046650D01*
X189112D01*
X507374Y656760D02*
Y654220D01*
X512454D01*
Y656760D01*
X514994D01*
Y661840D01*
X512454D01*
Y664380D01*
X507374D01*
Y661840D01*
X504834D01*
Y656760D01*
X507374D01*
X707916Y282990D02*
Y280450D01*
X712996D01*
Y282990D01*
X715536D01*
Y288070D01*
X712996D01*
Y290610D01*
X707916D01*
Y288070D01*
X705376D01*
Y282990D01*
X707916D01*
X72526Y1292014D02*
Y1289474D01*
X77606D01*
Y1292014D01*
X80146D01*
Y1297094D01*
X77606D01*
Y1299634D01*
X72526D01*
Y1297094D01*
X69986D01*
Y1292014D01*
X72526D01*
X150622Y1317160D02*
Y1314620D01*
X155702D01*
Y1317160D01*
X158242D01*
Y1322240D01*
X155702D01*
Y1324780D01*
X150622D01*
Y1322240D01*
X148082D01*
Y1317160D01*
X150622D01*
X508898Y1208194D02*
Y1205654D01*
X513978D01*
Y1208194D01*
X516518D01*
Y1213274D01*
X513978D01*
Y1215814D01*
X508898D01*
Y1213274D01*
X506358D01*
Y1208194D01*
X508898D01*
X637168Y1098466D02*
Y1095926D01*
X642248D01*
Y1098466D01*
X644788D01*
Y1103546D01*
X642248D01*
Y1106086D01*
X637168D01*
Y1103546D01*
X634628D01*
Y1098466D01*
X637168D01*
X894724Y464228D02*
Y461688D01*
X899804D01*
Y464228D01*
X902344D01*
Y469308D01*
X899804D01*
Y471848D01*
X894724D01*
Y469308D01*
X892184D01*
Y464228D01*
X894724D01*
X343290Y1156632D02*
Y1154092D01*
X348370D01*
Y1156632D01*
X350910D01*
Y1161712D01*
X348370D01*
Y1164252D01*
X343290D01*
Y1161712D01*
X340750D01*
Y1156632D01*
X343290D01*
X432190Y1141646D02*
Y1139106D01*
X437270D01*
Y1141646D01*
X439810D01*
Y1146726D01*
X437270D01*
Y1149266D01*
X432190D01*
Y1146726D01*
X429650D01*
Y1141646D01*
X432190D01*
X426539Y997374D02*
Y994834D01*
X431618D01*
Y997374D01*
X434159D01*
Y1002454D01*
X431618D01*
Y1004994D01*
X426539D01*
Y1002454D01*
X423998D01*
Y997374D01*
X426539D01*
X431428Y210228D02*
Y207688D01*
X436508D01*
Y210228D01*
X439048D01*
Y215308D01*
X436508D01*
Y217848D01*
X431428D01*
Y215308D01*
X428888D01*
Y210228D01*
X431428D01*
X623452Y682668D02*
Y680128D01*
X628532D01*
Y682668D01*
X631072D01*
Y687748D01*
X628532D01*
Y690288D01*
X623452D01*
Y687748D01*
X620912D01*
Y682668D01*
X623452D01*
X616594Y368470D02*
Y365930D01*
X621674D01*
Y368470D01*
X624214D01*
Y373550D01*
X621674D01*
Y376090D01*
X616594D01*
Y373550D01*
X614054D01*
Y368470D01*
X616594D01*
X89544Y521124D02*
Y518584D01*
X94624D01*
Y521124D01*
X97164D01*
Y526204D01*
X94624D01*
Y528744D01*
X89544D01*
Y526204D01*
X87004D01*
Y521124D01*
X89544D01*
X218830Y747438D02*
Y744898D01*
X223910D01*
Y747438D01*
X226450D01*
Y752518D01*
X223910D01*
Y755058D01*
X218830D01*
Y752518D01*
X216290D01*
Y747438D01*
X218830D01*
X876944Y732706D02*
Y730166D01*
X882024D01*
Y732706D01*
X884564D01*
Y737786D01*
X882024D01*
Y740326D01*
X876944D01*
Y737786D01*
X874404D01*
Y732706D01*
X876944D01*
X444636Y1034204D02*
Y1031664D01*
X449716D01*
Y1034204D01*
X452256D01*
Y1039284D01*
X449716D01*
Y1041824D01*
X444636D01*
Y1039284D01*
X442096D01*
Y1034204D01*
X444636D01*
X130184Y716196D02*
Y713656D01*
X135264D01*
Y716196D01*
X137804D01*
Y721276D01*
X135264D01*
Y723816D01*
X130184D01*
Y721276D01*
X127644D01*
Y716196D01*
X130184D01*
X345805Y987454D02*
Y984914D01*
X350885D01*
Y987454D01*
X353425D01*
Y992534D01*
X350885D01*
Y995074D01*
X345805D01*
Y992534D01*
X343265D01*
Y987454D01*
X345805D01*
X625738Y873168D02*
Y870628D01*
X630818D01*
Y873168D01*
X633358D01*
Y878248D01*
X630818D01*
Y880788D01*
X625738D01*
Y878248D01*
X623198D01*
Y873168D01*
X625738D01*
X214512Y893234D02*
Y890694D01*
X219592D01*
Y893234D01*
X222132D01*
Y898314D01*
X219592D01*
Y900854D01*
X214512D01*
Y898314D01*
X211972D01*
Y893234D01*
X214512D01*
X160918Y1025060D02*
Y1022520D01*
X165998D01*
Y1025060D01*
X168538D01*
Y1030140D01*
X165998D01*
Y1032680D01*
X160918D01*
Y1030140D01*
X158378D01*
Y1025060D01*
X160918D01*
X208162Y835152D02*
Y832612D01*
X213242D01*
Y835152D01*
X215782D01*
Y840232D01*
X213242D01*
Y842772D01*
X208162D01*
Y840232D01*
X205622D01*
Y835152D01*
X208162D01*
X177682Y670476D02*
Y667936D01*
X182762D01*
Y670476D01*
X185302D01*
Y675556D01*
X182762D01*
Y678096D01*
X177682D01*
Y675556D01*
X175142D01*
Y670476D01*
X177682D01*
X297316Y623486D02*
Y620946D01*
X302396D01*
Y623486D01*
X304936D01*
Y628566D01*
X302396D01*
Y631106D01*
X297316D01*
Y628566D01*
X294776D01*
Y623486D01*
X297316D01*
X491118Y544746D02*
Y542206D01*
X496198D01*
Y544746D01*
X498738D01*
Y549826D01*
X496198D01*
Y552366D01*
X491118D01*
Y549826D01*
X488578D01*
Y544746D01*
X491118D01*
X412954Y707560D02*
Y705020D01*
X418034D01*
Y707560D01*
X420574D01*
Y712640D01*
X418034D01*
Y715180D01*
X412954D01*
Y712640D01*
X410414D01*
Y707560D01*
X412954D01*
X417966Y776732D02*
Y774192D01*
X423046D01*
Y776732D01*
X425586D01*
Y781812D01*
X423046D01*
Y784352D01*
X417966D01*
Y781812D01*
X415426D01*
Y776732D01*
X417966D01*
X650376Y694352D02*
Y691812D01*
X655456D01*
Y694352D01*
X657996D01*
Y699432D01*
X655456D01*
Y701972D01*
X650376D01*
Y699432D01*
X647836D01*
Y694352D01*
X650376D01*
X475878Y693590D02*
Y691050D01*
X480958D01*
Y693590D01*
X483498D01*
Y698670D01*
X480958D01*
Y701210D01*
X475878D01*
Y698670D01*
X473338D01*
Y693590D01*
X475878D01*
X818270Y828210D02*
Y825670D01*
X823350D01*
Y828210D01*
X825890D01*
Y833290D01*
X823350D01*
Y835830D01*
X818270D01*
Y833290D01*
X815730D01*
Y828210D01*
X818270D01*
X208670Y778426D02*
Y775886D01*
X213750D01*
Y778426D01*
X216290D01*
Y783506D01*
X213750D01*
Y786046D01*
X208670D01*
Y783506D01*
X206130D01*
Y778426D01*
X208670D01*
X248040Y647108D02*
Y644568D01*
X253120D01*
Y647108D01*
X255660D01*
Y652188D01*
X253120D01*
Y654728D01*
X248040D01*
Y652188D01*
X245500D01*
Y647108D01*
X248040D01*
X337820Y781982D02*
Y779442D01*
X342900D01*
Y781982D01*
X345440D01*
Y787062D01*
X342900D01*
Y789602D01*
X337820D01*
Y787062D01*
X335280D01*
Y781982D01*
X337820D01*
X237880Y733976D02*
Y731436D01*
X242960D01*
Y733976D01*
X245500D01*
Y739056D01*
X242960D01*
Y741596D01*
X237880D01*
Y739056D01*
X235340D01*
Y733976D01*
X237880D01*
X347608Y763948D02*
Y761408D01*
X352688D01*
Y763948D01*
X355228D01*
Y769028D01*
X352688D01*
Y771568D01*
X347608D01*
Y769028D01*
X345068D01*
Y763948D01*
X347608D01*
X369316Y757598D02*
Y755058D01*
X374396D01*
Y757598D01*
X376936D01*
Y762678D01*
X374396D01*
Y765218D01*
X369316D01*
Y762678D01*
X366776D01*
Y757598D01*
X369316D01*
X478897Y531001D02*
Y528461D01*
X483977D01*
Y531001D01*
X486517D01*
Y536081D01*
X483977D01*
Y538621D01*
X478897D01*
Y536081D01*
X476357D01*
Y531001D01*
X478897D01*
X978036Y1019472D02*
Y1016932D01*
X983116D01*
Y1019472D01*
X985656D01*
Y1024552D01*
X983116D01*
Y1027092D01*
X978036D01*
Y1024552D01*
X975496D01*
Y1019472D01*
X978036D01*
X428254Y1577764D02*
Y1575224D01*
X433334D01*
Y1577764D01*
X435874D01*
Y1582844D01*
X433334D01*
Y1585384D01*
X428254D01*
Y1582844D01*
X425714D01*
Y1577764D01*
X428254D01*
X417712Y1261026D02*
Y1258486D01*
X422792D01*
Y1261026D01*
X425332D01*
Y1266106D01*
X422792D01*
Y1268646D01*
X417712D01*
Y1266106D01*
X415172D01*
Y1261026D01*
X417712D01*
X343382Y1124374D02*
Y1121834D01*
X348462D01*
Y1124374D01*
X351002D01*
Y1129454D01*
X348462D01*
Y1131994D01*
X343382D01*
Y1129454D01*
X340842D01*
Y1124374D01*
X343382D01*
X934602Y1139106D02*
Y1136566D01*
X939682D01*
Y1139106D01*
X942222D01*
Y1144186D01*
X939682D01*
Y1146726D01*
X934602D01*
Y1144186D01*
X932062D01*
Y1139106D01*
X934602D01*
X593226Y1584876D02*
Y1582336D01*
X598306D01*
Y1584876D01*
X600846D01*
Y1589956D01*
X598306D01*
Y1592496D01*
X593226D01*
Y1589956D01*
X590686D01*
Y1584876D01*
X593226D01*
X474608Y1317160D02*
Y1314620D01*
X479688D01*
Y1317160D01*
X482228D01*
Y1322240D01*
X479688D01*
Y1324780D01*
X474608D01*
Y1322240D01*
X472068D01*
Y1317160D01*
X474608D01*
X350334Y1080686D02*
Y1078146D01*
X355414D01*
Y1080686D01*
X357954D01*
Y1085766D01*
X355414D01*
Y1088306D01*
X350334D01*
Y1085766D01*
X347794D01*
Y1080686D01*
X350334D01*
X190890Y1361610D02*
Y1359070D01*
X195970D01*
Y1361610D01*
X198510D01*
Y1366690D01*
X195970D01*
Y1369230D01*
X190890D01*
Y1366690D01*
X188350D01*
Y1361610D01*
X190890D01*
X307526Y599610D02*
Y597070D01*
X312606D01*
Y599610D01*
X315146D01*
Y604690D01*
X312606D01*
Y607230D01*
X307526D01*
Y604690D01*
X304986D01*
Y599610D01*
X307526D01*
X485022Y295064D02*
Y292524D01*
X490102D01*
Y295064D01*
X492642D01*
Y300144D01*
X490102D01*
Y302684D01*
X485022D01*
Y300144D01*
X482482D01*
Y295064D01*
X485022D01*
X126374Y1025568D02*
Y1023028D01*
X131454D01*
Y1025568D01*
X133994D01*
Y1030648D01*
X131454D01*
Y1033188D01*
X126374D01*
Y1030648D01*
X123834D01*
Y1025568D01*
X126374D01*
X1036828Y843568D02*
Y841028D01*
X1041908D01*
Y843568D01*
X1044448D01*
Y848648D01*
X1041908D01*
Y851188D01*
X1036828D01*
Y848648D01*
X1034288D01*
Y843568D01*
X1036828D01*
X815002Y1096434D02*
Y1093894D01*
X820082D01*
Y1096434D01*
X822622D01*
Y1101514D01*
X820082D01*
Y1104054D01*
X815002D01*
Y1101514D01*
X812462D01*
Y1096434D01*
X815002D01*
X474862Y1247564D02*
Y1245024D01*
X479942D01*
Y1247564D01*
X482482D01*
Y1252644D01*
X479942D01*
Y1255184D01*
X474862D01*
Y1252644D01*
X472322D01*
Y1247564D01*
X474862D01*
X798712Y704240D02*
Y701700D01*
X803792D01*
Y704240D01*
X806332D01*
Y709320D01*
X803792D01*
Y711860D01*
X798712D01*
Y709320D01*
X796172D01*
Y704240D01*
X798712D01*
X625992Y1172126D02*
Y1169586D01*
X631072D01*
Y1172126D01*
X633612D01*
Y1177206D01*
X631072D01*
Y1179746D01*
X625992D01*
Y1177206D01*
X623452D01*
Y1172126D01*
X625992D01*
X581034Y1173904D02*
Y1171364D01*
X586114D01*
Y1173904D01*
X588654D01*
Y1178984D01*
X586114D01*
Y1181524D01*
X581034D01*
Y1178984D01*
X578494D01*
Y1173904D01*
X581034D01*
X290966Y622182D02*
Y619642D01*
X296046D01*
Y622182D01*
X298586D01*
Y627262D01*
X296046D01*
Y629802D01*
X290966D01*
Y627262D01*
X288426D01*
Y622182D01*
X290966D01*
X750960Y1249763D02*
Y1247223D01*
X756040D01*
Y1249763D01*
X758580D01*
Y1254843D01*
X756040D01*
Y1257383D01*
X750960D01*
Y1254843D01*
X748420D01*
Y1249763D01*
X750960D01*
X469804Y1417976D02*
Y1415436D01*
X474884D01*
Y1417976D01*
X477424D01*
Y1423056D01*
X474884D01*
Y1425596D01*
X469804D01*
Y1423056D01*
X467264D01*
Y1417976D01*
X469804D01*
X597798Y1319954D02*
Y1317414D01*
X602878D01*
Y1319954D01*
X605418D01*
Y1325034D01*
X602878D01*
Y1327574D01*
X597798D01*
Y1325034D01*
X595258D01*
Y1319954D01*
X597798D01*
X408568Y1406060D02*
Y1403520D01*
X413648D01*
Y1406060D01*
X416188D01*
Y1411140D01*
X413648D01*
Y1413680D01*
X408568D01*
Y1411140D01*
X406028D01*
Y1406060D01*
X408568D01*
X673998Y1153838D02*
Y1151298D01*
X679078D01*
Y1153838D01*
X681618D01*
Y1158918D01*
X679078D01*
Y1161458D01*
X673998D01*
Y1158918D01*
X671458D01*
Y1153838D01*
X673998D01*
X330590Y1322494D02*
Y1319954D01*
X335670D01*
Y1322494D01*
X338210D01*
Y1327574D01*
X335670D01*
Y1330114D01*
X330590D01*
Y1327574D01*
X328050D01*
Y1322494D01*
X330590D01*
X318144Y1366436D02*
Y1363896D01*
X323224D01*
Y1366436D01*
X325764D01*
Y1371516D01*
X323224D01*
Y1374056D01*
X318144D01*
Y1371516D01*
X315604D01*
Y1366436D01*
X318144D01*
X128778Y1285156D02*
Y1282616D01*
X133858D01*
Y1285156D01*
X136398D01*
Y1290236D01*
X133858D01*
Y1292776D01*
X128778D01*
Y1290236D01*
X126238D01*
Y1285156D01*
X128778D01*
D145*
X1134215Y1158849D02*
G03*
X1134215Y1158849I-5080J0D01*
G01*
X966216D02*
G03*
X966216Y1158849I-5080J0D01*
G01*
X944608Y548878D02*
G03*
X944608Y548878I-5080J0D01*
G01*
X893064Y534162D02*
G03*
X893064Y534162I-5080J0D01*
G01*
X1066292Y551434D02*
G03*
X1066292Y551434I-5080J0D01*
G01*
X922020Y581914D02*
G03*
X922020Y581914I-5080J0D01*
G01*
X968977Y668307D02*
G03*
X968977Y668307I-5080J0D01*
G01*
X1136904Y907796D02*
G03*
X1136904Y907796I-5080J0D01*
G01*
X1130554Y1125728D02*
G03*
X1130554Y1125728I-5080J0D01*
G01*
D146*
X942576Y548878D02*
G03*
X942576Y548878I-3048J0D01*
G01*
X891032Y534162D02*
G03*
X891032Y534162I-3048J0D01*
G01*
X1064260Y551434D02*
G03*
X1064260Y551434I-3048J0D01*
G01*
X919988Y581914D02*
G03*
X919988Y581914I-3048J0D01*
G01*
X966945Y668307D02*
G03*
X966945Y668307I-3048J0D01*
G01*
X1134872Y907796D02*
G03*
X1134872Y907796I-3048J0D01*
G01*
X1128522Y1125728D02*
G03*
X1128522Y1125728I-3048J0D01*
G01*
M02*
