G04*
G04 #@! TF.GenerationSoftware,Altium Limited,Altium Designer,24.1.2 (44)*
G04*
G04 Layer_Color=255*
%FSLAX44Y44*%
%MOMM*%
G71*
G04*
G04 #@! TF.SameCoordinates,9E3D1DA3-FC52-4BB6-AAC9-55B28770B0AD*
G04*
G04*
G04 #@! TF.FilePolarity,Positive*
G04*
G01*
G75*
%ADD20R,0.9121X0.9581*%
%ADD21R,0.7400X2.7900*%
G04:AMPARAMS|DCode=22|XSize=1.5mm|YSize=0.3mm|CornerRadius=0.0495mm|HoleSize=0mm|Usage=FLASHONLY|Rotation=90.000|XOffset=0mm|YOffset=0mm|HoleType=Round|Shape=RoundedRectangle|*
%AMROUNDEDRECTD22*
21,1,1.5000,0.2010,0,0,90.0*
21,1,1.4010,0.3000,0,0,90.0*
1,1,0.0990,0.1005,0.7005*
1,1,0.0990,0.1005,-0.7005*
1,1,0.0990,-0.1005,-0.7005*
1,1,0.0990,-0.1005,0.7005*
%
%ADD22ROUNDEDRECTD22*%
%ADD23O,1.2700X2.5400*%
%ADD24R,0.9581X0.9121*%
G04:AMPARAMS|DCode=25|XSize=1.1mm|YSize=0.6mm|CornerRadius=0.051mm|HoleSize=0mm|Usage=FLASHONLY|Rotation=0.000|XOffset=0mm|YOffset=0mm|HoleType=Round|Shape=RoundedRectangle|*
%AMROUNDEDRECTD25*
21,1,1.1000,0.4980,0,0,0.0*
21,1,0.9980,0.6000,0,0,0.0*
1,1,0.1020,0.4990,-0.2490*
1,1,0.1020,-0.4990,-0.2490*
1,1,0.1020,-0.4990,0.2490*
1,1,0.1020,0.4990,0.2490*
%
%ADD25ROUNDEDRECTD25*%
%ADD26R,0.9000X0.8500*%
%ADD27R,0.9000X0.7500*%
%ADD28R,1.2500X2.5000*%
%ADD29R,0.6000X1.8000*%
%ADD30R,0.8500X0.9000*%
%ADD31R,0.8500X0.7000*%
%ADD32R,1.5000X1.3000*%
%ADD33R,0.7556X0.8121*%
%ADD34R,2.5000X1.2500*%
%ADD35R,4.6000X1.5000*%
%ADD36R,1.5200X2.1800*%
%ADD37R,2.1800X1.5200*%
%ADD38R,0.8000X1.0000*%
%ADD39R,1.5500X0.6000*%
%ADD40R,0.7581X0.8121*%
%ADD41R,0.8000X0.8000*%
%ADD42R,0.9500X0.9500*%
%ADD43R,1.4000X1.2000*%
G04:AMPARAMS|DCode=44|XSize=1.8741mm|YSize=0.5421mm|CornerRadius=0.2711mm|HoleSize=0mm|Usage=FLASHONLY|Rotation=180.000|XOffset=0mm|YOffset=0mm|HoleType=Round|Shape=RoundedRectangle|*
%AMROUNDEDRECTD44*
21,1,1.8741,0.0000,0,0,180.0*
21,1,1.3319,0.5421,0,0,180.0*
1,1,0.5421,-0.6660,0.0000*
1,1,0.5421,0.6660,0.0000*
1,1,0.5421,0.6660,0.0000*
1,1,0.5421,-0.6660,0.0000*
%
%ADD44ROUNDEDRECTD44*%
%ADD45R,1.8741X0.5421*%
G04:AMPARAMS|DCode=46|XSize=2.0771mm|YSize=0.5821mm|CornerRadius=0.2911mm|HoleSize=0mm|Usage=FLASHONLY|Rotation=0.000|XOffset=0mm|YOffset=0mm|HoleType=Round|Shape=RoundedRectangle|*
%AMROUNDEDRECTD46*
21,1,2.0771,0.0000,0,0,0.0*
21,1,1.4949,0.5821,0,0,0.0*
1,1,0.5821,0.7475,0.0000*
1,1,0.5821,-0.7475,0.0000*
1,1,0.5821,-0.7475,0.0000*
1,1,0.5821,0.7475,0.0000*
%
%ADD46ROUNDEDRECTD46*%
%ADD47R,2.0771X0.5821*%
%ADD48R,1.3000X0.9000*%
%ADD49R,0.7000X0.7000*%
%ADD50R,0.5200X0.5600*%
%ADD51R,1.0600X1.0600*%
%ADD52R,1.1549X2.1062*%
%ADD53R,1.7399X1.7399*%
%ADD54C,1.5240*%
G04:AMPARAMS|DCode=55|XSize=2.1692mm|YSize=0.5821mm|CornerRadius=0.2911mm|HoleSize=0mm|Usage=FLASHONLY|Rotation=90.000|XOffset=0mm|YOffset=0mm|HoleType=Round|Shape=RoundedRectangle|*
%AMROUNDEDRECTD55*
21,1,2.1692,0.0000,0,0,90.0*
21,1,1.5870,0.5821,0,0,90.0*
1,1,0.5821,0.0000,0.7935*
1,1,0.5821,0.0000,-0.7935*
1,1,0.5821,0.0000,-0.7935*
1,1,0.5821,0.0000,0.7935*
%
%ADD55ROUNDEDRECTD55*%
%ADD56R,0.5821X2.1692*%
%ADD57R,0.9500X0.9500*%
%ADD58R,0.6604X0.3048*%
%ADD59R,2.1590X2.7430*%
%ADD60O,0.7000X2.5000*%
%ADD61R,1.0000X2.0500*%
%ADD62R,5.6500X6.9000*%
%ADD63R,1.9000X1.3000*%
%ADD64R,14.0000X5.0000*%
%ADD96R,2.4500X2.4500*%
%ADD97C,2.4500*%
%ADD109C,1.7400*%
%ADD110R,1.7400X1.7400*%
%ADD121C,1.6000*%
G04:AMPARAMS|DCode=122|XSize=1.6mm|YSize=1.6mm|CornerRadius=0.4mm|HoleSize=0mm|Usage=FLASHONLY|Rotation=90.000|XOffset=0mm|YOffset=0mm|HoleType=Round|Shape=RoundedRectangle|*
%AMROUNDEDRECTD122*
21,1,1.6000,0.8000,0,0,90.0*
21,1,0.8000,1.6000,0,0,90.0*
1,1,0.8000,0.4000,0.4000*
1,1,0.8000,0.4000,-0.4000*
1,1,0.8000,-0.4000,-0.4000*
1,1,0.8000,-0.4000,0.4000*
%
%ADD122ROUNDEDRECTD122*%
%ADD123R,1.5240X1.5240*%
%ADD124C,1.5500*%
%ADD125R,1.5500X1.5500*%
%ADD126C,2.5400*%
%ADD127C,4.0000*%
%ADD128R,1.5000X1.5000*%
%ADD129C,1.5000*%
%ADD130R,1.6510X1.6510*%
%ADD131C,1.6510*%
%ADD132R,1.5500X1.5500*%
%ADD133C,4.4450*%
%ADD134C,1.6500*%
%ADD135C,4.8000*%
G04:AMPARAMS|DCode=136|XSize=1.65mm|YSize=1.65mm|CornerRadius=0.4125mm|HoleSize=0mm|Usage=FLASHONLY|Rotation=180.000|XOffset=0mm|YOffset=0mm|HoleType=Round|Shape=RoundedRectangle|*
%AMROUNDEDRECTD136*
21,1,1.6500,0.8250,0,0,180.0*
21,1,0.8250,1.6500,0,0,180.0*
1,1,0.8250,-0.4125,0.4125*
1,1,0.8250,0.4125,0.4125*
1,1,0.8250,0.4125,-0.4125*
1,1,0.8250,-0.4125,-0.4125*
%
%ADD136ROUNDEDRECTD136*%
%ADD137R,1.4000X1.4000*%
%ADD138C,1.4000*%
D20*
X862330Y478948D02*
D03*
Y464408D02*
D03*
X329438Y557880D02*
D03*
Y572420D02*
D03*
X302006Y557626D02*
D03*
Y572166D02*
D03*
X858220Y766628D02*
D03*
Y752088D02*
D03*
X742188Y310326D02*
D03*
Y324866D02*
D03*
X919226Y322992D02*
D03*
Y308452D02*
D03*
X624586Y1038194D02*
D03*
Y1052734D02*
D03*
X598170Y1053496D02*
D03*
Y1038956D02*
D03*
X287274Y742538D02*
D03*
Y757078D02*
D03*
X560832Y1131631D02*
D03*
Y1117092D02*
D03*
X502158Y1080166D02*
D03*
Y1065626D02*
D03*
X72390Y361284D02*
D03*
Y375824D02*
D03*
D21*
X465328Y1299434D02*
D03*
X478028D02*
D03*
X490728D02*
D03*
X503428D02*
D03*
X516128D02*
D03*
X528828D02*
D03*
X541528D02*
D03*
X465328Y1340134D02*
D03*
X478028D02*
D03*
X490728D02*
D03*
X503428D02*
D03*
X516128D02*
D03*
X528828D02*
D03*
X541528D02*
D03*
D22*
X267874Y1031804D02*
D03*
X272874D02*
D03*
X277874D02*
D03*
X282874D02*
D03*
X287874D02*
D03*
X292874D02*
D03*
X297874D02*
D03*
X302874D02*
D03*
X307874D02*
D03*
X312874D02*
D03*
X317874D02*
D03*
X322874D02*
D03*
X327874D02*
D03*
X332874D02*
D03*
X337874D02*
D03*
X342874D02*
D03*
X347874D02*
D03*
X352874D02*
D03*
X357874D02*
D03*
X362874D02*
D03*
X367874D02*
D03*
X372874D02*
D03*
X377874D02*
D03*
X382874D02*
D03*
Y1106804D02*
D03*
X377874D02*
D03*
X372874D02*
D03*
X367874D02*
D03*
X362874D02*
D03*
X357874D02*
D03*
X352874D02*
D03*
X347874D02*
D03*
X342874D02*
D03*
X337874D02*
D03*
X332874D02*
D03*
X327874D02*
D03*
X322874D02*
D03*
X317874D02*
D03*
X312874D02*
D03*
X307874D02*
D03*
X302874D02*
D03*
X297874D02*
D03*
X292874D02*
D03*
X287874D02*
D03*
X282874D02*
D03*
X277874D02*
D03*
X272874D02*
D03*
X267874D02*
D03*
X280066Y613248D02*
D03*
X285066D02*
D03*
X290066D02*
D03*
X295066D02*
D03*
X300066D02*
D03*
X305066D02*
D03*
X310066D02*
D03*
X315066D02*
D03*
X320066D02*
D03*
X325066D02*
D03*
X330066D02*
D03*
X335066D02*
D03*
X340066D02*
D03*
X345066D02*
D03*
X350066D02*
D03*
X355066D02*
D03*
X360066D02*
D03*
X365066D02*
D03*
X370066D02*
D03*
X375066D02*
D03*
X380066D02*
D03*
X385066D02*
D03*
X390066D02*
D03*
X395066D02*
D03*
Y688248D02*
D03*
X390066D02*
D03*
X385066D02*
D03*
X380066D02*
D03*
X375066D02*
D03*
X370066D02*
D03*
X365066D02*
D03*
X360066D02*
D03*
X355066D02*
D03*
X350066D02*
D03*
X345066D02*
D03*
X340066D02*
D03*
X335066D02*
D03*
X330066D02*
D03*
X325066D02*
D03*
X320066D02*
D03*
X315066D02*
D03*
X310066D02*
D03*
X305066D02*
D03*
X300066D02*
D03*
X295066D02*
D03*
X290066D02*
D03*
X285066D02*
D03*
X280066D02*
D03*
D23*
X641069Y376682D02*
D03*
X666389D02*
D03*
X691709D02*
D03*
X717029D02*
D03*
X742348D02*
D03*
X767668D02*
D03*
X792988D02*
D03*
X641858Y973582D02*
D03*
X667368Y974264D02*
D03*
X692687D02*
D03*
X718007D02*
D03*
X743327D02*
D03*
X768646D02*
D03*
D24*
X182920Y1044872D02*
D03*
X168380D02*
D03*
X108434Y1092708D02*
D03*
X122974D02*
D03*
X1079850Y304038D02*
D03*
X1094390D02*
D03*
X177738Y986282D02*
D03*
X192278D02*
D03*
X176784Y954786D02*
D03*
X191324D02*
D03*
X940420Y774344D02*
D03*
X925880D02*
D03*
X371856Y842772D02*
D03*
X386396D02*
D03*
X372206Y869696D02*
D03*
X386746D02*
D03*
X232252Y861822D02*
D03*
X246792D02*
D03*
D25*
X139882Y1045228D02*
D03*
Y1035728D02*
D03*
Y1026228D02*
D03*
X113882D02*
D03*
Y1035728D02*
D03*
Y1045228D02*
D03*
X879764Y755446D02*
D03*
Y764946D02*
D03*
Y774446D02*
D03*
X905764D02*
D03*
Y764946D02*
D03*
Y755446D02*
D03*
X106380Y952652D02*
D03*
Y962152D02*
D03*
Y971652D02*
D03*
X132380D02*
D03*
Y962152D02*
D03*
Y952652D02*
D03*
D26*
X255778Y932792D02*
D03*
Y945792D02*
D03*
X340360Y730654D02*
D03*
Y717654D02*
D03*
X82804Y1499974D02*
D03*
Y1512974D02*
D03*
X680720Y1371704D02*
D03*
Y1384704D02*
D03*
X681228Y1281026D02*
D03*
Y1294026D02*
D03*
X1057656Y313032D02*
D03*
Y326032D02*
D03*
X912368Y445666D02*
D03*
Y432667D02*
D03*
X283718Y1306426D02*
D03*
Y1319426D02*
D03*
X131318Y1302212D02*
D03*
Y1315212D02*
D03*
X858982Y736140D02*
D03*
Y723140D02*
D03*
X400558Y1099312D02*
D03*
Y1112312D02*
D03*
X677926Y1114148D02*
D03*
Y1127148D02*
D03*
Y1196698D02*
D03*
Y1209698D02*
D03*
X691388Y1149962D02*
D03*
Y1162962D02*
D03*
D27*
X927562Y806506D02*
D03*
Y794506D02*
D03*
Y836066D02*
D03*
Y824066D02*
D03*
D28*
X870440Y43434D02*
D03*
X836440D02*
D03*
D29*
X327508Y948878D02*
D03*
X337008Y928878D02*
D03*
X318008D02*
D03*
D30*
X191158Y1010920D02*
D03*
X178158D02*
D03*
X295252Y719074D02*
D03*
X308252D02*
D03*
X466806Y711962D02*
D03*
X479806D02*
D03*
X263607Y590804D02*
D03*
X276606D02*
D03*
X719629Y1262380D02*
D03*
X706628D02*
D03*
D31*
X713740Y312512D02*
D03*
Y324012D02*
D03*
X716026Y1032764D02*
D03*
Y1021264D02*
D03*
X335288Y1390860D02*
D03*
Y1379360D02*
D03*
X317000Y1390860D02*
D03*
Y1379360D02*
D03*
X163584Y1387002D02*
D03*
Y1375502D02*
D03*
X179332Y1387002D02*
D03*
Y1375502D02*
D03*
D32*
X300228Y886232D02*
D03*
X325628D02*
D03*
Y794232D02*
D03*
X300228D02*
D03*
D33*
X882963Y799490D02*
D03*
X896469D02*
D03*
D34*
X373380Y957308D02*
D03*
Y923308D02*
D03*
X1025652Y334500D02*
D03*
Y300500D02*
D03*
X990092Y334500D02*
D03*
Y300500D02*
D03*
X954532Y334500D02*
D03*
Y300500D02*
D03*
X280162Y960610D02*
D03*
Y926610D02*
D03*
D35*
X854710Y598540D02*
D03*
Y549540D02*
D03*
D36*
X444647Y626618D02*
D03*
X481437D02*
D03*
D37*
X914908Y601071D02*
D03*
Y564281D02*
D03*
D38*
X124848Y566420D02*
D03*
X109848D02*
D03*
D39*
X602920Y1358392D02*
D03*
Y1371092D02*
D03*
Y1383792D02*
D03*
Y1396492D02*
D03*
X656920D02*
D03*
Y1383792D02*
D03*
Y1371092D02*
D03*
Y1358392D02*
D03*
X602666Y1268222D02*
D03*
Y1280922D02*
D03*
Y1293622D02*
D03*
Y1306322D02*
D03*
X656666D02*
D03*
Y1293622D02*
D03*
Y1280922D02*
D03*
Y1268222D02*
D03*
X604444Y1100582D02*
D03*
Y1113282D02*
D03*
Y1125982D02*
D03*
Y1138682D02*
D03*
X658444D02*
D03*
Y1125982D02*
D03*
Y1113282D02*
D03*
Y1100582D02*
D03*
X210998Y67564D02*
D03*
Y54864D02*
D03*
Y42164D02*
D03*
Y29464D02*
D03*
X264998D02*
D03*
Y42164D02*
D03*
Y54864D02*
D03*
Y67564D02*
D03*
X603428Y1183132D02*
D03*
Y1195832D02*
D03*
Y1208532D02*
D03*
Y1221232D02*
D03*
X657428D02*
D03*
Y1208532D02*
D03*
Y1195832D02*
D03*
Y1183132D02*
D03*
D40*
X716788Y1493266D02*
D03*
X729328D02*
D03*
X188294Y1493012D02*
D03*
X200834D02*
D03*
X229028Y1492758D02*
D03*
X216488D02*
D03*
X687912Y1493012D02*
D03*
X700452D02*
D03*
D41*
X727068Y1574800D02*
D03*
X742068D02*
D03*
X175634Y1569720D02*
D03*
X190634D02*
D03*
X225672Y1568196D02*
D03*
X240672D02*
D03*
X690760Y1572514D02*
D03*
X675760D02*
D03*
D42*
X475862Y787400D02*
D03*
X490862D02*
D03*
X382644Y742950D02*
D03*
X397644D02*
D03*
X502038Y201676D02*
D03*
X487038D02*
D03*
X502038Y220980D02*
D03*
X487038D02*
D03*
D43*
X746838Y1396864D02*
D03*
X724838D02*
D03*
Y1379864D02*
D03*
X746838D02*
D03*
D44*
X713740Y1149096D02*
D03*
Y1161796D02*
D03*
Y1174496D02*
D03*
Y1187196D02*
D03*
Y1199896D02*
D03*
Y1212596D02*
D03*
Y1225296D02*
D03*
X760061D02*
D03*
Y1212596D02*
D03*
Y1199896D02*
D03*
Y1187196D02*
D03*
Y1174496D02*
D03*
Y1161796D02*
D03*
X713740Y1278636D02*
D03*
Y1291336D02*
D03*
Y1304036D02*
D03*
Y1316736D02*
D03*
Y1329436D02*
D03*
Y1342136D02*
D03*
Y1354836D02*
D03*
X760061D02*
D03*
Y1342136D02*
D03*
Y1329436D02*
D03*
Y1316736D02*
D03*
Y1304036D02*
D03*
Y1291336D02*
D03*
D45*
Y1149096D02*
D03*
Y1278636D02*
D03*
D46*
X473255Y767588D02*
D03*
Y754888D02*
D03*
Y742188D02*
D03*
Y729488D02*
D03*
X425905D02*
D03*
Y742188D02*
D03*
Y754888D02*
D03*
D47*
Y767588D02*
D03*
D48*
X47244Y391496D02*
D03*
Y412496D02*
D03*
D49*
X562102Y376794D02*
D03*
Y390794D02*
D03*
X478282Y377302D02*
D03*
Y391302D02*
D03*
D50*
X767080Y1392264D02*
D03*
Y1384464D02*
D03*
X705358D02*
D03*
Y1392264D02*
D03*
D51*
X958730Y452882D02*
D03*
X1050330Y384182D02*
D03*
X1027430D02*
D03*
X1004530D02*
D03*
X981630D02*
D03*
X958730D02*
D03*
X1050330Y407082D02*
D03*
X1027430D02*
D03*
X1004530D02*
D03*
X981630D02*
D03*
X958730D02*
D03*
X1050330Y429982D02*
D03*
X1027430D02*
D03*
X1004530D02*
D03*
X981630D02*
D03*
X958730D02*
D03*
X1050330Y452882D02*
D03*
X1027430D02*
D03*
X1004530D02*
D03*
X981630D02*
D03*
X1050330Y475782D02*
D03*
X1027430D02*
D03*
X1004530D02*
D03*
X981630D02*
D03*
X958730D02*
D03*
D52*
X929781Y525018D02*
D03*
X948294D02*
D03*
D53*
X55562Y1587563D02*
D03*
X111061D02*
D03*
Y1532064D02*
D03*
X55562D02*
D03*
D54*
X83312Y1559814D02*
D03*
X102870Y236636D02*
D03*
X747776Y1527048D02*
D03*
X722376D02*
D03*
X696214Y1527302D02*
D03*
X670814D02*
D03*
X246634Y1525778D02*
D03*
X221234D02*
D03*
X196088Y1526032D02*
D03*
X170688D02*
D03*
X53340Y736092D02*
D03*
Y710692D02*
D03*
Y659892D02*
D03*
Y761492D02*
D03*
Y685292D02*
D03*
Y634492D02*
D03*
Y609092D02*
D03*
Y863092D02*
D03*
Y888492D02*
D03*
Y1040892D02*
D03*
Y1015492D02*
D03*
Y964692D02*
D03*
Y939292D02*
D03*
Y913892D02*
D03*
Y583692D02*
D03*
Y837692D02*
D03*
Y990092D02*
D03*
Y1066292D02*
D03*
Y786892D02*
D03*
Y812292D02*
D03*
Y558292D02*
D03*
Y1091692D02*
D03*
X78740Y710692D02*
D03*
Y685292D02*
D03*
Y659892D02*
D03*
Y736092D02*
D03*
Y837692D02*
D03*
Y609092D02*
D03*
Y634492D02*
D03*
Y863092D02*
D03*
Y888492D02*
D03*
Y1066292D02*
D03*
Y1040892D02*
D03*
Y1015492D02*
D03*
Y990092D02*
D03*
Y964692D02*
D03*
Y939292D02*
D03*
Y913892D02*
D03*
Y583692D02*
D03*
Y761492D02*
D03*
Y812292D02*
D03*
Y786892D02*
D03*
Y558292D02*
D03*
Y1091692D02*
D03*
X142240Y926592D02*
D03*
X224790Y374142D02*
D03*
X78740Y532892D02*
D03*
X561340D02*
D03*
X535940Y736092D02*
D03*
X561340Y710692D02*
D03*
X535940D02*
D03*
Y659892D02*
D03*
X561340Y685292D02*
D03*
Y659892D02*
D03*
X535940Y761492D02*
D03*
Y685292D02*
D03*
X561340Y736092D02*
D03*
Y837692D02*
D03*
X535940Y634492D02*
D03*
Y609092D02*
D03*
X561340D02*
D03*
Y634492D02*
D03*
Y863092D02*
D03*
X535940D02*
D03*
Y888492D02*
D03*
X561340D02*
D03*
X535940Y1091692D02*
D03*
X561340Y1066292D02*
D03*
X535940Y1040892D02*
D03*
X561340D02*
D03*
X535940Y1015492D02*
D03*
X561340D02*
D03*
Y990092D02*
D03*
Y964692D02*
D03*
Y939292D02*
D03*
X535940Y964692D02*
D03*
Y939292D02*
D03*
Y913892D02*
D03*
X561340D02*
D03*
X535940Y583692D02*
D03*
X561340D02*
D03*
Y761492D02*
D03*
X535940Y837692D02*
D03*
X561340Y812292D02*
D03*
X535940Y990092D02*
D03*
X561340Y1091692D02*
D03*
X535940Y1066292D02*
D03*
Y786892D02*
D03*
Y812292D02*
D03*
X561340Y786892D02*
D03*
X535940Y558292D02*
D03*
X561340D02*
D03*
X110490Y812292D02*
D03*
Y888492D02*
D03*
Y786892D02*
D03*
Y863092D02*
D03*
Y837692D02*
D03*
X140970Y483362D02*
D03*
X115570D02*
D03*
X140970Y508762D02*
D03*
X115570D02*
D03*
D55*
X307340Y1354342D02*
D03*
X320040D02*
D03*
X332740D02*
D03*
X345440D02*
D03*
Y1307070D02*
D03*
X332740D02*
D03*
X320040D02*
D03*
X165862Y1302766D02*
D03*
X178562D02*
D03*
X191262D02*
D03*
Y1350038D02*
D03*
X178562D02*
D03*
X165862D02*
D03*
X153162D02*
D03*
D56*
X307340Y1307070D02*
D03*
X153162Y1302766D02*
D03*
D57*
X354076Y1395610D02*
D03*
Y1380610D02*
D03*
X195580Y1391752D02*
D03*
Y1376752D02*
D03*
X148336Y1391752D02*
D03*
Y1376752D02*
D03*
X299212Y1395610D02*
D03*
Y1380610D02*
D03*
D58*
X179214Y1255118D02*
D03*
Y1268118D02*
D03*
X197214D02*
D03*
Y1261618D02*
D03*
Y1255118D02*
D03*
X332376Y1258674D02*
D03*
Y1271674D02*
D03*
X350376D02*
D03*
Y1265174D02*
D03*
Y1258674D02*
D03*
D59*
X1093976Y342392D02*
D03*
X1138176D02*
D03*
D60*
X477012Y265060D02*
D03*
X489712D02*
D03*
X502412D02*
D03*
X515112D02*
D03*
X477012Y314060D02*
D03*
X489712D02*
D03*
X502412D02*
D03*
X515112D02*
D03*
D61*
X1100896Y387740D02*
D03*
X1146496D02*
D03*
D62*
X1123696Y459740D02*
D03*
D63*
X535178Y356616D02*
D03*
X503178D02*
D03*
X535178Y411616D02*
D03*
X503178D02*
D03*
D64*
X1071118Y811530D02*
D03*
Y666530D02*
D03*
D96*
X785114Y44186D02*
D03*
D97*
Y91186D02*
D03*
Y138186D02*
D03*
D109*
X504698Y36322D02*
D03*
X530098D02*
D03*
X555498D02*
D03*
X580898D02*
D03*
X606298D02*
D03*
X631698D02*
D03*
X504698Y61722D02*
D03*
X530098D02*
D03*
X555498D02*
D03*
X580898D02*
D03*
X606298D02*
D03*
D110*
X631698D02*
D03*
D121*
X392938Y1325626D02*
D03*
Y1300226D02*
D03*
Y1351026D02*
D03*
Y1376426D02*
D03*
X578357Y267208D02*
D03*
Y241808D02*
D03*
Y216408D02*
D03*
X842264Y1174496D02*
D03*
Y1250696D02*
D03*
Y1301496D02*
D03*
Y1352296D02*
D03*
Y1326896D02*
D03*
Y1276096D02*
D03*
Y1225296D02*
D03*
Y1199896D02*
D03*
Y1149096D02*
D03*
Y1123696D02*
D03*
Y1098296D02*
D03*
X800862Y1502664D02*
D03*
Y1528064D02*
D03*
Y1477264D02*
D03*
Y1451864D02*
D03*
X236220Y1379220D02*
D03*
Y1353820D02*
D03*
Y1303020D02*
D03*
Y1328420D02*
D03*
X641096Y206755D02*
D03*
Y232155D02*
D03*
Y257555D02*
D03*
X854710Y1451864D02*
D03*
Y1477264D02*
D03*
Y1528064D02*
D03*
Y1502664D02*
D03*
X86868Y1383538D02*
D03*
Y1358138D02*
D03*
Y1307338D02*
D03*
Y1281938D02*
D03*
Y1332738D02*
D03*
D122*
X392938Y1274826D02*
D03*
X578357Y292608D02*
D03*
X842264Y1377696D02*
D03*
X800862Y1553464D02*
D03*
X236220Y1277620D02*
D03*
X641096Y181355D02*
D03*
X854710Y1553464D02*
D03*
X86868Y1256538D02*
D03*
D123*
X102870Y56642D02*
D03*
X53340Y532892D02*
D03*
X535940D02*
D03*
X110490Y761492D02*
D03*
D124*
X792988Y402082D02*
D03*
X767588D02*
D03*
X742188D02*
D03*
X716788D02*
D03*
X691388D02*
D03*
X665988D02*
D03*
X742858Y946912D02*
D03*
X717458D02*
D03*
X692058D02*
D03*
X666658D02*
D03*
X641258D02*
D03*
X988568Y921512D02*
D03*
X963168D02*
D03*
Y896112D02*
D03*
X988568D02*
D03*
X937768D02*
D03*
Y921512D02*
D03*
X912368Y896112D02*
D03*
Y921512D02*
D03*
X886968Y896112D02*
D03*
Y921512D02*
D03*
X861568D02*
D03*
X1090168Y896112D02*
D03*
Y921512D02*
D03*
X1064768Y896112D02*
D03*
Y921512D02*
D03*
X1039368Y896112D02*
D03*
Y921512D02*
D03*
X1013968D02*
D03*
Y896112D02*
D03*
D125*
X640588Y402082D02*
D03*
X768258Y946912D02*
D03*
D126*
X1129136Y1030850D02*
D03*
X1087136D02*
D03*
X1045136D02*
D03*
X1003136D02*
D03*
X961136D02*
D03*
X1128776Y1085850D02*
D03*
X1086866D02*
D03*
X1044956D02*
D03*
X1003046D02*
D03*
X961136D02*
D03*
D127*
X1129136Y1158849D02*
D03*
X961136D02*
D03*
D128*
X890986Y706780D02*
D03*
D129*
X916386D02*
D03*
X941786D02*
D03*
D130*
X902970Y220980D02*
D03*
D131*
Y195580D02*
D03*
Y119380D02*
D03*
Y68580D02*
D03*
Y93980D02*
D03*
Y144780D02*
D03*
Y43180D02*
D03*
Y170180D02*
D03*
X1131570Y43180D02*
D03*
Y144780D02*
D03*
Y93980D02*
D03*
Y119380D02*
D03*
Y220980D02*
D03*
Y170180D02*
D03*
Y195580D02*
D03*
Y68580D02*
D03*
D132*
X861568Y896112D02*
D03*
D133*
X66040Y482092D02*
D03*
X97790Y1142492D02*
D03*
X548640Y482092D02*
D03*
X516890Y1142492D02*
D03*
D134*
X541594Y1496544D02*
D03*
X513894D02*
D03*
X486194D02*
D03*
X458494D02*
D03*
X430794D02*
D03*
X403094D02*
D03*
X375394D02*
D03*
X555444Y1468144D02*
D03*
X527744D02*
D03*
X500044D02*
D03*
X472344D02*
D03*
X389244D02*
D03*
X444644D02*
D03*
X416944D02*
D03*
D135*
X291894Y1482344D02*
D03*
X625094D02*
D03*
D136*
X361544Y1468144D02*
D03*
D137*
X1090168Y575818D02*
D03*
X982364Y571754D02*
D03*
D138*
X1140168Y575818D02*
D03*
X1032364Y571754D02*
D03*
M02*
