G04*
G04 #@! TF.GenerationSoftware,Altium Limited,Altium Designer,24.1.2 (44)*
G04*
G04 Layer_Color=32896*
%FSLAX44Y44*%
%MOMM*%
G71*
G04*
G04 #@! TF.SameCoordinates,9E3D1DA3-FC52-4BB6-AAC9-55B28770B0AD*
G04*
G04*
G04 #@! TF.FilePolarity,Positive*
G04*
G01*
G75*
%ADD10C,0.2500*%
%ADD11C,0.2000*%
%ADD12C,0.2540*%
%ADD14C,0.1524*%
%ADD15C,0.1270*%
%ADD18C,0.0838*%
%ADD19C,0.1500*%
G36*
X938955Y112752D02*
X935641D01*
X935059Y112771D01*
X934536Y112829D01*
X934110Y112887D01*
X933742Y112984D01*
X933586Y113023D01*
X933451Y113062D01*
X933335Y113101D01*
X933238Y113120D01*
X933160Y113159D01*
X933102Y113178D01*
X933083Y113197D01*
X933063D01*
X932734Y113391D01*
X932462Y113604D01*
X932230Y113837D01*
X932055Y114050D01*
X931920Y114263D01*
X931823Y114418D01*
X931765Y114535D01*
X931745Y114554D01*
Y114573D01*
X931610Y114942D01*
X931513Y115349D01*
X931435Y115756D01*
X931396Y116143D01*
X931358Y116492D01*
Y116628D01*
X931338Y116763D01*
Y116880D01*
Y116957D01*
Y116996D01*
Y117015D01*
Y121860D01*
X931358Y122384D01*
X931396Y122868D01*
X931474Y123275D01*
X931532Y123605D01*
X931610Y123876D01*
X931687Y124089D01*
X931706Y124147D01*
X931726Y124205D01*
X931745Y124225D01*
Y124244D01*
X931920Y124554D01*
X932133Y124845D01*
X932346Y125077D01*
X932579Y125252D01*
X932773Y125407D01*
X932947Y125504D01*
X933063Y125562D01*
X933083Y125581D01*
X933102D01*
X933490Y125737D01*
X933896Y125833D01*
X934323Y125911D01*
X934749Y125969D01*
X935117Y126008D01*
X935292D01*
X935427Y126027D01*
X938955D01*
Y112752D01*
D02*
G37*
G36*
X944498Y126143D02*
X945040Y126046D01*
X945486Y125911D01*
X945699Y125833D01*
X945873Y125756D01*
X946029Y125659D01*
X946184Y125581D01*
X946300Y125504D01*
X946397Y125446D01*
X946474Y125388D01*
X946532Y125349D01*
X946552Y125330D01*
X946571Y125310D01*
X946746Y125136D01*
X946881Y124961D01*
X947017Y124748D01*
X947133Y124554D01*
X947308Y124128D01*
X947424Y123740D01*
X947482Y123372D01*
X947501Y123217D01*
X947521Y123081D01*
X947540Y122965D01*
Y122888D01*
Y122829D01*
Y122810D01*
X947521Y122403D01*
X947482Y122035D01*
X947404Y121725D01*
X947327Y121453D01*
X947250Y121221D01*
X947172Y121066D01*
X947133Y120969D01*
X947114Y120930D01*
X946939Y120659D01*
X946746Y120387D01*
X946532Y120136D01*
X946319Y119922D01*
X946145Y119729D01*
X945990Y119593D01*
X945893Y119496D01*
X945854Y119457D01*
X944478Y118256D01*
X944207Y118023D01*
X943994Y117791D01*
X943800Y117577D01*
X943645Y117403D01*
X943529Y117248D01*
X943432Y117132D01*
X943393Y117054D01*
X943373Y117035D01*
X943257Y116822D01*
X943160Y116608D01*
X943102Y116376D01*
X943044Y116182D01*
X943025Y115988D01*
X943005Y115852D01*
Y115756D01*
Y115717D01*
Y115542D01*
X943044Y115387D01*
X943063Y115252D01*
X943102Y115135D01*
X943141Y115039D01*
X943180Y114980D01*
X943199Y114942D01*
X943218Y114922D01*
X943315Y114825D01*
X943412Y114748D01*
X943529Y114709D01*
X943645Y114670D01*
X943742Y114651D01*
X943839Y114632D01*
X943916D01*
X944149Y114651D01*
X944342Y114728D01*
X944498Y114825D01*
X944633Y114942D01*
X944749Y115039D01*
X944827Y115135D01*
X944866Y115213D01*
X944885Y115232D01*
X944982Y115484D01*
X945079Y115775D01*
X945137Y116085D01*
X945176Y116395D01*
X945195Y116666D01*
X945214Y116880D01*
X945234Y116977D01*
Y117035D01*
Y117073D01*
Y117093D01*
X947560Y116686D01*
X947540Y116298D01*
X947501Y115949D01*
X947443Y115620D01*
X947366Y115310D01*
X947288Y115019D01*
X947211Y114767D01*
X947133Y114535D01*
X947036Y114341D01*
X946939Y114147D01*
X946862Y113992D01*
X946784Y113856D01*
X946707Y113759D01*
X946649Y113682D01*
X946610Y113604D01*
X946571Y113585D01*
Y113566D01*
X946377Y113391D01*
X946184Y113236D01*
X945970Y113101D01*
X945738Y113004D01*
X945292Y112810D01*
X944827Y112694D01*
X944439Y112635D01*
X944246Y112616D01*
X944110Y112597D01*
X943974Y112577D01*
X943800D01*
X943432Y112597D01*
X943102Y112635D01*
X942792Y112713D01*
X942521Y112790D01*
X942308Y112849D01*
X942152Y112926D01*
X942056Y112965D01*
X942017Y112984D01*
X941726Y113159D01*
X941494Y113352D01*
X941280Y113546D01*
X941106Y113721D01*
X940970Y113895D01*
X940873Y114031D01*
X940815Y114108D01*
X940796Y114147D01*
X940660Y114438D01*
X940544Y114728D01*
X940466Y115019D01*
X940428Y115290D01*
X940389Y115504D01*
X940369Y115697D01*
Y115814D01*
Y115833D01*
Y115852D01*
X940389Y116298D01*
X940447Y116705D01*
X940544Y117073D01*
X940641Y117403D01*
X940738Y117655D01*
X940835Y117849D01*
X940854Y117907D01*
X940893Y117965D01*
X940912Y117984D01*
Y118004D01*
X941125Y118333D01*
X941358Y118663D01*
X941610Y118973D01*
X941862Y119244D01*
X942075Y119457D01*
X942249Y119632D01*
X942366Y119748D01*
X942385Y119787D01*
X942404D01*
X943761Y120969D01*
X943974Y121163D01*
X944149Y121356D01*
X944304Y121512D01*
X944439Y121667D01*
X944536Y121783D01*
X944594Y121880D01*
X944633Y121938D01*
X944652Y121957D01*
X944749Y122132D01*
X944827Y122325D01*
X944866Y122500D01*
X944904Y122674D01*
X944924Y122829D01*
X944943Y122946D01*
Y123043D01*
Y123062D01*
X944924Y123236D01*
X944904Y123391D01*
X944866Y123527D01*
X944808Y123643D01*
X944769Y123740D01*
X944730Y123818D01*
X944711Y123857D01*
X944691Y123876D01*
X944594Y123992D01*
X944478Y124070D01*
X944362Y124128D01*
X944246Y124167D01*
X944129Y124186D01*
X944052Y124205D01*
X943974D01*
X943780Y124186D01*
X943606Y124128D01*
X943470Y124031D01*
X943373Y123954D01*
X943296Y123857D01*
X943238Y123760D01*
X943199Y123701D01*
Y123682D01*
X943141Y123469D01*
X943083Y123236D01*
X943044Y122985D01*
X943005Y122732D01*
X942986Y122500D01*
X942966Y122325D01*
Y122248D01*
Y122190D01*
Y122170D01*
Y122151D01*
X940621Y122500D01*
X940680Y123081D01*
X940777Y123585D01*
X940912Y124050D01*
X941048Y124419D01*
X941125Y124593D01*
X941183Y124729D01*
X941242Y124845D01*
X941300Y124942D01*
X941358Y125039D01*
X941377Y125097D01*
X941416Y125116D01*
Y125136D01*
X941552Y125330D01*
X941726Y125485D01*
X941900Y125620D01*
X942094Y125737D01*
X942501Y125930D01*
X942908Y126046D01*
X943296Y126124D01*
X943470Y126143D01*
X943606Y126163D01*
X943722Y126182D01*
X944207D01*
X944498Y126143D01*
D02*
G37*
G36*
X926222Y126163D02*
X926571Y126143D01*
X926900Y126085D01*
X927191Y126008D01*
X927462Y125930D01*
X927714Y125833D01*
X927947Y125737D01*
X928141Y125640D01*
X928315Y125543D01*
X928451Y125446D01*
X928586Y125349D01*
X928683Y125271D01*
X928761Y125194D01*
X928819Y125136D01*
X928838Y125116D01*
X928858Y125097D01*
X929013Y124884D01*
X929148Y124651D01*
X929381Y124147D01*
X929536Y123605D01*
X929633Y123081D01*
X929672Y122849D01*
X929710Y122616D01*
X929730Y122403D01*
Y122229D01*
X929749Y122093D01*
Y121977D01*
Y121899D01*
Y121880D01*
Y116918D01*
X929730Y116531D01*
X929710Y116163D01*
X929672Y115814D01*
X929613Y115504D01*
X929536Y115213D01*
X929458Y114942D01*
X929381Y114709D01*
X929303Y114477D01*
X929226Y114302D01*
X929148Y114128D01*
X929071Y113992D01*
X928993Y113876D01*
X928935Y113779D01*
X928896Y113721D01*
X928858Y113682D01*
Y113663D01*
X928664Y113469D01*
X928470Y113314D01*
X928238Y113159D01*
X928005Y113042D01*
X927501Y112849D01*
X926997Y112713D01*
X926765Y112674D01*
X926551Y112635D01*
X926358Y112616D01*
X926183Y112597D01*
X926028Y112577D01*
X925834D01*
X925447Y112597D01*
X925098Y112616D01*
X924788Y112674D01*
X924478Y112752D01*
X924206Y112829D01*
X923954Y112926D01*
X923741Y113023D01*
X923548Y113120D01*
X923373Y113217D01*
X923237Y113314D01*
X923102Y113411D01*
X923005Y113488D01*
X922927Y113566D01*
X922869Y113624D01*
X922850Y113643D01*
X922830Y113663D01*
X922675Y113876D01*
X922520Y114128D01*
X922307Y114632D01*
X922133Y115174D01*
X922036Y115697D01*
X921997Y115949D01*
X921958Y116163D01*
X921939Y116376D01*
Y116550D01*
X921919Y116705D01*
Y116802D01*
Y116880D01*
Y116899D01*
Y121880D01*
Y122267D01*
X921958Y122636D01*
X921997Y122965D01*
X922055Y123275D01*
X922133Y123566D01*
X922210Y123837D01*
X922288Y124070D01*
X922365Y124283D01*
X922462Y124477D01*
X922540Y124651D01*
X922617Y124787D01*
X922695Y124903D01*
X922753Y124981D01*
X922792Y125039D01*
X922811Y125077D01*
X922830Y125097D01*
X923005Y125291D01*
X923218Y125465D01*
X923451Y125601D01*
X923683Y125717D01*
X924187Y125911D01*
X924671Y126046D01*
X924904Y126085D01*
X925117Y126124D01*
X925311Y126143D01*
X925486Y126163D01*
X925640Y126182D01*
X925834D01*
X926222Y126163D01*
D02*
G37*
G36*
X929865Y138152D02*
X927172D01*
Y143365D01*
X926726Y144082D01*
X924691Y138152D01*
X921939D01*
X924633Y145458D01*
X922133Y151427D01*
X924768D01*
X927172Y145807D01*
Y151427D01*
X929865D01*
Y138152D01*
D02*
G37*
G36*
X935641Y151563D02*
X935990Y151543D01*
X936319Y151485D01*
X936629Y151408D01*
X936900Y151330D01*
X937133Y151233D01*
X937366Y151117D01*
X937559Y151020D01*
X937714Y150923D01*
X937869Y150807D01*
X937986Y150710D01*
X938083Y150633D01*
X938160Y150555D01*
X938218Y150516D01*
X938238Y150478D01*
X938257Y150458D01*
X938412Y150245D01*
X938548Y149993D01*
X938761Y149470D01*
X938916Y148908D01*
X939013Y148385D01*
X939052Y148132D01*
X939090Y147900D01*
X939110Y147687D01*
Y147512D01*
X939129Y147357D01*
Y147241D01*
Y147163D01*
Y147144D01*
Y142396D01*
X939110Y142008D01*
X939090Y141640D01*
X939052Y141291D01*
X938994Y140981D01*
X938935Y140671D01*
X938858Y140400D01*
X938780Y140167D01*
X938683Y139935D01*
X938606Y139741D01*
X938528Y139586D01*
X938451Y139431D01*
X938393Y139314D01*
X938335Y139218D01*
X938296Y139159D01*
X938257Y139121D01*
Y139101D01*
X938083Y138907D01*
X937869Y138733D01*
X937656Y138578D01*
X937404Y138462D01*
X937172Y138345D01*
X936920Y138249D01*
X936416Y138113D01*
X936183Y138074D01*
X935970Y138035D01*
X935776Y138016D01*
X935602Y137997D01*
X935447Y137977D01*
X935253D01*
X934885Y137997D01*
X934536Y138016D01*
X934226Y138074D01*
X933935Y138132D01*
X933664Y138210D01*
X933431Y138307D01*
X933218Y138404D01*
X933044Y138501D01*
X932869Y138578D01*
X932734Y138675D01*
X932617Y138772D01*
X932521Y138849D01*
X932462Y138907D01*
X932404Y138966D01*
X932365Y138985D01*
Y139004D01*
X932210Y139218D01*
X932075Y139431D01*
X931881Y139915D01*
X931726Y140400D01*
X931610Y140865D01*
X931590Y141097D01*
X931552Y141291D01*
X931532Y141485D01*
Y141640D01*
X931513Y141776D01*
Y141873D01*
Y141931D01*
Y141950D01*
Y143035D01*
X934148D01*
Y141756D01*
Y141427D01*
X934187Y141156D01*
X934207Y140904D01*
X934245Y140710D01*
X934284Y140555D01*
X934304Y140458D01*
X934342Y140380D01*
Y140361D01*
X934439Y140206D01*
X934555Y140090D01*
X934710Y140012D01*
X934865Y139954D01*
X935001Y139915D01*
X935117Y139896D01*
X935234D01*
X935466Y139915D01*
X935660Y139973D01*
X935815Y140032D01*
X935931Y140128D01*
X936028Y140206D01*
X936087Y140264D01*
X936125Y140322D01*
X936145Y140342D01*
X936222Y140535D01*
X936280Y140768D01*
X936338Y141001D01*
X936358Y141233D01*
X936377Y141427D01*
X936397Y141601D01*
Y141718D01*
Y141737D01*
Y141756D01*
Y147784D01*
X936377Y148113D01*
X936358Y148385D01*
X936319Y148617D01*
X936280Y148811D01*
X936242Y148966D01*
X936222Y149082D01*
X936183Y149140D01*
Y149160D01*
X936087Y149315D01*
X935951Y149431D01*
X935796Y149528D01*
X935621Y149586D01*
X935486Y149625D01*
X935350Y149644D01*
X935059D01*
X934904Y149605D01*
X934788Y149567D01*
X934672Y149528D01*
X934594Y149489D01*
X934536Y149450D01*
X934517Y149431D01*
X934497Y149412D01*
X934362Y149218D01*
X934265Y149024D01*
X934245Y148947D01*
X934226Y148869D01*
X934207Y148830D01*
Y148811D01*
X934187Y148675D01*
X934168Y148520D01*
X934148Y148210D01*
Y148074D01*
Y147958D01*
Y147881D01*
Y147861D01*
Y146640D01*
X931513D01*
Y147745D01*
Y148094D01*
X931552Y148404D01*
X931590Y148694D01*
X931648Y148985D01*
X931706Y149237D01*
X931784Y149470D01*
X931862Y149683D01*
X931939Y149877D01*
X932017Y150032D01*
X932094Y150187D01*
X932172Y150303D01*
X932230Y150419D01*
X932288Y150497D01*
X932327Y150555D01*
X932346Y150574D01*
X932365Y150594D01*
X932540Y150768D01*
X932734Y150923D01*
X932947Y151059D01*
X933179Y151175D01*
X933645Y151350D01*
X934129Y151466D01*
X934362Y151505D01*
X934555Y151524D01*
X934749Y151543D01*
X934924Y151563D01*
X935059Y151582D01*
X935253D01*
X935641Y151563D01*
D02*
G37*
G36*
X944478Y151543D02*
X945021Y151447D01*
X945467Y151311D01*
X945680Y151233D01*
X945854Y151156D01*
X946009Y151059D01*
X946164Y150981D01*
X946281Y150904D01*
X946377Y150846D01*
X946455Y150788D01*
X946513Y150749D01*
X946532Y150730D01*
X946552Y150710D01*
X946726Y150536D01*
X946862Y150361D01*
X946998Y150148D01*
X947114Y149954D01*
X947288Y149528D01*
X947404Y149140D01*
X947463Y148772D01*
X947482Y148617D01*
X947501Y148481D01*
X947521Y148365D01*
Y148288D01*
Y148229D01*
Y148210D01*
X947501Y147803D01*
X947463Y147435D01*
X947385Y147125D01*
X947308Y146853D01*
X947230Y146621D01*
X947153Y146466D01*
X947114Y146369D01*
X947094Y146330D01*
X946920Y146059D01*
X946726Y145787D01*
X946513Y145536D01*
X946300Y145322D01*
X946125Y145129D01*
X945970Y144993D01*
X945873Y144896D01*
X945835Y144857D01*
X944459Y143656D01*
X944187Y143423D01*
X943974Y143191D01*
X943780Y142977D01*
X943625Y142803D01*
X943509Y142648D01*
X943412Y142532D01*
X943373Y142454D01*
X943354Y142435D01*
X943238Y142222D01*
X943141Y142008D01*
X943083Y141776D01*
X943025Y141582D01*
X943005Y141388D01*
X942986Y141252D01*
Y141156D01*
Y141117D01*
Y140942D01*
X943025Y140787D01*
X943044Y140652D01*
X943083Y140535D01*
X943121Y140439D01*
X943160Y140380D01*
X943180Y140342D01*
X943199Y140322D01*
X943296Y140225D01*
X943393Y140148D01*
X943509Y140109D01*
X943625Y140070D01*
X943722Y140051D01*
X943819Y140032D01*
X943897D01*
X944129Y140051D01*
X944323Y140128D01*
X944478Y140225D01*
X944614Y140342D01*
X944730Y140439D01*
X944808Y140535D01*
X944846Y140613D01*
X944866Y140632D01*
X944963Y140884D01*
X945060Y141175D01*
X945118Y141485D01*
X945156Y141795D01*
X945176Y142066D01*
X945195Y142280D01*
X945214Y142377D01*
Y142435D01*
Y142473D01*
Y142493D01*
X947540Y142086D01*
X947521Y141698D01*
X947482Y141349D01*
X947424Y141020D01*
X947346Y140710D01*
X947269Y140419D01*
X947191Y140167D01*
X947114Y139935D01*
X947017Y139741D01*
X946920Y139547D01*
X946842Y139392D01*
X946765Y139256D01*
X946687Y139159D01*
X946629Y139082D01*
X946590Y139004D01*
X946552Y138985D01*
Y138966D01*
X946358Y138791D01*
X946164Y138636D01*
X945951Y138501D01*
X945718Y138404D01*
X945273Y138210D01*
X944808Y138094D01*
X944420Y138035D01*
X944226Y138016D01*
X944090Y137997D01*
X943955Y137977D01*
X943780D01*
X943412Y137997D01*
X943083Y138035D01*
X942773Y138113D01*
X942501Y138190D01*
X942288Y138249D01*
X942133Y138326D01*
X942036Y138365D01*
X941997Y138384D01*
X941707Y138559D01*
X941474Y138752D01*
X941261Y138946D01*
X941087Y139121D01*
X940951Y139295D01*
X940854Y139431D01*
X940796Y139508D01*
X940777Y139547D01*
X940641Y139838D01*
X940525Y140128D01*
X940447Y140419D01*
X940408Y140690D01*
X940369Y140904D01*
X940350Y141097D01*
Y141214D01*
Y141233D01*
Y141252D01*
X940369Y141698D01*
X940428Y142105D01*
X940525Y142473D01*
X940621Y142803D01*
X940718Y143055D01*
X940815Y143249D01*
X940835Y143307D01*
X940873Y143365D01*
X940893Y143384D01*
Y143404D01*
X941106Y143733D01*
X941339Y144063D01*
X941590Y144373D01*
X941842Y144644D01*
X942056Y144857D01*
X942230Y145032D01*
X942346Y145148D01*
X942366Y145187D01*
X942385D01*
X943742Y146369D01*
X943955Y146563D01*
X944129Y146756D01*
X944284Y146912D01*
X944420Y147067D01*
X944517Y147183D01*
X944575Y147280D01*
X944614Y147338D01*
X944633Y147357D01*
X944730Y147532D01*
X944808Y147725D01*
X944846Y147900D01*
X944885Y148074D01*
X944904Y148229D01*
X944924Y148346D01*
Y148443D01*
Y148462D01*
X944904Y148636D01*
X944885Y148791D01*
X944846Y148927D01*
X944788Y149043D01*
X944749Y149140D01*
X944711Y149218D01*
X944691Y149257D01*
X944672Y149276D01*
X944575Y149392D01*
X944459Y149470D01*
X944342Y149528D01*
X944226Y149567D01*
X944110Y149586D01*
X944032Y149605D01*
X943955D01*
X943761Y149586D01*
X943587Y149528D01*
X943451Y149431D01*
X943354Y149354D01*
X943277Y149257D01*
X943218Y149160D01*
X943180Y149101D01*
Y149082D01*
X943121Y148869D01*
X943063Y148636D01*
X943025Y148385D01*
X942986Y148132D01*
X942966Y147900D01*
X942947Y147725D01*
Y147648D01*
Y147590D01*
Y147570D01*
Y147551D01*
X940602Y147900D01*
X940660Y148481D01*
X940757Y148985D01*
X940893Y149450D01*
X941028Y149819D01*
X941106Y149993D01*
X941164Y150129D01*
X941222Y150245D01*
X941280Y150342D01*
X941339Y150439D01*
X941358Y150497D01*
X941397Y150516D01*
Y150536D01*
X941532Y150730D01*
X941707Y150885D01*
X941881Y151020D01*
X942075Y151137D01*
X942482Y151330D01*
X942889Y151447D01*
X943277Y151524D01*
X943451Y151543D01*
X943587Y151563D01*
X943703Y151582D01*
X944187D01*
X944478Y151543D01*
D02*
G37*
G36*
X938286Y36561D02*
X935980D01*
Y43906D01*
X933015Y36561D01*
X931193D01*
Y49837D01*
X933441D01*
Y42937D01*
X936406Y49837D01*
X938286D01*
Y36561D01*
D02*
G37*
G36*
X944371Y49973D02*
X944720Y49934D01*
X945050Y49876D01*
X945360Y49818D01*
X945631Y49721D01*
X945864Y49624D01*
X946096Y49507D01*
X946290Y49411D01*
X946445Y49294D01*
X946600Y49178D01*
X946717Y49081D01*
X946813Y49004D01*
X946891Y48926D01*
X946949Y48868D01*
X946969Y48829D01*
X946988Y48810D01*
X947143Y48577D01*
X947279Y48325D01*
X947492Y47783D01*
X947647Y47221D01*
X947744Y46678D01*
X947783Y46407D01*
X947821Y46174D01*
X947841Y45961D01*
Y45767D01*
X947860Y45612D01*
Y45496D01*
Y45418D01*
Y45399D01*
Y40941D01*
X947841Y40534D01*
X947821Y40166D01*
X947783Y39817D01*
X947724Y39488D01*
X947666Y39178D01*
X947608Y38906D01*
X947531Y38654D01*
X947453Y38422D01*
X947375Y38209D01*
X947298Y38034D01*
X947240Y37899D01*
X947182Y37763D01*
X947123Y37666D01*
X947085Y37608D01*
X947046Y37569D01*
Y37550D01*
X946872Y37337D01*
X946678Y37162D01*
X946484Y37007D01*
X946251Y36872D01*
X946038Y36755D01*
X945806Y36658D01*
X945341Y36523D01*
X944934Y36426D01*
X944740Y36406D01*
X944585Y36387D01*
X944449Y36368D01*
X944275D01*
X943984Y36387D01*
X943732Y36426D01*
X943480Y36484D01*
X943267Y36581D01*
X943073Y36678D01*
X942899Y36794D01*
X942589Y37046D01*
X942356Y37298D01*
X942201Y37511D01*
X942143Y37608D01*
X942123Y37666D01*
X942085Y37705D01*
Y37724D01*
X941910Y36561D01*
X940147D01*
Y43364D01*
X943868D01*
Y41736D01*
X942589D01*
Y40321D01*
X942608Y39992D01*
X942627Y39682D01*
X942685Y39430D01*
X942724Y39216D01*
X942782Y39042D01*
X942840Y38926D01*
X942860Y38848D01*
X942879Y38829D01*
X942996Y38654D01*
X943151Y38519D01*
X943306Y38441D01*
X943480Y38364D01*
X943635Y38325D01*
X943751Y38306D01*
X943868D01*
X944120Y38325D01*
X944333Y38383D01*
X944488Y38461D01*
X944623Y38558D01*
X944740Y38654D01*
X944798Y38732D01*
X944837Y38790D01*
X944856Y38809D01*
X944934Y39023D01*
X944992Y39255D01*
X945050Y39488D01*
X945069Y39720D01*
X945089Y39914D01*
X945108Y40089D01*
Y40205D01*
Y40224D01*
Y40244D01*
Y46135D01*
X945089Y46465D01*
X945069Y46755D01*
X945031Y47007D01*
X944992Y47201D01*
X944953Y47376D01*
X944934Y47473D01*
X944895Y47550D01*
Y47569D01*
X944798Y47724D01*
X944662Y47841D01*
X944507Y47938D01*
X944333Y47996D01*
X944197Y48035D01*
X944062Y48054D01*
X943945D01*
X943693Y48035D01*
X943499Y47996D01*
X943344Y47918D01*
X943209Y47841D01*
X943112Y47763D01*
X943054Y47686D01*
X943034Y47647D01*
X943015Y47628D01*
X942937Y47453D01*
X942899Y47240D01*
X942860Y47007D01*
X942821Y46794D01*
Y46581D01*
X942802Y46426D01*
Y46310D01*
Y46290D01*
Y46271D01*
Y45341D01*
X940185D01*
Y46116D01*
Y46465D01*
X940224Y46775D01*
X940263Y47085D01*
X940321Y47356D01*
X940379Y47608D01*
X940457Y47841D01*
X940534Y48073D01*
X940612Y48248D01*
X940709Y48422D01*
X940786Y48577D01*
X940864Y48693D01*
X940922Y48810D01*
X940980Y48887D01*
X941019Y48945D01*
X941038Y48965D01*
X941058Y48984D01*
X941232Y49159D01*
X941426Y49314D01*
X941658Y49449D01*
X941891Y49566D01*
X942375Y49740D01*
X942840Y49876D01*
X943073Y49914D01*
X943286Y49934D01*
X943480Y49953D01*
X943654Y49973D01*
X943790Y49992D01*
X943984D01*
X944371Y49973D01*
D02*
G37*
G36*
X929197Y36561D02*
X925883D01*
X925301Y36581D01*
X924778Y36639D01*
X924352Y36697D01*
X923984Y36794D01*
X923829Y36833D01*
X923693Y36872D01*
X923577Y36910D01*
X923480Y36930D01*
X923402Y36968D01*
X923344Y36988D01*
X923325Y37007D01*
X923305D01*
X922976Y37201D01*
X922704Y37414D01*
X922472Y37647D01*
X922298Y37860D01*
X922162Y38073D01*
X922065Y38228D01*
X922007Y38344D01*
X921987Y38364D01*
Y38383D01*
X921852Y38751D01*
X921755Y39158D01*
X921677Y39565D01*
X921639Y39953D01*
X921600Y40302D01*
Y40437D01*
X921580Y40573D01*
Y40689D01*
Y40767D01*
Y40806D01*
Y40825D01*
Y45670D01*
X921600Y46193D01*
X921639Y46678D01*
X921716Y47085D01*
X921774Y47414D01*
X921852Y47686D01*
X921929Y47899D01*
X921949Y47957D01*
X921968Y48015D01*
X921987Y48035D01*
Y48054D01*
X922162Y48364D01*
X922375Y48655D01*
X922588Y48887D01*
X922821Y49062D01*
X923015Y49217D01*
X923189Y49314D01*
X923305Y49372D01*
X923325Y49391D01*
X923344D01*
X923732Y49546D01*
X924139Y49643D01*
X924565Y49721D01*
X924991Y49779D01*
X925360Y49818D01*
X925534D01*
X925670Y49837D01*
X929197D01*
Y36561D01*
D02*
G37*
G36*
X946668Y188952D02*
X943974D01*
Y194960D01*
X942986D01*
X941494Y188952D01*
X938722D01*
X940544Y195425D01*
X940234Y195599D01*
X939962Y195793D01*
X939749Y195987D01*
X939575Y196180D01*
X939439Y196355D01*
X939362Y196491D01*
X939304Y196588D01*
X939284Y196626D01*
X939168Y196936D01*
X939071Y197285D01*
X939013Y197634D01*
X938955Y197964D01*
X938935Y198274D01*
Y198390D01*
X938916Y198506D01*
Y198603D01*
Y198661D01*
Y198700D01*
Y198719D01*
X938935Y199068D01*
X938955Y199398D01*
X939013Y199688D01*
X939090Y199960D01*
X939168Y200212D01*
X939265Y200425D01*
X939362Y200638D01*
X939459Y200812D01*
X939556Y200948D01*
X939652Y201084D01*
X939749Y201200D01*
X939827Y201278D01*
X939904Y201355D01*
X939962Y201394D01*
X939982Y201433D01*
X940001D01*
X940214Y201568D01*
X940447Y201704D01*
X940951Y201898D01*
X941494Y202033D01*
X942017Y202130D01*
X942249Y202169D01*
X942482Y202188D01*
X942695Y202208D01*
X942870D01*
X943005Y202227D01*
X946668D01*
Y188952D01*
D02*
G37*
G36*
X929710Y200231D02*
X927598D01*
Y188952D01*
X924885D01*
Y200231D01*
X922811D01*
Y202227D01*
X929710D01*
Y200231D01*
D02*
G37*
G36*
X934381Y202343D02*
X934924Y202246D01*
X935369Y202111D01*
X935583Y202033D01*
X935757Y201956D01*
X935912Y201859D01*
X936067Y201781D01*
X936183Y201704D01*
X936280Y201646D01*
X936358Y201588D01*
X936416Y201549D01*
X936435Y201530D01*
X936455Y201510D01*
X936629Y201336D01*
X936765Y201161D01*
X936900Y200948D01*
X937017Y200754D01*
X937191Y200328D01*
X937307Y199940D01*
X937366Y199572D01*
X937385Y199417D01*
X937404Y199281D01*
X937424Y199165D01*
Y199088D01*
Y199029D01*
Y199010D01*
X937404Y198603D01*
X937366Y198235D01*
X937288Y197925D01*
X937210Y197653D01*
X937133Y197421D01*
X937056Y197266D01*
X937017Y197169D01*
X936997Y197130D01*
X936823Y196859D01*
X936629Y196588D01*
X936416Y196336D01*
X936203Y196122D01*
X936028Y195929D01*
X935873Y195793D01*
X935776Y195696D01*
X935738Y195657D01*
X934362Y194456D01*
X934090Y194223D01*
X933877Y193991D01*
X933683Y193777D01*
X933528Y193603D01*
X933412Y193448D01*
X933315Y193332D01*
X933276Y193254D01*
X933257Y193235D01*
X933141Y193022D01*
X933044Y192808D01*
X932986Y192576D01*
X932927Y192382D01*
X932908Y192188D01*
X932889Y192052D01*
Y191956D01*
Y191917D01*
Y191742D01*
X932927Y191587D01*
X932947Y191452D01*
X932986Y191336D01*
X933024Y191239D01*
X933063Y191180D01*
X933083Y191142D01*
X933102Y191122D01*
X933199Y191025D01*
X933296Y190948D01*
X933412Y190909D01*
X933528Y190870D01*
X933625Y190851D01*
X933722Y190832D01*
X933800D01*
X934032Y190851D01*
X934226Y190928D01*
X934381Y191025D01*
X934517Y191142D01*
X934633Y191239D01*
X934710Y191336D01*
X934749Y191413D01*
X934769Y191432D01*
X934865Y191684D01*
X934962Y191975D01*
X935021Y192285D01*
X935059Y192595D01*
X935079Y192866D01*
X935098Y193080D01*
X935117Y193177D01*
Y193235D01*
Y193274D01*
Y193293D01*
X937443Y192886D01*
X937424Y192498D01*
X937385Y192150D01*
X937327Y191820D01*
X937249Y191510D01*
X937172Y191219D01*
X937094Y190967D01*
X937017Y190735D01*
X936920Y190541D01*
X936823Y190347D01*
X936745Y190192D01*
X936668Y190056D01*
X936590Y189960D01*
X936532Y189882D01*
X936494Y189804D01*
X936455Y189785D01*
Y189766D01*
X936261Y189591D01*
X936067Y189436D01*
X935854Y189301D01*
X935621Y189204D01*
X935176Y189010D01*
X934710Y188894D01*
X934323Y188835D01*
X934129Y188816D01*
X933993Y188797D01*
X933858Y188777D01*
X933683D01*
X933315Y188797D01*
X932986Y188835D01*
X932676Y188913D01*
X932404Y188990D01*
X932191Y189049D01*
X932036Y189126D01*
X931939Y189165D01*
X931900Y189184D01*
X931610Y189359D01*
X931377Y189552D01*
X931164Y189746D01*
X930990Y189921D01*
X930854Y190095D01*
X930757Y190231D01*
X930699Y190308D01*
X930679Y190347D01*
X930544Y190638D01*
X930427Y190928D01*
X930350Y191219D01*
X930311Y191490D01*
X930272Y191704D01*
X930253Y191898D01*
Y192014D01*
Y192033D01*
Y192052D01*
X930272Y192498D01*
X930331Y192905D01*
X930427Y193274D01*
X930524Y193603D01*
X930621Y193855D01*
X930718Y194049D01*
X930738Y194107D01*
X930776Y194165D01*
X930796Y194184D01*
Y194204D01*
X931009Y194533D01*
X931241Y194863D01*
X931493Y195173D01*
X931745Y195444D01*
X931958Y195657D01*
X932133Y195832D01*
X932249Y195948D01*
X932269Y195987D01*
X932288D01*
X933645Y197169D01*
X933858Y197363D01*
X934032Y197556D01*
X934187Y197712D01*
X934323Y197867D01*
X934420Y197983D01*
X934478Y198080D01*
X934517Y198138D01*
X934536Y198157D01*
X934633Y198332D01*
X934710Y198526D01*
X934749Y198700D01*
X934788Y198874D01*
X934807Y199029D01*
X934827Y199146D01*
Y199243D01*
Y199262D01*
X934807Y199436D01*
X934788Y199591D01*
X934749Y199727D01*
X934691Y199843D01*
X934652Y199940D01*
X934614Y200018D01*
X934594Y200057D01*
X934575Y200076D01*
X934478Y200192D01*
X934362Y200270D01*
X934245Y200328D01*
X934129Y200367D01*
X934013Y200386D01*
X933935Y200405D01*
X933858D01*
X933664Y200386D01*
X933490Y200328D01*
X933354Y200231D01*
X933257Y200154D01*
X933179Y200057D01*
X933121Y199960D01*
X933083Y199902D01*
Y199882D01*
X933024Y199669D01*
X932966Y199436D01*
X932927Y199184D01*
X932889Y198932D01*
X932869Y198700D01*
X932850Y198526D01*
Y198448D01*
Y198390D01*
Y198370D01*
Y198351D01*
X930505Y198700D01*
X930563Y199281D01*
X930660Y199785D01*
X930796Y200250D01*
X930931Y200619D01*
X931009Y200793D01*
X931067Y200929D01*
X931125Y201045D01*
X931183Y201142D01*
X931241Y201239D01*
X931261Y201297D01*
X931300Y201316D01*
Y201336D01*
X931435Y201530D01*
X931610Y201684D01*
X931784Y201820D01*
X931978Y201936D01*
X932385Y202130D01*
X932792Y202246D01*
X933179Y202324D01*
X933354Y202343D01*
X933490Y202363D01*
X933606Y202382D01*
X934090D01*
X934381Y202343D01*
D02*
G37*
G36*
X1101042Y126163D02*
X1101391Y126143D01*
X1101721Y126085D01*
X1102031Y126008D01*
X1102302Y125930D01*
X1102535Y125833D01*
X1102767Y125717D01*
X1102961Y125620D01*
X1103116Y125523D01*
X1103271Y125407D01*
X1103388Y125310D01*
X1103484Y125232D01*
X1103562Y125155D01*
X1103620Y125116D01*
X1103639Y125077D01*
X1103659Y125058D01*
X1103814Y124845D01*
X1103950Y124593D01*
X1104163Y124070D01*
X1104318Y123508D01*
X1104415Y122984D01*
X1104453Y122732D01*
X1104492Y122500D01*
X1104512Y122287D01*
Y122112D01*
X1104531Y121957D01*
Y121841D01*
Y121763D01*
Y121744D01*
Y116996D01*
X1104512Y116608D01*
X1104492Y116240D01*
X1104453Y115891D01*
X1104395Y115581D01*
X1104337Y115271D01*
X1104260Y115000D01*
X1104182Y114767D01*
X1104085Y114535D01*
X1104008Y114341D01*
X1103930Y114186D01*
X1103853Y114031D01*
X1103794Y113914D01*
X1103736Y113818D01*
X1103698Y113759D01*
X1103659Y113721D01*
Y113701D01*
X1103484Y113507D01*
X1103271Y113333D01*
X1103058Y113178D01*
X1102806Y113062D01*
X1102573Y112945D01*
X1102322Y112849D01*
X1101818Y112713D01*
X1101585Y112674D01*
X1101372Y112635D01*
X1101178Y112616D01*
X1101004Y112597D01*
X1100849Y112577D01*
X1100655D01*
X1100287Y112597D01*
X1099938Y112616D01*
X1099628Y112674D01*
X1099337Y112732D01*
X1099066Y112810D01*
X1098833Y112907D01*
X1098620Y113004D01*
X1098446Y113101D01*
X1098271Y113178D01*
X1098136Y113275D01*
X1098019Y113372D01*
X1097922Y113449D01*
X1097864Y113507D01*
X1097806Y113566D01*
X1097767Y113585D01*
Y113604D01*
X1097612Y113818D01*
X1097477Y114031D01*
X1097283Y114515D01*
X1097128Y115000D01*
X1097011Y115465D01*
X1096992Y115697D01*
X1096953Y115891D01*
X1096934Y116085D01*
Y116240D01*
X1096915Y116376D01*
Y116473D01*
Y116531D01*
Y116550D01*
Y117635D01*
X1099550D01*
Y116356D01*
Y116027D01*
X1099589Y115756D01*
X1099608Y115504D01*
X1099647Y115310D01*
X1099686Y115155D01*
X1099705Y115058D01*
X1099744Y114980D01*
Y114961D01*
X1099841Y114806D01*
X1099957Y114690D01*
X1100112Y114612D01*
X1100267Y114554D01*
X1100403Y114515D01*
X1100519Y114496D01*
X1100636D01*
X1100868Y114515D01*
X1101062Y114573D01*
X1101217Y114632D01*
X1101333Y114728D01*
X1101430Y114806D01*
X1101488Y114864D01*
X1101527Y114922D01*
X1101546Y114942D01*
X1101624Y115135D01*
X1101682Y115368D01*
X1101740Y115601D01*
X1101760Y115833D01*
X1101779Y116027D01*
X1101798Y116201D01*
Y116318D01*
Y116337D01*
Y116356D01*
Y122384D01*
X1101779Y122713D01*
X1101760Y122984D01*
X1101721Y123217D01*
X1101682Y123411D01*
X1101643Y123566D01*
X1101624Y123682D01*
X1101585Y123740D01*
Y123760D01*
X1101488Y123915D01*
X1101353Y124031D01*
X1101198Y124128D01*
X1101023Y124186D01*
X1100888Y124225D01*
X1100752Y124244D01*
X1100461D01*
X1100306Y124205D01*
X1100190Y124167D01*
X1100073Y124128D01*
X1099996Y124089D01*
X1099938Y124050D01*
X1099919Y124031D01*
X1099899Y124011D01*
X1099763Y123818D01*
X1099667Y123624D01*
X1099647Y123546D01*
X1099628Y123469D01*
X1099608Y123430D01*
Y123411D01*
X1099589Y123275D01*
X1099570Y123120D01*
X1099550Y122810D01*
Y122674D01*
Y122558D01*
Y122480D01*
Y122461D01*
Y121240D01*
X1096915D01*
Y122345D01*
Y122694D01*
X1096953Y123004D01*
X1096992Y123294D01*
X1097050Y123585D01*
X1097108Y123837D01*
X1097186Y124070D01*
X1097263Y124283D01*
X1097341Y124477D01*
X1097418Y124632D01*
X1097496Y124787D01*
X1097573Y124903D01*
X1097632Y125019D01*
X1097690Y125097D01*
X1097729Y125155D01*
X1097748Y125174D01*
X1097767Y125194D01*
X1097942Y125368D01*
X1098136Y125523D01*
X1098349Y125659D01*
X1098581Y125775D01*
X1099046Y125949D01*
X1099531Y126066D01*
X1099763Y126105D01*
X1099957Y126124D01*
X1100151Y126143D01*
X1100325Y126163D01*
X1100461Y126182D01*
X1100655D01*
X1101042Y126163D01*
D02*
G37*
G36*
X1095267Y112752D02*
X1089453D01*
Y114573D01*
X1092573D01*
Y126027D01*
X1095267D01*
Y112752D01*
D02*
G37*
G36*
X1109880Y126143D02*
X1110423Y126046D01*
X1110868Y125911D01*
X1111081Y125833D01*
X1111256Y125756D01*
X1111411Y125659D01*
X1111566Y125581D01*
X1111682Y125504D01*
X1111779Y125446D01*
X1111857Y125387D01*
X1111915Y125349D01*
X1111934Y125329D01*
X1111954Y125310D01*
X1112128Y125136D01*
X1112264Y124961D01*
X1112399Y124748D01*
X1112516Y124554D01*
X1112690Y124128D01*
X1112806Y123740D01*
X1112864Y123372D01*
X1112884Y123217D01*
X1112903Y123081D01*
X1112923Y122965D01*
Y122887D01*
Y122829D01*
Y122810D01*
X1112903Y122403D01*
X1112864Y122035D01*
X1112787Y121725D01*
X1112709Y121453D01*
X1112632Y121221D01*
X1112554Y121066D01*
X1112516Y120969D01*
X1112496Y120930D01*
X1112322Y120659D01*
X1112128Y120387D01*
X1111915Y120135D01*
X1111702Y119922D01*
X1111527Y119728D01*
X1111372Y119593D01*
X1111275Y119496D01*
X1111236Y119457D01*
X1109861Y118256D01*
X1109589Y118023D01*
X1109376Y117790D01*
X1109182Y117577D01*
X1109027Y117403D01*
X1108911Y117248D01*
X1108814Y117132D01*
X1108775Y117054D01*
X1108756Y117035D01*
X1108640Y116821D01*
X1108543Y116608D01*
X1108484Y116376D01*
X1108426Y116182D01*
X1108407Y115988D01*
X1108388Y115852D01*
Y115756D01*
Y115717D01*
Y115542D01*
X1108426Y115387D01*
X1108446Y115252D01*
X1108484Y115135D01*
X1108523Y115038D01*
X1108562Y114980D01*
X1108581Y114942D01*
X1108601Y114922D01*
X1108698Y114825D01*
X1108795Y114748D01*
X1108911Y114709D01*
X1109027Y114670D01*
X1109124Y114651D01*
X1109221Y114632D01*
X1109298D01*
X1109531Y114651D01*
X1109725Y114728D01*
X1109880Y114825D01*
X1110015Y114942D01*
X1110132Y115038D01*
X1110209Y115135D01*
X1110248Y115213D01*
X1110267Y115232D01*
X1110364Y115484D01*
X1110461Y115775D01*
X1110519Y116085D01*
X1110558Y116395D01*
X1110578Y116666D01*
X1110597Y116880D01*
X1110616Y116976D01*
Y117035D01*
Y117073D01*
Y117093D01*
X1112942Y116686D01*
X1112923Y116298D01*
X1112884Y115949D01*
X1112826Y115620D01*
X1112748Y115310D01*
X1112671Y115019D01*
X1112593Y114767D01*
X1112516Y114535D01*
X1112419Y114341D01*
X1112322Y114147D01*
X1112244Y113992D01*
X1112167Y113856D01*
X1112089Y113759D01*
X1112031Y113682D01*
X1111992Y113604D01*
X1111954Y113585D01*
Y113566D01*
X1111760Y113391D01*
X1111566Y113236D01*
X1111353Y113101D01*
X1111120Y113004D01*
X1110675Y112810D01*
X1110209Y112694D01*
X1109822Y112635D01*
X1109628Y112616D01*
X1109492Y112597D01*
X1109357Y112577D01*
X1109182D01*
X1108814Y112597D01*
X1108484Y112635D01*
X1108174Y112713D01*
X1107903Y112790D01*
X1107690Y112849D01*
X1107535Y112926D01*
X1107438Y112965D01*
X1107399Y112984D01*
X1107109Y113159D01*
X1106876Y113352D01*
X1106663Y113546D01*
X1106488Y113721D01*
X1106353Y113895D01*
X1106256Y114031D01*
X1106198Y114108D01*
X1106178Y114147D01*
X1106043Y114438D01*
X1105926Y114728D01*
X1105849Y115019D01*
X1105810Y115290D01*
X1105771Y115504D01*
X1105752Y115697D01*
Y115814D01*
Y115833D01*
Y115852D01*
X1105771Y116298D01*
X1105829Y116705D01*
X1105926Y117073D01*
X1106023Y117403D01*
X1106120Y117655D01*
X1106217Y117849D01*
X1106236Y117907D01*
X1106275Y117965D01*
X1106294Y117984D01*
Y118004D01*
X1106508Y118333D01*
X1106740Y118663D01*
X1106992Y118973D01*
X1107244Y119244D01*
X1107457Y119457D01*
X1107632Y119632D01*
X1107748Y119748D01*
X1107767Y119787D01*
X1107787D01*
X1109143Y120969D01*
X1109357Y121163D01*
X1109531Y121356D01*
X1109686Y121511D01*
X1109822Y121666D01*
X1109919Y121783D01*
X1109977Y121880D01*
X1110015Y121938D01*
X1110035Y121957D01*
X1110132Y122132D01*
X1110209Y122325D01*
X1110248Y122500D01*
X1110287Y122674D01*
X1110306Y122829D01*
X1110326Y122946D01*
Y123042D01*
Y123062D01*
X1110306Y123236D01*
X1110287Y123391D01*
X1110248Y123527D01*
X1110190Y123643D01*
X1110151Y123740D01*
X1110112Y123818D01*
X1110093Y123856D01*
X1110074Y123876D01*
X1109977Y123992D01*
X1109861Y124070D01*
X1109744Y124128D01*
X1109628Y124167D01*
X1109512Y124186D01*
X1109434Y124205D01*
X1109357D01*
X1109163Y124186D01*
X1108988Y124128D01*
X1108853Y124031D01*
X1108756Y123953D01*
X1108678Y123856D01*
X1108620Y123760D01*
X1108581Y123701D01*
Y123682D01*
X1108523Y123469D01*
X1108465Y123236D01*
X1108426Y122984D01*
X1108388Y122732D01*
X1108368Y122500D01*
X1108349Y122325D01*
Y122248D01*
Y122190D01*
Y122170D01*
Y122151D01*
X1106004Y122500D01*
X1106062Y123081D01*
X1106159Y123585D01*
X1106294Y124050D01*
X1106430Y124418D01*
X1106508Y124593D01*
X1106566Y124729D01*
X1106624Y124845D01*
X1106682Y124942D01*
X1106740Y125039D01*
X1106760Y125097D01*
X1106798Y125116D01*
Y125136D01*
X1106934Y125329D01*
X1107109Y125484D01*
X1107283Y125620D01*
X1107477Y125736D01*
X1107884Y125930D01*
X1108291Y126046D01*
X1108678Y126124D01*
X1108853Y126143D01*
X1108988Y126163D01*
X1109105Y126182D01*
X1109589D01*
X1109880Y126143D01*
D02*
G37*
G36*
X1105975Y214342D02*
X1103630D01*
X1102409Y222753D01*
X1101130Y214342D01*
X1098804D01*
X1097099Y227617D01*
X1099347D01*
X1100296Y219536D01*
X1101498Y227598D01*
X1103320D01*
X1104482Y219497D01*
X1105413Y227617D01*
X1107700D01*
X1105975Y214342D01*
D02*
G37*
G36*
X1095665D02*
X1093688D01*
X1093494Y223393D01*
X1091730Y214342D01*
X1090064D01*
X1088358Y223354D01*
X1088145Y214342D01*
X1086188D01*
X1086420Y227617D01*
X1089192D01*
X1090936Y219226D01*
X1092583Y227617D01*
X1095451D01*
X1095665Y214342D01*
D02*
G37*
G36*
X1116208D02*
X1113514D01*
Y220079D01*
X1112273D01*
X1111944Y220098D01*
X1111653Y220117D01*
X1111362Y220156D01*
X1111111Y220214D01*
X1110859Y220272D01*
X1110626Y220350D01*
X1110432Y220427D01*
X1110238Y220505D01*
X1110083Y220582D01*
X1109948Y220660D01*
X1109812Y220737D01*
X1109715Y220795D01*
X1109638Y220854D01*
X1109579Y220892D01*
X1109560Y220931D01*
X1109541D01*
X1109366Y221106D01*
X1109211Y221299D01*
X1109076Y221513D01*
X1108959Y221745D01*
X1108785Y222210D01*
X1108669Y222695D01*
X1108611Y223121D01*
X1108591Y223315D01*
X1108572Y223470D01*
X1108552Y223606D01*
Y223703D01*
Y223780D01*
Y223799D01*
Y224148D01*
X1108591Y224478D01*
X1108630Y224769D01*
X1108707Y225059D01*
X1108785Y225331D01*
X1108862Y225563D01*
X1109095Y226009D01*
X1109347Y226377D01*
X1109638Y226687D01*
X1109948Y226939D01*
X1110258Y227133D01*
X1110587Y227307D01*
X1110897Y227424D01*
X1111188Y227501D01*
X1111440Y227559D01*
X1111673Y227598D01*
X1111828Y227617D01*
X1116208D01*
Y214342D01*
D02*
G37*
G36*
X1105335Y87352D02*
X1102021D01*
X1101440Y87371D01*
X1100917Y87429D01*
X1100490Y87487D01*
X1100122Y87584D01*
X1099967Y87623D01*
X1099831Y87662D01*
X1099715Y87701D01*
X1099618Y87720D01*
X1099540Y87759D01*
X1099482Y87778D01*
X1099463Y87797D01*
X1099444D01*
X1099114Y87991D01*
X1098843Y88204D01*
X1098610Y88437D01*
X1098436Y88650D01*
X1098300Y88863D01*
X1098203Y89018D01*
X1098145Y89135D01*
X1098126Y89154D01*
Y89173D01*
X1097990Y89542D01*
X1097893Y89949D01*
X1097816Y90356D01*
X1097777Y90743D01*
X1097738Y91092D01*
Y91228D01*
X1097719Y91363D01*
Y91480D01*
Y91557D01*
Y91596D01*
Y91615D01*
Y96460D01*
X1097738Y96984D01*
X1097777Y97468D01*
X1097854Y97875D01*
X1097913Y98204D01*
X1097990Y98476D01*
X1098068Y98689D01*
X1098087Y98747D01*
X1098106Y98805D01*
X1098126Y98825D01*
Y98844D01*
X1098300Y99154D01*
X1098513Y99445D01*
X1098727Y99677D01*
X1098959Y99852D01*
X1099153Y100007D01*
X1099327Y100104D01*
X1099444Y100162D01*
X1099463Y100181D01*
X1099482D01*
X1099870Y100336D01*
X1100277Y100433D01*
X1100703Y100511D01*
X1101130Y100569D01*
X1101498Y100608D01*
X1101672D01*
X1101808Y100627D01*
X1105335D01*
Y87352D01*
D02*
G37*
G36*
X1096595D02*
X1094056D01*
X1093533Y90259D01*
X1091440D01*
X1090955Y87352D01*
X1088455D01*
X1091013Y100627D01*
X1094017D01*
X1096595Y87352D01*
D02*
G37*
G36*
X1110878Y100743D02*
X1111421Y100646D01*
X1111866Y100511D01*
X1112079Y100433D01*
X1112254Y100356D01*
X1112409Y100259D01*
X1112564Y100181D01*
X1112680Y100104D01*
X1112777Y100046D01*
X1112855Y99987D01*
X1112913Y99949D01*
X1112932Y99929D01*
X1112952Y99910D01*
X1113126Y99736D01*
X1113262Y99561D01*
X1113397Y99348D01*
X1113514Y99154D01*
X1113688Y98728D01*
X1113804Y98340D01*
X1113863Y97972D01*
X1113882Y97817D01*
X1113901Y97681D01*
X1113921Y97565D01*
Y97487D01*
Y97429D01*
Y97410D01*
X1113901Y97003D01*
X1113863Y96635D01*
X1113785Y96325D01*
X1113707Y96053D01*
X1113630Y95821D01*
X1113552Y95666D01*
X1113514Y95569D01*
X1113494Y95530D01*
X1113320Y95259D01*
X1113126Y94987D01*
X1112913Y94735D01*
X1112700Y94522D01*
X1112525Y94328D01*
X1112370Y94193D01*
X1112273Y94096D01*
X1112235Y94057D01*
X1110859Y92856D01*
X1110587Y92623D01*
X1110374Y92390D01*
X1110180Y92177D01*
X1110025Y92003D01*
X1109909Y91848D01*
X1109812Y91732D01*
X1109773Y91654D01*
X1109754Y91635D01*
X1109638Y91421D01*
X1109541Y91208D01*
X1109483Y90976D01*
X1109424Y90782D01*
X1109405Y90588D01*
X1109386Y90452D01*
Y90356D01*
Y90317D01*
Y90142D01*
X1109424Y89987D01*
X1109444Y89852D01*
X1109483Y89735D01*
X1109521Y89639D01*
X1109560Y89580D01*
X1109579Y89542D01*
X1109599Y89522D01*
X1109696Y89425D01*
X1109793Y89348D01*
X1109909Y89309D01*
X1110025Y89270D01*
X1110122Y89251D01*
X1110219Y89232D01*
X1110296D01*
X1110529Y89251D01*
X1110723Y89328D01*
X1110878Y89425D01*
X1111014Y89542D01*
X1111130Y89639D01*
X1111207Y89735D01*
X1111246Y89813D01*
X1111265Y89832D01*
X1111362Y90084D01*
X1111459Y90375D01*
X1111517Y90685D01*
X1111556Y90995D01*
X1111576Y91266D01*
X1111595Y91480D01*
X1111614Y91576D01*
Y91635D01*
Y91673D01*
Y91693D01*
X1113940Y91286D01*
X1113921Y90898D01*
X1113882Y90549D01*
X1113824Y90220D01*
X1113746Y89910D01*
X1113669Y89619D01*
X1113591Y89367D01*
X1113514Y89135D01*
X1113417Y88941D01*
X1113320Y88747D01*
X1113242Y88592D01*
X1113165Y88456D01*
X1113087Y88359D01*
X1113029Y88282D01*
X1112990Y88204D01*
X1112952Y88185D01*
Y88166D01*
X1112758Y87991D01*
X1112564Y87836D01*
X1112351Y87701D01*
X1112118Y87604D01*
X1111673Y87410D01*
X1111207Y87294D01*
X1110820Y87235D01*
X1110626Y87216D01*
X1110490Y87197D01*
X1110355Y87177D01*
X1110180D01*
X1109812Y87197D01*
X1109483Y87235D01*
X1109173Y87313D01*
X1108901Y87390D01*
X1108688Y87449D01*
X1108533Y87526D01*
X1108436Y87565D01*
X1108397Y87584D01*
X1108107Y87759D01*
X1107874Y87952D01*
X1107661Y88146D01*
X1107486Y88321D01*
X1107351Y88495D01*
X1107254Y88631D01*
X1107196Y88708D01*
X1107176Y88747D01*
X1107041Y89038D01*
X1106924Y89328D01*
X1106847Y89619D01*
X1106808Y89890D01*
X1106769Y90104D01*
X1106750Y90297D01*
Y90414D01*
Y90433D01*
Y90452D01*
X1106769Y90898D01*
X1106827Y91305D01*
X1106924Y91673D01*
X1107021Y92003D01*
X1107118Y92255D01*
X1107215Y92449D01*
X1107234Y92507D01*
X1107273Y92565D01*
X1107293Y92584D01*
Y92604D01*
X1107506Y92933D01*
X1107738Y93263D01*
X1107990Y93573D01*
X1108242Y93844D01*
X1108455Y94057D01*
X1108630Y94232D01*
X1108746Y94348D01*
X1108765Y94387D01*
X1108785D01*
X1110142Y95569D01*
X1110355Y95763D01*
X1110529Y95956D01*
X1110684Y96111D01*
X1110820Y96266D01*
X1110917Y96383D01*
X1110975Y96480D01*
X1111014Y96538D01*
X1111033Y96557D01*
X1111130Y96732D01*
X1111207Y96925D01*
X1111246Y97100D01*
X1111285Y97274D01*
X1111304Y97429D01*
X1111324Y97546D01*
Y97642D01*
Y97662D01*
X1111304Y97836D01*
X1111285Y97991D01*
X1111246Y98127D01*
X1111188Y98243D01*
X1111149Y98340D01*
X1111111Y98418D01*
X1111091Y98456D01*
X1111072Y98476D01*
X1110975Y98592D01*
X1110859Y98670D01*
X1110742Y98728D01*
X1110626Y98767D01*
X1110510Y98786D01*
X1110432Y98805D01*
X1110355D01*
X1110161Y98786D01*
X1109986Y98728D01*
X1109851Y98631D01*
X1109754Y98553D01*
X1109676Y98456D01*
X1109618Y98360D01*
X1109579Y98301D01*
Y98282D01*
X1109521Y98069D01*
X1109463Y97836D01*
X1109424Y97584D01*
X1109386Y97332D01*
X1109366Y97100D01*
X1109347Y96925D01*
Y96848D01*
Y96790D01*
Y96770D01*
Y96751D01*
X1107002Y97100D01*
X1107060Y97681D01*
X1107157Y98185D01*
X1107293Y98650D01*
X1107428Y99018D01*
X1107506Y99193D01*
X1107564Y99329D01*
X1107622Y99445D01*
X1107680Y99542D01*
X1107738Y99639D01*
X1107758Y99697D01*
X1107796Y99716D01*
Y99736D01*
X1107932Y99929D01*
X1108107Y100084D01*
X1108281Y100220D01*
X1108475Y100336D01*
X1108882Y100530D01*
X1109289Y100646D01*
X1109676Y100724D01*
X1109851Y100743D01*
X1109986Y100763D01*
X1110103Y100782D01*
X1110587D01*
X1110878Y100743D01*
D02*
G37*
G36*
X1106382Y188942D02*
X1104075D01*
Y196287D01*
X1101110Y188942D01*
X1099289D01*
Y202217D01*
X1101537D01*
Y195318D01*
X1104502Y202217D01*
X1106382D01*
Y188942D01*
D02*
G37*
G36*
X1111091D02*
X1108397D01*
Y202217D01*
X1111091D01*
Y188942D01*
D02*
G37*
G36*
X1098165Y200221D02*
X1096052D01*
Y188942D01*
X1093339D01*
Y200221D01*
X1091265D01*
Y202217D01*
X1098165D01*
Y200221D01*
D02*
G37*
G36*
X1104744Y36561D02*
X1102438D01*
Y43906D01*
X1099473Y36561D01*
X1097651D01*
Y49837D01*
X1099899D01*
Y42937D01*
X1102864Y49837D01*
X1104744D01*
Y36561D01*
D02*
G37*
G36*
X1110829Y49972D02*
X1111178Y49934D01*
X1111508Y49875D01*
X1111818Y49817D01*
X1112089Y49721D01*
X1112322Y49624D01*
X1112554Y49507D01*
X1112748Y49410D01*
X1112903Y49294D01*
X1113058Y49178D01*
X1113175Y49081D01*
X1113271Y49003D01*
X1113349Y48926D01*
X1113407Y48868D01*
X1113427Y48829D01*
X1113446Y48810D01*
X1113601Y48577D01*
X1113737Y48325D01*
X1113950Y47783D01*
X1114105Y47220D01*
X1114202Y46678D01*
X1114240Y46406D01*
X1114279Y46174D01*
X1114299Y45961D01*
Y45767D01*
X1114318Y45612D01*
Y45496D01*
Y45418D01*
Y45399D01*
Y40941D01*
X1114299Y40534D01*
X1114279Y40166D01*
X1114240Y39817D01*
X1114182Y39488D01*
X1114124Y39178D01*
X1114066Y38906D01*
X1113988Y38654D01*
X1113911Y38422D01*
X1113833Y38209D01*
X1113756Y38034D01*
X1113698Y37899D01*
X1113640Y37763D01*
X1113581Y37666D01*
X1113543Y37608D01*
X1113504Y37569D01*
Y37550D01*
X1113330Y37336D01*
X1113136Y37162D01*
X1112942Y37007D01*
X1112709Y36871D01*
X1112496Y36755D01*
X1112264Y36658D01*
X1111798Y36523D01*
X1111392Y36426D01*
X1111198Y36406D01*
X1111043Y36387D01*
X1110907Y36367D01*
X1110733D01*
X1110442Y36387D01*
X1110190Y36426D01*
X1109938Y36484D01*
X1109725Y36581D01*
X1109531Y36678D01*
X1109357Y36794D01*
X1109047Y37046D01*
X1108814Y37298D01*
X1108659Y37511D01*
X1108601Y37608D01*
X1108581Y37666D01*
X1108543Y37705D01*
Y37724D01*
X1108368Y36561D01*
X1106605D01*
Y43364D01*
X1110326D01*
Y41736D01*
X1109047D01*
Y40321D01*
X1109066Y39992D01*
X1109085Y39681D01*
X1109144Y39430D01*
X1109182Y39216D01*
X1109240Y39042D01*
X1109298Y38926D01*
X1109318Y38848D01*
X1109337Y38829D01*
X1109454Y38654D01*
X1109609Y38519D01*
X1109764Y38441D01*
X1109938Y38364D01*
X1110093Y38325D01*
X1110209Y38305D01*
X1110326D01*
X1110578Y38325D01*
X1110791Y38383D01*
X1110946Y38461D01*
X1111081Y38558D01*
X1111198Y38654D01*
X1111256Y38732D01*
X1111295Y38790D01*
X1111314Y38809D01*
X1111392Y39023D01*
X1111450Y39255D01*
X1111508Y39488D01*
X1111527Y39720D01*
X1111547Y39914D01*
X1111566Y40089D01*
Y40205D01*
Y40224D01*
Y40244D01*
Y46135D01*
X1111547Y46465D01*
X1111527Y46755D01*
X1111488Y47007D01*
X1111450Y47201D01*
X1111411Y47375D01*
X1111392Y47472D01*
X1111353Y47550D01*
Y47569D01*
X1111256Y47724D01*
X1111120Y47841D01*
X1110965Y47937D01*
X1110791Y47996D01*
X1110655Y48034D01*
X1110519Y48054D01*
X1110403D01*
X1110151Y48034D01*
X1109957Y47996D01*
X1109802Y47918D01*
X1109667Y47841D01*
X1109570Y47763D01*
X1109512Y47686D01*
X1109492Y47647D01*
X1109473Y47627D01*
X1109395Y47453D01*
X1109357Y47240D01*
X1109318Y47007D01*
X1109279Y46794D01*
Y46581D01*
X1109260Y46426D01*
Y46310D01*
Y46290D01*
Y46271D01*
Y45340D01*
X1106643D01*
Y46116D01*
Y46465D01*
X1106682Y46775D01*
X1106721Y47085D01*
X1106779Y47356D01*
X1106837Y47608D01*
X1106915Y47841D01*
X1106992Y48073D01*
X1107070Y48248D01*
X1107167Y48422D01*
X1107244Y48577D01*
X1107322Y48693D01*
X1107380Y48810D01*
X1107438Y48887D01*
X1107477Y48945D01*
X1107496Y48965D01*
X1107515Y48984D01*
X1107690Y49158D01*
X1107884Y49314D01*
X1108116Y49449D01*
X1108349Y49565D01*
X1108833Y49740D01*
X1109298Y49875D01*
X1109531Y49914D01*
X1109744Y49934D01*
X1109938Y49953D01*
X1110113Y49972D01*
X1110248Y49992D01*
X1110442D01*
X1110829Y49972D01*
D02*
G37*
G36*
X1095655Y36561D02*
X1092341D01*
X1091759Y36581D01*
X1091236Y36639D01*
X1090810Y36697D01*
X1090442Y36794D01*
X1090286Y36833D01*
X1090151Y36871D01*
X1090035Y36910D01*
X1089938Y36930D01*
X1089860Y36968D01*
X1089802Y36988D01*
X1089783Y37007D01*
X1089763D01*
X1089434Y37201D01*
X1089163Y37414D01*
X1088930Y37647D01*
X1088755Y37860D01*
X1088620Y38073D01*
X1088523Y38228D01*
X1088465Y38344D01*
X1088445Y38364D01*
Y38383D01*
X1088310Y38751D01*
X1088213Y39158D01*
X1088135Y39565D01*
X1088097Y39953D01*
X1088058Y40302D01*
Y40437D01*
X1088038Y40573D01*
Y40689D01*
Y40767D01*
Y40806D01*
Y40825D01*
Y45670D01*
X1088058Y46193D01*
X1088097Y46678D01*
X1088174Y47085D01*
X1088232Y47414D01*
X1088310Y47686D01*
X1088387Y47899D01*
X1088407Y47957D01*
X1088426Y48015D01*
X1088445Y48034D01*
Y48054D01*
X1088620Y48364D01*
X1088833Y48655D01*
X1089046Y48887D01*
X1089279Y49061D01*
X1089473Y49217D01*
X1089647Y49314D01*
X1089763Y49372D01*
X1089783Y49391D01*
X1089802D01*
X1090190Y49546D01*
X1090597Y49643D01*
X1091023Y49721D01*
X1091449Y49779D01*
X1091818Y49817D01*
X1091992D01*
X1092128Y49837D01*
X1095655D01*
Y36561D01*
D02*
G37*
G36*
X939294Y176963D02*
X939643Y176943D01*
X939972Y176885D01*
X940282Y176808D01*
X940554Y176730D01*
X940786Y176633D01*
X941019Y176517D01*
X941212Y176420D01*
X941368Y176323D01*
X941523Y176207D01*
X941639Y176110D01*
X941736Y176033D01*
X941813Y175955D01*
X941871Y175916D01*
X941891Y175877D01*
X941910Y175858D01*
X942065Y175645D01*
X942201Y175393D01*
X942414Y174870D01*
X942569Y174308D01*
X942666Y173785D01*
X942705Y173533D01*
X942744Y173300D01*
X942763Y173087D01*
Y172912D01*
X942782Y172757D01*
Y172641D01*
Y172563D01*
Y172544D01*
Y167796D01*
X942763Y167408D01*
X942744Y167040D01*
X942705Y166691D01*
X942647Y166381D01*
X942589Y166071D01*
X942511Y165800D01*
X942433Y165567D01*
X942337Y165335D01*
X942259Y165141D01*
X942182Y164986D01*
X942104Y164831D01*
X942046Y164715D01*
X941988Y164618D01*
X941949Y164559D01*
X941910Y164521D01*
Y164501D01*
X941736Y164307D01*
X941523Y164133D01*
X941309Y163978D01*
X941058Y163862D01*
X940825Y163745D01*
X940573Y163649D01*
X940069Y163513D01*
X939837Y163474D01*
X939623Y163435D01*
X939430Y163416D01*
X939255Y163397D01*
X939100Y163377D01*
X938906D01*
X938538Y163397D01*
X938189Y163416D01*
X937879Y163474D01*
X937588Y163532D01*
X937317Y163610D01*
X937085Y163707D01*
X936871Y163804D01*
X936697Y163901D01*
X936523Y163978D01*
X936387Y164075D01*
X936271Y164172D01*
X936174Y164249D01*
X936116Y164307D01*
X936057Y164366D01*
X936019Y164385D01*
Y164404D01*
X935864Y164618D01*
X935728Y164831D01*
X935534Y165315D01*
X935379Y165800D01*
X935263Y166265D01*
X935243Y166497D01*
X935205Y166691D01*
X935185Y166885D01*
Y167040D01*
X935166Y167176D01*
Y167273D01*
Y167331D01*
Y167350D01*
Y168435D01*
X937802D01*
Y167156D01*
Y166827D01*
X937840Y166556D01*
X937860Y166304D01*
X937898Y166110D01*
X937937Y165955D01*
X937957Y165858D01*
X937995Y165780D01*
Y165761D01*
X938092Y165606D01*
X938209Y165490D01*
X938364Y165412D01*
X938519Y165354D01*
X938654Y165315D01*
X938771Y165296D01*
X938887D01*
X939119Y165315D01*
X939313Y165373D01*
X939468Y165432D01*
X939585Y165529D01*
X939681Y165606D01*
X939740Y165664D01*
X939778Y165722D01*
X939798Y165742D01*
X939875Y165935D01*
X939933Y166168D01*
X939992Y166401D01*
X940011Y166633D01*
X940030Y166827D01*
X940050Y167001D01*
Y167118D01*
Y167137D01*
Y167156D01*
Y173184D01*
X940030Y173513D01*
X940011Y173785D01*
X939972Y174017D01*
X939933Y174211D01*
X939895Y174366D01*
X939875Y174482D01*
X939837Y174540D01*
Y174560D01*
X939740Y174715D01*
X939604Y174831D01*
X939449Y174928D01*
X939275Y174986D01*
X939139Y175025D01*
X939003Y175044D01*
X938712D01*
X938558Y175005D01*
X938441Y174967D01*
X938325Y174928D01*
X938247Y174889D01*
X938189Y174850D01*
X938170Y174831D01*
X938150Y174812D01*
X938015Y174618D01*
X937918Y174424D01*
X937898Y174347D01*
X937879Y174269D01*
X937860Y174230D01*
Y174211D01*
X937840Y174075D01*
X937821Y173920D01*
X937802Y173610D01*
Y173474D01*
Y173358D01*
Y173281D01*
Y173261D01*
Y172040D01*
X935166D01*
Y173145D01*
Y173494D01*
X935205Y173804D01*
X935243Y174095D01*
X935302Y174385D01*
X935360Y174637D01*
X935437Y174870D01*
X935515Y175083D01*
X935592Y175277D01*
X935670Y175432D01*
X935747Y175587D01*
X935825Y175703D01*
X935883Y175819D01*
X935941Y175897D01*
X935980Y175955D01*
X935999Y175974D01*
X936019Y175994D01*
X936193Y176168D01*
X936387Y176323D01*
X936600Y176459D01*
X936833Y176575D01*
X937298Y176750D01*
X937782Y176866D01*
X938015Y176905D01*
X938209Y176924D01*
X938402Y176943D01*
X938577Y176963D01*
X938712Y176982D01*
X938906D01*
X939294Y176963D01*
D02*
G37*
G36*
X930786Y176943D02*
X931329Y176847D01*
X931774Y176711D01*
X931988Y176633D01*
X932162Y176556D01*
X932317Y176459D01*
X932472Y176381D01*
X932588Y176304D01*
X932685Y176246D01*
X932763Y176188D01*
X932821Y176149D01*
X932840Y176129D01*
X932860Y176110D01*
X933034Y175936D01*
X933170Y175761D01*
X933305Y175548D01*
X933422Y175354D01*
X933596Y174928D01*
X933712Y174540D01*
X933771Y174172D01*
X933790Y174017D01*
X933809Y173881D01*
X933829Y173765D01*
Y173688D01*
Y173629D01*
Y173610D01*
X933809Y173203D01*
X933771Y172835D01*
X933693Y172525D01*
X933615Y172253D01*
X933538Y172021D01*
X933460Y171866D01*
X933422Y171769D01*
X933402Y171730D01*
X933228Y171459D01*
X933034Y171187D01*
X932821Y170936D01*
X932608Y170722D01*
X932433Y170529D01*
X932278Y170393D01*
X932181Y170296D01*
X932143Y170257D01*
X930767Y169056D01*
X930495Y168823D01*
X930282Y168591D01*
X930088Y168377D01*
X929933Y168203D01*
X929817Y168048D01*
X929720Y167932D01*
X929681Y167854D01*
X929662Y167835D01*
X929546Y167622D01*
X929449Y167408D01*
X929391Y167176D01*
X929333Y166982D01*
X929313Y166788D01*
X929294Y166653D01*
Y166556D01*
Y166517D01*
Y166343D01*
X929333Y166187D01*
X929352Y166052D01*
X929391Y165935D01*
X929429Y165839D01*
X929468Y165780D01*
X929488Y165742D01*
X929507Y165722D01*
X929604Y165625D01*
X929701Y165548D01*
X929817Y165509D01*
X929933Y165470D01*
X930030Y165451D01*
X930127Y165432D01*
X930205D01*
X930437Y165451D01*
X930631Y165529D01*
X930786Y165625D01*
X930922Y165742D01*
X931038Y165839D01*
X931115Y165935D01*
X931154Y166013D01*
X931174Y166032D01*
X931271Y166284D01*
X931367Y166575D01*
X931425Y166885D01*
X931464Y167195D01*
X931484Y167467D01*
X931503Y167680D01*
X931522Y167777D01*
Y167835D01*
Y167873D01*
Y167893D01*
X933848Y167486D01*
X933829Y167098D01*
X933790Y166749D01*
X933732Y166420D01*
X933654Y166110D01*
X933577Y165819D01*
X933499Y165567D01*
X933422Y165335D01*
X933325Y165141D01*
X933228Y164947D01*
X933150Y164792D01*
X933073Y164656D01*
X932995Y164559D01*
X932937Y164482D01*
X932898Y164404D01*
X932860Y164385D01*
Y164366D01*
X932666Y164191D01*
X932472Y164036D01*
X932259Y163901D01*
X932026Y163804D01*
X931581Y163610D01*
X931115Y163494D01*
X930728Y163435D01*
X930534Y163416D01*
X930398Y163397D01*
X930263Y163377D01*
X930088D01*
X929720Y163397D01*
X929391Y163435D01*
X929081Y163513D01*
X928809Y163591D01*
X928596Y163649D01*
X928441Y163726D01*
X928344Y163765D01*
X928305Y163784D01*
X928015Y163959D01*
X927782Y164153D01*
X927569Y164346D01*
X927394Y164521D01*
X927259Y164695D01*
X927162Y164831D01*
X927104Y164908D01*
X927084Y164947D01*
X926949Y165238D01*
X926832Y165529D01*
X926755Y165819D01*
X926716Y166091D01*
X926677Y166304D01*
X926658Y166497D01*
Y166614D01*
Y166633D01*
Y166653D01*
X926677Y167098D01*
X926736Y167505D01*
X926832Y167873D01*
X926929Y168203D01*
X927026Y168455D01*
X927123Y168649D01*
X927142Y168707D01*
X927181Y168765D01*
X927201Y168784D01*
Y168804D01*
X927414Y169133D01*
X927646Y169463D01*
X927898Y169773D01*
X928150Y170044D01*
X928363Y170257D01*
X928538Y170432D01*
X928654Y170548D01*
X928674Y170587D01*
X928693D01*
X930050Y171769D01*
X930263Y171963D01*
X930437Y172157D01*
X930592Y172312D01*
X930728Y172467D01*
X930825Y172583D01*
X930883Y172680D01*
X930922Y172738D01*
X930941Y172757D01*
X931038Y172932D01*
X931115Y173125D01*
X931154Y173300D01*
X931193Y173474D01*
X931212Y173629D01*
X931232Y173746D01*
Y173843D01*
Y173862D01*
X931212Y174036D01*
X931193Y174191D01*
X931154Y174327D01*
X931096Y174443D01*
X931057Y174540D01*
X931019Y174618D01*
X930999Y174657D01*
X930980Y174676D01*
X930883Y174792D01*
X930767Y174870D01*
X930650Y174928D01*
X930534Y174967D01*
X930418Y174986D01*
X930340Y175005D01*
X930263D01*
X930069Y174986D01*
X929894Y174928D01*
X929759Y174831D01*
X929662Y174753D01*
X929584Y174657D01*
X929526Y174560D01*
X929488Y174501D01*
Y174482D01*
X929429Y174269D01*
X929371Y174036D01*
X929333Y173785D01*
X929294Y173533D01*
X929274Y173300D01*
X929255Y173125D01*
Y173048D01*
Y172990D01*
Y172971D01*
Y172951D01*
X926910Y173300D01*
X926968Y173881D01*
X927065Y174385D01*
X927201Y174850D01*
X927336Y175219D01*
X927414Y175393D01*
X927472Y175529D01*
X927530Y175645D01*
X927588Y175742D01*
X927646Y175839D01*
X927666Y175897D01*
X927704Y175916D01*
Y175936D01*
X927840Y176129D01*
X928015Y176285D01*
X928189Y176420D01*
X928383Y176537D01*
X928790Y176730D01*
X929197Y176847D01*
X929584Y176924D01*
X929759Y176943D01*
X929894Y176963D01*
X930011Y176982D01*
X930495D01*
X930786Y176943D01*
D02*
G37*
G36*
X936503Y87352D02*
X933189D01*
X932608Y87371D01*
X932085Y87429D01*
X931658Y87487D01*
X931290Y87584D01*
X931135Y87623D01*
X930999Y87662D01*
X930883Y87701D01*
X930786Y87720D01*
X930708Y87759D01*
X930650Y87778D01*
X930631Y87797D01*
X930612D01*
X930282Y87991D01*
X930011Y88204D01*
X929778Y88437D01*
X929604Y88650D01*
X929468Y88863D01*
X929371Y89018D01*
X929313Y89135D01*
X929294Y89154D01*
Y89173D01*
X929158Y89542D01*
X929061Y89949D01*
X928984Y90356D01*
X928945Y90743D01*
X928906Y91092D01*
Y91228D01*
X928887Y91363D01*
Y91480D01*
Y91557D01*
Y91596D01*
Y91615D01*
Y96460D01*
X928906Y96984D01*
X928945Y97468D01*
X929022Y97875D01*
X929081Y98205D01*
X929158Y98476D01*
X929236Y98689D01*
X929255Y98747D01*
X929274Y98805D01*
X929294Y98825D01*
Y98844D01*
X929468Y99154D01*
X929681Y99445D01*
X929894Y99677D01*
X930127Y99852D01*
X930321Y100007D01*
X930495Y100104D01*
X930612Y100162D01*
X930631Y100181D01*
X930650D01*
X931038Y100337D01*
X931445Y100433D01*
X931871Y100511D01*
X932298Y100569D01*
X932666Y100608D01*
X932840D01*
X932976Y100627D01*
X936503D01*
Y87352D01*
D02*
G37*
G36*
X927065D02*
X924371D01*
Y100627D01*
X927065D01*
Y87352D01*
D02*
G37*
G36*
X942046Y100743D02*
X942589Y100646D01*
X943034Y100511D01*
X943248Y100433D01*
X943422Y100356D01*
X943577Y100259D01*
X943732Y100181D01*
X943848Y100104D01*
X943945Y100046D01*
X944023Y99988D01*
X944081Y99949D01*
X944100Y99930D01*
X944120Y99910D01*
X944294Y99736D01*
X944430Y99561D01*
X944565Y99348D01*
X944682Y99154D01*
X944856Y98728D01*
X944972Y98340D01*
X945030Y97972D01*
X945050Y97817D01*
X945069Y97681D01*
X945089Y97565D01*
Y97488D01*
Y97429D01*
Y97410D01*
X945069Y97003D01*
X945030Y96635D01*
X944953Y96325D01*
X944875Y96053D01*
X944798Y95821D01*
X944720Y95666D01*
X944682Y95569D01*
X944662Y95530D01*
X944488Y95259D01*
X944294Y94987D01*
X944081Y94736D01*
X943868Y94522D01*
X943693Y94329D01*
X943538Y94193D01*
X943441Y94096D01*
X943402Y94057D01*
X942027Y92856D01*
X941755Y92623D01*
X941542Y92391D01*
X941348Y92177D01*
X941193Y92003D01*
X941077Y91848D01*
X940980Y91732D01*
X940941Y91654D01*
X940922Y91635D01*
X940806Y91422D01*
X940709Y91208D01*
X940650Y90976D01*
X940592Y90782D01*
X940573Y90588D01*
X940554Y90452D01*
Y90356D01*
Y90317D01*
Y90142D01*
X940592Y89987D01*
X940612Y89852D01*
X940650Y89735D01*
X940689Y89639D01*
X940728Y89580D01*
X940747Y89542D01*
X940767Y89522D01*
X940864Y89425D01*
X940961Y89348D01*
X941077Y89309D01*
X941193Y89270D01*
X941290Y89251D01*
X941387Y89232D01*
X941464D01*
X941697Y89251D01*
X941891Y89328D01*
X942046Y89425D01*
X942182Y89542D01*
X942298Y89639D01*
X942375Y89735D01*
X942414Y89813D01*
X942433Y89832D01*
X942530Y90084D01*
X942627Y90375D01*
X942685Y90685D01*
X942724Y90995D01*
X942744Y91266D01*
X942763Y91480D01*
X942782Y91577D01*
Y91635D01*
Y91673D01*
Y91693D01*
X945108Y91286D01*
X945089Y90898D01*
X945050Y90549D01*
X944992Y90220D01*
X944914Y89910D01*
X944837Y89619D01*
X944759Y89367D01*
X944682Y89135D01*
X944585Y88941D01*
X944488Y88747D01*
X944410Y88592D01*
X944333Y88456D01*
X944255Y88359D01*
X944197Y88282D01*
X944158Y88204D01*
X944120Y88185D01*
Y88166D01*
X943926Y87991D01*
X943732Y87836D01*
X943519Y87701D01*
X943286Y87604D01*
X942840Y87410D01*
X942375Y87294D01*
X941988Y87235D01*
X941794Y87216D01*
X941658Y87197D01*
X941523Y87177D01*
X941348D01*
X940980Y87197D01*
X940650Y87235D01*
X940340Y87313D01*
X940069Y87390D01*
X939856Y87449D01*
X939701Y87526D01*
X939604Y87565D01*
X939565Y87584D01*
X939275Y87759D01*
X939042Y87952D01*
X938829Y88146D01*
X938654Y88321D01*
X938519Y88495D01*
X938422Y88631D01*
X938364Y88708D01*
X938344Y88747D01*
X938209Y89038D01*
X938092Y89328D01*
X938015Y89619D01*
X937976Y89890D01*
X937937Y90104D01*
X937918Y90297D01*
Y90414D01*
Y90433D01*
Y90452D01*
X937937Y90898D01*
X937995Y91305D01*
X938092Y91673D01*
X938189Y92003D01*
X938286Y92255D01*
X938383Y92449D01*
X938402Y92507D01*
X938441Y92565D01*
X938461Y92584D01*
Y92604D01*
X938674Y92933D01*
X938906Y93263D01*
X939158Y93573D01*
X939410Y93844D01*
X939623Y94057D01*
X939798Y94232D01*
X939914Y94348D01*
X939933Y94387D01*
X939953D01*
X941309Y95569D01*
X941523Y95763D01*
X941697Y95956D01*
X941852Y96112D01*
X941988Y96267D01*
X942085Y96383D01*
X942143Y96480D01*
X942182Y96538D01*
X942201Y96557D01*
X942298Y96732D01*
X942375Y96925D01*
X942414Y97100D01*
X942453Y97274D01*
X942472Y97429D01*
X942492Y97546D01*
Y97643D01*
Y97662D01*
X942472Y97836D01*
X942453Y97991D01*
X942414Y98127D01*
X942356Y98243D01*
X942317Y98340D01*
X942279Y98418D01*
X942259Y98457D01*
X942240Y98476D01*
X942143Y98592D01*
X942027Y98670D01*
X941910Y98728D01*
X941794Y98767D01*
X941678Y98786D01*
X941600Y98805D01*
X941523D01*
X941329Y98786D01*
X941154Y98728D01*
X941019Y98631D01*
X940922Y98553D01*
X940844Y98457D01*
X940786Y98360D01*
X940747Y98301D01*
Y98282D01*
X940689Y98069D01*
X940631Y97836D01*
X940592Y97584D01*
X940554Y97332D01*
X940534Y97100D01*
X940515Y96925D01*
Y96848D01*
Y96790D01*
Y96770D01*
Y96751D01*
X938170Y97100D01*
X938228Y97681D01*
X938325Y98185D01*
X938461Y98650D01*
X938596Y99019D01*
X938674Y99193D01*
X938732Y99329D01*
X938790Y99445D01*
X938848Y99542D01*
X938906Y99639D01*
X938926Y99697D01*
X938964Y99716D01*
Y99736D01*
X939100Y99930D01*
X939275Y100084D01*
X939449Y100220D01*
X939643Y100337D01*
X940050Y100530D01*
X940457Y100646D01*
X940844Y100724D01*
X941019Y100743D01*
X941154Y100763D01*
X941271Y100782D01*
X941755D01*
X942046Y100743D01*
D02*
G37*
G36*
X1099017Y170655D02*
X1101653Y163542D01*
X1099366D01*
X1097835Y167728D01*
X1096110Y163542D01*
X1093571D01*
X1096227Y170015D01*
X1093804Y176817D01*
X1096110D01*
X1097409Y172980D01*
X1098998Y176817D01*
X1101556D01*
X1099017Y170655D01*
D02*
G37*
G36*
X1108824Y174821D02*
X1106711D01*
Y163542D01*
X1103998D01*
Y174821D01*
X1101924D01*
Y176817D01*
X1108824D01*
Y174821D01*
D02*
G37*
G36*
X943577Y75392D02*
X943868Y75373D01*
X944391Y75256D01*
X944837Y75121D01*
X945031Y75024D01*
X945205Y74946D01*
X945360Y74849D01*
X945496Y74772D01*
X945612Y74675D01*
X945709Y74617D01*
X945786Y74559D01*
X945844Y74500D01*
X945864Y74481D01*
X945883Y74462D01*
X946038Y74268D01*
X946193Y74074D01*
X946426Y73648D01*
X946581Y73202D01*
X946697Y72756D01*
X946755Y72369D01*
X946794Y72194D01*
Y72059D01*
X946813Y71942D01*
Y71845D01*
Y71787D01*
Y71768D01*
Y71051D01*
X944275D01*
Y71632D01*
X944255Y71942D01*
X944236Y72214D01*
X944197Y72427D01*
X944158Y72621D01*
X944120Y72756D01*
X944100Y72873D01*
X944062Y72931D01*
Y72950D01*
X943965Y73105D01*
X943848Y73202D01*
X943713Y73280D01*
X943577Y73338D01*
X943461Y73376D01*
X943364Y73396D01*
X943267D01*
X943054Y73376D01*
X942879Y73338D01*
X942744Y73260D01*
X942627Y73202D01*
X942530Y73124D01*
X942472Y73047D01*
X942453Y73008D01*
X942433Y72989D01*
X942356Y72814D01*
X942279Y72621D01*
X942220Y72214D01*
X942201Y72020D01*
X942182Y71865D01*
Y71768D01*
Y71748D01*
Y71729D01*
X942201Y71361D01*
X942240Y71051D01*
X942279Y70799D01*
X942337Y70586D01*
X942414Y70411D01*
X942453Y70314D01*
X942492Y70237D01*
X942511Y70217D01*
X942647Y70062D01*
X942840Y69946D01*
X943034Y69868D01*
X943228Y69810D01*
X943402Y69772D01*
X943558Y69752D01*
X944100D01*
Y67911D01*
X943713D01*
X943654Y67892D01*
X943635D01*
X943344Y67872D01*
X943112Y67795D01*
X942899Y67717D01*
X942744Y67620D01*
X942627Y67523D01*
X942550Y67427D01*
X942511Y67368D01*
X942492Y67349D01*
X942395Y67136D01*
X942317Y66884D01*
X942259Y66632D01*
X942220Y66380D01*
X942201Y66147D01*
X942182Y65954D01*
Y65876D01*
Y65818D01*
Y65799D01*
Y65779D01*
Y65430D01*
X942220Y65120D01*
X942240Y64868D01*
X942279Y64655D01*
X942317Y64500D01*
X942356Y64384D01*
X942375Y64326D01*
X942395Y64306D01*
X942492Y64151D01*
X942608Y64054D01*
X942744Y63977D01*
X942879Y63919D01*
X942996Y63880D01*
X943112Y63861D01*
X943209D01*
X943422Y63880D01*
X943596Y63919D01*
X943732Y63996D01*
X943848Y64074D01*
X943945Y64151D01*
X944003Y64229D01*
X944023Y64268D01*
X944042Y64287D01*
X944120Y64481D01*
X944178Y64713D01*
X944217Y64946D01*
X944236Y65198D01*
X944255Y65411D01*
X944275Y65585D01*
Y65721D01*
Y65741D01*
Y65760D01*
Y66206D01*
X946813D01*
Y65741D01*
X946794Y65392D01*
X946775Y65062D01*
X946736Y64752D01*
X946678Y64461D01*
X946620Y64209D01*
X946542Y63958D01*
X946465Y63744D01*
X946387Y63531D01*
X946310Y63357D01*
X946251Y63202D01*
X946174Y63085D01*
X946116Y62969D01*
X946058Y62892D01*
X946019Y62833D01*
X945980Y62795D01*
Y62775D01*
X945806Y62601D01*
X945612Y62446D01*
X945418Y62291D01*
X945185Y62175D01*
X944740Y62000D01*
X944275Y61884D01*
X943868Y61806D01*
X943693Y61787D01*
X943538Y61768D01*
X943402Y61748D01*
X943228D01*
X942899Y61768D01*
X942589Y61787D01*
X942298Y61845D01*
X942027Y61923D01*
X941794Y62000D01*
X941561Y62078D01*
X941368Y62175D01*
X941193Y62291D01*
X941038Y62388D01*
X940902Y62485D01*
X940786Y62562D01*
X940689Y62640D01*
X940631Y62717D01*
X940573Y62775D01*
X940534Y62795D01*
Y62814D01*
X940379Y63027D01*
X940244Y63260D01*
X940050Y63744D01*
X939895Y64248D01*
X939778Y64733D01*
X939759Y64946D01*
X939720Y65159D01*
X939701Y65334D01*
Y65508D01*
X939681Y65644D01*
Y65741D01*
Y65799D01*
Y65818D01*
X939701Y66264D01*
X939759Y66671D01*
X939837Y67039D01*
X939953Y67368D01*
X940069Y67659D01*
X940205Y67911D01*
X940360Y68144D01*
X940515Y68337D01*
X940689Y68492D01*
X940825Y68628D01*
X940980Y68745D01*
X941096Y68822D01*
X941213Y68880D01*
X941290Y68919D01*
X941348Y68958D01*
X941368D01*
X941096Y69055D01*
X940864Y69190D01*
X940670Y69345D01*
X940496Y69520D01*
X940360Y69675D01*
X940244Y69810D01*
X940185Y69888D01*
X940166Y69927D01*
X940011Y70237D01*
X939895Y70547D01*
X939798Y70876D01*
X939740Y71186D01*
X939701Y71438D01*
X939681Y71652D01*
Y71729D01*
Y71787D01*
Y71826D01*
Y71845D01*
X939701Y72155D01*
X939720Y72446D01*
X939759Y72737D01*
X939817Y72989D01*
X939895Y73221D01*
X939972Y73435D01*
X940050Y73628D01*
X940147Y73803D01*
X940224Y73958D01*
X940321Y74093D01*
X940399Y74210D01*
X940457Y74307D01*
X940534Y74384D01*
X940573Y74442D01*
X940592Y74462D01*
X940612Y74481D01*
X940786Y74636D01*
X940999Y74791D01*
X941426Y75024D01*
X941852Y75179D01*
X942279Y75295D01*
X942666Y75373D01*
X942840Y75392D01*
X942976D01*
X943092Y75411D01*
X943267D01*
X943577Y75392D01*
D02*
G37*
G36*
X926561D02*
X926852Y75373D01*
X927375Y75256D01*
X927821Y75121D01*
X928015Y75024D01*
X928189Y74946D01*
X928344Y74849D01*
X928480Y74772D01*
X928596Y74675D01*
X928693Y74617D01*
X928771Y74559D01*
X928829Y74500D01*
X928848Y74481D01*
X928867Y74462D01*
X929022Y74268D01*
X929177Y74074D01*
X929410Y73648D01*
X929565Y73202D01*
X929681Y72756D01*
X929740Y72369D01*
X929778Y72194D01*
Y72059D01*
X929798Y71942D01*
Y71845D01*
Y71787D01*
Y71768D01*
Y71051D01*
X927259D01*
Y71632D01*
X927239Y71942D01*
X927220Y72214D01*
X927181Y72427D01*
X927142Y72621D01*
X927104Y72756D01*
X927084Y72873D01*
X927046Y72931D01*
Y72950D01*
X926949Y73105D01*
X926833Y73202D01*
X926697Y73280D01*
X926561Y73338D01*
X926445Y73376D01*
X926348Y73396D01*
X926251D01*
X926038Y73376D01*
X925863Y73338D01*
X925728Y73260D01*
X925611Y73202D01*
X925515Y73124D01*
X925456Y73047D01*
X925437Y73008D01*
X925418Y72989D01*
X925340Y72814D01*
X925263Y72621D01*
X925204Y72214D01*
X925185Y72020D01*
X925166Y71865D01*
Y71768D01*
Y71748D01*
Y71729D01*
X925185Y71361D01*
X925224Y71051D01*
X925263Y70799D01*
X925321Y70586D01*
X925398Y70411D01*
X925437Y70314D01*
X925476Y70237D01*
X925495Y70217D01*
X925631Y70062D01*
X925825Y69946D01*
X926019Y69868D01*
X926212Y69810D01*
X926387Y69772D01*
X926542Y69752D01*
X927084D01*
Y67911D01*
X926697D01*
X926639Y67892D01*
X926619D01*
X926329Y67872D01*
X926096Y67795D01*
X925883Y67717D01*
X925728Y67620D01*
X925611Y67523D01*
X925534Y67427D01*
X925495Y67368D01*
X925476Y67349D01*
X925379Y67136D01*
X925301Y66884D01*
X925243Y66632D01*
X925204Y66380D01*
X925185Y66147D01*
X925166Y65954D01*
Y65876D01*
Y65818D01*
Y65799D01*
Y65779D01*
Y65430D01*
X925204Y65120D01*
X925224Y64868D01*
X925263Y64655D01*
X925301Y64500D01*
X925340Y64384D01*
X925360Y64326D01*
X925379Y64306D01*
X925476Y64151D01*
X925592Y64054D01*
X925728Y63977D01*
X925863Y63919D01*
X925980Y63880D01*
X926096Y63861D01*
X926193D01*
X926406Y63880D01*
X926581Y63919D01*
X926716Y63996D01*
X926833Y64074D01*
X926929Y64151D01*
X926988Y64229D01*
X927007Y64268D01*
X927026Y64287D01*
X927104Y64481D01*
X927162Y64713D01*
X927201Y64946D01*
X927220Y65198D01*
X927239Y65411D01*
X927259Y65585D01*
Y65721D01*
Y65741D01*
Y65760D01*
Y66206D01*
X929798D01*
Y65741D01*
X929778Y65392D01*
X929759Y65062D01*
X929720Y64752D01*
X929662Y64461D01*
X929604Y64209D01*
X929526Y63958D01*
X929449Y63744D01*
X929371Y63531D01*
X929294Y63357D01*
X929236Y63202D01*
X929158Y63085D01*
X929100Y62969D01*
X929042Y62892D01*
X929003Y62833D01*
X928964Y62795D01*
Y62775D01*
X928790Y62601D01*
X928596Y62446D01*
X928402Y62291D01*
X928170Y62175D01*
X927724Y62000D01*
X927259Y61884D01*
X926852Y61806D01*
X926677Y61787D01*
X926522Y61768D01*
X926387Y61748D01*
X926212D01*
X925883Y61768D01*
X925573Y61787D01*
X925282Y61845D01*
X925011Y61923D01*
X924778Y62000D01*
X924546Y62078D01*
X924352Y62175D01*
X924177Y62291D01*
X924022Y62388D01*
X923887Y62485D01*
X923770Y62562D01*
X923673Y62640D01*
X923615Y62717D01*
X923557Y62775D01*
X923518Y62795D01*
Y62814D01*
X923363Y63027D01*
X923228Y63260D01*
X923034Y63744D01*
X922879Y64248D01*
X922763Y64733D01*
X922743Y64946D01*
X922704Y65159D01*
X922685Y65334D01*
Y65508D01*
X922666Y65644D01*
Y65741D01*
Y65799D01*
Y65818D01*
X922685Y66264D01*
X922743Y66671D01*
X922821Y67039D01*
X922937Y67368D01*
X923053Y67659D01*
X923189Y67911D01*
X923344Y68144D01*
X923499Y68337D01*
X923673Y68492D01*
X923809Y68628D01*
X923964Y68745D01*
X924081Y68822D01*
X924197Y68880D01*
X924274Y68919D01*
X924332Y68958D01*
X924352D01*
X924081Y69055D01*
X923848Y69190D01*
X923654Y69345D01*
X923480Y69520D01*
X923344Y69675D01*
X923228Y69810D01*
X923170Y69888D01*
X923150Y69927D01*
X922995Y70237D01*
X922879Y70547D01*
X922782Y70876D01*
X922724Y71186D01*
X922685Y71438D01*
X922666Y71652D01*
Y71729D01*
Y71787D01*
Y71826D01*
Y71845D01*
X922685Y72155D01*
X922704Y72446D01*
X922743Y72737D01*
X922801Y72989D01*
X922879Y73221D01*
X922956Y73435D01*
X923034Y73628D01*
X923131Y73803D01*
X923208Y73958D01*
X923305Y74093D01*
X923383Y74210D01*
X923441Y74307D01*
X923518Y74384D01*
X923557Y74442D01*
X923577Y74462D01*
X923596Y74481D01*
X923770Y74636D01*
X923984Y74791D01*
X924410Y75024D01*
X924836Y75179D01*
X925263Y75295D01*
X925650Y75373D01*
X925825Y75392D01*
X925960D01*
X926077Y75411D01*
X926251D01*
X926561Y75392D01*
D02*
G37*
G36*
X936232Y61961D02*
X933441D01*
X930902Y75237D01*
X933364D01*
X934837Y66051D01*
X936406Y75237D01*
X938751D01*
X936232Y61961D01*
D02*
G37*
G36*
X933548Y214342D02*
X931241D01*
Y221687D01*
X928276Y214342D01*
X926454D01*
Y227617D01*
X928703D01*
Y220718D01*
X931668Y227617D01*
X933548D01*
Y214342D01*
D02*
G37*
G36*
X943025D02*
X940486D01*
X939962Y217249D01*
X937869D01*
X937385Y214342D01*
X934885D01*
X937443Y227617D01*
X940447D01*
X943025Y214342D01*
D02*
G37*
G36*
X1098261Y145254D02*
X1100897Y138142D01*
X1098610D01*
X1097079Y142328D01*
X1095354Y138142D01*
X1092816D01*
X1095471Y144615D01*
X1093048Y151417D01*
X1095354D01*
X1096653Y147580D01*
X1098242Y151417D01*
X1100800D01*
X1098261Y145254D01*
D02*
G37*
G36*
X1109579Y138142D02*
X1106886D01*
Y144150D01*
X1105897D01*
X1104405Y138142D01*
X1101634D01*
X1103455Y144615D01*
X1103145Y144789D01*
X1102874Y144983D01*
X1102661Y145177D01*
X1102486Y145371D01*
X1102351Y145545D01*
X1102273Y145681D01*
X1102215Y145778D01*
X1102196Y145816D01*
X1102079Y146127D01*
X1101982Y146475D01*
X1101924Y146824D01*
X1101866Y147154D01*
X1101847Y147464D01*
Y147580D01*
X1101827Y147696D01*
Y147793D01*
Y147851D01*
Y147890D01*
Y147910D01*
X1101847Y148258D01*
X1101866Y148588D01*
X1101924Y148879D01*
X1102002Y149150D01*
X1102079Y149402D01*
X1102176Y149615D01*
X1102273Y149828D01*
X1102370Y150003D01*
X1102467Y150138D01*
X1102564Y150274D01*
X1102661Y150390D01*
X1102738Y150468D01*
X1102816Y150545D01*
X1102874Y150584D01*
X1102893Y150623D01*
X1102913D01*
X1103126Y150758D01*
X1103358Y150894D01*
X1103862Y151088D01*
X1104405Y151224D01*
X1104928Y151320D01*
X1105161Y151359D01*
X1105393Y151379D01*
X1105607Y151398D01*
X1105781D01*
X1105917Y151417D01*
X1109579D01*
Y138142D01*
D02*
G37*
G36*
X1108950Y67785D02*
X1106779D01*
X1106721Y67998D01*
X1106663Y68173D01*
X1106585Y68328D01*
X1106488Y68463D01*
X1106411Y68580D01*
X1106314Y68677D01*
X1106120Y68812D01*
X1105926Y68909D01*
X1105771Y68948D01*
X1105674Y68967D01*
X1105636D01*
X1105403Y68948D01*
X1105209Y68870D01*
X1105054Y68773D01*
X1104938Y68677D01*
X1104841Y68560D01*
X1104783Y68463D01*
X1104763Y68386D01*
X1104744Y68366D01*
X1104667Y68115D01*
X1104609Y67843D01*
X1104570Y67533D01*
X1104531Y67242D01*
Y66990D01*
X1104512Y66758D01*
Y66680D01*
Y66622D01*
Y66583D01*
Y66564D01*
Y66196D01*
Y65866D01*
X1104531Y65576D01*
Y65343D01*
X1104550Y65169D01*
Y65033D01*
X1104570Y64956D01*
Y64936D01*
X1104589Y64742D01*
X1104647Y64568D01*
X1104686Y64413D01*
X1104744Y64277D01*
X1104783Y64180D01*
X1104822Y64103D01*
X1104841Y64064D01*
X1104860Y64045D01*
X1104957Y63928D01*
X1105074Y63851D01*
X1105190Y63793D01*
X1105306Y63754D01*
X1105403Y63735D01*
X1105500Y63715D01*
X1105577D01*
X1105791Y63735D01*
X1105965Y63793D01*
X1106120Y63870D01*
X1106217Y63967D01*
X1106314Y64064D01*
X1106372Y64142D01*
X1106391Y64200D01*
X1106411Y64219D01*
X1106488Y64432D01*
X1106527Y64704D01*
X1106566Y64975D01*
X1106605Y65246D01*
Y65498D01*
X1106624Y65692D01*
Y65770D01*
Y65828D01*
Y65866D01*
Y65886D01*
X1109085D01*
X1109066Y65421D01*
X1109046Y64994D01*
X1109008Y64607D01*
X1108950Y64297D01*
X1108892Y64025D01*
X1108853Y63832D01*
X1108833Y63773D01*
Y63715D01*
X1108814Y63696D01*
Y63677D01*
X1108678Y63366D01*
X1108523Y63095D01*
X1108368Y62843D01*
X1108194Y62649D01*
X1108039Y62494D01*
X1107903Y62397D01*
X1107826Y62320D01*
X1107787Y62301D01*
X1107477Y62145D01*
X1107128Y62029D01*
X1106779Y61952D01*
X1106450Y61894D01*
X1106140Y61855D01*
X1106004D01*
X1105907Y61835D01*
X1105674D01*
X1105171Y61855D01*
X1104725Y61932D01*
X1104337Y62029D01*
X1104027Y62126D01*
X1103794Y62242D01*
X1103601Y62320D01*
X1103504Y62397D01*
X1103465Y62417D01*
X1103194Y62669D01*
X1102961Y62921D01*
X1102787Y63211D01*
X1102632Y63463D01*
X1102535Y63696D01*
X1102457Y63890D01*
X1102438Y63967D01*
X1102419Y64025D01*
X1102399Y64045D01*
Y64064D01*
X1102302Y64471D01*
X1102244Y64917D01*
X1102186Y65343D01*
X1102167Y65770D01*
X1102147Y66138D01*
X1102128Y66293D01*
Y66428D01*
Y66525D01*
Y66603D01*
Y66661D01*
Y66680D01*
Y67049D01*
X1102167Y67378D01*
X1102186Y67708D01*
X1102244Y67998D01*
X1102283Y68270D01*
X1102341Y68521D01*
X1102419Y68754D01*
X1102477Y68967D01*
X1102535Y69142D01*
X1102612Y69316D01*
X1102670Y69452D01*
X1102709Y69568D01*
X1102767Y69646D01*
X1102787Y69704D01*
X1102825Y69742D01*
Y69762D01*
X1102961Y69956D01*
X1103116Y70130D01*
X1103271Y70266D01*
X1103426Y70401D01*
X1103601Y70518D01*
X1103775Y70595D01*
X1104105Y70731D01*
X1104395Y70808D01*
X1104531Y70828D01*
X1104628Y70847D01*
X1104725Y70866D01*
X1104860D01*
X1105325Y70828D01*
X1105519Y70808D01*
X1105694Y70770D01*
X1105849Y70731D01*
X1105965Y70711D01*
X1106043Y70673D01*
X1106062D01*
X1106256Y70595D01*
X1106411Y70518D01*
X1106546Y70440D01*
X1106643Y70363D01*
X1106740Y70304D01*
X1106798Y70246D01*
X1106818Y70227D01*
X1106837Y70208D01*
X1106702Y73134D01*
X1102651D01*
Y75324D01*
X1108775D01*
X1108950Y67785D01*
D02*
G37*
G36*
X1098601Y62049D02*
X1095810D01*
X1093271Y75324D01*
X1095732D01*
X1097205Y66138D01*
X1098775Y75324D01*
X1101120D01*
X1098601Y62049D01*
D02*
G37*
%LPC*%
G36*
X936261Y124128D02*
X935447D01*
X935234Y124089D01*
X935059Y124070D01*
X934904Y124031D01*
X934788Y123992D01*
X934710Y123973D01*
X934672Y123934D01*
X934652D01*
X934536Y123857D01*
X934439Y123760D01*
X934323Y123566D01*
X934265Y123488D01*
X934245Y123411D01*
X934226Y123372D01*
Y123353D01*
X934187Y123198D01*
X934148Y123004D01*
X934129Y122636D01*
X934110Y122461D01*
Y122325D01*
Y122248D01*
Y122209D01*
Y116725D01*
Y116453D01*
X934129Y116201D01*
X934148Y115988D01*
Y115814D01*
X934168Y115678D01*
X934187Y115581D01*
X934207Y115523D01*
Y115504D01*
X934245Y115349D01*
X934323Y115213D01*
X934381Y115116D01*
X934458Y115019D01*
X934517Y114942D01*
X934575Y114883D01*
X934614Y114864D01*
X934633Y114845D01*
X934769Y114767D01*
X934943Y114728D01*
X935273Y114651D01*
X935427D01*
X935563Y114632D01*
X936261D01*
Y124128D01*
D02*
G37*
G36*
X925951Y124244D02*
X925834D01*
X925602Y124225D01*
X925389Y124167D01*
X925234Y124108D01*
X925098Y124031D01*
X925020Y123934D01*
X924943Y123876D01*
X924923Y123818D01*
X924904Y123798D01*
X924827Y123624D01*
X924768Y123411D01*
X924730Y123198D01*
X924691Y123004D01*
Y122829D01*
X924671Y122674D01*
Y122577D01*
Y122539D01*
Y116259D01*
Y115969D01*
X924710Y115697D01*
X924749Y115484D01*
X924788Y115290D01*
X924827Y115155D01*
X924865Y115039D01*
X924885Y114980D01*
X924904Y114961D01*
X925001Y114806D01*
X925156Y114690D01*
X925292Y114612D01*
X925447Y114554D01*
X925602Y114515D01*
X925718Y114496D01*
X925834D01*
X926067Y114515D01*
X926280Y114573D01*
X926435Y114632D01*
X926551Y114728D01*
X926648Y114806D01*
X926726Y114864D01*
X926745Y114922D01*
X926765Y114942D01*
X926842Y115135D01*
X926900Y115349D01*
X926939Y115562D01*
X926958Y115775D01*
X926978Y115969D01*
X926997Y116124D01*
Y116221D01*
Y116259D01*
Y122539D01*
X926978Y122829D01*
X926958Y123081D01*
X926920Y123294D01*
X926881Y123469D01*
X926842Y123624D01*
X926803Y123721D01*
X926765Y123779D01*
Y123798D01*
X926648Y123954D01*
X926513Y124050D01*
X926358Y124128D01*
X926203Y124186D01*
X926067Y124225D01*
X925951Y124244D01*
D02*
G37*
G36*
X926503Y47938D02*
X925689D01*
X925476Y47899D01*
X925301Y47880D01*
X925146Y47841D01*
X925030Y47802D01*
X924953Y47783D01*
X924914Y47744D01*
X924894D01*
X924778Y47666D01*
X924681Y47569D01*
X924565Y47376D01*
X924507Y47298D01*
X924488Y47221D01*
X924468Y47182D01*
Y47162D01*
X924429Y47007D01*
X924391Y46814D01*
X924371Y46445D01*
X924352Y46271D01*
Y46135D01*
Y46058D01*
Y46019D01*
Y40534D01*
Y40263D01*
X924371Y40011D01*
X924391Y39798D01*
Y39623D01*
X924410Y39488D01*
X924429Y39391D01*
X924449Y39333D01*
Y39313D01*
X924488Y39158D01*
X924565Y39023D01*
X924623Y38926D01*
X924701Y38829D01*
X924759Y38751D01*
X924817Y38693D01*
X924856Y38674D01*
X924875Y38654D01*
X925011Y38577D01*
X925185Y38538D01*
X925515Y38461D01*
X925670D01*
X925805Y38441D01*
X926503D01*
Y47938D01*
D02*
G37*
G36*
X943974Y200405D02*
X943044D01*
X942734Y200386D01*
X942463Y200328D01*
X942249Y200250D01*
X942075Y200173D01*
X941959Y200095D01*
X941862Y200018D01*
X941823Y199960D01*
X941804Y199940D01*
X941687Y199746D01*
X941610Y199514D01*
X941532Y199281D01*
X941494Y199049D01*
X941474Y198836D01*
X941455Y198661D01*
Y198545D01*
Y198526D01*
Y198506D01*
X941474Y198157D01*
X941513Y197847D01*
X941571Y197595D01*
X941649Y197402D01*
X941726Y197227D01*
X941784Y197130D01*
X941823Y197053D01*
X941842Y197033D01*
X942017Y196878D01*
X942211Y196762D01*
X942443Y196684D01*
X942656Y196626D01*
X942850Y196588D01*
X943025Y196568D01*
X943974D01*
Y200405D01*
D02*
G37*
G36*
X1113514Y225718D02*
X1112331D01*
X1112138Y225679D01*
X1111983Y225660D01*
X1111847Y225621D01*
X1111750Y225583D01*
X1111673Y225544D01*
X1111634Y225524D01*
X1111614Y225505D01*
X1111498Y225427D01*
X1111401Y225331D01*
X1111285Y225117D01*
X1111227Y225040D01*
X1111207Y224962D01*
X1111188Y224923D01*
Y224904D01*
X1111149Y224749D01*
X1111130Y224575D01*
X1111111Y224226D01*
X1111091Y224071D01*
Y223955D01*
Y223877D01*
Y223838D01*
X1111111Y223489D01*
X1111130Y223179D01*
X1111188Y222927D01*
X1111227Y222734D01*
X1111285Y222579D01*
X1111343Y222482D01*
X1111362Y222423D01*
X1111382Y222404D01*
X1111517Y222268D01*
X1111692Y222171D01*
X1111886Y222094D01*
X1112079Y222055D01*
X1112254Y222017D01*
X1112409Y221997D01*
X1113514D01*
Y225718D01*
D02*
G37*
G36*
X1102641Y98728D02*
X1101827D01*
X1101614Y98689D01*
X1101440Y98670D01*
X1101285Y98631D01*
X1101169Y98592D01*
X1101091Y98573D01*
X1101052Y98534D01*
X1101033D01*
X1100917Y98456D01*
X1100820Y98360D01*
X1100703Y98166D01*
X1100645Y98088D01*
X1100626Y98011D01*
X1100606Y97972D01*
Y97953D01*
X1100568Y97797D01*
X1100529Y97604D01*
X1100509Y97235D01*
X1100490Y97061D01*
Y96925D01*
Y96848D01*
Y96809D01*
Y91325D01*
Y91053D01*
X1100509Y90801D01*
X1100529Y90588D01*
Y90414D01*
X1100548Y90278D01*
X1100568Y90181D01*
X1100587Y90123D01*
Y90104D01*
X1100626Y89949D01*
X1100703Y89813D01*
X1100761Y89716D01*
X1100839Y89619D01*
X1100897Y89542D01*
X1100955Y89483D01*
X1100994Y89464D01*
X1101013Y89445D01*
X1101149Y89367D01*
X1101323Y89328D01*
X1101653Y89251D01*
X1101808D01*
X1101944Y89232D01*
X1102641D01*
Y98728D01*
D02*
G37*
G36*
X1092505Y97274D02*
X1091711Y91925D01*
X1093300D01*
X1092505Y97274D01*
D02*
G37*
G36*
X1092961Y47937D02*
X1092147D01*
X1091934Y47899D01*
X1091759Y47879D01*
X1091604Y47841D01*
X1091488Y47802D01*
X1091411Y47783D01*
X1091372Y47744D01*
X1091352D01*
X1091236Y47666D01*
X1091139Y47569D01*
X1091023Y47375D01*
X1090965Y47298D01*
X1090945Y47220D01*
X1090926Y47182D01*
Y47162D01*
X1090887Y47007D01*
X1090848Y46813D01*
X1090829Y46445D01*
X1090810Y46271D01*
Y46135D01*
Y46058D01*
Y46019D01*
Y40534D01*
Y40263D01*
X1090829Y40011D01*
X1090848Y39798D01*
Y39623D01*
X1090868Y39488D01*
X1090887Y39391D01*
X1090907Y39333D01*
Y39313D01*
X1090945Y39158D01*
X1091023Y39023D01*
X1091081Y38926D01*
X1091159Y38829D01*
X1091217Y38751D01*
X1091275Y38693D01*
X1091314Y38674D01*
X1091333Y38654D01*
X1091469Y38577D01*
X1091643Y38538D01*
X1091973Y38461D01*
X1092128D01*
X1092263Y38441D01*
X1092961D01*
Y47937D01*
D02*
G37*
G36*
X933809Y98728D02*
X932995D01*
X932782Y98689D01*
X932608Y98670D01*
X932453Y98631D01*
X932336Y98592D01*
X932259Y98573D01*
X932220Y98534D01*
X932201D01*
X932085Y98457D01*
X931988Y98360D01*
X931871Y98166D01*
X931813Y98088D01*
X931794Y98011D01*
X931774Y97972D01*
Y97953D01*
X931736Y97798D01*
X931697Y97604D01*
X931677Y97236D01*
X931658Y97061D01*
Y96925D01*
Y96848D01*
Y96809D01*
Y91325D01*
Y91053D01*
X931677Y90801D01*
X931697Y90588D01*
Y90414D01*
X931716Y90278D01*
X931736Y90181D01*
X931755Y90123D01*
Y90104D01*
X931794Y89949D01*
X931871Y89813D01*
X931929Y89716D01*
X932007Y89619D01*
X932065Y89542D01*
X932123Y89483D01*
X932162Y89464D01*
X932181Y89445D01*
X932317Y89367D01*
X932492Y89328D01*
X932821Y89251D01*
X932976D01*
X933112Y89232D01*
X933809D01*
Y98728D01*
D02*
G37*
G36*
X938935Y224265D02*
X938141Y218916D01*
X939730D01*
X938935Y224265D01*
D02*
G37*
G36*
X1106886Y149596D02*
X1105955D01*
X1105645Y149576D01*
X1105374Y149518D01*
X1105161Y149441D01*
X1104986Y149363D01*
X1104870Y149286D01*
X1104773Y149208D01*
X1104734Y149150D01*
X1104715Y149130D01*
X1104599Y148937D01*
X1104521Y148704D01*
X1104444Y148472D01*
X1104405Y148239D01*
X1104386Y148026D01*
X1104366Y147851D01*
Y147735D01*
Y147716D01*
Y147696D01*
X1104386Y147347D01*
X1104424Y147037D01*
X1104482Y146785D01*
X1104560Y146592D01*
X1104638Y146417D01*
X1104696Y146320D01*
X1104734Y146243D01*
X1104754Y146223D01*
X1104928Y146068D01*
X1105122Y145952D01*
X1105355Y145875D01*
X1105568Y145816D01*
X1105762Y145778D01*
X1105936Y145758D01*
X1106886D01*
Y149596D01*
D02*
G37*
%LPD*%
D10*
X444400Y133858D02*
G03*
X444400Y133858I-1250J0D01*
G01*
D11*
X316330Y38657D02*
G03*
X365023Y107214I-61430J95201D01*
G01*
X144777D02*
G03*
X193470Y38657I110123J26644D01*
G01*
X365050Y160508D02*
G03*
X316302Y229110I-110150J-26650D01*
G01*
X193498D02*
G03*
X144750Y160508I61402J-95252D01*
G01*
X193470Y38657D02*
X316330D01*
X193498Y229110D02*
X316303D01*
X365050Y107208D02*
X402150D01*
X365050Y160508D02*
X402150D01*
Y107208D02*
Y160508D01*
X131250Y107208D02*
X144750D01*
X131250Y160508D02*
X144750D01*
X131250Y107208D02*
Y160508D01*
D12*
X1165352Y797800D02*
Y789336D01*
X1163659Y787643D01*
X1160274D01*
X1158581Y789336D01*
Y797800D01*
X1155195Y787643D02*
X1151810D01*
X1153503D01*
Y797800D01*
X1155195D01*
X1145039Y796107D02*
Y794414D01*
X1146731D01*
X1143346D01*
X1145039D01*
Y789336D01*
X1143346Y787643D01*
X1138267D02*
X1134882D01*
X1136575D01*
Y794414D01*
X1138267D01*
X1129803Y787643D02*
Y794414D01*
X1128111D01*
X1126418Y792721D01*
Y787643D01*
Y792721D01*
X1124725Y794414D01*
X1123032Y792721D01*
Y787643D01*
X1117954Y794414D02*
X1114568D01*
X1112876Y792721D01*
Y787643D01*
X1117954D01*
X1119647Y789336D01*
X1117954Y791028D01*
X1112876D01*
X1107797Y796107D02*
Y794414D01*
X1109490D01*
X1106104D01*
X1107797D01*
Y789336D01*
X1106104Y787643D01*
X1095948D02*
X1099333D01*
X1101026Y789336D01*
Y792721D01*
X1099333Y794414D01*
X1095948D01*
X1094255Y792721D01*
Y791028D01*
X1101026D01*
X1080713Y797800D02*
X1073941D01*
X1077327D01*
Y787643D01*
X1070556Y794414D02*
Y787643D01*
Y791028D01*
X1068863Y792721D01*
X1067170Y794414D01*
X1065478D01*
X1060399D02*
Y789336D01*
X1058706Y787643D01*
X1053628D01*
Y794414D01*
X1043471D02*
X1048550D01*
X1050242Y792721D01*
Y789336D01*
X1048550Y787643D01*
X1043471D01*
X1040086D02*
Y797800D01*
Y791028D02*
X1035007Y794414D01*
X1040086Y791028D02*
X1035007Y787643D01*
X1019772Y797800D02*
Y787643D01*
Y792721D01*
X1013001D01*
Y797800D01*
Y787643D01*
X1007923Y794414D02*
X1004537D01*
X1002844Y792721D01*
Y787643D01*
X1007923D01*
X1009616Y789336D01*
X1007923Y791028D01*
X1002844D01*
X992688Y794414D02*
X997766D01*
X999459Y792721D01*
Y789336D01*
X997766Y787643D01*
X992688D01*
X989302D02*
Y797800D01*
Y791028D02*
X984224Y794414D01*
X989302Y791028D02*
X984224Y787643D01*
X979145D02*
X975760D01*
X977453D01*
Y794414D01*
X979145D01*
X970681Y787643D02*
Y794414D01*
X965603D01*
X963910Y792721D01*
Y787643D01*
X957139Y784257D02*
X955446D01*
X953754Y785950D01*
Y794414D01*
X958832D01*
X960525Y792721D01*
Y789336D01*
X958832Y787643D01*
X953754D01*
X940211D02*
Y797800D01*
X935133D01*
X933440Y796107D01*
Y792721D01*
X935133Y791028D01*
X940211D01*
X930055Y787643D02*
X926669D01*
X928362D01*
Y797800D01*
X930055D01*
X919898Y794414D02*
X916512D01*
X914819Y792721D01*
Y787643D01*
X919898D01*
X921591Y789336D01*
X919898Y791028D01*
X914819D01*
X909741Y796107D02*
Y794414D01*
X911434D01*
X908048D01*
X909741D01*
Y789336D01*
X908048Y787643D01*
X901277D02*
Y796107D01*
Y792721D01*
X902970D01*
X899584D01*
X901277D01*
Y796107D01*
X899584Y797800D01*
X892813Y787643D02*
X889428D01*
X887735Y789336D01*
Y792721D01*
X889428Y794414D01*
X892813D01*
X894506Y792721D01*
Y789336D01*
X892813Y787643D01*
X884349Y794414D02*
Y787643D01*
Y791028D01*
X882656Y792721D01*
X880964Y794414D01*
X879271D01*
X874193Y787643D02*
Y794414D01*
X872500D01*
X870807Y792721D01*
Y787643D01*
Y792721D01*
X869114Y794414D01*
X867421Y792721D01*
Y787643D01*
X862343Y785950D02*
X860650Y787643D01*
Y789336D01*
X862343D01*
Y787643D01*
X860650D01*
X862343Y785950D01*
X864036Y784257D01*
X843722Y797800D02*
Y791028D01*
X840337Y787643D01*
X836951Y791028D01*
Y797800D01*
X833566Y787643D02*
X830180D01*
X831873D01*
Y797800D01*
X833566Y796107D01*
X1158581Y774437D02*
X1160274Y776130D01*
X1163659D01*
X1165352Y774437D01*
Y767666D01*
X1163659Y765973D01*
X1160274D01*
X1158581Y767666D01*
X1138267Y774437D02*
X1139960Y776130D01*
X1143346D01*
X1145039Y774437D01*
Y767666D01*
X1143346Y765973D01*
X1139960D01*
X1138267Y767666D01*
Y771051D01*
X1141653D01*
X1134882Y772744D02*
Y765973D01*
Y769359D01*
X1133189Y771051D01*
X1131496Y772744D01*
X1129803D01*
X1119647Y765973D02*
X1123032D01*
X1124725Y767666D01*
Y771051D01*
X1123032Y772744D01*
X1119647D01*
X1117954Y771051D01*
Y769359D01*
X1124725D01*
X1109490Y765973D02*
X1112876D01*
X1114568Y767666D01*
Y771051D01*
X1112876Y772744D01*
X1109490D01*
X1107797Y771051D01*
Y769359D01*
X1114568D01*
X1104412Y765973D02*
Y772744D01*
X1099333D01*
X1097641Y771051D01*
Y765973D01*
X1092562Y764280D02*
X1090869Y765973D01*
Y767666D01*
X1092562D01*
Y765973D01*
X1090869D01*
X1092562Y764280D01*
X1094255Y762588D01*
X1067170Y776130D02*
X1070556D01*
X1068863D01*
Y767666D01*
X1070556Y765973D01*
X1072249D01*
X1073941Y767666D01*
X1063785Y765973D02*
Y767666D01*
X1062092D01*
Y765973D01*
X1063785D01*
X1045164Y776130D02*
Y765973D01*
X1040086D01*
X1038393Y767666D01*
Y774437D01*
X1040086Y776130D01*
X1045164D01*
X1033315Y772744D02*
X1029929D01*
X1028236Y771051D01*
Y765973D01*
X1033315D01*
X1035007Y767666D01*
X1033315Y769359D01*
X1028236D01*
X1024851Y765973D02*
X1021465D01*
X1023158D01*
Y772744D01*
X1024851D01*
X1016387Y765973D02*
X1013001D01*
X1014694D01*
Y776130D01*
X1016387D01*
X1007923Y772744D02*
Y767666D01*
X1006230Y765973D01*
X1001152D01*
Y764280D01*
X1002844Y762588D01*
X1004537D01*
X1001152Y765973D02*
Y772744D01*
X1158581Y752767D02*
X1160274Y754460D01*
X1163659D01*
X1165352Y752767D01*
Y745996D01*
X1163659Y744304D01*
X1160274D01*
X1158581Y745996D01*
X1153503Y744304D02*
X1150117D01*
X1148424Y745996D01*
Y749382D01*
X1150117Y751075D01*
X1153503D01*
X1155195Y749382D01*
Y745996D01*
X1153503Y744304D01*
X1145039D02*
X1141653D01*
X1143346D01*
Y754460D01*
X1145039D01*
X1134882Y744304D02*
X1131496D01*
X1129803Y745996D01*
Y749382D01*
X1131496Y751075D01*
X1134882D01*
X1136575Y749382D01*
Y745996D01*
X1134882Y744304D01*
X1126418Y751075D02*
Y744304D01*
Y747689D01*
X1124725Y749382D01*
X1123032Y751075D01*
X1121339D01*
X1114568D02*
X1111183D01*
X1109490Y749382D01*
Y744304D01*
X1114568D01*
X1116261Y745996D01*
X1114568Y747689D01*
X1109490D01*
X1099333Y754460D02*
Y744304D01*
X1104412D01*
X1106104Y745996D01*
Y749382D01*
X1104412Y751075D01*
X1099333D01*
X1094255Y744304D02*
X1090869D01*
X1089177Y745996D01*
Y749382D01*
X1090869Y751075D01*
X1094255D01*
X1095948Y749382D01*
Y745996D01*
X1094255Y744304D01*
X1068863Y752767D02*
X1070556Y754460D01*
X1073941D01*
X1075634Y752767D01*
Y751075D01*
X1073941Y749382D01*
X1070556D01*
X1068863Y747689D01*
Y745996D01*
X1070556Y744304D01*
X1073941D01*
X1075634Y745996D01*
X1063785Y752767D02*
Y751075D01*
X1065478D01*
X1062092D01*
X1063785D01*
Y745996D01*
X1062092Y744304D01*
X1055321Y751075D02*
X1051935D01*
X1050242Y749382D01*
Y744304D01*
X1055321D01*
X1057014Y745996D01*
X1055321Y747689D01*
X1050242D01*
X1045164Y752767D02*
Y751075D01*
X1046857D01*
X1043471D01*
X1045164D01*
Y745996D01*
X1043471Y744304D01*
X1033315D02*
X1036700D01*
X1038393Y745996D01*
Y749382D01*
X1036700Y751075D01*
X1033315D01*
X1031622Y749382D01*
Y747689D01*
X1038393D01*
X1018080Y754460D02*
Y745996D01*
X1016387Y744304D01*
X1013001D01*
X1011308Y745996D01*
Y754460D01*
X1007923Y744304D02*
Y751075D01*
X1002844D01*
X1001152Y749382D01*
Y744304D01*
X997766D02*
X994380D01*
X996073D01*
Y751075D01*
X997766D01*
X989302D02*
X985917Y744304D01*
X982531Y751075D01*
X974067Y744304D02*
X977453D01*
X979145Y745996D01*
Y749382D01*
X977453Y751075D01*
X974067D01*
X972374Y749382D01*
Y747689D01*
X979145D01*
X968989Y751075D02*
Y744304D01*
Y747689D01*
X967296Y749382D01*
X965603Y751075D01*
X963910D01*
X958832Y744304D02*
X953754D01*
X952061Y745996D01*
X953754Y747689D01*
X957139D01*
X958832Y749382D01*
X957139Y751075D01*
X952061D01*
X948675Y744304D02*
X945290D01*
X946982D01*
Y751075D01*
X948675D01*
X938519Y752767D02*
Y751075D01*
X940211D01*
X936826D01*
X938519D01*
Y745996D01*
X936826Y744304D01*
X931747Y751075D02*
Y745996D01*
X930055Y744304D01*
X924976D01*
Y742611D01*
X926669Y740918D01*
X928362D01*
X924976Y744304D02*
Y751075D01*
X460750Y99317D02*
X470907D01*
X460750Y109473D01*
Y112012D01*
X463289Y114551D01*
X468368D01*
X470907Y112012D01*
X455672D02*
X453133Y114551D01*
X448054D01*
X445515Y112012D01*
Y101856D01*
X448054Y99317D01*
X453133D01*
X455672Y101856D01*
Y112012D01*
X440437D02*
X437898Y114551D01*
X432819D01*
X430280Y112012D01*
Y109473D01*
X432819Y106934D01*
X435359D01*
X432819D01*
X430280Y104395D01*
Y101856D01*
X432819Y99317D01*
X437898D01*
X440437Y101856D01*
X415045Y99317D02*
X425202D01*
X415045Y109473D01*
Y112012D01*
X417584Y114551D01*
X422663D01*
X425202Y112012D01*
D14*
X1088136Y233680D02*
G03*
X1081036Y226579I0J-7100D01*
G01*
X1081024Y37592D02*
G03*
X1088124Y30491I7100J0D01*
G01*
X1082294Y55880D02*
G03*
X1081024Y54610I0J-1270D01*
G01*
Y57150D02*
G03*
X1082294Y55880I1270J0D01*
G01*
Y81280D02*
G03*
X1081024Y80010I0J-1270D01*
G01*
Y82550D02*
G03*
X1082294Y81280I1270J0D01*
G01*
Y106680D02*
G03*
X1081024Y105410I0J-1270D01*
G01*
Y107950D02*
G03*
X1082294Y106680I1270J0D01*
G01*
Y132080D02*
G03*
X1081024Y130810I0J-1270D01*
G01*
Y133350D02*
G03*
X1082294Y132080I1270J0D01*
G01*
Y157480D02*
G03*
X1081024Y156210I0J-1270D01*
G01*
Y158750D02*
G03*
X1082294Y157480I1270J0D01*
G01*
Y182880D02*
G03*
X1081024Y181610I0J-1270D01*
G01*
Y184150D02*
G03*
X1082294Y182880I1270J0D01*
G01*
Y208280D02*
G03*
X1081024Y207010I0J-1270D01*
G01*
Y209550D02*
G03*
X1082294Y208280I1270J0D01*
G01*
X953504Y226579D02*
G03*
X946404Y233680I-7100J0D01*
G01*
X946416Y30491D02*
G03*
X953516Y37592I0J7100D01*
G01*
Y54610D02*
G03*
X952246Y55880I-1270J0D01*
G01*
D02*
G03*
X953516Y57150I0J1270D01*
G01*
Y80010D02*
G03*
X952246Y81280I-1270J0D01*
G01*
D02*
G03*
X953516Y82550I0J1270D01*
G01*
Y105410D02*
G03*
X952246Y106680I-1270J0D01*
G01*
D02*
G03*
X953516Y107950I0J1270D01*
G01*
Y130810D02*
G03*
X952246Y132080I-1270J0D01*
G01*
D02*
G03*
X953516Y133350I0J1270D01*
G01*
Y156210D02*
G03*
X952246Y157480I-1270J0D01*
G01*
D02*
G03*
X953516Y158750I0J1270D01*
G01*
Y181610D02*
G03*
X952246Y182880I-1270J0D01*
G01*
D02*
G03*
X953516Y184150I0J1270D01*
G01*
Y207010D02*
G03*
X952246Y208280I-1270J0D01*
G01*
D02*
G03*
X953516Y209550I0J1270D01*
G01*
X1081036Y37603D02*
Y226579D01*
X1081024Y37603D02*
Y54610D01*
X1082294Y55880D02*
X1144270D01*
X1088124Y30480D02*
X1144270D01*
X1082294Y55880D02*
X1144270D01*
X1082294Y81280D02*
X1144270D01*
X1081024Y57150D02*
Y80010D01*
X1082294Y81280D02*
X1144270D01*
X1082294Y106680D02*
X1144270D01*
X1081024Y82550D02*
Y105410D01*
X1082294Y106680D02*
X1144270D01*
X1082294Y132080D02*
X1144270D01*
X1081024Y107950D02*
Y130810D01*
X1082294Y132080D02*
X1144270D01*
X1082294Y157480D02*
X1144270D01*
X1081024Y133350D02*
Y156210D01*
X1082294Y157480D02*
X1144270D01*
X1082294Y182880D02*
X1144270D01*
X1081024Y158750D02*
Y181610D01*
X1082294Y182880D02*
X1144270D01*
X1082294Y208280D02*
X1144270D01*
X1081024Y184150D02*
Y207010D01*
X1082294Y208280D02*
X1144270D01*
X1088136Y233680D02*
X1144270D01*
X953504Y37603D02*
Y226579D01*
X953516Y37603D02*
Y54610D01*
X890270Y55880D02*
X952246D01*
X890270Y30480D02*
X946415D01*
X890270Y55880D02*
X952246D01*
X890270Y81280D02*
X952246D01*
X953516Y57150D02*
Y80010D01*
X890270Y81280D02*
X952246D01*
X890270Y106680D02*
X952246D01*
X953516Y82550D02*
Y105410D01*
X890270Y106680D02*
X952246D01*
X890270Y132080D02*
X952246D01*
X953516Y107950D02*
Y130810D01*
X890270Y132080D02*
X952246D01*
X890270Y157480D02*
X952246D01*
X953516Y133350D02*
Y156210D01*
X890270Y157480D02*
X952246D01*
X890270Y182880D02*
X952246D01*
X953516Y158750D02*
Y181610D01*
X890270Y182880D02*
X952246D01*
X890270Y208280D02*
X952246D01*
X953516Y184150D02*
Y207010D01*
X890270Y208280D02*
X952246D01*
X890270Y233680D02*
X946404D01*
D15*
X153670Y483362D02*
G03*
X153670Y483362I-12700J0D01*
G01*
X128270D02*
G03*
X128270Y483362I-12700J0D01*
G01*
X153670Y508762D02*
G03*
X153670Y508762I-12700J0D01*
G01*
X128270D02*
G03*
X128270Y508762I-12700J0D01*
G01*
X237490Y374142D02*
G03*
X237490Y374142I-12700J0D01*
G01*
X154940Y926592D02*
G03*
X154940Y926592I-12700J0D01*
G01*
X34163Y399542D02*
G03*
X97790Y335915I63627J0D01*
G01*
X516890D02*
G03*
X580517Y399542I0J63627D01*
G01*
X161290Y1199769D02*
G03*
X34163Y1072642I0J-127127D01*
G01*
X580517D02*
G03*
X453390Y1199769I-127127J0D01*
G01*
X83820Y456692D02*
X107950D01*
X97790Y748792D02*
X123190D01*
X97790Y901192D02*
X123190D01*
X151130Y456692D02*
X175260D01*
X40640Y520192D02*
X91440D01*
X523240D02*
X574040D01*
X136931Y1059358D02*
X267944D01*
X40640Y1104392D02*
X91440D01*
X523240D02*
X574040D01*
X136931Y1199515D02*
X267944D01*
X97790Y335915D02*
X516890D01*
X161290Y1199769D02*
X453390D01*
X83820Y440182D02*
Y456692D01*
Y310642D02*
Y395732D01*
X175260Y310642D02*
Y456692D01*
X40640Y520192D02*
Y545592D01*
X91440Y520192D02*
Y545592D01*
X523240Y520192D02*
Y545592D01*
X574040Y520192D02*
Y545592D01*
X34163Y399542D02*
Y1072642D01*
X40640Y545592D02*
Y1104392D01*
X91440Y545592D02*
Y1104392D01*
X97790Y748792D02*
Y901192D01*
X123190Y748792D02*
Y901192D01*
X136931Y1059358D02*
Y1199515D01*
X267944Y1059358D02*
Y1199515D01*
X523240Y545592D02*
Y1104392D01*
X580517Y399542D02*
Y1072642D01*
X574040Y545592D02*
Y1104392D01*
X740666Y932182D02*
X739397Y933451D01*
Y935990D01*
X740666Y937260D01*
X745744D01*
X747014Y935990D01*
Y933451D01*
X745744Y932182D01*
X743205D01*
Y934721D01*
X747014Y929642D02*
X739397D01*
X747014Y924564D01*
X739397D01*
Y922025D02*
X747014D01*
Y918216D01*
X745744Y916947D01*
X740666D01*
X739397Y918216D01*
Y922025D01*
X805944Y1569972D02*
X807213Y1571241D01*
X809752D01*
X811022Y1569972D01*
Y1564894D01*
X809752Y1563624D01*
X807213D01*
X805944Y1564894D01*
Y1567433D01*
X808483D01*
X803404Y1563624D02*
Y1571241D01*
X798326Y1563624D01*
Y1571241D01*
X795787D02*
Y1563624D01*
X791978D01*
X790709Y1564894D01*
Y1569972D01*
X791978Y1571241D01*
X795787D01*
X862332Y1570226D02*
X863601Y1571496D01*
X866140D01*
X867410Y1570226D01*
Y1565148D01*
X866140Y1563878D01*
X863601D01*
X862332Y1565148D01*
Y1567687D01*
X864871D01*
X859792Y1563878D02*
Y1571496D01*
X854714Y1563878D01*
Y1571496D01*
X852175D02*
Y1563878D01*
X848366D01*
X847097Y1565148D01*
Y1570226D01*
X848366Y1571496D01*
X852175D01*
X497080Y1453898D02*
X495811Y1455167D01*
Y1457706D01*
X497080Y1458976D01*
X502158D01*
X503428Y1457706D01*
Y1455167D01*
X502158Y1453898D01*
X499619D01*
Y1456437D01*
X503428Y1451358D02*
X495811D01*
X503428Y1446280D01*
X495811D01*
Y1443741D02*
X503428D01*
Y1439932D01*
X502158Y1438663D01*
X497080D01*
X495811Y1439932D01*
Y1443741D01*
X524258Y1453898D02*
X522989Y1455167D01*
Y1457706D01*
X524258Y1458976D01*
X529336D01*
X530606Y1457706D01*
Y1455167D01*
X529336Y1453898D01*
X526797D01*
Y1456437D01*
X530606Y1451358D02*
X522989D01*
X530606Y1446280D01*
X522989D01*
Y1443741D02*
X530606D01*
Y1439932D01*
X529336Y1438663D01*
X524258D01*
X522989Y1439932D01*
Y1443741D01*
X398274Y1263394D02*
X399543Y1264663D01*
X402082D01*
X403352Y1263394D01*
Y1258316D01*
X402082Y1257046D01*
X399543D01*
X398274Y1258316D01*
Y1260855D01*
X400813D01*
X395734Y1257046D02*
Y1264663D01*
X390656Y1257046D01*
Y1264663D01*
X388117D02*
Y1257046D01*
X384308D01*
X383039Y1258316D01*
Y1263394D01*
X384308Y1264663D01*
X388117D01*
X240794Y1267204D02*
X242063Y1268474D01*
X244602D01*
X245872Y1267204D01*
Y1262126D01*
X244602Y1260856D01*
X242063D01*
X240794Y1262126D01*
Y1264665D01*
X243333D01*
X238255Y1260856D02*
Y1268474D01*
X233176Y1260856D01*
Y1268474D01*
X230637D02*
Y1260856D01*
X226828D01*
X225559Y1262126D01*
Y1267204D01*
X226828Y1268474D01*
X230637D01*
X91442Y1246376D02*
X92711Y1247645D01*
X95250D01*
X96520Y1246376D01*
Y1241298D01*
X95250Y1240028D01*
X92711D01*
X91442Y1241298D01*
Y1243837D01*
X93981D01*
X88903Y1240028D02*
Y1247645D01*
X83824Y1240028D01*
Y1247645D01*
X81285D02*
Y1240028D01*
X77476D01*
X76207Y1241298D01*
Y1246376D01*
X77476Y1247645D01*
X81285D01*
X583186Y308100D02*
X584455Y309370D01*
X586994D01*
X588264Y308100D01*
Y303022D01*
X586994Y301752D01*
X584455D01*
X583186Y303022D01*
Y305561D01*
X585725D01*
X580647Y301752D02*
Y309370D01*
X575568Y301752D01*
Y309370D01*
X573029D02*
Y301752D01*
X569220D01*
X567951Y303022D01*
Y308100D01*
X569220Y309370D01*
X573029D01*
X646178Y171194D02*
X647447Y172463D01*
X649986D01*
X651256Y171194D01*
Y166116D01*
X649986Y164846D01*
X647447D01*
X646178Y166116D01*
Y168655D01*
X648717D01*
X643639Y164846D02*
Y172463D01*
X638560Y164846D01*
Y172463D01*
X636021D02*
Y164846D01*
X632212D01*
X630943Y166116D01*
Y171194D01*
X632212Y172463D01*
X636021D01*
X789942Y156716D02*
X791211Y157985D01*
X793750D01*
X795020Y156716D01*
Y151638D01*
X793750Y150368D01*
X791211D01*
X789942Y151638D01*
Y154177D01*
X792481D01*
X787402Y150368D02*
Y157985D01*
X782324Y150368D01*
Y157985D01*
X779785D02*
Y150368D01*
X775976D01*
X774707Y151638D01*
Y156716D01*
X775976Y157985D01*
X779785D01*
X1028448Y558802D02*
X1027178Y560071D01*
Y562610D01*
X1028448Y563880D01*
X1033526D01*
X1034796Y562610D01*
Y560071D01*
X1033526Y558802D01*
X1030987D01*
Y561341D01*
X1034796Y556263D02*
X1027178D01*
X1034796Y551184D01*
X1027178D01*
Y548645D02*
X1034796D01*
Y544836D01*
X1033526Y543567D01*
X1028448D01*
X1027178Y544836D01*
Y548645D01*
X876556Y711202D02*
X875286Y712471D01*
Y715010D01*
X876556Y716280D01*
X881634D01*
X882904Y715010D01*
Y712471D01*
X881634Y711202D01*
X879095D01*
Y713741D01*
X882904Y708662D02*
X875286D01*
X882904Y703584D01*
X875286D01*
Y701045D02*
X882904D01*
Y697236D01*
X881634Y695967D01*
X876556D01*
X875286Y697236D01*
Y701045D01*
X943358Y1090424D02*
X942088Y1091693D01*
Y1094232D01*
X943358Y1095502D01*
X948436D01*
X949706Y1094232D01*
Y1091693D01*
X948436Y1090424D01*
X945897D01*
Y1092963D01*
X949706Y1087885D02*
X942088D01*
X949706Y1082806D01*
X942088D01*
Y1080267D02*
X949706D01*
Y1076458D01*
X948436Y1075189D01*
X943358D01*
X942088Y1076458D01*
Y1080267D01*
X1141224Y1089916D02*
X1139955Y1091185D01*
Y1093724D01*
X1141224Y1094994D01*
X1146302D01*
X1147572Y1093724D01*
Y1091185D01*
X1146302Y1089916D01*
X1143763D01*
Y1092455D01*
X1147572Y1087376D02*
X1139955D01*
X1147572Y1082298D01*
X1139955D01*
Y1079759D02*
X1147572D01*
Y1075950D01*
X1146302Y1074681D01*
X1141224D01*
X1139955Y1075950D01*
Y1079759D01*
X1036068Y946914D02*
X1034799Y948183D01*
Y950722D01*
X1036068Y951992D01*
X1041146D01*
X1042416Y950722D01*
Y948183D01*
X1041146Y946914D01*
X1038607D01*
Y949453D01*
X1042416Y944374D02*
X1034799D01*
X1042416Y939296D01*
X1034799D01*
Y936757D02*
X1042416D01*
Y932948D01*
X1041146Y931679D01*
X1036068D01*
X1034799Y932948D01*
Y936757D01*
X1063246Y946152D02*
X1061976Y947421D01*
Y949960D01*
X1063246Y951230D01*
X1068324D01*
X1069594Y949960D01*
Y947421D01*
X1068324Y946152D01*
X1065785D01*
Y948691D01*
X1069594Y943613D02*
X1061976D01*
X1069594Y938534D01*
X1061976D01*
Y935995D02*
X1069594D01*
Y932186D01*
X1068324Y930917D01*
X1063246D01*
X1061976Y932186D01*
Y935995D01*
X1087630Y946406D02*
X1086360Y947675D01*
Y950214D01*
X1087630Y951484D01*
X1092708D01*
X1093978Y950214D01*
Y947675D01*
X1092708Y946406D01*
X1090169D01*
Y948945D01*
X1093978Y943867D02*
X1086360D01*
X1093978Y938788D01*
X1086360D01*
Y936249D02*
X1093978D01*
Y932440D01*
X1092708Y931171D01*
X1087630D01*
X1086360Y932440D01*
Y936249D01*
X871458Y1380919D02*
X872728Y1382189D01*
X875267D01*
X876536Y1380919D01*
Y1375841D01*
X875267Y1374571D01*
X872728D01*
X871458Y1375841D01*
Y1378380D01*
X873997D01*
X868919Y1374571D02*
Y1382189D01*
X863841Y1374571D01*
Y1382189D01*
X861301D02*
Y1374571D01*
X857493D01*
X856223Y1375841D01*
Y1380919D01*
X857493Y1382189D01*
X861301D01*
X894311Y1099487D02*
X895580Y1100757D01*
X898120D01*
X899389Y1099487D01*
Y1094409D01*
X898120Y1093139D01*
X895580D01*
X894311Y1094409D01*
X891771Y1093139D02*
Y1098218D01*
X889232Y1100757D01*
X886693Y1098218D01*
Y1093139D01*
Y1096948D01*
X891771D01*
X884154Y1093139D02*
Y1100757D01*
X879076Y1093139D01*
Y1100757D01*
X872728Y1093139D02*
Y1100757D01*
X876536Y1096948D01*
X871458D01*
X868919Y1093139D02*
Y1100757D01*
X865110D01*
X863841Y1099487D01*
Y1096948D01*
X865110Y1095679D01*
X868919D01*
X866380D02*
X863841Y1093139D01*
X861301Y1100757D02*
X856223Y1093139D01*
Y1100757D02*
X861301Y1093139D01*
X894311Y1125072D02*
X895580Y1126342D01*
X898120D01*
X899389Y1125072D01*
Y1119994D01*
X898120Y1118724D01*
X895580D01*
X894311Y1119994D01*
X891771Y1118724D02*
Y1123802D01*
X889232Y1126342D01*
X886693Y1123802D01*
Y1118724D01*
Y1122533D01*
X891771D01*
X884154Y1118724D02*
Y1126342D01*
X879076Y1118724D01*
Y1126342D01*
X872728Y1118724D02*
Y1126342D01*
X876536Y1122533D01*
X871458D01*
X868919Y1126342D02*
X863841D01*
X866380D01*
Y1118724D01*
X861301Y1126342D02*
X856223Y1118724D01*
Y1126342D02*
X861301Y1118724D01*
X894311Y1150657D02*
X895580Y1151926D01*
X898120D01*
X899389Y1150657D01*
Y1145579D01*
X898120Y1144309D01*
X895580D01*
X894311Y1145579D01*
X891771Y1144309D02*
Y1149387D01*
X889232Y1151926D01*
X886693Y1149387D01*
Y1144309D01*
Y1148118D01*
X891771D01*
X884154Y1144309D02*
Y1151926D01*
X879076Y1144309D01*
Y1151926D01*
X876536Y1150657D02*
X875267Y1151926D01*
X872728D01*
X871458Y1150657D01*
Y1149387D01*
X872728Y1148118D01*
X873997D01*
X872728D01*
X871458Y1146848D01*
Y1145579D01*
X872728Y1144309D01*
X875267D01*
X876536Y1145579D01*
X868919Y1144309D02*
Y1151926D01*
X865110D01*
X863841Y1150657D01*
Y1148118D01*
X865110Y1146848D01*
X868919D01*
X866380D02*
X863841Y1144309D01*
X861301Y1151926D02*
X856223Y1144309D01*
Y1151926D02*
X861301Y1144309D01*
X894311Y1176242D02*
X895580Y1177511D01*
X898120D01*
X899389Y1176242D01*
Y1171163D01*
X898120Y1169894D01*
X895580D01*
X894311Y1171163D01*
X891771Y1169894D02*
Y1174972D01*
X889232Y1177511D01*
X886693Y1174972D01*
Y1169894D01*
Y1173702D01*
X891771D01*
X884154Y1169894D02*
Y1177511D01*
X879076Y1169894D01*
Y1177511D01*
X876536Y1176242D02*
X875267Y1177511D01*
X872728D01*
X871458Y1176242D01*
Y1174972D01*
X872728Y1173702D01*
X873997D01*
X872728D01*
X871458Y1172433D01*
Y1171163D01*
X872728Y1169894D01*
X875267D01*
X876536Y1171163D01*
X868919Y1177511D02*
X863841D01*
X866380D01*
Y1169894D01*
X861301Y1177511D02*
X856223Y1169894D01*
Y1177511D02*
X861301Y1169894D01*
X880345Y1203096D02*
X877806D01*
X879076D01*
Y1195478D01*
X880345D01*
X877806D01*
X873997D02*
Y1203096D01*
X868919Y1195478D01*
Y1203096D01*
X866380D02*
X861301D01*
X863841D01*
Y1195478D01*
X858762D02*
X856223D01*
X857493D01*
Y1203096D01*
X858762Y1201826D01*
X882884Y1228680D02*
X880345D01*
X881615D01*
Y1221063D01*
X882884D01*
X880345D01*
X876536D02*
Y1228680D01*
X871458Y1221063D01*
Y1228680D01*
X868919D02*
X863841D01*
X866380D01*
Y1221063D01*
X861301Y1227411D02*
X860032Y1228680D01*
X857493D01*
X856223Y1227411D01*
Y1222333D01*
X857493Y1221063D01*
X860032D01*
X861301Y1222333D01*
Y1227411D01*
X868919Y1252996D02*
X870189Y1254265D01*
X872728D01*
X873997Y1252996D01*
Y1247917D01*
X872728Y1246648D01*
X870189D01*
X868919Y1247917D01*
X861301Y1252996D02*
X862571Y1254265D01*
X865110D01*
X866380Y1252996D01*
Y1251726D01*
X865110Y1250456D01*
X862571D01*
X861301Y1249187D01*
Y1247917D01*
X862571Y1246648D01*
X865110D01*
X866380Y1247917D01*
X858762Y1246648D02*
X856223D01*
X857493D01*
Y1254265D01*
X858762Y1252996D01*
X871458Y1278580D02*
X872728Y1279850D01*
X875267D01*
X876536Y1278580D01*
Y1273502D01*
X875267Y1272232D01*
X872728D01*
X871458Y1273502D01*
X863841Y1278580D02*
X865110Y1279850D01*
X867649D01*
X868919Y1278580D01*
Y1277311D01*
X867649Y1276041D01*
X865110D01*
X863841Y1274772D01*
Y1273502D01*
X865110Y1272232D01*
X867649D01*
X868919Y1273502D01*
X861301Y1278580D02*
X860032Y1279850D01*
X857493D01*
X856223Y1278580D01*
Y1273502D01*
X857493Y1272232D01*
X860032D01*
X861301Y1273502D01*
Y1278580D01*
X871458Y1304165D02*
X872728Y1305435D01*
X875267D01*
X876536Y1304165D01*
Y1302896D01*
X875267Y1301626D01*
X872728D01*
X871458Y1300356D01*
Y1299087D01*
X872728Y1297817D01*
X875267D01*
X876536Y1299087D01*
X868919Y1305435D02*
Y1297817D01*
X865110D01*
X863841Y1299087D01*
Y1304165D01*
X865110Y1305435D01*
X868919D01*
X857493D02*
X860032D01*
X861301Y1304165D01*
Y1299087D01*
X860032Y1297817D01*
X857493D01*
X856223Y1299087D01*
Y1304165D01*
X857493Y1305435D01*
X868919Y1329750D02*
X870189Y1331019D01*
X872728D01*
X873997Y1329750D01*
Y1328480D01*
X872728Y1327211D01*
X870189D01*
X868919Y1325941D01*
Y1324671D01*
X870189Y1323402D01*
X872728D01*
X873997Y1324671D01*
X866380Y1331019D02*
Y1323402D01*
X862571D01*
X861301Y1324671D01*
Y1329750D01*
X862571Y1331019D01*
X866380D01*
X858762D02*
X856223D01*
X857493D01*
Y1323402D01*
X858762D01*
X856223D01*
X871458Y1355334D02*
X872728Y1356604D01*
X875267D01*
X876536Y1355334D01*
Y1354065D01*
X875267Y1352795D01*
X872728D01*
X871458Y1351526D01*
Y1350256D01*
X872728Y1348987D01*
X875267D01*
X876536Y1350256D01*
X863841Y1355334D02*
X865110Y1356604D01*
X867649D01*
X868919Y1355334D01*
Y1350256D01*
X867649Y1348987D01*
X865110D01*
X863841Y1350256D01*
X861301Y1356604D02*
Y1348987D01*
Y1351526D01*
X856223Y1356604D01*
X860032Y1352795D01*
X856223Y1348987D01*
D18*
X56386Y1112236D02*
X49614Y1107399D01*
Y1114655D01*
X56386Y1112236D02*
X46228D01*
X56386Y1122249D02*
Y1117412D01*
X52032Y1116928D01*
X52516Y1117412D01*
X53000Y1118863D01*
Y1120314D01*
X52516Y1121765D01*
X51549Y1122733D01*
X50098Y1123216D01*
X49130D01*
X47679Y1122733D01*
X46712Y1121765D01*
X46228Y1120314D01*
Y1118863D01*
X46712Y1117412D01*
X47195Y1116928D01*
X48163Y1116444D01*
X56483Y513207D02*
X56967Y514174D01*
X58418Y515625D01*
X48260D01*
X86358Y1112150D02*
X79586Y1107313D01*
Y1114569D01*
X86358Y1112150D02*
X76200D01*
X84907Y1122163D02*
X85874Y1121679D01*
X86358Y1120228D01*
Y1119260D01*
X85874Y1117809D01*
X84423Y1116842D01*
X82004Y1116358D01*
X79586D01*
X77651Y1116842D01*
X76684Y1117809D01*
X76200Y1119260D01*
Y1119744D01*
X76684Y1121195D01*
X77651Y1122163D01*
X79102Y1122646D01*
X79586D01*
X81037Y1122163D01*
X82004Y1121195D01*
X82488Y1119744D01*
Y1119260D01*
X82004Y1117809D01*
X81037Y1116842D01*
X79586Y1116358D01*
X85971Y511151D02*
X86455D01*
X87422Y511634D01*
X87906Y512118D01*
X88390Y513086D01*
Y515020D01*
X87906Y515988D01*
X87422Y516471D01*
X86455Y516955D01*
X85488D01*
X84520Y516471D01*
X83069Y515504D01*
X78232Y510667D01*
Y517439D01*
X64781Y1123061D02*
Y1127414D01*
X65265Y1128866D01*
X65749Y1129349D01*
X66716Y1129833D01*
X68167D01*
X69134Y1129349D01*
X69618Y1128866D01*
X70102Y1127414D01*
Y1123061D01*
X59944D01*
X66716Y1138394D02*
X65265Y1137911D01*
X64297Y1136943D01*
X63814Y1135492D01*
Y1135008D01*
X64297Y1133557D01*
X65265Y1132590D01*
X66716Y1132106D01*
X67200D01*
X68651Y1132590D01*
X69618Y1133557D01*
X70102Y1135008D01*
Y1135492D01*
X69618Y1136943D01*
X68651Y1137911D01*
X66716Y1138394D01*
X64297D01*
X61879Y1137911D01*
X60428Y1136943D01*
X59944Y1135492D01*
Y1134525D01*
X60428Y1133074D01*
X61395Y1132590D01*
X568958Y1111896D02*
X562186Y1107059D01*
Y1114315D01*
X568958Y1111896D02*
X558800D01*
X567507Y1121909D02*
X568474Y1121425D01*
X568958Y1119974D01*
Y1119007D01*
X568474Y1117555D01*
X567023Y1116588D01*
X564604Y1116104D01*
X562186D01*
X560251Y1116588D01*
X559284Y1117555D01*
X558800Y1119007D01*
Y1119490D01*
X559284Y1120941D01*
X560251Y1121909D01*
X561702Y1122393D01*
X562186D01*
X563637Y1121909D01*
X564604Y1120941D01*
X565088Y1119490D01*
Y1119007D01*
X564604Y1117555D01*
X563637Y1116588D01*
X562186Y1116104D01*
X539748Y1113928D02*
X532976Y1109091D01*
Y1116347D01*
X539748Y1113928D02*
X529590D01*
X539748Y1123941D02*
Y1119104D01*
X535395Y1118620D01*
X535878Y1119104D01*
X536362Y1120555D01*
Y1122006D01*
X535878Y1123457D01*
X534911Y1124425D01*
X533460Y1124908D01*
X532492D01*
X531041Y1124425D01*
X530074Y1123457D01*
X529590Y1122006D01*
Y1120555D01*
X530074Y1119104D01*
X530557Y1118620D01*
X531525Y1118136D01*
X548651Y1115060D02*
Y1119413D01*
X549135Y1120864D01*
X549618Y1121348D01*
X550586Y1121832D01*
X552037D01*
X553004Y1121348D01*
X553488Y1120864D01*
X553972Y1119413D01*
Y1115060D01*
X543814D01*
X553972Y1126524D02*
X553488Y1125073D01*
X552521Y1124589D01*
X551553D01*
X550586Y1125073D01*
X550102Y1126040D01*
X549618Y1127975D01*
X549135Y1129426D01*
X548167Y1130394D01*
X547200Y1130877D01*
X545749D01*
X544781Y1130394D01*
X544298Y1129910D01*
X543814Y1128459D01*
Y1126524D01*
X544298Y1125073D01*
X544781Y1124589D01*
X545749Y1124105D01*
X547200D01*
X548167Y1124589D01*
X549135Y1125556D01*
X549618Y1127008D01*
X550102Y1128942D01*
X550586Y1129910D01*
X551553Y1130394D01*
X552521D01*
X553488Y1129910D01*
X553972Y1128459D01*
Y1126524D01*
X535273Y510753D02*
X535757Y511721D01*
X537208Y513172D01*
X527050D01*
X569333Y510475D02*
X569817D01*
X570784Y510959D01*
X571268Y511442D01*
X571752Y512410D01*
Y514344D01*
X571268Y515312D01*
X570784Y515796D01*
X569817Y516279D01*
X568850D01*
X567882Y515796D01*
X566431Y514828D01*
X561594Y509991D01*
Y516763D01*
X148080Y527769D02*
X137922D01*
X148080Y524383D02*
Y531155D01*
X146629Y539136D02*
X147596Y538169D01*
X148080Y536717D01*
Y534783D01*
X147596Y533331D01*
X146629Y532364D01*
X145661D01*
X144694Y532848D01*
X144210Y533331D01*
X143727Y534299D01*
X142759Y537201D01*
X142275Y538169D01*
X141792Y538652D01*
X140824Y539136D01*
X139373D01*
X138406Y538169D01*
X137922Y536717D01*
Y534783D01*
X138406Y533331D01*
X139373Y532364D01*
X116451Y532986D02*
X117419Y532503D01*
X118386Y531535D01*
X118870Y530568D01*
Y528633D01*
X118386Y527665D01*
X117419Y526698D01*
X116451Y526214D01*
X115000Y525731D01*
X112582D01*
X111131Y526214D01*
X110163Y526698D01*
X109196Y527665D01*
X108712Y528633D01*
Y530568D01*
X109196Y531535D01*
X110163Y532503D01*
X111131Y532986D01*
X112582D01*
Y530568D02*
Y532986D01*
X118870Y535308D02*
X108712D01*
X118870D02*
X108712Y542080D01*
X118870D02*
X108712D01*
X118870Y544885D02*
X108712D01*
X118870D02*
Y548271D01*
X118386Y549723D01*
X117419Y550690D01*
X116451Y551174D01*
X115000Y551657D01*
X112582D01*
X111131Y551174D01*
X110163Y550690D01*
X109196Y549723D01*
X108712Y548271D01*
Y544885D01*
X120467Y428793D02*
X121434Y427826D01*
X121918Y426374D01*
Y424440D01*
X121434Y422988D01*
X120467Y422021D01*
X119499D01*
X118532Y422505D01*
X118048Y422988D01*
X117564Y423956D01*
X116597Y426858D01*
X116113Y427826D01*
X115630Y428309D01*
X114662Y428793D01*
X113211D01*
X112244Y427826D01*
X111760Y426374D01*
Y424440D01*
X112244Y422988D01*
X113211Y422021D01*
X121918Y437355D02*
Y431066D01*
X111760D01*
Y437355D01*
X117081Y431066D02*
Y434936D01*
X121918Y439047D02*
X111760D01*
X121918D02*
X111760Y445819D01*
X121918D02*
X111760D01*
X120467Y455397D02*
X121434Y454429D01*
X121918Y452978D01*
Y451043D01*
X121434Y449592D01*
X120467Y448625D01*
X119499D01*
X118532Y449109D01*
X118048Y449592D01*
X117564Y450560D01*
X116597Y453462D01*
X116113Y454429D01*
X115630Y454913D01*
X114662Y455397D01*
X113211D01*
X112244Y454429D01*
X111760Y452978D01*
Y451043D01*
X112244Y449592D01*
X113211Y448625D01*
X121918Y463958D02*
Y457670D01*
X111760D01*
Y463958D01*
X117081Y457670D02*
Y461540D01*
X147318Y439801D02*
X137160D01*
X147318D02*
Y444154D01*
X146834Y445606D01*
X146350Y446089D01*
X145383Y446573D01*
X144416D01*
X143448Y446089D01*
X142964Y445606D01*
X142481Y444154D01*
Y439801D02*
Y444154D01*
X141997Y445606D01*
X141513Y446089D01*
X140546Y446573D01*
X139095D01*
X138127Y446089D01*
X137644Y445606D01*
X137160Y444154D01*
Y439801D01*
Y456586D02*
X147318Y452716D01*
X137160Y448846D01*
X140546Y450297D02*
Y455135D01*
X147318Y462342D02*
X137160D01*
X147318Y458956D02*
Y465728D01*
X115060Y720416D02*
X107320D01*
X105869Y719932D01*
X105386Y719448D01*
X104902Y718481D01*
Y717513D01*
X105386Y716546D01*
X105869Y716062D01*
X107320Y715579D01*
X108288D01*
X113125Y723028D02*
X113609Y723995D01*
X115060Y725446D01*
X104902D01*
X109255Y730477D02*
Y739184D01*
X113125Y742182D02*
X113609Y743150D01*
X115060Y744601D01*
X104902D01*
X115568Y909204D02*
X107829D01*
X106377Y908720D01*
X105894Y908237D01*
X105410Y907269D01*
Y906302D01*
X105894Y905334D01*
X106377Y904851D01*
X107829Y904367D01*
X108796D01*
X113633Y911816D02*
X114117Y912784D01*
X115568Y914235D01*
X105410D01*
X109763Y919265D02*
Y927972D01*
X114117Y936775D02*
X115084Y936292D01*
X115568Y934840D01*
Y933873D01*
X115084Y932422D01*
X113633Y931455D01*
X111215Y930971D01*
X108796D01*
X106861Y931455D01*
X105894Y932422D01*
X105410Y933873D01*
Y934357D01*
X105894Y935808D01*
X106861Y936775D01*
X108312Y937259D01*
X108796D01*
X110247Y936775D01*
X111215Y935808D01*
X111698Y934357D01*
Y933873D01*
X111215Y932422D01*
X110247Y931455D01*
X108796Y930971D01*
X169162Y920566D02*
X159004D01*
X169162Y917180D02*
Y923952D01*
X163841Y925161D02*
Y929514D01*
X164325Y930966D01*
X164809Y931449D01*
X165776Y931933D01*
X167227D01*
X168194Y931449D01*
X168678Y930966D01*
X169162Y929514D01*
Y925161D01*
X159004D01*
X167227Y934206D02*
X167711Y935174D01*
X169162Y936625D01*
X159004D01*
X228852Y395791D02*
X218694D01*
X228852Y392405D02*
Y399177D01*
X223531Y400386D02*
Y404739D01*
X224015Y406191D01*
X224499Y406674D01*
X225466Y407158D01*
X226917D01*
X227884Y406674D01*
X228368Y406191D01*
X228852Y404739D01*
Y400386D01*
X218694D01*
X228852Y414268D02*
X222080Y409431D01*
Y416687D01*
X228852Y414268D02*
X218694D01*
D19*
X441410Y167086D02*
X433746D01*
X437578Y170918D02*
Y163254D01*
M02*
