G04*
G04 #@! TF.GenerationSoftware,Altium Limited,Altium Designer,24.1.2 (44)*
G04*
G04 Layer_Color=255*
%FSLAX44Y44*%
%MOMM*%
G71*
G04*
G04 #@! TF.SameCoordinates,9E3D1DA3-FC52-4BB6-AAC9-55B28770B0AD*
G04*
G04*
G04 #@! TF.FilePolarity,Positive*
G04*
G01*
G75*
%ADD54C,1.5240*%
%ADD96R,2.4500X2.4500*%
%ADD97C,2.4500*%
%ADD109C,1.7400*%
%ADD110R,1.7400X1.7400*%
%ADD121C,1.6000*%
G04:AMPARAMS|DCode=122|XSize=1.6mm|YSize=1.6mm|CornerRadius=0.4mm|HoleSize=0mm|Usage=FLASHONLY|Rotation=90.000|XOffset=0mm|YOffset=0mm|HoleType=Round|Shape=RoundedRectangle|*
%AMROUNDEDRECTD122*
21,1,1.6000,0.8000,0,0,90.0*
21,1,0.8000,1.6000,0,0,90.0*
1,1,0.8000,0.4000,0.4000*
1,1,0.8000,0.4000,-0.4000*
1,1,0.8000,-0.4000,-0.4000*
1,1,0.8000,-0.4000,0.4000*
%
%ADD122ROUNDEDRECTD122*%
%ADD123R,1.5240X1.5240*%
%ADD124C,1.5500*%
%ADD125R,1.5500X1.5500*%
%ADD126C,2.5400*%
%ADD127C,4.0000*%
%ADD128R,1.5000X1.5000*%
%ADD129C,1.5000*%
%ADD130R,1.6510X1.6510*%
%ADD131C,1.6510*%
%ADD132R,1.5500X1.5500*%
%ADD133C,4.4450*%
%ADD134C,1.6500*%
%ADD135C,4.8000*%
G04:AMPARAMS|DCode=136|XSize=1.65mm|YSize=1.65mm|CornerRadius=0.4125mm|HoleSize=0mm|Usage=FLASHONLY|Rotation=180.000|XOffset=0mm|YOffset=0mm|HoleType=Round|Shape=RoundedRectangle|*
%AMROUNDEDRECTD136*
21,1,1.6500,0.8250,0,0,180.0*
21,1,0.8250,1.6500,0,0,180.0*
1,1,0.8250,-0.4125,0.4125*
1,1,0.8250,0.4125,0.4125*
1,1,0.8250,0.4125,-0.4125*
1,1,0.8250,-0.4125,-0.4125*
%
%ADD136ROUNDEDRECTD136*%
%ADD137R,1.4000X1.4000*%
%ADD138C,1.4000*%
%ADD140R,3.1500X4.7800*%
D54*
X102870Y236636D02*
D03*
X747776Y1527048D02*
D03*
X722376D02*
D03*
X696214Y1527302D02*
D03*
X670814D02*
D03*
X246634Y1525778D02*
D03*
X221234D02*
D03*
X196088Y1526032D02*
D03*
X170688D02*
D03*
X53340Y736092D02*
D03*
Y710692D02*
D03*
Y659892D02*
D03*
Y761492D02*
D03*
Y685292D02*
D03*
Y634492D02*
D03*
Y609092D02*
D03*
Y863092D02*
D03*
Y888492D02*
D03*
Y1040892D02*
D03*
Y1015492D02*
D03*
Y964692D02*
D03*
Y939292D02*
D03*
Y913892D02*
D03*
Y583692D02*
D03*
Y837692D02*
D03*
Y990092D02*
D03*
Y1066292D02*
D03*
Y786892D02*
D03*
Y812292D02*
D03*
Y558292D02*
D03*
Y1091692D02*
D03*
X78740Y710692D02*
D03*
Y685292D02*
D03*
Y659892D02*
D03*
Y736092D02*
D03*
Y837692D02*
D03*
Y609092D02*
D03*
Y634492D02*
D03*
Y863092D02*
D03*
Y888492D02*
D03*
Y1066292D02*
D03*
Y1040892D02*
D03*
Y1015492D02*
D03*
Y990092D02*
D03*
Y964692D02*
D03*
Y939292D02*
D03*
Y913892D02*
D03*
Y583692D02*
D03*
Y761492D02*
D03*
Y812292D02*
D03*
Y786892D02*
D03*
Y558292D02*
D03*
Y1091692D02*
D03*
X142240Y926592D02*
D03*
X224790Y374142D02*
D03*
X78740Y532892D02*
D03*
X561340D02*
D03*
X535940Y736092D02*
D03*
X561340Y710692D02*
D03*
X535940D02*
D03*
Y659892D02*
D03*
X561340Y685292D02*
D03*
Y659892D02*
D03*
X535940Y761492D02*
D03*
Y685292D02*
D03*
X561340Y736092D02*
D03*
Y837692D02*
D03*
X535940Y634492D02*
D03*
Y609092D02*
D03*
X561340D02*
D03*
Y634492D02*
D03*
Y863092D02*
D03*
X535940D02*
D03*
Y888492D02*
D03*
X561340D02*
D03*
X535940Y1091692D02*
D03*
X561340Y1066292D02*
D03*
X535940Y1040892D02*
D03*
X561340D02*
D03*
X535940Y1015492D02*
D03*
X561340D02*
D03*
Y990092D02*
D03*
Y964692D02*
D03*
Y939292D02*
D03*
X535940Y964692D02*
D03*
Y939292D02*
D03*
Y913892D02*
D03*
X561340D02*
D03*
X535940Y583692D02*
D03*
X561340D02*
D03*
Y761492D02*
D03*
X535940Y837692D02*
D03*
X561340Y812292D02*
D03*
X535940Y990092D02*
D03*
X561340Y1091692D02*
D03*
X535940Y1066292D02*
D03*
Y786892D02*
D03*
Y812292D02*
D03*
X561340Y786892D02*
D03*
X535940Y558292D02*
D03*
X561340D02*
D03*
X110490Y812292D02*
D03*
Y888492D02*
D03*
Y786892D02*
D03*
Y863092D02*
D03*
Y837692D02*
D03*
X140970Y483362D02*
D03*
X115570D02*
D03*
X140970Y508762D02*
D03*
X115570D02*
D03*
D96*
X785114Y44186D02*
D03*
D97*
Y91186D02*
D03*
Y138186D02*
D03*
D109*
X504698Y36322D02*
D03*
X530098D02*
D03*
X555498D02*
D03*
X580898D02*
D03*
X606298D02*
D03*
X631698D02*
D03*
X504698Y61722D02*
D03*
X530098D02*
D03*
X555498D02*
D03*
X580898D02*
D03*
X606298D02*
D03*
D110*
X631698D02*
D03*
D121*
X392938Y1325626D02*
D03*
Y1300226D02*
D03*
Y1351026D02*
D03*
Y1376426D02*
D03*
X578357Y267208D02*
D03*
Y241808D02*
D03*
Y216408D02*
D03*
X842264Y1174496D02*
D03*
Y1250696D02*
D03*
Y1301496D02*
D03*
Y1352296D02*
D03*
Y1326896D02*
D03*
Y1276096D02*
D03*
Y1225296D02*
D03*
Y1199896D02*
D03*
Y1149096D02*
D03*
Y1123696D02*
D03*
Y1098296D02*
D03*
X800862Y1502664D02*
D03*
Y1528064D02*
D03*
Y1477264D02*
D03*
Y1451864D02*
D03*
X236220Y1379220D02*
D03*
Y1353820D02*
D03*
Y1303020D02*
D03*
Y1328420D02*
D03*
X641096Y206755D02*
D03*
Y232155D02*
D03*
Y257555D02*
D03*
X854710Y1451864D02*
D03*
Y1477264D02*
D03*
Y1528064D02*
D03*
Y1502664D02*
D03*
X86868Y1383538D02*
D03*
Y1358138D02*
D03*
Y1307338D02*
D03*
Y1281938D02*
D03*
Y1332738D02*
D03*
D122*
X392938Y1274826D02*
D03*
X578357Y292608D02*
D03*
X842264Y1377696D02*
D03*
X800862Y1553464D02*
D03*
X236220Y1277620D02*
D03*
X641096Y181355D02*
D03*
X854710Y1553464D02*
D03*
X86868Y1256538D02*
D03*
D123*
X102870Y56642D02*
D03*
X53340Y532892D02*
D03*
X535940D02*
D03*
X110490Y761492D02*
D03*
D124*
X792988Y402082D02*
D03*
X767588D02*
D03*
X742188D02*
D03*
X716788D02*
D03*
X691388D02*
D03*
X665988D02*
D03*
X742858Y946912D02*
D03*
X717458D02*
D03*
X692058D02*
D03*
X666658D02*
D03*
X641258D02*
D03*
X988568Y921512D02*
D03*
X963168D02*
D03*
Y896112D02*
D03*
X988568D02*
D03*
X937768D02*
D03*
Y921512D02*
D03*
X912368Y896112D02*
D03*
Y921512D02*
D03*
X886968Y896112D02*
D03*
Y921512D02*
D03*
X861568D02*
D03*
X1090168Y896112D02*
D03*
Y921512D02*
D03*
X1064768Y896112D02*
D03*
Y921512D02*
D03*
X1039368Y896112D02*
D03*
Y921512D02*
D03*
X1013968D02*
D03*
Y896112D02*
D03*
D125*
X640588Y402082D02*
D03*
X768258Y946912D02*
D03*
D126*
X1129136Y1030850D02*
D03*
X1087136D02*
D03*
X1045136D02*
D03*
X1003136D02*
D03*
X961136D02*
D03*
X1128776Y1085850D02*
D03*
X1086866D02*
D03*
X1044956D02*
D03*
X1003046D02*
D03*
X961136D02*
D03*
D127*
X1129136Y1158849D02*
D03*
X961136D02*
D03*
D128*
X890986Y706780D02*
D03*
D129*
X916386D02*
D03*
X941786D02*
D03*
D130*
X902970Y220980D02*
D03*
D131*
Y195580D02*
D03*
Y119380D02*
D03*
Y68580D02*
D03*
Y93980D02*
D03*
Y144780D02*
D03*
Y43180D02*
D03*
Y170180D02*
D03*
X1131570Y43180D02*
D03*
Y144780D02*
D03*
Y93980D02*
D03*
Y119380D02*
D03*
Y220980D02*
D03*
Y170180D02*
D03*
Y195580D02*
D03*
Y68580D02*
D03*
D132*
X861568Y896112D02*
D03*
D133*
X66040Y482092D02*
D03*
X97790Y1142492D02*
D03*
X548640Y482092D02*
D03*
X516890Y1142492D02*
D03*
D134*
X541594Y1496544D02*
D03*
X513894D02*
D03*
X486194D02*
D03*
X458494D02*
D03*
X430794D02*
D03*
X403094D02*
D03*
X375394D02*
D03*
X555444Y1468144D02*
D03*
X527744D02*
D03*
X500044D02*
D03*
X472344D02*
D03*
X389244D02*
D03*
X444644D02*
D03*
X416944D02*
D03*
D135*
X291894Y1482344D02*
D03*
X625094D02*
D03*
D136*
X361544Y1468144D02*
D03*
D137*
X1090168Y575818D02*
D03*
X982364Y571754D02*
D03*
D138*
X1140168Y575818D02*
D03*
X1032364Y571754D02*
D03*
D140*
X421900Y133858D02*
D03*
X111500D02*
D03*
M02*
