G04*
G04 #@! TF.GenerationSoftware,Altium Limited,Altium Designer,24.1.2 (44)*
G04*
G04 Layer_Color=32768*
%FSLAX44Y44*%
%MOMM*%
G71*
G04*
G04 #@! TF.SameCoordinates,9E3D1DA3-FC52-4BB6-AAC9-55B28770B0AD*
G04*
G04*
G04 #@! TF.FilePolarity,Positive*
G04*
G01*
G75*
%ADD11C,0.2000*%
%ADD142C,0.0500*%
D11*
X869390Y457118D02*
Y486239D01*
X855269Y457118D02*
X869390D01*
X855269D02*
Y486239D01*
X869390D01*
X549528Y1284484D02*
Y1355084D01*
X457328D02*
X549528D01*
X457328Y1284484D02*
Y1355084D01*
Y1284484D02*
X549528D01*
X260624Y1023304D02*
Y1115304D01*
X390124D01*
Y1023304D02*
Y1115304D01*
X260624Y1023304D02*
X390124D01*
X322377Y550589D02*
Y579711D01*
X336498D01*
Y550589D02*
Y579711D01*
X322377Y550589D02*
X336498D01*
X294945Y550336D02*
Y579457D01*
X309067D01*
Y550336D02*
Y579457D01*
X294945Y550336D02*
X309067D01*
X161089Y1037811D02*
Y1051933D01*
Y1037811D02*
X190211D01*
Y1051933D01*
X161089D02*
X190211D01*
X107382Y1017978D02*
Y1053478D01*
Y1017978D02*
X146382D01*
Y1053478D01*
X107382D02*
X146382D01*
X130265Y1085647D02*
Y1099769D01*
X101143D02*
X130265D01*
X101143Y1085647D02*
Y1099769D01*
Y1085647D02*
X130265D01*
X933562Y788506D02*
Y812506D01*
X921562Y788506D02*
X933562D01*
X921562D02*
Y812506D01*
X933562D01*
Y818066D02*
Y842066D01*
X921562Y818066D02*
X933562D01*
X921562D02*
Y842066D01*
X933562D01*
X851159Y744797D02*
X865281D01*
Y773919D01*
X851159D02*
X865281D01*
X851159Y744797D02*
Y773919D01*
X829190Y28434D02*
Y58434D01*
Y28434D02*
X877690D01*
Y58434D01*
X829190D02*
X877690D01*
X735127Y303036D02*
Y332157D01*
X749249D01*
Y303036D02*
Y332157D01*
X735127Y303036D02*
X749249D01*
X912165Y301161D02*
X926286D01*
Y330283D01*
X912165D02*
X926286D01*
X912165Y301161D02*
Y330283D01*
X617525Y1060025D02*
X631646D01*
X617525Y1030903D02*
Y1060025D01*
Y1030903D02*
X631646D01*
Y1060025D01*
X286428Y786732D02*
X339428D01*
Y893732D01*
X286428D02*
X339428D01*
X286428Y786732D02*
Y893732D01*
X901247Y793990D02*
Y804990D01*
X878185D02*
X901247D01*
X878185Y793990D02*
Y804990D01*
Y793990D02*
X901247D01*
X912264Y747196D02*
Y782696D01*
X873264D02*
X912264D01*
X873264Y747196D02*
Y782696D01*
Y747196D02*
X912264D01*
X591109Y1031665D02*
X605230D01*
Y1060787D01*
X591109D02*
X605230D01*
X591109Y1031665D02*
Y1060787D01*
X358380Y916058D02*
X388380D01*
Y964558D01*
X358380D02*
X388380D01*
X358380Y916058D02*
Y964558D01*
X280213Y764369D02*
X294335D01*
X280213Y735247D02*
Y764369D01*
Y735247D02*
X294335D01*
Y764369D01*
X1072560Y311098D02*
X1101681D01*
Y296977D02*
Y311098D01*
X1072560Y296977D02*
X1101681D01*
X1072560D02*
Y311098D01*
X567892Y1109801D02*
Y1138922D01*
X553771Y1109801D02*
X567892D01*
X553771D02*
Y1138922D01*
X567892D01*
X509218Y1058335D02*
Y1087456D01*
X495097Y1058335D02*
X509218D01*
X495097D02*
Y1087456D01*
X509218D01*
X746064Y20186D02*
Y162186D01*
X821114D01*
Y20186D02*
Y162186D01*
X746064Y20186D02*
X821114D01*
X272816Y604748D02*
Y696748D01*
X402316D01*
Y604748D02*
Y696748D01*
X272816Y604748D02*
X402316D01*
X830710Y541040D02*
X878710D01*
Y607040D01*
X830710D02*
X878710D01*
X830710Y541040D02*
Y607040D01*
X1040652Y293250D02*
Y341750D01*
X1010652Y293250D02*
X1040652D01*
X1010652D02*
Y341750D01*
X1040652D01*
X1005092Y293250D02*
Y341750D01*
X975092Y293250D02*
X1005092D01*
X975092D02*
Y341750D01*
X1005092D01*
X969532Y293250D02*
Y341750D01*
X939532Y293250D02*
X969532D01*
X939532D02*
Y341750D01*
X969532D01*
X665670Y1349942D02*
Y1404942D01*
X594170D02*
X665670D01*
X594170Y1349942D02*
Y1404942D01*
Y1349942D02*
X665670D01*
X665416Y1259772D02*
Y1314772D01*
X593916D02*
X665416D01*
X593916Y1259772D02*
Y1314772D01*
Y1259772D02*
X665416D01*
X734118Y1487766D02*
Y1498765D01*
X711997D02*
X734118D01*
X711997Y1487766D02*
Y1498765D01*
Y1487766D02*
X734118D01*
X138880Y944402D02*
Y979902D01*
X99880D02*
X138880D01*
X99880Y944402D02*
Y979902D01*
Y944402D02*
X138880D01*
X170447Y993343D02*
X199568D01*
Y979221D02*
Y993343D01*
X170447Y979221D02*
X199568D01*
X170447D02*
Y993343D01*
X169493Y961846D02*
X198614D01*
Y947725D02*
Y961846D01*
X169493Y947725D02*
X198614D01*
X169493D02*
Y961846D01*
X183503Y1498512D02*
X205625D01*
Y1487512D02*
Y1498512D01*
X183503Y1487512D02*
X205625D01*
X183503D02*
Y1498512D01*
X211698Y1487258D02*
X233819D01*
X211698D02*
Y1498258D01*
X233819D01*
Y1487258D02*
Y1498258D01*
X683122Y1498512D02*
X705243D01*
Y1487512D02*
Y1498512D01*
X683122Y1487512D02*
X705243D01*
X683122D02*
Y1498512D01*
X716838Y1372864D02*
X754838D01*
X716838D02*
Y1403864D01*
X754838D01*
Y1372864D02*
Y1403864D01*
X667194Y1092132D02*
Y1147132D01*
X595694D02*
X667194D01*
X595694Y1092132D02*
Y1147132D01*
Y1092132D02*
X667194D01*
X770432Y1142946D02*
Y1231446D01*
X703370D02*
X770432D01*
X703370Y1142946D02*
Y1231446D01*
Y1142946D02*
X770432D01*
Y1272486D02*
Y1360986D01*
X703370D02*
X770432D01*
X703370Y1272486D02*
Y1360986D01*
Y1272486D02*
X770432D01*
X413020Y721538D02*
Y775538D01*
Y721538D02*
X486141D01*
Y775538D01*
X413020D02*
X486141D01*
X202248Y76014D02*
X273748D01*
Y21014D02*
Y76014D01*
X202248Y21014D02*
X273748D01*
X202248D02*
Y76014D01*
X65329Y353993D02*
Y383115D01*
X79450D01*
Y353993D02*
Y383115D01*
X65329Y353993D02*
X79450D01*
X39494Y417995D02*
X54994D01*
X39494Y385995D02*
Y417995D01*
Y385995D02*
X54994D01*
Y417995D01*
X555602Y372294D02*
Y395294D01*
X568602D01*
Y372294D02*
Y395294D01*
X555602Y372294D02*
X568602D01*
X666178Y1174682D02*
Y1229682D01*
X594678D02*
X666178D01*
X594678Y1174682D02*
Y1229682D01*
Y1174682D02*
X666178D01*
X684498Y2572D02*
Y95472D01*
X451898D02*
X684498D01*
X451898Y2572D02*
Y95472D01*
Y2572D02*
X684498D01*
X265162Y919360D02*
X295162D01*
Y967860D01*
X265162D02*
X295162D01*
X265162Y919360D02*
Y967860D01*
X923007Y537018D02*
X955069D01*
Y513018D02*
Y537018D01*
X923007Y513018D02*
X955069D01*
X923007D02*
Y537018D01*
X299365Y1293724D02*
X353415D01*
Y1367688D01*
X299365D02*
X353415D01*
X299365Y1293724D02*
Y1367688D01*
X145187Y1289420D02*
Y1363384D01*
X199237D01*
Y1289420D02*
Y1363384D01*
X145187Y1289420D02*
X199237D01*
X471782Y372802D02*
Y395802D01*
X484782D01*
Y372802D02*
Y395802D01*
X471782Y372802D02*
X484782D01*
X918589Y767283D02*
X947710D01*
X918589D02*
Y781404D01*
X947710D01*
Y767283D02*
Y781404D01*
X364566Y849833D02*
X393687D01*
Y835712D02*
Y849833D01*
X364566Y835712D02*
X393687D01*
X364566D02*
Y849833D01*
X364916Y876757D02*
X394037D01*
Y862636D02*
Y876757D01*
X364916Y862636D02*
X394037D01*
X364916D02*
Y876757D01*
X224962Y868883D02*
X254083D01*
Y854762D02*
Y868883D01*
X224962Y854762D02*
X254083D01*
X224962D02*
Y868883D01*
D142*
X392938Y1320626D02*
Y1330626D01*
X387938Y1325626D02*
X397938D01*
X377488Y1258626D02*
Y1392626D01*
X408388D01*
Y1258626D02*
Y1392626D01*
X377488Y1258626D02*
X408388D01*
X562907Y308808D02*
X593808D01*
X562907Y200209D02*
Y308808D01*
Y200209D02*
X593808D01*
Y308808D01*
X573358Y254508D02*
X583358D01*
X578357Y249509D02*
Y259509D01*
X826814Y1393896D02*
X857714D01*
X826814Y1082096D02*
Y1393896D01*
Y1082096D02*
X857714D01*
Y1393896D01*
X837264Y1237996D02*
X847264D01*
X842264Y1232996D02*
Y1242996D01*
X800862Y1497664D02*
Y1507664D01*
X795862Y1502664D02*
X805862D01*
X816312Y1435664D02*
Y1569664D01*
X785412Y1435664D02*
X816312D01*
X785412D02*
Y1569664D01*
X816312D01*
X220770Y1261420D02*
X251670D01*
Y1395420D01*
X220770D02*
X251670D01*
X220770Y1261420D02*
Y1395420D01*
X231220Y1328420D02*
X241220D01*
X236220Y1323420D02*
Y1333420D01*
X625646Y165156D02*
X656546D01*
Y273755D01*
X625646D02*
X656546D01*
X625646Y165156D02*
Y273755D01*
X636096Y219455D02*
X646096D01*
X641096Y214456D02*
Y224456D01*
X839260Y1569664D02*
X870160D01*
X839260Y1435664D02*
Y1569664D01*
Y1435664D02*
X870160D01*
Y1569664D01*
X849710Y1502664D02*
X859710D01*
X854710Y1497664D02*
Y1507664D01*
X260494Y1450044D02*
X656494D01*
X260494D02*
Y1601844D01*
X656494D01*
Y1450044D02*
Y1601844D01*
X453494Y1525944D02*
X463494D01*
X458494Y1520944D02*
Y1530944D01*
X71418Y1240338D02*
Y1399738D01*
X102318D01*
Y1240338D02*
Y1399738D01*
X71418Y1240338D02*
X102318D01*
X81868Y1320038D02*
X91868D01*
X86868Y1315038D02*
Y1325038D01*
M02*
