G04*
G04 #@! TF.GenerationSoftware,Altium Limited,Altium Designer,24.1.2 (44)*
G04*
G04 Layer_Color=8388736*
%FSLAX44Y44*%
%MOMM*%
G71*
G04*
G04 #@! TF.SameCoordinates,9E3D1DA3-FC52-4BB6-AAC9-55B28770B0AD*
G04*
G04*
G04 #@! TF.FilePolarity,Positive*
G04*
G01*
G75*
%ADD11C,0.2000*%
%ADD14C,0.1524*%
%ADD17C,0.1000*%
D11*
X866330Y463678D02*
Y479678D01*
X858330Y463678D02*
X866330D01*
X858330D02*
Y479678D01*
X866330D01*
X548528Y1301984D02*
Y1337584D01*
X458328D02*
X548528D01*
X458328Y1301984D02*
Y1337584D01*
Y1301984D02*
X548528D01*
X262374Y1038304D02*
Y1100304D01*
X388374D01*
Y1038304D02*
Y1100304D01*
X262374Y1038304D02*
X388374D01*
X325438Y557150D02*
Y573150D01*
X333438D01*
Y557150D02*
Y573150D01*
X325438Y557150D02*
X333438D01*
X298006Y556896D02*
Y572896D01*
X306006D01*
Y556896D02*
Y572896D01*
X298006Y556896D02*
X306006D01*
X167650Y1040872D02*
Y1048872D01*
Y1040872D02*
X183650D01*
Y1048872D01*
X167650D02*
X183650D01*
X118132Y1020478D02*
Y1050978D01*
Y1020478D02*
X135632D01*
Y1050978D01*
X118132D02*
X135632D01*
X123704Y1088708D02*
Y1096708D01*
X107704D02*
X123704D01*
X107704Y1088708D02*
Y1096708D01*
Y1088708D02*
X123704D01*
X932312Y791756D02*
Y809256D01*
X922812Y791756D02*
X932312D01*
X922812D02*
Y809256D01*
X932312D01*
Y821316D02*
Y838816D01*
X922812Y821316D02*
X932312D01*
X922812D02*
Y838816D01*
X932312D01*
X854220Y751358D02*
X862220D01*
Y767358D01*
X854220D02*
X862220D01*
X854220Y751358D02*
Y767358D01*
X835940Y29434D02*
Y57434D01*
Y29434D02*
X870940D01*
Y57434D01*
X835940D02*
X870940D01*
X738188Y309596D02*
Y325596D01*
X746188D01*
Y309596D02*
Y325596D01*
X738188Y309596D02*
X746188D01*
X915226Y307722D02*
X923226D01*
Y323722D01*
X915226D02*
X923226D01*
X915226Y307722D02*
Y323722D01*
X620586Y1053464D02*
X628586D01*
X620586Y1037464D02*
Y1053464D01*
Y1037464D02*
X628586D01*
Y1053464D01*
X287428Y805232D02*
X338428D01*
Y875232D01*
X287428D02*
X338428D01*
X287428Y805232D02*
Y875232D01*
X897716Y795490D02*
Y803490D01*
X881716D02*
X897716D01*
X881716Y795490D02*
Y803490D01*
Y795490D02*
X897716D01*
X901514Y749696D02*
Y780196D01*
X884014D02*
X901514D01*
X884014Y749696D02*
Y780196D01*
Y749696D02*
X901514D01*
X594170Y1038226D02*
X602170D01*
Y1054226D01*
X594170D02*
X602170D01*
X594170Y1038226D02*
Y1054226D01*
X359380Y922808D02*
X387380D01*
Y957808D01*
X359380D02*
X387380D01*
X359380Y922808D02*
Y957808D01*
X283274Y757808D02*
X291274D01*
X283274Y741808D02*
Y757808D01*
Y741808D02*
X291274D01*
Y757808D01*
X1079120Y308038D02*
X1095120D01*
Y300038D02*
Y308038D01*
X1079120Y300038D02*
X1095120D01*
X1079120D02*
Y308038D01*
X564832Y1116362D02*
Y1132362D01*
X556832Y1116362D02*
X564832D01*
X556832D02*
Y1132362D01*
X564832D01*
X506158Y1064896D02*
Y1080896D01*
X498158Y1064896D02*
X506158D01*
X498158D02*
Y1080896D01*
X506158D01*
X747064Y21186D02*
Y161186D01*
X820114D01*
Y21186D02*
Y161186D01*
X747064Y21186D02*
X820114D01*
X274566Y619748D02*
Y681748D01*
X400566D01*
Y619748D02*
Y681748D01*
X274566Y619748D02*
X400566D01*
X832560Y546840D02*
X876860D01*
Y601240D01*
X832560D02*
X876860D01*
X832560Y546840D02*
Y601240D01*
X1039652Y300000D02*
Y335000D01*
X1011652Y300000D02*
X1039652D01*
X1011652D02*
Y335000D01*
X1039652D01*
X1004092Y300000D02*
Y335000D01*
X976092Y300000D02*
X1004092D01*
X976092D02*
Y335000D01*
X1004092D01*
X968532Y300000D02*
Y335000D01*
X940532Y300000D02*
X968532D01*
X940532D02*
Y335000D01*
X968532D01*
X649920Y1352442D02*
Y1402442D01*
X609920D02*
X649920D01*
X609920Y1352442D02*
Y1402442D01*
Y1352442D02*
X649920D01*
X649666Y1262272D02*
Y1312272D01*
X609666D02*
X649666D01*
X609666Y1262272D02*
Y1312272D01*
Y1262272D02*
X649666D01*
X731058Y1489266D02*
Y1497266D01*
X715058D02*
X731058D01*
X715058Y1489266D02*
Y1497266D01*
Y1489266D02*
X731058D01*
X128130Y946902D02*
Y977402D01*
X110630D02*
X128130D01*
X110630Y946902D02*
Y977402D01*
Y946902D02*
X128130D01*
X177008Y990282D02*
X193008D01*
Y982282D02*
Y990282D01*
X177008Y982282D02*
X193008D01*
X177008D02*
Y990282D01*
X176054Y958786D02*
X192054D01*
Y950786D02*
Y958786D01*
X176054Y950786D02*
X192054D01*
X176054D02*
Y958786D01*
X186564Y1497012D02*
X202564D01*
Y1489012D02*
Y1497012D01*
X186564Y1489012D02*
X202564D01*
X186564D02*
Y1497012D01*
X214758Y1488758D02*
X230758D01*
X214758D02*
Y1496758D01*
X230758D01*
Y1488758D02*
Y1496758D01*
X686182Y1497012D02*
X702182D01*
Y1489012D02*
Y1497012D01*
X686182Y1489012D02*
X702182D01*
X686182D02*
Y1497012D01*
X719338Y1375364D02*
X752338D01*
X719338D02*
Y1401364D01*
X752338D01*
Y1375364D02*
Y1401364D01*
X651444Y1094632D02*
Y1144632D01*
X611444D02*
X651444D01*
X611444Y1094632D02*
Y1144632D01*
Y1094632D02*
X651444D01*
X756401Y1143946D02*
Y1230446D01*
X717401D02*
X756401D01*
X717401Y1143946D02*
Y1230446D01*
Y1143946D02*
X756401D01*
Y1273486D02*
Y1359986D01*
X717401D02*
X756401D01*
X717401Y1273486D02*
Y1359986D01*
Y1273486D02*
X756401D01*
X430080Y724038D02*
Y773038D01*
Y724038D02*
X469080D01*
Y773038D01*
X430080D02*
X469080D01*
X218498Y73514D02*
X257498D01*
Y23514D02*
Y73514D01*
X218498Y23514D02*
X257498D01*
X218498D02*
Y73514D01*
X68390Y360554D02*
Y376554D01*
X76390D01*
Y360554D02*
Y376554D01*
X68390Y360554D02*
X76390D01*
X40494Y412996D02*
X53994D01*
X40494Y390996D02*
Y412996D01*
Y390996D02*
X53994D01*
Y412996D01*
X556602Y374294D02*
Y393294D01*
X567602D01*
Y374294D02*
Y393294D01*
X556602Y374294D02*
X567602D01*
X468094Y1609944D02*
X479494Y1598544D01*
X444494Y1609944D02*
X468094D01*
X262494Y1598544D02*
X654494D01*
X650428Y1177182D02*
Y1227182D01*
X610428D02*
X650428D01*
X610428Y1177182D02*
Y1227182D01*
Y1177182D02*
X650428D01*
X683498Y3572D02*
Y94472D01*
X452898D02*
X683498D01*
X452898Y3572D02*
Y94472D01*
Y3572D02*
X683498D01*
X266162Y926110D02*
X294162D01*
Y961110D01*
X266162D02*
X294162D01*
X266162Y926110D02*
Y961110D01*
X926538Y535018D02*
X951538D01*
Y515018D02*
Y535018D01*
X926538Y515018D02*
X951538D01*
X926538D02*
Y535018D01*
X301865Y1311231D02*
X350915D01*
Y1350181D01*
X301865D02*
X350915D01*
X301865Y1311231D02*
Y1350181D01*
X147687Y1306927D02*
Y1345877D01*
X196737D01*
Y1306927D02*
Y1345877D01*
X147687Y1306927D02*
X196737D01*
X472782Y374802D02*
Y393802D01*
X483782D01*
Y374802D02*
Y393802D01*
X472782Y374802D02*
X483782D01*
X925150Y770344D02*
X941150D01*
X925150D02*
Y778344D01*
X941150D01*
Y770344D02*
Y778344D01*
X371126Y846772D02*
X387126D01*
Y838772D02*
Y846772D01*
X371126Y838772D02*
X387126D01*
X371126D02*
Y846772D01*
X371476Y873696D02*
X387476D01*
Y865696D02*
Y873696D01*
X371476Y865696D02*
X387476D01*
X371476D02*
Y873696D01*
X231522Y865822D02*
X247522D01*
Y857822D02*
Y865822D01*
X231522Y857822D02*
X247522D01*
X231522D02*
Y865822D01*
D14*
X440494Y1609107D02*
X436141D01*
X434690Y1608623D01*
X434206Y1608140D01*
X433722Y1607172D01*
Y1605721D01*
X434206Y1604754D01*
X434690Y1604270D01*
X436141Y1603786D01*
X440494D01*
Y1613944D01*
X424193Y1606205D02*
X424677Y1605237D01*
X425644Y1604270D01*
X426612Y1603786D01*
X428546D01*
X429514Y1604270D01*
X430481Y1605237D01*
X430965Y1606205D01*
X431449Y1607656D01*
Y1610074D01*
X430965Y1611526D01*
X430481Y1612493D01*
X429514Y1613460D01*
X428546Y1613944D01*
X426612D01*
X425644Y1613460D01*
X424677Y1612493D01*
X424193Y1611526D01*
X421339Y1603786D02*
Y1613944D01*
Y1603786D02*
X416986D01*
X415535Y1604270D01*
X415051Y1604754D01*
X414567Y1605721D01*
Y1606688D01*
X415051Y1607656D01*
X415535Y1608140D01*
X416986Y1608623D01*
X421339D02*
X416986D01*
X415535Y1609107D01*
X415051Y1609591D01*
X414567Y1610558D01*
Y1612009D01*
X415051Y1612977D01*
X415535Y1613460D01*
X416986Y1613944D01*
X421339D01*
X398025Y1603786D02*
X404313D01*
Y1613944D01*
X398025D01*
X404313Y1608623D02*
X400443D01*
X390527Y1603786D02*
Y1613944D01*
Y1608623D02*
X391495Y1607656D01*
X392462Y1607172D01*
X393913D01*
X394881Y1607656D01*
X395848Y1608623D01*
X396332Y1610074D01*
Y1611042D01*
X395848Y1612493D01*
X394881Y1613460D01*
X393913Y1613944D01*
X392462D01*
X391495Y1613460D01*
X390527Y1612493D01*
X382014Y1607172D02*
Y1614911D01*
X382498Y1616363D01*
X382981Y1616846D01*
X383949Y1617330D01*
X385400D01*
X386367Y1616846D01*
X382014Y1608623D02*
X382981Y1607656D01*
X383949Y1607172D01*
X385400D01*
X386367Y1607656D01*
X387335Y1608623D01*
X387818Y1610074D01*
Y1611042D01*
X387335Y1612493D01*
X386367Y1613460D01*
X385400Y1613944D01*
X383949D01*
X382981Y1613460D01*
X382014Y1612493D01*
X379305Y1610074D02*
X373501D01*
Y1609107D01*
X373984Y1608140D01*
X374468Y1607656D01*
X375436Y1607172D01*
X376887D01*
X377854Y1607656D01*
X378821Y1608623D01*
X379305Y1610074D01*
Y1611042D01*
X378821Y1612493D01*
X377854Y1613460D01*
X376887Y1613944D01*
X375436D01*
X374468Y1613460D01*
X373501Y1612493D01*
D17*
X380238Y1262126D02*
Y1389126D01*
X405638Y1262126D02*
Y1389126D01*
X380238Y1262126D02*
X405638D01*
X380238Y1389126D02*
X405638D01*
X565657Y203708D02*
X591057D01*
X565657Y305308D02*
X591057D01*
X565657Y203708D02*
Y305308D01*
X591057Y203708D02*
Y305308D01*
X829564Y1085596D02*
X854964D01*
X829564Y1390396D02*
X854964D01*
X829564Y1085596D02*
Y1390396D01*
X854964Y1085596D02*
Y1390396D01*
X813562Y1439164D02*
Y1566164D01*
X788162Y1439164D02*
Y1566164D01*
X813562D01*
X788162Y1439164D02*
X813562D01*
X223520Y1391920D02*
X248920D01*
X223520Y1264920D02*
X248920D01*
Y1391920D01*
X223520Y1264920D02*
Y1391920D01*
X628396Y270255D02*
X653796D01*
X628396Y168655D02*
X653796D01*
Y270255D01*
X628396Y168655D02*
Y270255D01*
X842010Y1439164D02*
X867410D01*
X842010Y1566164D02*
X867410D01*
X842010Y1439164D02*
Y1566164D01*
X867410Y1439164D02*
Y1566164D01*
X74168Y1243838D02*
Y1396238D01*
X99568Y1243838D02*
Y1396238D01*
X74168Y1243838D02*
X99568D01*
X74168Y1396238D02*
X99568D01*
M02*
