M48
;Layer_Color=9474304
;FILE_FORMAT=2:5
INCH,LZ
;TYPE=PLATED
T01F00S00C0.01500
T02F00S00C0.03543
T03F00S00C0.04000
T04F00S00C0.04016
T05F00S00C0.04291
T06F00S00C0.04331
T07F00S00C0.04488
T08F00S00C0.04500
T09F00S00C0.04600
T10F00S00C0.06299
T11F00S00C0.07100
T12F00S00C0.11811
T13F00S00C0.12500
T14F00S00C0.12598
%
T01
X0440167Y0049667
X0173554Y0080267
X0170853Y0083767
X0188246Y0098167
X0105654Y0041567
X0043898Y0040214
X0040753Y0074167
X0032167Y0176967
X0036253Y0206167
X0017311Y02156
X00158Y02652
X0056954Y0261767
X0070954Y0264967
X0098654Y0255767
X0118754Y0257267
X0118053Y0246467
X0115553Y0245953
X0127154Y0246767
X0125554Y0236
X0122073Y0237067
X0112225Y0235975
X01085Y02212
X01028Y02187
X01128Y0216165
X01252Y02136
X01357Y02287
X0139337Y0230417
X014194Y0226253
X01448Y0234
X01516Y02372
X0150253Y0248967
X0155596Y0253967
X0146453Y0259967
X0132254Y0261117
X01262Y0265
X01417Y02467
X01611Y02435
X01703Y02357
X0203254Y0239067
X0200753Y0259567
X0196254Y0261467
X0194353Y0215467
X0189542Y0210055
X0216392Y0225092
X0225553Y0234767
X0205753Y0184167
X02Y01702
X0182053Y0163267
X0231554Y0167367
X0191954Y0117167
X0243754Y0146067
X02723Y01269
X0279707Y0112413
X03395Y0163
X0353254Y0183767
X0351853Y0194467
X0240353Y0192767
X0413154Y0126467
X04092Y0333113
X04038Y03454
X0368354Y0333967
X03701Y03229
X03536Y03493
X0355Y03705
X0354854Y0401367
X0386053Y0402367
X0324453Y0417167
X0309172Y0420421
X0307053Y0381632
X0327053Y0384267
X0309854Y0344567
X0279654Y0344767
X0277718Y0331567
X0276153Y03165
X0279453Y0304567
X0281254Y0282567
X0257053Y0274367
X0246453Y0269767
X0253654Y0322667
X0265353Y0323567
X0253153Y0339067
X0247354Y0344767
X0240154Y0415967
X0323153Y0327067
X0315454Y027826
X033386Y028076
X0346253Y0289467
X02298Y02662
X0199153Y0267101
X0188354Y0274067
X01793Y02807
X01782Y0295
X01757Y02989
X0165553Y03068
X01464Y0299267
X0137854Y0301767
X0134Y0308867
X01317Y03229
X0135953Y0352967
X0148153Y0348567
X0156173Y0363507
X0137753Y0377967
X01352Y03832
X0137144Y0389761
X0143901Y0387261
X01411Y03984
X01347Y04008
X0126953Y0398367
X0105353Y0396367
X010219Y0403867
X00956Y039827
X00981Y03788
X0083754Y03801
X0091453Y0367091
X0085453Y0352667
X0082954Y03298
X0083153Y0307467
X0088243Y0305256
X0087154Y0295267
X0094653Y0289967
X0104028Y0293028
X0105833Y0301646
X01186Y02963
X0118186Y02831
X01291Y02881
X01397Y0283
X01447Y0283832
X0150614Y0280512
X01475Y0275531
X01416Y02775
X01358Y0275367
X016358Y0279567
X0172153Y0265467
X01937Y03036
X0196054Y0324767
X0199153Y0337967
X0233053Y0336967
X0234353Y0375267
X01914Y0368867
X0186854Y0394391
X0181853Y0393467
X0168929Y0393667
X0171678Y0387978
X0171429Y0401767
X0176054Y0408167
X0178753Y0418167
X0184353Y0415667
X0186854Y0412247
Y0403467
X01921Y04079
X01951Y04112
X0198453Y0408867
X0200954Y0401034
X01939Y03981
X0148489Y0401667
X0147Y0410675
X01138Y04118
X01115Y04137
X0107137Y0411777
X0124354Y0373967
X00997Y02806
X0092154Y0269367
X00407Y02678
X0052254Y0282967
X0053254Y0302567
X00372Y02992
X0067853Y0314567
X0077953Y0319467
X0059053Y0336067
X0050854Y0367267
X0043354Y0371467
X0048353Y03788
X0050753Y0404767
X0064354Y0404567
X0061853Y0400967
X0075454Y0413067
X0078754Y0372567
X0067853Y0366967
X00269Y03449
X0029553Y0509667
X00517Y0506967
X00603Y0519567
X0045853Y0523046
X0076153Y0537067
X00706Y05507
X01178Y053912
X0126253Y0538967
X0131154Y0521667
X0144087Y0493967
X0139854Y0476667
X0138927Y0462467
X0136153Y0456367
X013619Y0443667
X01424Y04428
X01307Y0441
X0136895Y0431467
X0138927Y0426467
X0134527Y0425767
X01481Y04259
X0150738Y0429567
X0158088Y04234
X0169653Y0428667
X0171254Y0441267
X0171153Y0450467
X0176253Y0451367
X0182853Y0470467
X0185453Y0485067
X0187953Y0492167
X02041Y04904
X02082Y05021
X02133Y05034
X02319Y05043
X0227254Y0497467
X0230219Y0517946
X02293Y05444
X02108Y05418
X02132Y0537767
X0187854Y0519567
X0170833Y0505767
X0165053Y0507267
X0165454Y0497467
X0168654Y0482567
X0163985Y0479167
X0201354Y0476667
X0207252Y0461352
X0229753Y0463167
X02317Y04709
X02253Y04446
X0233353Y04383
X019995Y04343
X0204453Y0423567
X0111153Y04245
X0115162Y0429738
X0104479Y0427179
X0097654Y0440567
X0161854Y0554567
X0165753Y0558167
X0185962Y0559258
X0249308Y0546292
X0251Y05346
X0256464Y0529457
X02744Y05231
X0288053Y05224
X02879Y0515
X02884Y051
X0287783Y0506017
X02916Y0495533
X0296654Y0493033
X0289Y04867
X0282854Y0487667
X02915Y04748
X02898Y04711
X02876Y04676
X02892Y04515
X0290754Y0430267
X0276354Y0430967
X0251853Y0433467
X02427Y04234
X0247453Y0462467
X0266354Y0455267
X02648Y04826
X0256633Y0484567
X0258854Y0494667
X0236353Y0520667
X0305353Y0509667
Y0484667
X03094Y05363
X0319953Y0576567
X03408Y0456867
X0368953Y0449467
X0321867Y0432667
X0348067Y06041
X03448Y0607785
X03532Y06061
X02769Y06196
X0234554Y0624967
X0235151Y0597067
X0169604Y0622167
X008008Y0626167
X00782Y06137
X0037367Y0593054
T02
X0386757Y02251
X0406442
X04292Y02267
X0448885
X0370782Y027826
X0360782
X0350782
T03
X04455Y0017
Y0027
Y0037
Y0047
Y0057
Y0067
Y0077
Y0087
X03555
Y0077
Y0067
Y0057
Y0047
Y0037
Y0027
Y0017
X00405Y00223
Y0093164
X00455Y01903
X00555
Y02003
X00455
X0031Y02098
Y02198
X0021
Y02298
Y02398
Y02498
Y02598
X0031
Y02498
Y02398
Y02298
X0021Y02098
X00885Y01473
X0211Y02098
X0221
Y02198
Y02298
Y02398
X0211
Y02498
Y02598
X0221
Y02498
X0211Y02298
Y02198
Y02698
Y02798
Y02898
Y02998
X0221
Y02898
Y02798
Y02698
Y03098
Y03198
Y03298
Y03398
X0211
Y03498
X0221
Y03598
Y03698
Y03798
Y03898
Y03998
Y04098
Y04198
X0211
Y04098
Y03998
Y03898
Y03798
Y03698
Y03598
Y03298
Y03198
Y03098
X00435
Y03198
Y03298
Y03398
Y03498
X0031
X0021
Y03398
Y03298
Y03198
Y03098
Y02998
Y02898
Y02798
Y02698
X0031
Y02798
Y02898
Y02998
Y03098
Y03198
Y03298
Y03398
Y03598
X0021
Y03698
Y03798
Y03898
Y03998
Y04098
Y04198
X0031
Y04098
Y03998
Y03898
Y03798
Y03698
X0056Y03648
X00435Y02998
X0031Y04298
X0021
X0211
X0221
T04
X02522Y01583
X02622
X02722
X02822
X02922
X03022
X03122
X03992Y03528
X04092
X04192
X04292
Y03628
X04192
X04092
X03992
X03892
X03792
Y03528
X03892
X03692
Y03628
X03592
Y03528
X03492
Y03628
X03392
Y03528
X0302464Y03728
X0292464
X0282464
X0272464
X0262464
X0252464
T05
X014234Y057801
X0153246
X0164151
X0175057
X0185962
X0196868
X0207773
X0218679
X0213226Y058919
X0202321
X0191415
X0180509
X0169604
X0158698
X0147793
T06
X02524Y00714
Y00814
Y00914
Y01014
X02277Y01052
Y00952
Y00852
Y01152
X00342Y04947
Y05047
Y05147
Y05247
Y05347
Y05447
X0093Y0543
Y0533
Y0523
Y0513
Y0503
X01547Y05019
Y05119
Y05219
Y05319
Y05419
X03316Y05424
Y05324
Y05224
Y05124
Y05024
Y04924
Y04824
Y04724
Y04624
Y04524
Y04424
Y04324
X03365Y05716
X03153
Y05816
Y05916
Y06016
Y06116
X03365
Y06016
Y05916
Y05816
T07
X02387Y00143
X02487
Y00243
X02387
X02287
Y00143
X02187
X02087
X01987
Y00243
X02087
X02187
T08
X03496Y02103
X0369893Y0216094
X0361Y02291
X0379487Y0263113
X04178Y02171
X04456Y03574
X04431Y04432
T09
X02641Y06013
X02741
X02844Y06012
X02944
X00971Y06007
X00871
X00772Y06008
X00672
T10
X03091Y0017396
Y00359
Y0054404
T11
X0394935Y0405846
X0411471
X0428006
X0444542
X03784
Y04275
X03949
X04114
X04279
X04444
T12
X03784Y045624
X0444542
T13
X0026Y01898
X0216
X00385Y04498
X02035
T14
X02461Y05836
X0114919
M30
