G04*
G04 #@! TF.GenerationSoftware,Altium Limited,Altium Designer,24.1.2 (44)*
G04*
G04 Layer_Color=32768*
%FSLAX44Y44*%
%MOMM*%
G71*
G04*
G04 #@! TF.SameCoordinates,9E3D1DA3-FC52-4BB6-AAC9-55B28770B0AD*
G04*
G04*
G04 #@! TF.FilePolarity,Positive*
G04*
G01*
G75*
%ADD17C,0.1000*%
%ADD142C,0.0500*%
D17*
X255778Y934492D02*
Y944092D01*
X250978Y939292D02*
X260578D01*
X340360Y719354D02*
Y728954D01*
X335560Y724154D02*
X345160D01*
X322508Y938878D02*
X332508D01*
X327508Y933878D02*
Y943878D01*
X179858Y1010920D02*
X189458D01*
X184658Y1006120D02*
Y1015720D01*
X708990Y318262D02*
X718490D01*
X713740Y313512D02*
Y323012D01*
X261700Y133858D02*
X271700D01*
X266700Y128858D02*
Y138858D01*
X716026Y1022264D02*
Y1031764D01*
X711276Y1027014D02*
X720776D01*
X78004Y1506474D02*
X87604D01*
X82804Y1501674D02*
Y1511274D01*
X301752Y714274D02*
Y723874D01*
X296952Y719074D02*
X306552D01*
X458042Y626618D02*
X468042D01*
X463042Y621618D02*
Y631618D01*
X909908Y582676D02*
X919908D01*
X914908Y577676D02*
Y587676D01*
X112848Y566420D02*
X121848D01*
X117348Y561920D02*
Y570920D01*
X675920Y1378204D02*
X685520D01*
X680720Y1373404D02*
Y1383004D01*
X676428Y1287526D02*
X686028D01*
X681228Y1282726D02*
Y1292326D01*
X732068Y1574800D02*
X737068D01*
X734568Y1572300D02*
Y1577300D01*
X1052856Y319532D02*
X1062456D01*
X1057656Y314732D02*
Y324332D01*
X907568Y439166D02*
X917168D01*
X912368Y434366D02*
Y443966D01*
X278918Y1312926D02*
X288518D01*
X283718Y1308126D02*
Y1317726D01*
X126518Y1308712D02*
X136118D01*
X131318Y1303912D02*
Y1313512D01*
X468506Y711962D02*
X478106D01*
X473306Y707162D02*
Y716762D01*
X478612Y787400D02*
X488112D01*
X483362Y782650D02*
Y792150D01*
X183134Y1567220D02*
Y1572220D01*
X180634Y1569720D02*
X185634D01*
X230672Y1568196D02*
X235672D01*
X233172Y1565696D02*
Y1570696D01*
X683260Y1570014D02*
Y1575014D01*
X680760Y1572514D02*
X685760D01*
X970868Y908812D02*
X980868D01*
X975868Y903812D02*
Y913812D01*
X390144Y738200D02*
Y747700D01*
X385394Y742950D02*
X394894D01*
X270107Y586004D02*
Y595603D01*
X265306Y590804D02*
X274907D01*
X858982Y724840D02*
Y734440D01*
X854182Y729640D02*
X863782D01*
X400558Y1101012D02*
Y1110612D01*
X395758Y1105812D02*
X405358D01*
X708329Y1262380D02*
X717929D01*
X713129Y1257580D02*
Y1267179D01*
X673126Y1120648D02*
X682726D01*
X677926Y1115848D02*
Y1125448D01*
X764330Y1388364D02*
X769830D01*
X767080Y1385614D02*
Y1391114D01*
X702608Y1388364D02*
X708108D01*
X705358Y1385614D02*
Y1391114D01*
X673126Y1203198D02*
X682726D01*
X677926Y1198398D02*
Y1207998D01*
X691388Y1151662D02*
Y1161262D01*
X686588Y1156462D02*
X696188D01*
X1115167Y570818D02*
Y580818D01*
X1110168Y575818D02*
X1120168D01*
X1007364Y566754D02*
Y576754D01*
X1002364Y571754D02*
X1012364D01*
X925480Y359082D02*
Y500982D01*
Y359082D02*
X1075430D01*
Y500982D01*
X925480D02*
X1075430D01*
X78312Y1559814D02*
X88312D01*
X83312Y1554814D02*
Y1564814D01*
X335288Y1380360D02*
Y1389860D01*
X330538Y1385110D02*
X340038D01*
X317000Y1380360D02*
Y1389860D01*
X312250Y1385110D02*
X321750D01*
X349326Y1388110D02*
X358826D01*
X354076Y1383360D02*
Y1392860D01*
X158834Y1381252D02*
X168334D01*
X163584Y1376502D02*
Y1386002D01*
X174582Y1381252D02*
X184082D01*
X179332Y1376502D02*
Y1386002D01*
X195580Y1379502D02*
Y1389002D01*
X190830Y1384252D02*
X200330D01*
X148336Y1379502D02*
Y1389002D01*
X143586Y1384252D02*
X153086D01*
X294462Y1388110D02*
X303962D01*
X299212Y1383360D02*
Y1392860D01*
X1116076Y337392D02*
Y347392D01*
X1111076Y342392D02*
X1121076D01*
X491062Y289560D02*
X501062D01*
X496062Y284560D02*
Y294560D01*
X489788Y201676D02*
X499288D01*
X494538Y196926D02*
Y206426D01*
X489788Y220980D02*
X499288D01*
X494538Y216230D02*
Y225730D01*
X1123696Y430740D02*
Y440740D01*
X1118696Y435740D02*
X1128696D01*
D142*
X1166168Y575818D02*
G03*
X1166168Y575818I-51000J0D01*
G01*
X1058364Y571754D02*
G03*
X1058364Y571754I-51000J0D01*
G01*
X249778Y927792D02*
X261778D01*
X249778Y950792D02*
X261778D01*
X249778Y927792D02*
Y950792D01*
X261778Y927792D02*
Y950792D01*
X334360Y735654D02*
X346360D01*
X334360Y712654D02*
X346360D01*
Y735654D01*
X334360Y712654D02*
Y735654D01*
X348008Y914878D02*
Y962878D01*
X307008Y914878D02*
Y962878D01*
X348008D01*
X307008Y914878D02*
X348008D01*
X196158Y1004920D02*
Y1016920D01*
X173158Y1004920D02*
Y1016920D01*
Y1004920D02*
X196158D01*
X173158Y1016920D02*
X196158D01*
X707740Y307762D02*
Y328762D01*
X719740Y307762D02*
Y328762D01*
X707740Y307762D02*
X719740D01*
X707740Y328762D02*
X719740D01*
X94750Y37608D02*
X438650D01*
Y230108D01*
X94750D02*
X438650D01*
X94750Y37608D02*
Y230108D01*
X710026Y1037514D02*
X722026D01*
X710026Y1016514D02*
X722026D01*
Y1037514D01*
X710026Y1016514D02*
Y1037514D01*
X76804Y1494974D02*
Y1517974D01*
X88804Y1494974D02*
Y1517974D01*
X76804Y1494974D02*
X88804D01*
X76804Y1517974D02*
X88804D01*
X290252Y725074D02*
X313252D01*
X290252Y713074D02*
X313252D01*
X290252D02*
Y725074D01*
X313252Y713074D02*
Y725074D01*
X434102Y605618D02*
Y647618D01*
X491982Y605618D02*
Y647618D01*
X434102D02*
X491982D01*
X434102Y605618D02*
X491982D01*
X935908Y553736D02*
Y611616D01*
X893908Y553736D02*
Y611616D01*
X935908D01*
X893908Y553736D02*
X935908D01*
X133848Y556420D02*
Y576420D01*
X100848Y556420D02*
Y576420D01*
Y556420D02*
X133848D01*
X100848Y576420D02*
X133848D01*
X674720Y1366704D02*
Y1389704D01*
X686720Y1366704D02*
Y1389704D01*
X674720Y1366704D02*
X686720D01*
X674720Y1389704D02*
X686720D01*
X675228Y1276026D02*
Y1299026D01*
X687228Y1276026D02*
Y1299026D01*
X675228Y1276026D02*
X687228D01*
X675228Y1299026D02*
X687228D01*
X722068Y1569800D02*
Y1579800D01*
X747068D01*
X722068Y1569800D02*
X747068D01*
Y1579800D01*
X1051656Y308032D02*
Y331032D01*
X1063656Y308032D02*
Y331032D01*
X1051656Y308032D02*
X1063656D01*
X1051656Y331032D02*
X1063656D01*
X918368Y427666D02*
Y450666D01*
X906368Y427666D02*
Y450666D01*
X918368D01*
X906368Y427666D02*
X918368D01*
X277718Y1301426D02*
Y1324426D01*
X289718Y1301426D02*
Y1324426D01*
X277718Y1301426D02*
X289718D01*
X277718Y1324426D02*
X289718D01*
X125318Y1297212D02*
Y1320212D01*
X137318Y1297212D02*
Y1320212D01*
X125318Y1297212D02*
X137318D01*
X125318Y1320212D02*
X137318D01*
X461806Y705962D02*
Y717962D01*
X484806Y705962D02*
Y717962D01*
X461806D02*
X484806D01*
X461806Y705962D02*
X484806D01*
X468362Y779900D02*
Y794900D01*
X498362Y779900D02*
Y794900D01*
X468362D02*
X498362D01*
X468362Y779900D02*
X498362D01*
X170634Y1564720D02*
Y1574720D01*
X195634D01*
X170634Y1564720D02*
X195634D01*
Y1574720D01*
X220672Y1563196D02*
Y1573196D01*
X245672D01*
X220672Y1563196D02*
X245672D01*
Y1573196D01*
X695760Y1567514D02*
Y1577514D01*
X670760Y1567514D02*
X695760D01*
X670760Y1577514D02*
X695760D01*
X670760Y1567514D02*
Y1577514D01*
X845368Y934812D02*
X1106368D01*
X845368Y882812D02*
Y934812D01*
Y882812D02*
X1106368D01*
Y934812D01*
X375144Y750450D02*
X405144D01*
X375144Y735450D02*
X405144D01*
X375144D02*
Y750450D01*
X405144Y735450D02*
Y750450D01*
X258606Y596804D02*
X281607D01*
X258606Y584804D02*
X281607D01*
X258606D02*
Y596804D01*
X281607Y584804D02*
Y596804D01*
X852982Y741140D02*
X864982D01*
X852982Y718140D02*
X864982D01*
Y741140D01*
X852982Y718140D02*
Y741140D01*
X394558Y1094312D02*
X406558D01*
X394558Y1117312D02*
X406558D01*
X394558Y1094312D02*
Y1117312D01*
X406558Y1094312D02*
Y1117312D01*
X724628Y1256380D02*
Y1268380D01*
X701629Y1256380D02*
Y1268380D01*
Y1256380D02*
X724628D01*
X701629Y1268380D02*
X724628D01*
X671926Y1109148D02*
Y1132148D01*
X683926Y1109148D02*
Y1132148D01*
X671926Y1109148D02*
X683926D01*
X671926Y1132148D02*
X683926D01*
X771080Y1380364D02*
Y1396364D01*
X763080Y1380364D02*
Y1396364D01*
X771080D01*
X763080Y1380364D02*
X771080D01*
X701358D02*
Y1396364D01*
X709358Y1380364D02*
Y1396364D01*
X701358Y1380364D02*
X709358D01*
X701358Y1396364D02*
X709358D01*
X671926Y1191698D02*
Y1214698D01*
X683926Y1191698D02*
Y1214698D01*
X671926Y1191698D02*
X683926D01*
X671926Y1214698D02*
X683926D01*
X685388Y1144962D02*
X697388D01*
X685388Y1167962D02*
X697388D01*
X685388Y1144962D02*
Y1167962D01*
X697388Y1144962D02*
Y1167962D01*
X329288Y1395610D02*
X341288D01*
X329288Y1374610D02*
X341288D01*
Y1395610D01*
X329288Y1374610D02*
Y1395610D01*
X311000D02*
X323000D01*
X311000Y1374610D02*
X323000D01*
Y1395610D01*
X311000Y1374610D02*
Y1395610D01*
X361576Y1373110D02*
Y1403110D01*
X346576Y1373110D02*
Y1403110D01*
X361576D01*
X346576Y1373110D02*
X361576D01*
X169584Y1370752D02*
Y1391752D01*
X157584Y1370752D02*
Y1391752D01*
X169584D01*
X157584Y1370752D02*
X169584D01*
X185332D02*
Y1391752D01*
X173332Y1370752D02*
Y1391752D01*
X185332D01*
X173332Y1370752D02*
X185332D01*
X188080Y1399252D02*
X203080D01*
X188080Y1369252D02*
X203080D01*
Y1399252D01*
X188080Y1369252D02*
Y1399252D01*
X140836D02*
X155836D01*
X140836Y1369252D02*
X155836D01*
Y1399252D01*
X140836Y1369252D02*
Y1399252D01*
X306712Y1373110D02*
Y1403110D01*
X291712Y1373110D02*
Y1403110D01*
X306712D01*
X291712Y1373110D02*
X306712D01*
X1082181Y363392D02*
X1149971D01*
X1082181Y321392D02*
X1149971D01*
X1082181D02*
Y363392D01*
X1149971Y321392D02*
Y363392D01*
X466062Y247560D02*
Y331560D01*
X526062Y247560D02*
Y331560D01*
X466062Y247560D02*
X526062D01*
X466062Y331560D02*
X526062D01*
X509538Y194176D02*
Y209176D01*
X479538Y194176D02*
Y209176D01*
Y194176D02*
X509538D01*
X479538Y209176D02*
X509538D01*
Y213480D02*
Y228480D01*
X479538Y213480D02*
Y228480D01*
Y213480D02*
X509538D01*
X479538Y228480D02*
X509538D01*
X1085446Y372740D02*
X1161946D01*
X1085446Y498740D02*
X1161946D01*
X1085446Y372740D02*
Y498740D01*
X1161946Y372740D02*
Y498740D01*
M02*
